<svg width="323" height="174" viewBox="0 0 323 174" fill="none" xmlns="http://www.w3.org/2000/svg">
<rect x="6" y="2" width="297" height="170" fill="#13171A"/>
<path fill-rule="evenodd" clip-rule="evenodd" d="M27 2L27.1931 2.64367C28.1972 5.99066 29.93 11.0146 31.8681 15.2097C32.836 17.3046 33.865 19.2148 34.8912 20.6089C35.404 21.3055 35.9294 21.8916 36.4611 22.3078C36.9894 22.7213 37.5665 23 38.172 23H94.672C95.2775 23 95.8547 22.7213 96.3829 22.3078C96.9147 21.8916 97.44 21.3055 97.9528 20.6089C98.9791 19.2148 100.008 17.3046 100.976 15.2097C102.914 11.0146 104.647 5.99066 105.651 2.64367L105.844 2H27Z" fill="#272D32"/>
<path fill-rule="evenodd" clip-rule="evenodd" d="M218 2L218.193 2.64367C219.197 5.99066 220.93 11.0146 222.868 15.2097C223.836 17.3046 224.865 19.2148 225.891 20.6089C226.404 21.3055 226.929 21.8916 227.461 22.3078C227.989 22.7213 228.567 23 229.172 23H285.672C286.277 23 286.855 22.7213 287.383 22.3078C287.915 21.8916 288.44 21.3055 288.953 20.6089C289.979 19.2148 291.008 17.3046 291.976 15.2097C293.914 11.0146 295.647 5.99066 296.651 2.64367L296.844 2H218Z" fill="#272D32"/>
<path fill-rule="evenodd" clip-rule="evenodd" d="M27 172L27.1931 171.356C28.1972 168.009 29.93 162.985 31.8681 158.79C32.836 156.695 33.865 154.785 34.8912 153.391C35.404 152.695 35.9294 152.108 36.4611 151.692C36.9894 151.279 37.5665 151 38.172 151H94.672C95.2775 151 95.8547 151.279 96.3829 151.692C96.9147 152.108 97.44 152.695 97.9528 153.391C98.9791 154.785 100.008 156.695 100.976 158.79C102.914 162.985 104.647 168.009 105.651 171.356L105.844 172H27Z" fill="#272D32"/>
<path fill-rule="evenodd" clip-rule="evenodd" d="M218 172L218.193 171.356C219.197 168.009 220.93 162.985 222.868 158.79C223.836 156.695 224.865 154.785 225.891 153.391C226.404 152.695 226.929 152.108 227.461 151.692C227.989 151.279 228.567 151 229.172 151H285.672C286.277 151 286.855 151.279 287.383 151.692C287.915 152.108 288.44 152.695 288.953 153.391C289.979 154.785 291.008 156.695 291.976 158.79C293.914 162.985 295.647 168.009 296.651 171.356L296.844 172H218Z" fill="#272D32"/>
<rect x="13" y="86" width="297" height="3" fill="#22282A"/>
<circle cx="162" cy="131" r="6" fill="#1E1E1E"/>
<circle cx="162" cy="44" r="6" fill="#1E1E1E"/>
<rect x="307" y="33" width="16" height="22" rx="4" fill="#D0B143"/>
<rect x="307" y="119" width="16" height="22" rx="4" fill="#D0B143"/>
<path fill-rule="evenodd" clip-rule="evenodd" d="M299 147.393V148C299 150.209 300.791 152 303 152C305.209 152 307 150.209 307 148V111V109H305V111V115.911V148C305 149.105 304.105 150 303 150C301.895 150 301 149.105 301 148V147.393V145.393V118.214V117.607C301 115.398 299.209 113.607 297 113.607C294.791 113.607 293 115.398 293 117.607V118.982V142.786V143.393C293 144.497 292.105 145.393 291 145.393C289.895 145.393 289 144.497 289 143.393V118.982V117H287V143.393C287 145.602 288.791 147.393 291 147.393C293.209 147.393 295 145.602 295 143.393V142.786V118.982V117.607C295 116.503 295.895 115.607 297 115.607C298.105 115.607 299 116.503 299 117.607V118.214V142.786V145.393V147.393Z" fill="#BFC8D3"/>
<path fill-rule="evenodd" clip-rule="evenodd" d="M28 27.6069V27C28 24.7909 29.7909 23 32 23C34.2091 23 36 24.7909 36 27V64V66H34V64V59.0892V27C34 25.8954 33.1046 25 32 25C30.8954 25 30 25.8954 30 27V27.6069V29.6069V56.7858V57.3926C30 59.6017 28.2091 61.3926 26 61.3926C23.7909 61.3926 22 59.6017 22 57.3926V56.0179V32.214V31.6071C22 30.5025 21.1046 29.6071 20 29.6071C18.8954 29.6071 18 30.5025 18 31.6071V56.0179V58H16V31.6071C16 29.398 17.7909 27.6071 20 27.6071C22.2091 27.6071 24 29.398 24 31.6071V32.214V56.0179V57.3926C24 58.4971 24.8954 59.3926 26 59.3926C27.1046 59.3926 28 58.4971 28 57.3926V56.7858V32.214V29.6069V27.6069Z" fill="#BFC8D3"/>
<path d="M320 167C320 170.866 316.866 174 313 174H312C310.895 174 310 173.105 310 172V2C310 0.895432 310.895 0 312 0H313C316.866 0 320 3.134 320 7V167Z" fill="#3E3C3D"/>
<rect x="13" y="48" width="2" height="85.0146" fill="#BFC8D3"/>
<rect x="16" y="141" width="16" height="22" rx="4" transform="rotate(180 16 141)" fill="#D0B143"/>
<rect x="16" y="55" width="16" height="22" rx="4" transform="rotate(180 16 55)" fill="#D0B143"/>
<path d="M3 7C3 3.134 6.13401 0 10 0H11C12.1046 0 13 0.895431 13 2V172C13 173.105 12.1046 174 11 174H10C6.13401 174 3 170.866 3 167V7Z" fill="#3E3C3D"/>
</svg>
