<svg width="945" height="244" viewBox="0 0 945 244" fill="none" xmlns="http://www.w3.org/2000/svg">
<rect x="945" y="244" width="945" height="9.95816" transform="rotate(-180 945 244)" fill="url(#paint0_linear_397_50)"/>
<rect width="945" height="239" fill="#D9D9D9"/>
<path d="M18 49H25V56H18V49Z" fill="#303030"/>
<path d="M32 49H39V56H32V49Z" fill="#303030"/>
<path d="M46 49H53V56H46V49Z" fill="#303030"/>
<path d="M60 49H67V56H60V49Z" fill="#303030"/>
<path d="M74 49H81V56H74V49Z" fill="#303030"/>
<path d="M88 49H95V56H88V49Z" fill="#303030"/>
<path d="M102 49H109V56H102V49Z" fill="#303030"/>
<path d="M116 49H123V56H116V49Z" fill="#303030"/>
<path d="M130 49H137V56H130V49Z" fill="#303030"/>
<path d="M144 49H151V56H144V49Z" fill="#303030"/>
<path d="M158 49H165V56H158V49Z" fill="#303030"/>
<path d="M172 49H179V56H172V49Z" fill="#303030"/>
<path d="M186 49H193V56H186V49Z" fill="#303030"/>
<path d="M200 49H207V56H200V49Z" fill="#303030"/>
<path d="M214 49H221V56H214V49Z" fill="#303030"/>
<path d="M228 49H235V56H228V49Z" fill="#303030"/>
<path d="M242 49H249V56H242V49Z" fill="#303030"/>
<path d="M256 49H263V56H256V49Z" fill="#303030"/>
<path d="M270 49H277V56H270V49Z" fill="#303030"/>
<path d="M284 49H291V56H284V49Z" fill="#303030"/>
<path d="M298 49H305V56H298V49Z" fill="#303030"/>
<path d="M312 49H319V56H312V49Z" fill="#303030"/>
<path d="M326 49H333V56H326V49Z" fill="#303030"/>
<path d="M340 49H347V56H340V49Z" fill="#303030"/>
<path d="M354 49H361V56H354V49Z" fill="#303030"/>
<path d="M368 49H375V56H368V49Z" fill="#303030"/>
<path d="M382 49H389V56H382V49Z" fill="#303030"/>
<path d="M396 49H403V56H396V49Z" fill="#303030"/>
<path d="M410 49H417V56H410V49Z" fill="#303030"/>
<path d="M424 49H431V56H424V49Z" fill="#303030"/>
<path d="M438 49H445V56H438V49Z" fill="#303030"/>
<path d="M452 49H459V56H452V49Z" fill="#303030"/>
<path d="M466 49H473V56H466V49Z" fill="#303030"/>
<path d="M480 49H487V56H480V49Z" fill="#303030"/>
<path d="M494 49H501V56H494V49Z" fill="#303030"/>
<path d="M508 49H515V56H508V49Z" fill="#303030"/>
<path d="M522 49H529V56H522V49Z" fill="#303030"/>
<path d="M536 49H543V56H536V49Z" fill="#303030"/>
<path d="M550 49H557V56H550V49Z" fill="#303030"/>
<path d="M564 49H571V56H564V49Z" fill="#303030"/>
<path d="M578 49H585V56H578V49Z" fill="#303030"/>
<path d="M592 49H599V56H592V49Z" fill="#303030"/>
<path d="M606 49H613V56H606V49Z" fill="#303030"/>
<path d="M620 49H627V56H620V49Z" fill="#303030"/>
<path d="M634 49H641V56H634V49Z" fill="#303030"/>
<path d="M648 49H655V56H648V49Z" fill="#303030"/>
<path d="M662 49H669V56H662V49Z" fill="#303030"/>
<path d="M676 49H683V56H676V49Z" fill="#303030"/>
<path d="M690 49H697V56H690V49Z" fill="#303030"/>
<path d="M704 49H711V56H704V49Z" fill="#303030"/>
<path d="M718 49H725V56H718V49Z" fill="#303030"/>
<path d="M732 49H739V56H732V49Z" fill="#303030"/>
<path d="M746 49H753V56H746V49Z" fill="#303030"/>
<path d="M760 49H767V56H760V49Z" fill="#303030"/>
<path d="M774 49H781V56H774V49Z" fill="#303030"/>
<path d="M788 49H795V56H788V49Z" fill="#303030"/>
<path d="M802 49H809V56H802V49Z" fill="#303030"/>
<path d="M816 49H823V56H816V49Z" fill="#303030"/>
<path d="M830 49H837V56H830V49Z" fill="#303030"/>
<path d="M844 49H851V56H844V49Z" fill="#303030"/>
<path d="M858 49H865V56H858V49Z" fill="#303030"/>
<path d="M872 49H879V56H872V49Z" fill="#303030"/>
<path d="M886 49H893V56H886V49Z" fill="#303030"/>
<path d="M900 49H907V56H900V49Z" fill="#303030"/>
<path d="M914 49H921V56H914V49Z" fill="#303030"/>
<path d="M18 60H25V67H18V60Z" fill="#303030"/>
<path d="M32 60H39V67H32V60Z" fill="#303030"/>
<path d="M46 60H53V67H46V60Z" fill="#303030"/>
<path d="M60 60H67V67H60V60Z" fill="#303030"/>
<path d="M74 60H81V67H74V60Z" fill="#303030"/>
<path d="M88 60H95V67H88V60Z" fill="#303030"/>
<path d="M102 60H109V67H102V60Z" fill="#303030"/>
<path d="M116 60H123V67H116V60Z" fill="#303030"/>
<path d="M130 60H137V67H130V60Z" fill="#303030"/>
<path d="M144 60H151V67H144V60Z" fill="#303030"/>
<path d="M158 60H165V67H158V60Z" fill="#303030"/>
<path d="M172 60H179V67H172V60Z" fill="#303030"/>
<path d="M186 60H193V67H186V60Z" fill="#303030"/>
<path d="M200 60H207V67H200V60Z" fill="#303030"/>
<path d="M214 60H221V67H214V60Z" fill="#303030"/>
<path d="M228 60H235V67H228V60Z" fill="#303030"/>
<path d="M242 60H249V67H242V60Z" fill="#303030"/>
<path d="M256 60H263V67H256V60Z" fill="#303030"/>
<path d="M270 60H277V67H270V60Z" fill="#303030"/>
<path d="M284 60H291V67H284V60Z" fill="#303030"/>
<path d="M298 60H305V67H298V60Z" fill="#303030"/>
<path d="M312 60H319V67H312V60Z" fill="#303030"/>
<path d="M326 60H333V67H326V60Z" fill="#303030"/>
<path d="M340 60H347V67H340V60Z" fill="#303030"/>
<path d="M354 60H361V67H354V60Z" fill="#303030"/>
<path d="M368 60H375V67H368V60Z" fill="#303030"/>
<path d="M382 60H389V67H382V60Z" fill="#303030"/>
<path d="M396 60H403V67H396V60Z" fill="#303030"/>
<path d="M410 60H417V67H410V60Z" fill="#303030"/>
<path d="M424 60H431V67H424V60Z" fill="#303030"/>
<path d="M438 60H445V67H438V60Z" fill="#303030"/>
<path d="M452 60H459V67H452V60Z" fill="#303030"/>
<path d="M466 60H473V67H466V60Z" fill="#303030"/>
<path d="M480 60H487V67H480V60Z" fill="#303030"/>
<path d="M494 60H501V67H494V60Z" fill="#303030"/>
<path d="M508 60H515V67H508V60Z" fill="#303030"/>
<path d="M522 60H529V67H522V60Z" fill="#303030"/>
<path d="M536 60H543V67H536V60Z" fill="#303030"/>
<path d="M550 60H557V67H550V60Z" fill="#303030"/>
<path d="M564 60H571V67H564V60Z" fill="#303030"/>
<path d="M578 60H585V67H578V60Z" fill="#303030"/>
<path d="M592 60H599V67H592V60Z" fill="#303030"/>
<path d="M606 60H613V67H606V60Z" fill="#303030"/>
<path d="M620 60H627V67H620V60Z" fill="#303030"/>
<path d="M634 60H641V67H634V60Z" fill="#303030"/>
<path d="M648 60H655V67H648V60Z" fill="#303030"/>
<path d="M662 60H669V67H662V60Z" fill="#303030"/>
<path d="M676 60H683V67H676V60Z" fill="#303030"/>
<path d="M690 60H697V67H690V60Z" fill="#303030"/>
<path d="M704 60H711V67H704V60Z" fill="#303030"/>
<path d="M718 60H725V67H718V60Z" fill="#303030"/>
<path d="M732 60H739V67H732V60Z" fill="#303030"/>
<path d="M746 60H753V67H746V60Z" fill="#303030"/>
<path d="M760 60H767V67H760V60Z" fill="#303030"/>
<path d="M774 60H781V67H774V60Z" fill="#303030"/>
<path d="M788 60H795V67H788V60Z" fill="#303030"/>
<path d="M802 60H809V67H802V60Z" fill="#303030"/>
<path d="M816 60H823V67H816V60Z" fill="#303030"/>
<path d="M830 60H837V67H830V60Z" fill="#303030"/>
<path d="M844 60H851V67H844V60Z" fill="#303030"/>
<path d="M858 60H865V67H858V60Z" fill="#303030"/>
<path d="M872 60H879V67H872V60Z" fill="#303030"/>
<path d="M886 60H893V67H886V60Z" fill="#303030"/>
<path d="M900 60H907V67H900V60Z" fill="#303030"/>
<path d="M914 60H921V67H914V60Z" fill="#303030"/>
<path d="M18 71H25V78H18V71Z" fill="#303030"/>
<path d="M32 71H39V78H32V71Z" fill="#303030"/>
<path d="M46 71H53V78H46V71Z" fill="#303030"/>
<path d="M60 71H67V78H60V71Z" fill="#303030"/>
<path d="M74 71H81V78H74V71Z" fill="#303030"/>
<path d="M88 71H95V78H88V71Z" fill="#303030"/>
<path d="M102 71H109V78H102V71Z" fill="#303030"/>
<path d="M116 71H123V78H116V71Z" fill="#303030"/>
<path d="M130 71H137V78H130V71Z" fill="#303030"/>
<path d="M144 71H151V78H144V71Z" fill="#303030"/>
<path d="M158 71H165V78H158V71Z" fill="#303030"/>
<path d="M172 71H179V78H172V71Z" fill="#303030"/>
<path d="M186 71H193V78H186V71Z" fill="#303030"/>
<path d="M200 71H207V78H200V71Z" fill="#303030"/>
<path d="M214 71H221V78H214V71Z" fill="#303030"/>
<path d="M228 71H235V78H228V71Z" fill="#303030"/>
<path d="M242 71H249V78H242V71Z" fill="#303030"/>
<path d="M256 71H263V78H256V71Z" fill="#303030"/>
<path d="M270 71H277V78H270V71Z" fill="#303030"/>
<path d="M284 71H291V78H284V71Z" fill="#303030"/>
<path d="M298 71H305V78H298V71Z" fill="#303030"/>
<path d="M312 71H319V78H312V71Z" fill="#303030"/>
<path d="M326 71H333V78H326V71Z" fill="#303030"/>
<path d="M340 71H347V78H340V71Z" fill="#303030"/>
<path d="M354 71H361V78H354V71Z" fill="#303030"/>
<path d="M368 71H375V78H368V71Z" fill="#303030"/>
<path d="M382 71H389V78H382V71Z" fill="#303030"/>
<path d="M396 71H403V78H396V71Z" fill="#303030"/>
<path d="M410 71H417V78H410V71Z" fill="#303030"/>
<path d="M424 71H431V78H424V71Z" fill="#303030"/>
<path d="M438 71H445V78H438V71Z" fill="#303030"/>
<path d="M452 71H459V78H452V71Z" fill="#303030"/>
<path d="M466 71H473V78H466V71Z" fill="#303030"/>
<path d="M480 71H487V78H480V71Z" fill="#303030"/>
<path d="M494 71H501V78H494V71Z" fill="#303030"/>
<path d="M508 71H515V78H508V71Z" fill="#303030"/>
<path d="M522 71H529V78H522V71Z" fill="#303030"/>
<path d="M536 71H543V78H536V71Z" fill="#303030"/>
<path d="M550 71H557V78H550V71Z" fill="#303030"/>
<path d="M564 71H571V78H564V71Z" fill="#303030"/>
<path d="M578 71H585V78H578V71Z" fill="#303030"/>
<path d="M592 71H599V78H592V71Z" fill="#303030"/>
<path d="M606 71H613V78H606V71Z" fill="#303030"/>
<path d="M620 71H627V78H620V71Z" fill="#303030"/>
<path d="M634 71H641V78H634V71Z" fill="#303030"/>
<path d="M648 71H655V78H648V71Z" fill="#303030"/>
<path d="M662 71H669V78H662V71Z" fill="#303030"/>
<path d="M676 71H683V78H676V71Z" fill="#303030"/>
<path d="M690 71H697V78H690V71Z" fill="#303030"/>
<path d="M704 71H711V78H704V71Z" fill="#303030"/>
<path d="M718 71H725V78H718V71Z" fill="#303030"/>
<path d="M732 71H739V78H732V71Z" fill="#303030"/>
<path d="M746 71H753V78H746V71Z" fill="#303030"/>
<path d="M760 71H767V78H760V71Z" fill="#303030"/>
<path d="M774 71H781V78H774V71Z" fill="#303030"/>
<path d="M788 71H795V78H788V71Z" fill="#303030"/>
<path d="M802 71H809V78H802V71Z" fill="#303030"/>
<path d="M816 71H823V78H816V71Z" fill="#303030"/>
<path d="M830 71H837V78H830V71Z" fill="#303030"/>
<path d="M844 71H851V78H844V71Z" fill="#303030"/>
<path d="M858 71H865V78H858V71Z" fill="#303030"/>
<path d="M872 71H879V78H872V71Z" fill="#303030"/>
<path d="M886 71H893V78H886V71Z" fill="#303030"/>
<path d="M900 71H907V78H900V71Z" fill="#303030"/>
<path d="M914 71H921V78H914V71Z" fill="#303030"/>
<path d="M18 82H25V89H18V82Z" fill="#303030"/>
<path d="M32 82H39V89H32V82Z" fill="#303030"/>
<path d="M46 82H53V89H46V82Z" fill="#303030"/>
<path d="M60 82H67V89H60V82Z" fill="#303030"/>
<path d="M74 82H81V89H74V82Z" fill="#303030"/>
<path d="M88 82H95V89H88V82Z" fill="#303030"/>
<path d="M102 82H109V89H102V82Z" fill="#303030"/>
<path d="M116 82H123V89H116V82Z" fill="#303030"/>
<path d="M130 82H137V89H130V82Z" fill="#303030"/>
<path d="M144 82H151V89H144V82Z" fill="#303030"/>
<path d="M158 82H165V89H158V82Z" fill="#303030"/>
<path d="M172 82H179V89H172V82Z" fill="#303030"/>
<path d="M186 82H193V89H186V82Z" fill="#303030"/>
<path d="M200 82H207V89H200V82Z" fill="#303030"/>
<path d="M214 82H221V89H214V82Z" fill="#303030"/>
<path d="M228 82H235V89H228V82Z" fill="#303030"/>
<path d="M242 82H249V89H242V82Z" fill="#303030"/>
<path d="M256 82H263V89H256V82Z" fill="#303030"/>
<path d="M270 82H277V89H270V82Z" fill="#303030"/>
<path d="M284 82H291V89H284V82Z" fill="#303030"/>
<path d="M298 82H305V89H298V82Z" fill="#303030"/>
<path d="M312 82H319V89H312V82Z" fill="#303030"/>
<path d="M326 82H333V89H326V82Z" fill="#303030"/>
<path d="M340 82H347V89H340V82Z" fill="#303030"/>
<path d="M354 82H361V89H354V82Z" fill="#303030"/>
<path d="M368 82H375V89H368V82Z" fill="#303030"/>
<path d="M382 82H389V89H382V82Z" fill="#303030"/>
<path d="M396 82H403V89H396V82Z" fill="#303030"/>
<path d="M410 82H417V89H410V82Z" fill="#303030"/>
<path d="M424 82H431V89H424V82Z" fill="#303030"/>
<path d="M438 82H445V89H438V82Z" fill="#303030"/>
<path d="M452 82H459V89H452V82Z" fill="#303030"/>
<path d="M466 82H473V89H466V82Z" fill="#303030"/>
<path d="M480 82H487V89H480V82Z" fill="#303030"/>
<path d="M494 82H501V89H494V82Z" fill="#303030"/>
<path d="M508 82H515V89H508V82Z" fill="#303030"/>
<path d="M522 82H529V89H522V82Z" fill="#303030"/>
<path d="M536 82H543V89H536V82Z" fill="#303030"/>
<path d="M550 82H557V89H550V82Z" fill="#303030"/>
<path d="M564 82H571V89H564V82Z" fill="#303030"/>
<path d="M578 82H585V89H578V82Z" fill="#303030"/>
<path d="M592 82H599V89H592V82Z" fill="#303030"/>
<path d="M606 82H613V89H606V82Z" fill="#303030"/>
<path d="M620 82H627V89H620V82Z" fill="#303030"/>
<path d="M634 82H641V89H634V82Z" fill="#303030"/>
<path d="M648 82H655V89H648V82Z" fill="#303030"/>
<path d="M662 82H669V89H662V82Z" fill="#303030"/>
<path d="M676 82H683V89H676V82Z" fill="#303030"/>
<path d="M690 82H697V89H690V82Z" fill="#303030"/>
<path d="M704 82H711V89H704V82Z" fill="#303030"/>
<path d="M718 82H725V89H718V82Z" fill="#303030"/>
<path d="M732 82H739V89H732V82Z" fill="#303030"/>
<path d="M746 82H753V89H746V82Z" fill="#303030"/>
<path d="M760 82H767V89H760V82Z" fill="#303030"/>
<path d="M774 82H781V89H774V82Z" fill="#303030"/>
<path d="M788 82H795V89H788V82Z" fill="#303030"/>
<path d="M802 82H809V89H802V82Z" fill="#303030"/>
<path d="M816 82H823V89H816V82Z" fill="#303030"/>
<path d="M830 82H837V89H830V82Z" fill="#303030"/>
<path d="M844 82H851V89H844V82Z" fill="#303030"/>
<path d="M858 82H865V89H858V82Z" fill="#303030"/>
<path d="M872 82H879V89H872V82Z" fill="#303030"/>
<path d="M886 82H893V89H886V82Z" fill="#303030"/>
<path d="M900 82H907V89H900V82Z" fill="#303030"/>
<path d="M914 82H921V89H914V82Z" fill="#303030"/>
<path d="M18 93H25V100H18V93Z" fill="#303030"/>
<path d="M32 93H39V100H32V93Z" fill="#303030"/>
<path d="M46 93H53V100H46V93Z" fill="#303030"/>
<path d="M60 93H67V100H60V93Z" fill="#303030"/>
<path d="M74 93H81V100H74V93Z" fill="#303030"/>
<path d="M88 93H95V100H88V93Z" fill="#303030"/>
<path d="M102 93H109V100H102V93Z" fill="#303030"/>
<path d="M116 93H123V100H116V93Z" fill="#303030"/>
<path d="M130 93H137V100H130V93Z" fill="#303030"/>
<path d="M144 93H151V100H144V93Z" fill="#303030"/>
<path d="M158 93H165V100H158V93Z" fill="#303030"/>
<path d="M172 93H179V100H172V93Z" fill="#303030"/>
<path d="M186 93H193V100H186V93Z" fill="#303030"/>
<path d="M200 93H207V100H200V93Z" fill="#303030"/>
<path d="M214 93H221V100H214V93Z" fill="#303030"/>
<path d="M228 93H235V100H228V93Z" fill="#303030"/>
<path d="M242 93H249V100H242V93Z" fill="#303030"/>
<path d="M256 93H263V100H256V93Z" fill="#303030"/>
<path d="M270 93H277V100H270V93Z" fill="#303030"/>
<path d="M284 93H291V100H284V93Z" fill="#303030"/>
<path d="M298 93H305V100H298V93Z" fill="#303030"/>
<path d="M312 93H319V100H312V93Z" fill="#303030"/>
<path d="M326 93H333V100H326V93Z" fill="#303030"/>
<path d="M340 93H347V100H340V93Z" fill="#303030"/>
<path d="M354 93H361V100H354V93Z" fill="#303030"/>
<path d="M368 93H375V100H368V93Z" fill="#303030"/>
<path d="M382 93H389V100H382V93Z" fill="#303030"/>
<path d="M396 93H403V100H396V93Z" fill="#303030"/>
<path d="M410 93H417V100H410V93Z" fill="#303030"/>
<path d="M424 93H431V100H424V93Z" fill="#303030"/>
<path d="M438 93H445V100H438V93Z" fill="#303030"/>
<path d="M452 93H459V100H452V93Z" fill="#303030"/>
<path d="M466 93H473V100H466V93Z" fill="#303030"/>
<path d="M480 93H487V100H480V93Z" fill="#303030"/>
<path d="M494 93H501V100H494V93Z" fill="#303030"/>
<path d="M508 93H515V100H508V93Z" fill="#303030"/>
<path d="M522 93H529V100H522V93Z" fill="#303030"/>
<path d="M536 93H543V100H536V93Z" fill="#303030"/>
<path d="M550 93H557V100H550V93Z" fill="#303030"/>
<path d="M564 93H571V100H564V93Z" fill="#303030"/>
<path d="M578 93H585V100H578V93Z" fill="#303030"/>
<path d="M592 93H599V100H592V93Z" fill="#303030"/>
<path d="M606 93H613V100H606V93Z" fill="#303030"/>
<path d="M620 93H627V100H620V93Z" fill="#303030"/>
<path d="M634 93H641V100H634V93Z" fill="#303030"/>
<path d="M648 93H655V100H648V93Z" fill="#303030"/>
<path d="M662 93H669V100H662V93Z" fill="#303030"/>
<path d="M676 93H683V100H676V93Z" fill="#303030"/>
<path d="M690 93H697V100H690V93Z" fill="#303030"/>
<path d="M704 93H711V100H704V93Z" fill="#303030"/>
<path d="M718 93H725V100H718V93Z" fill="#303030"/>
<path d="M732 93H739V100H732V93Z" fill="#303030"/>
<path d="M746 93H753V100H746V93Z" fill="#303030"/>
<path d="M760 93H767V100H760V93Z" fill="#303030"/>
<path d="M774 93H781V100H774V93Z" fill="#303030"/>
<path d="M788 93H795V100H788V93Z" fill="#303030"/>
<path d="M802 93H809V100H802V93Z" fill="#303030"/>
<path d="M816 93H823V100H816V93Z" fill="#303030"/>
<path d="M830 93H837V100H830V93Z" fill="#303030"/>
<path d="M844 93H851V100H844V93Z" fill="#303030"/>
<path d="M858 93H865V100H858V93Z" fill="#303030"/>
<path d="M872 93H879V100H872V93Z" fill="#303030"/>
<path d="M886 93H893V100H886V93Z" fill="#303030"/>
<path d="M900 93H907V100H900V93Z" fill="#303030"/>
<path d="M914 93H921V100H914V93Z" fill="#303030"/>
<path d="M18 125H25V132H18V125Z" fill="#303030"/>
<path d="M32 125H39V132H32V125Z" fill="#303030"/>
<path d="M46 125H53V132H46V125Z" fill="#303030"/>
<path d="M60 125H67V132H60V125Z" fill="#303030"/>
<path d="M74 125H81V132H74V125Z" fill="#303030"/>
<path d="M88 125H95V132H88V125Z" fill="#303030"/>
<path d="M102 125H109V132H102V125Z" fill="#303030"/>
<path d="M116 125H123V132H116V125Z" fill="#303030"/>
<path d="M130 125H137V132H130V125Z" fill="#303030"/>
<path d="M144 125H151V132H144V125Z" fill="#303030"/>
<path d="M158 125H165V132H158V125Z" fill="#303030"/>
<path d="M172 125H179V132H172V125Z" fill="#303030"/>
<path d="M186 125H193V132H186V125Z" fill="#303030"/>
<path d="M200 125H207V132H200V125Z" fill="#303030"/>
<path d="M214 125H221V132H214V125Z" fill="#303030"/>
<path d="M228 125H235V132H228V125Z" fill="#303030"/>
<path d="M242 125H249V132H242V125Z" fill="#303030"/>
<path d="M256 125H263V132H256V125Z" fill="#303030"/>
<path d="M270 125H277V132H270V125Z" fill="#303030"/>
<path d="M284 125H291V132H284V125Z" fill="#303030"/>
<path d="M298 125H305V132H298V125Z" fill="#303030"/>
<path d="M312 125H319V132H312V125Z" fill="#303030"/>
<path d="M326 125H333V132H326V125Z" fill="#303030"/>
<path d="M340 125H347V132H340V125Z" fill="#303030"/>
<path d="M354 125H361V132H354V125Z" fill="#303030"/>
<path d="M368 125H375V132H368V125Z" fill="#303030"/>
<path d="M382 125H389V132H382V125Z" fill="#303030"/>
<path d="M396 125H403V132H396V125Z" fill="#303030"/>
<path d="M410 125H417V132H410V125Z" fill="#303030"/>
<path d="M424 125H431V132H424V125Z" fill="#303030"/>
<path d="M438 125H445V132H438V125Z" fill="#303030"/>
<path d="M452 125H459V132H452V125Z" fill="#303030"/>
<path d="M466 125H473V132H466V125Z" fill="#303030"/>
<path d="M480 125H487V132H480V125Z" fill="#303030"/>
<path d="M494 125H501V132H494V125Z" fill="#303030"/>
<path d="M508 125H515V132H508V125Z" fill="#303030"/>
<path d="M522 125H529V132H522V125Z" fill="#303030"/>
<path d="M536 125H543V132H536V125Z" fill="#303030"/>
<path d="M550 125H557V132H550V125Z" fill="#303030"/>
<path d="M564 125H571V132H564V125Z" fill="#303030"/>
<path d="M578 125H585V132H578V125Z" fill="#303030"/>
<path d="M592 125H599V132H592V125Z" fill="#303030"/>
<path d="M606 125H613V132H606V125Z" fill="#303030"/>
<path d="M620 125H627V132H620V125Z" fill="#303030"/>
<path d="M634 125H641V132H634V125Z" fill="#303030"/>
<path d="M648 125H655V132H648V125Z" fill="#303030"/>
<path d="M662 125H669V132H662V125Z" fill="#303030"/>
<path d="M676 125H683V132H676V125Z" fill="#303030"/>
<path d="M690 125H697V132H690V125Z" fill="#303030"/>
<path d="M704 125H711V132H704V125Z" fill="#303030"/>
<path d="M718 125H725V132H718V125Z" fill="#303030"/>
<path d="M732 125H739V132H732V125Z" fill="#303030"/>
<path d="M746 125H753V132H746V125Z" fill="#303030"/>
<path d="M760 125H767V132H760V125Z" fill="#303030"/>
<path d="M774 125H781V132H774V125Z" fill="#303030"/>
<path d="M788 125H795V132H788V125Z" fill="#303030"/>
<path d="M802 125H809V132H802V125Z" fill="#303030"/>
<path d="M816 125H823V132H816V125Z" fill="#303030"/>
<path d="M830 125H837V132H830V125Z" fill="#303030"/>
<path d="M844 125H851V132H844V125Z" fill="#303030"/>
<path d="M858 125H865V132H858V125Z" fill="#303030"/>
<path d="M872 125H879V132H872V125Z" fill="#303030"/>
<path d="M886 125H893V132H886V125Z" fill="#303030"/>
<path d="M900 125H907V132H900V125Z" fill="#303030"/>
<path d="M914 125H921V132H914V125Z" fill="#303030"/>
<path d="M18 136H25V143H18V136Z" fill="#303030"/>
<path d="M32 136H39V143H32V136Z" fill="#303030"/>
<path d="M46 136H53V143H46V136Z" fill="#303030"/>
<path d="M60 136H67V143H60V136Z" fill="#303030"/>
<path d="M74 136H81V143H74V136Z" fill="#303030"/>
<path d="M88 136H95V143H88V136Z" fill="#303030"/>
<path d="M102 136H109V143H102V136Z" fill="#303030"/>
<path d="M116 136H123V143H116V136Z" fill="#303030"/>
<path d="M130 136H137V143H130V136Z" fill="#303030"/>
<path d="M144 136H151V143H144V136Z" fill="#303030"/>
<path d="M158 136H165V143H158V136Z" fill="#303030"/>
<path d="M172 136H179V143H172V136Z" fill="#303030"/>
<path d="M186 136H193V143H186V136Z" fill="#303030"/>
<path d="M200 136H207V143H200V136Z" fill="#303030"/>
<path d="M214 136H221V143H214V136Z" fill="#303030"/>
<path d="M228 136H235V143H228V136Z" fill="#303030"/>
<path d="M242 136H249V143H242V136Z" fill="#303030"/>
<path d="M256 136H263V143H256V136Z" fill="#303030"/>
<path d="M270 136H277V143H270V136Z" fill="#303030"/>
<path d="M284 136H291V143H284V136Z" fill="#303030"/>
<path d="M298 136H305V143H298V136Z" fill="#303030"/>
<path d="M312 136H319V143H312V136Z" fill="#303030"/>
<path d="M326 136H333V143H326V136Z" fill="#303030"/>
<path d="M340 136H347V143H340V136Z" fill="#303030"/>
<path d="M354 136H361V143H354V136Z" fill="#303030"/>
<path d="M368 136H375V143H368V136Z" fill="#303030"/>
<path d="M382 136H389V143H382V136Z" fill="#303030"/>
<path d="M396 136H403V143H396V136Z" fill="#303030"/>
<path d="M410 136H417V143H410V136Z" fill="#303030"/>
<path d="M424 136H431V143H424V136Z" fill="#303030"/>
<path d="M438 136H445V143H438V136Z" fill="#303030"/>
<path d="M452 136H459V143H452V136Z" fill="#303030"/>
<path d="M466 136H473V143H466V136Z" fill="#303030"/>
<path d="M480 136H487V143H480V136Z" fill="#303030"/>
<path d="M494 136H501V143H494V136Z" fill="#303030"/>
<path d="M508 136H515V143H508V136Z" fill="#303030"/>
<path d="M522 136H529V143H522V136Z" fill="#303030"/>
<path d="M536 136H543V143H536V136Z" fill="#303030"/>
<path d="M550 136H557V143H550V136Z" fill="#303030"/>
<path d="M564 136H571V143H564V136Z" fill="#303030"/>
<path d="M578 136H585V143H578V136Z" fill="#303030"/>
<path d="M592 136H599V143H592V136Z" fill="#303030"/>
<path d="M606 136H613V143H606V136Z" fill="#303030"/>
<path d="M620 136H627V143H620V136Z" fill="#303030"/>
<path d="M634 136H641V143H634V136Z" fill="#303030"/>
<path d="M648 136H655V143H648V136Z" fill="#303030"/>
<path d="M662 136H669V143H662V136Z" fill="#303030"/>
<path d="M676 136H683V143H676V136Z" fill="#303030"/>
<path d="M690 136H697V143H690V136Z" fill="#303030"/>
<path d="M704 136H711V143H704V136Z" fill="#303030"/>
<path d="M718 136H725V143H718V136Z" fill="#303030"/>
<path d="M732 136H739V143H732V136Z" fill="#303030"/>
<path d="M746 136H753V143H746V136Z" fill="#303030"/>
<path d="M760 136H767V143H760V136Z" fill="#303030"/>
<path d="M774 136H781V143H774V136Z" fill="#303030"/>
<path d="M788 136H795V143H788V136Z" fill="#303030"/>
<path d="M802 136H809V143H802V136Z" fill="#303030"/>
<path d="M816 136H823V143H816V136Z" fill="#303030"/>
<path d="M830 136H837V143H830V136Z" fill="#303030"/>
<path d="M844 136H851V143H844V136Z" fill="#303030"/>
<path d="M858 136H865V143H858V136Z" fill="#303030"/>
<path d="M872 136H879V143H872V136Z" fill="#303030"/>
<path d="M886 136H893V143H886V136Z" fill="#303030"/>
<path d="M900 136H907V143H900V136Z" fill="#303030"/>
<path d="M914 136H921V143H914V136Z" fill="#303030"/>
<path d="M18 147H25V154H18V147Z" fill="#303030"/>
<path d="M32 147H39V154H32V147Z" fill="#303030"/>
<path d="M46 147H53V154H46V147Z" fill="#303030"/>
<path d="M60 147H67V154H60V147Z" fill="#303030"/>
<path d="M74 147H81V154H74V147Z" fill="#303030"/>
<path d="M88 147H95V154H88V147Z" fill="#303030"/>
<path d="M102 147H109V154H102V147Z" fill="#303030"/>
<path d="M116 147H123V154H116V147Z" fill="#303030"/>
<path d="M130 147H137V154H130V147Z" fill="#303030"/>
<path d="M144 147H151V154H144V147Z" fill="#303030"/>
<path d="M158 147H165V154H158V147Z" fill="#303030"/>
<path d="M172 147H179V154H172V147Z" fill="#303030"/>
<path d="M186 147H193V154H186V147Z" fill="#303030"/>
<path d="M200 147H207V154H200V147Z" fill="#303030"/>
<path d="M214 147H221V154H214V147Z" fill="#303030"/>
<path d="M228 147H235V154H228V147Z" fill="#303030"/>
<path d="M242 147H249V154H242V147Z" fill="#303030"/>
<path d="M256 147H263V154H256V147Z" fill="#303030"/>
<path d="M270 147H277V154H270V147Z" fill="#303030"/>
<path d="M284 147H291V154H284V147Z" fill="#303030"/>
<path d="M298 147H305V154H298V147Z" fill="#303030"/>
<path d="M312 147H319V154H312V147Z" fill="#303030"/>
<path d="M326 147H333V154H326V147Z" fill="#303030"/>
<path d="M340 147H347V154H340V147Z" fill="#303030"/>
<path d="M354 147H361V154H354V147Z" fill="#303030"/>
<path d="M368 147H375V154H368V147Z" fill="#303030"/>
<path d="M382 147H389V154H382V147Z" fill="#303030"/>
<path d="M396 147H403V154H396V147Z" fill="#303030"/>
<path d="M410 147H417V154H410V147Z" fill="#303030"/>
<path d="M424 147H431V154H424V147Z" fill="#303030"/>
<path d="M438 147H445V154H438V147Z" fill="#303030"/>
<path d="M452 147H459V154H452V147Z" fill="#303030"/>
<path d="M466 147H473V154H466V147Z" fill="#303030"/>
<path d="M480 147H487V154H480V147Z" fill="#303030"/>
<path d="M494 147H501V154H494V147Z" fill="#303030"/>
<path d="M508 147H515V154H508V147Z" fill="#303030"/>
<path d="M522 147H529V154H522V147Z" fill="#303030"/>
<path d="M536 147H543V154H536V147Z" fill="#303030"/>
<path d="M550 147H557V154H550V147Z" fill="#303030"/>
<path d="M564 147H571V154H564V147Z" fill="#303030"/>
<path d="M578 147H585V154H578V147Z" fill="#303030"/>
<path d="M592 147H599V154H592V147Z" fill="#303030"/>
<path d="M606 147H613V154H606V147Z" fill="#303030"/>
<path d="M620 147H627V154H620V147Z" fill="#303030"/>
<path d="M634 147H641V154H634V147Z" fill="#303030"/>
<path d="M648 147H655V154H648V147Z" fill="#303030"/>
<path d="M662 147H669V154H662V147Z" fill="#303030"/>
<path d="M676 147H683V154H676V147Z" fill="#303030"/>
<path d="M690 147H697V154H690V147Z" fill="#303030"/>
<path d="M704 147H711V154H704V147Z" fill="#303030"/>
<path d="M718 147H725V154H718V147Z" fill="#303030"/>
<path d="M732 147H739V154H732V147Z" fill="#303030"/>
<path d="M746 147H753V154H746V147Z" fill="#303030"/>
<path d="M760 147H767V154H760V147Z" fill="#303030"/>
<path d="M774 147H781V154H774V147Z" fill="#303030"/>
<path d="M788 147H795V154H788V147Z" fill="#303030"/>
<path d="M802 147H809V154H802V147Z" fill="#303030"/>
<path d="M816 147H823V154H816V147Z" fill="#303030"/>
<path d="M830 147H837V154H830V147Z" fill="#303030"/>
<path d="M844 147H851V154H844V147Z" fill="#303030"/>
<path d="M858 147H865V154H858V147Z" fill="#303030"/>
<path d="M872 147H879V154H872V147Z" fill="#303030"/>
<path d="M886 147H893V154H886V147Z" fill="#303030"/>
<path d="M900 147H907V154H900V147Z" fill="#303030"/>
<path d="M914 147H921V154H914V147Z" fill="#303030"/>
<path d="M18 158H25V165H18V158Z" fill="#303030"/>
<path d="M32 158H39V165H32V158Z" fill="#303030"/>
<path d="M46 158H53V165H46V158Z" fill="#303030"/>
<path d="M60 158H67V165H60V158Z" fill="#303030"/>
<path d="M74 158H81V165H74V158Z" fill="#303030"/>
<path d="M88 158H95V165H88V158Z" fill="#303030"/>
<path d="M102 158H109V165H102V158Z" fill="#303030"/>
<path d="M116 158H123V165H116V158Z" fill="#303030"/>
<path d="M130 158H137V165H130V158Z" fill="#303030"/>
<path d="M144 158H151V165H144V158Z" fill="#303030"/>
<path d="M158 158H165V165H158V158Z" fill="#303030"/>
<path d="M172 158H179V165H172V158Z" fill="#303030"/>
<path d="M186 158H193V165H186V158Z" fill="#303030"/>
<path d="M200 158H207V165H200V158Z" fill="#303030"/>
<path d="M214 158H221V165H214V158Z" fill="#303030"/>
<path d="M228 158H235V165H228V158Z" fill="#303030"/>
<path d="M242 158H249V165H242V158Z" fill="#303030"/>
<path d="M256 158H263V165H256V158Z" fill="#303030"/>
<path d="M270 158H277V165H270V158Z" fill="#303030"/>
<path d="M284 158H291V165H284V158Z" fill="#303030"/>
<path d="M298 158H305V165H298V158Z" fill="#303030"/>
<path d="M312 158H319V165H312V158Z" fill="#303030"/>
<path d="M326 158H333V165H326V158Z" fill="#303030"/>
<path d="M340 158H347V165H340V158Z" fill="#303030"/>
<path d="M354 158H361V165H354V158Z" fill="#303030"/>
<path d="M368 158H375V165H368V158Z" fill="#303030"/>
<path d="M382 158H389V165H382V158Z" fill="#303030"/>
<path d="M396 158H403V165H396V158Z" fill="#303030"/>
<path d="M410 158H417V165H410V158Z" fill="#303030"/>
<path d="M424 158H431V165H424V158Z" fill="#303030"/>
<path d="M438 158H445V165H438V158Z" fill="#303030"/>
<path d="M452 158H459V165H452V158Z" fill="#303030"/>
<path d="M466 158H473V165H466V158Z" fill="#303030"/>
<path d="M480 158H487V165H480V158Z" fill="#303030"/>
<path d="M494 158H501V165H494V158Z" fill="#303030"/>
<path d="M508 158H515V165H508V158Z" fill="#303030"/>
<path d="M522 158H529V165H522V158Z" fill="#303030"/>
<path d="M536 158H543V165H536V158Z" fill="#303030"/>
<path d="M550 158H557V165H550V158Z" fill="#303030"/>
<path d="M564 158H571V165H564V158Z" fill="#303030"/>
<path d="M578 158H585V165H578V158Z" fill="#303030"/>
<path d="M592 158H599V165H592V158Z" fill="#303030"/>
<path d="M606 158H613V165H606V158Z" fill="#303030"/>
<path d="M620 158H627V165H620V158Z" fill="#303030"/>
<path d="M634 158H641V165H634V158Z" fill="#303030"/>
<path d="M648 158H655V165H648V158Z" fill="#303030"/>
<path d="M662 158H669V165H662V158Z" fill="#303030"/>
<path d="M676 158H683V165H676V158Z" fill="#303030"/>
<path d="M690 158H697V165H690V158Z" fill="#303030"/>
<path d="M704 158H711V165H704V158Z" fill="#303030"/>
<path d="M718 158H725V165H718V158Z" fill="#303030"/>
<path d="M732 158H739V165H732V158Z" fill="#303030"/>
<path d="M746 158H753V165H746V158Z" fill="#303030"/>
<path d="M760 158H767V165H760V158Z" fill="#303030"/>
<path d="M774 158H781V165H774V158Z" fill="#303030"/>
<path d="M788 158H795V165H788V158Z" fill="#303030"/>
<path d="M802 158H809V165H802V158Z" fill="#303030"/>
<path d="M816 158H823V165H816V158Z" fill="#303030"/>
<path d="M830 158H837V165H830V158Z" fill="#303030"/>
<path d="M844 158H851V165H844V158Z" fill="#303030"/>
<path d="M858 158H865V165H858V158Z" fill="#303030"/>
<path d="M872 158H879V165H872V158Z" fill="#303030"/>
<path d="M886 158H893V165H886V158Z" fill="#303030"/>
<path d="M900 158H907V165H900V158Z" fill="#303030"/>
<path d="M914 158H921V165H914V158Z" fill="#303030"/>
<path d="M18 169H25V176H18V169Z" fill="#303030"/>
<path d="M32 169H39V176H32V169Z" fill="#303030"/>
<path d="M46 169H53V176H46V169Z" fill="#303030"/>
<path d="M60 169H67V176H60V169Z" fill="#303030"/>
<path d="M74 169H81V176H74V169Z" fill="#303030"/>
<path d="M88 169H95V176H88V169Z" fill="#303030"/>
<path d="M102 169H109V176H102V169Z" fill="#303030"/>
<path d="M116 169H123V176H116V169Z" fill="#303030"/>
<path d="M130 169H137V176H130V169Z" fill="#303030"/>
<path d="M144 169H151V176H144V169Z" fill="#303030"/>
<path d="M158 169H165V176H158V169Z" fill="#303030"/>
<path d="M172 169H179V176H172V169Z" fill="#303030"/>
<path d="M186 169H193V176H186V169Z" fill="#303030"/>
<path d="M200 169H207V176H200V169Z" fill="#303030"/>
<path d="M214 169H221V176H214V169Z" fill="#303030"/>
<path d="M228 169H235V176H228V169Z" fill="#303030"/>
<path d="M242 169H249V176H242V169Z" fill="#303030"/>
<path d="M256 169H263V176H256V169Z" fill="#303030"/>
<path d="M270 169H277V176H270V169Z" fill="#303030"/>
<path d="M284 169H291V176H284V169Z" fill="#303030"/>
<path d="M298 169H305V176H298V169Z" fill="#303030"/>
<path d="M312 169H319V176H312V169Z" fill="#303030"/>
<path d="M326 169H333V176H326V169Z" fill="#303030"/>
<path d="M340 169H347V176H340V169Z" fill="#303030"/>
<path d="M354 169H361V176H354V169Z" fill="#303030"/>
<path d="M368 169H375V176H368V169Z" fill="#303030"/>
<path d="M382 169H389V176H382V169Z" fill="#303030"/>
<path d="M396 169H403V176H396V169Z" fill="#303030"/>
<path d="M410 169H417V176H410V169Z" fill="#303030"/>
<path d="M424 169H431V176H424V169Z" fill="#303030"/>
<path d="M438 169H445V176H438V169Z" fill="#303030"/>
<path d="M452 169H459V176H452V169Z" fill="#303030"/>
<path d="M466 169H473V176H466V169Z" fill="#303030"/>
<path d="M480 169H487V176H480V169Z" fill="#303030"/>
<path d="M494 169H501V176H494V169Z" fill="#303030"/>
<path d="M508 169H515V176H508V169Z" fill="#303030"/>
<path d="M522 169H529V176H522V169Z" fill="#303030"/>
<path d="M536 169H543V176H536V169Z" fill="#303030"/>
<path d="M550 169H557V176H550V169Z" fill="#303030"/>
<path d="M564 169H571V176H564V169Z" fill="#303030"/>
<path d="M578 169H585V176H578V169Z" fill="#303030"/>
<path d="M592 169H599V176H592V169Z" fill="#303030"/>
<path d="M606 169H613V176H606V169Z" fill="#303030"/>
<path d="M620 169H627V176H620V169Z" fill="#303030"/>
<path d="M634 169H641V176H634V169Z" fill="#303030"/>
<path d="M648 169H655V176H648V169Z" fill="#303030"/>
<path d="M662 169H669V176H662V169Z" fill="#303030"/>
<path d="M676 169H683V176H676V169Z" fill="#303030"/>
<path d="M690 169H697V176H690V169Z" fill="#303030"/>
<path d="M704 169H711V176H704V169Z" fill="#303030"/>
<path d="M718 169H725V176H718V169Z" fill="#303030"/>
<path d="M732 169H739V176H732V169Z" fill="#303030"/>
<path d="M746 169H753V176H746V169Z" fill="#303030"/>
<path d="M760 169H767V176H760V169Z" fill="#303030"/>
<path d="M774 169H781V176H774V169Z" fill="#303030"/>
<path d="M788 169H795V176H788V169Z" fill="#303030"/>
<path d="M802 169H809V176H802V169Z" fill="#303030"/>
<path d="M816 169H823V176H816V169Z" fill="#303030"/>
<path d="M830 169H837V176H830V169Z" fill="#303030"/>
<path d="M844 169H851V176H844V169Z" fill="#303030"/>
<path d="M858 169H865V176H858V169Z" fill="#303030"/>
<path d="M872 169H879V176H872V169Z" fill="#303030"/>
<path d="M886 169H893V176H886V169Z" fill="#303030"/>
<path d="M900 169H907V176H900V169Z" fill="#303030"/>
<path d="M914 169H921V176H914V169Z" fill="#303030"/>
<path d="M18 16H25V23H18V16Z" fill="#303030"/>
<path d="M102 16H109V23H102V16Z" fill="#303030"/>
<path d="M186 16H193V23H186V16Z" fill="#303030"/>
<path d="M270 16H277V23H270V16Z" fill="#303030"/>
<path d="M354 16H361V23H354V16Z" fill="#303030"/>
<path d="M438 16H445V23H438V16Z" fill="#303030"/>
<path d="M522 16H529V23H522V16Z" fill="#303030"/>
<path d="M606 16H613V23H606V16Z" fill="#303030"/>
<path d="M690 16H697V23H690V16Z" fill="#303030"/>
<path d="M774 16H781V23H774V16Z" fill="#303030"/>
<path d="M858 16H865V23H858V16Z" fill="#303030"/>
<path d="M18 27H25V34H18V27Z" fill="#303030"/>
<path d="M102 27H109V34H102V27Z" fill="#303030"/>
<path d="M186 27H193V34H186V27Z" fill="#303030"/>
<path d="M270 27H277V34H270V27Z" fill="#303030"/>
<path d="M354 27H361V34H354V27Z" fill="#303030"/>
<path d="M438 27H445V34H438V27Z" fill="#303030"/>
<path d="M522 27H529V34H522V27Z" fill="#303030"/>
<path d="M606 27H613V34H606V27Z" fill="#303030"/>
<path d="M690 27H697V34H690V27Z" fill="#303030"/>
<path d="M774 27H781V34H774V27Z" fill="#303030"/>
<path d="M858 27H865V34H858V27Z" fill="#303030"/>
<path d="M32 16H39V23H32V16Z" fill="#303030"/>
<path d="M116 16H123V23H116V16Z" fill="#303030"/>
<path d="M200 16H207V23H200V16Z" fill="#303030"/>
<path d="M284 16H291V23H284V16Z" fill="#303030"/>
<path d="M368 16H375V23H368V16Z" fill="#303030"/>
<path d="M452 16H459V23H452V16Z" fill="#303030"/>
<path d="M536 16H543V23H536V16Z" fill="#303030"/>
<path d="M620 16H627V23H620V16Z" fill="#303030"/>
<path d="M704 16H711V23H704V16Z" fill="#303030"/>
<path d="M788 16H795V23H788V16Z" fill="#303030"/>
<path d="M872 16H879V23H872V16Z" fill="#303030"/>
<path d="M46 16H53V23H46V16Z" fill="#303030"/>
<path d="M130 16H137V23H130V16Z" fill="#303030"/>
<path d="M214 16H221V23H214V16Z" fill="#303030"/>
<path d="M298 16H305V23H298V16Z" fill="#303030"/>
<path d="M382 16H389V23H382V16Z" fill="#303030"/>
<path d="M466 16H473V23H466V16Z" fill="#303030"/>
<path d="M550 16H557V23H550V16Z" fill="#303030"/>
<path d="M634 16H641V23H634V16Z" fill="#303030"/>
<path d="M718 16H725V23H718V16Z" fill="#303030"/>
<path d="M802 16H809V23H802V16Z" fill="#303030"/>
<path d="M886 16H893V23H886V16Z" fill="#303030"/>
<path d="M46 16H53V23H46V16Z" fill="#303030"/>
<path d="M130 16H137V23H130V16Z" fill="#303030"/>
<path d="M214 16H221V23H214V16Z" fill="#303030"/>
<path d="M298 16H305V23H298V16Z" fill="#303030"/>
<path d="M382 16H389V23H382V16Z" fill="#303030"/>
<path d="M466 16H473V23H466V16Z" fill="#303030"/>
<path d="M550 16H557V23H550V16Z" fill="#303030"/>
<path d="M634 16H641V23H634V16Z" fill="#303030"/>
<path d="M718 16H725V23H718V16Z" fill="#303030"/>
<path d="M802 16H809V23H802V16Z" fill="#303030"/>
<path d="M886 16H893V23H886V16Z" fill="#303030"/>
<path d="M60 16H67V23H60V16Z" fill="#303030"/>
<path d="M144 16H151V23H144V16Z" fill="#303030"/>
<path d="M228 16H235V23H228V16Z" fill="#303030"/>
<path d="M312 16H319V23H312V16Z" fill="#303030"/>
<path d="M396 16H403V23H396V16Z" fill="#303030"/>
<path d="M480 16H487V23H480V16Z" fill="#303030"/>
<path d="M564 16H571V23H564V16Z" fill="#303030"/>
<path d="M648 16H655V23H648V16Z" fill="#303030"/>
<path d="M732 16H739V23H732V16Z" fill="#303030"/>
<path d="M816 16H823V23H816V16Z" fill="#303030"/>
<path d="M900 16H907V23H900V16Z" fill="#303030"/>
<path d="M74 16H81V23H74V16Z" fill="#303030"/>
<path d="M158 16H165V23H158V16Z" fill="#303030"/>
<path d="M242 16H249V23H242V16Z" fill="#303030"/>
<path d="M326 16H333V23H326V16Z" fill="#303030"/>
<path d="M410 16H417V23H410V16Z" fill="#303030"/>
<path d="M494 16H501V23H494V16Z" fill="#303030"/>
<path d="M578 16H585V23H578V16Z" fill="#303030"/>
<path d="M662 16H669V23H662V16Z" fill="#303030"/>
<path d="M746 16H753V23H746V16Z" fill="#303030"/>
<path d="M830 16H837V23H830V16Z" fill="#303030"/>
<path d="M914 16H921V23H914V16Z" fill="#303030"/>
<path d="M32 27H39V34H32V27Z" fill="#303030"/>
<path d="M116 27H123V34H116V27Z" fill="#303030"/>
<path d="M200 27H207V34H200V27Z" fill="#303030"/>
<path d="M284 27H291V34H284V27Z" fill="#303030"/>
<path d="M368 27H375V34H368V27Z" fill="#303030"/>
<path d="M452 27H459V34H452V27Z" fill="#303030"/>
<path d="M536 27H543V34H536V27Z" fill="#303030"/>
<path d="M620 27H627V34H620V27Z" fill="#303030"/>
<path d="M704 27H711V34H704V27Z" fill="#303030"/>
<path d="M788 27H795V34H788V27Z" fill="#303030"/>
<path d="M872 27H879V34H872V27Z" fill="#303030"/>
<path d="M46 27H53V34H46V27Z" fill="#303030"/>
<path d="M130 27H137V34H130V27Z" fill="#303030"/>
<path d="M214 27H221V34H214V27Z" fill="#303030"/>
<path d="M298 27H305V34H298V27Z" fill="#303030"/>
<path d="M382 27H389V34H382V27Z" fill="#303030"/>
<path d="M466 27H473V34H466V27Z" fill="#303030"/>
<path d="M550 27H557V34H550V27Z" fill="#303030"/>
<path d="M634 27H641V34H634V27Z" fill="#303030"/>
<path d="M718 27H725V34H718V27Z" fill="#303030"/>
<path d="M802 27H809V34H802V27Z" fill="#303030"/>
<path d="M886 27H893V34H886V27Z" fill="#303030"/>
<path d="M60 27H67V34H60V27Z" fill="#303030"/>
<path d="M144 27H151V34H144V27Z" fill="#303030"/>
<path d="M228 27H235V34H228V27Z" fill="#303030"/>
<path d="M312 27H319V34H312V27Z" fill="#303030"/>
<path d="M396 27H403V34H396V27Z" fill="#303030"/>
<path d="M480 27H487V34H480V27Z" fill="#303030"/>
<path d="M564 27H571V34H564V27Z" fill="#303030"/>
<path d="M648 27H655V34H648V27Z" fill="#303030"/>
<path d="M732 27H739V34H732V27Z" fill="#303030"/>
<path d="M816 27H823V34H816V27Z" fill="#303030"/>
<path d="M900 27H907V34H900V27Z" fill="#303030"/>
<path d="M74 27H81V34H74V27Z" fill="#303030"/>
<path d="M158 27H165V34H158V27Z" fill="#303030"/>
<path d="M242 27H249V34H242V27Z" fill="#303030"/>
<path d="M326 27H333V34H326V27Z" fill="#303030"/>
<path d="M410 27H417V34H410V27Z" fill="#303030"/>
<path d="M494 27H501V34H494V27Z" fill="#303030"/>
<path d="M578 27H585V34H578V27Z" fill="#303030"/>
<path d="M662 27H669V34H662V27Z" fill="#303030"/>
<path d="M746 27H753V34H746V27Z" fill="#303030"/>
<path d="M830 27H837V34H830V27Z" fill="#303030"/>
<path d="M914 27H921V34H914V27Z" fill="#303030"/>
<path d="M12 13H920.5" stroke="#010BFF"/>
<path d="M12 37H920.5" stroke="#FF0101"/>
<path d="M17 200H24V207H17V200Z" fill="#303030"/>
<path d="M101 200H108V207H101V200Z" fill="#303030"/>
<path d="M185 200H192V207H185V200Z" fill="#303030"/>
<path d="M269 200H276V207H269V200Z" fill="#303030"/>
<path d="M353 200H360V207H353V200Z" fill="#303030"/>
<path d="M437 200H444V207H437V200Z" fill="#303030"/>
<path d="M521 200H528V207H521V200Z" fill="#303030"/>
<path d="M605 200H612V207H605V200Z" fill="#303030"/>
<path d="M689 200H696V207H689V200Z" fill="#303030"/>
<path d="M773 200H780V207H773V200Z" fill="#303030"/>
<path d="M857 200H864V207H857V200Z" fill="#303030"/>
<path d="M17 211H24V218H17V211Z" fill="#303030"/>
<path d="M101 211H108V218H101V211Z" fill="#303030"/>
<path d="M185 211H192V218H185V211Z" fill="#303030"/>
<path d="M269 211H276V218H269V211Z" fill="#303030"/>
<path d="M353 211H360V218H353V211Z" fill="#303030"/>
<path d="M437 211H444V218H437V211Z" fill="#303030"/>
<path d="M521 211H528V218H521V211Z" fill="#303030"/>
<path d="M605 211H612V218H605V211Z" fill="#303030"/>
<path d="M689 211H696V218H689V211Z" fill="#303030"/>
<path d="M773 211H780V218H773V211Z" fill="#303030"/>
<path d="M857 211H864V218H857V211Z" fill="#303030"/>
<path d="M31 200H38V207H31V200Z" fill="#303030"/>
<path d="M115 200H122V207H115V200Z" fill="#303030"/>
<path d="M199 200H206V207H199V200Z" fill="#303030"/>
<path d="M283 200H290V207H283V200Z" fill="#303030"/>
<path d="M367 200H374V207H367V200Z" fill="#303030"/>
<path d="M451 200H458V207H451V200Z" fill="#303030"/>
<path d="M535 200H542V207H535V200Z" fill="#303030"/>
<path d="M619 200H626V207H619V200Z" fill="#303030"/>
<path d="M703 200H710V207H703V200Z" fill="#303030"/>
<path d="M787 200H794V207H787V200Z" fill="#303030"/>
<path d="M871 200H878V207H871V200Z" fill="#303030"/>
<path d="M45 200H52V207H45V200Z" fill="#303030"/>
<path d="M129 200H136V207H129V200Z" fill="#303030"/>
<path d="M213 200H220V207H213V200Z" fill="#303030"/>
<path d="M297 200H304V207H297V200Z" fill="#303030"/>
<path d="M381 200H388V207H381V200Z" fill="#303030"/>
<path d="M465 200H472V207H465V200Z" fill="#303030"/>
<path d="M549 200H556V207H549V200Z" fill="#303030"/>
<path d="M633 200H640V207H633V200Z" fill="#303030"/>
<path d="M717 200H724V207H717V200Z" fill="#303030"/>
<path d="M801 200H808V207H801V200Z" fill="#303030"/>
<path d="M885 200H892V207H885V200Z" fill="#303030"/>
<path d="M45 200H52V207H45V200Z" fill="#303030"/>
<path d="M129 200H136V207H129V200Z" fill="#303030"/>
<path d="M213 200H220V207H213V200Z" fill="#303030"/>
<path d="M297 200H304V207H297V200Z" fill="#303030"/>
<path d="M381 200H388V207H381V200Z" fill="#303030"/>
<path d="M465 200H472V207H465V200Z" fill="#303030"/>
<path d="M549 200H556V207H549V200Z" fill="#303030"/>
<path d="M633 200H640V207H633V200Z" fill="#303030"/>
<path d="M717 200H724V207H717V200Z" fill="#303030"/>
<path d="M801 200H808V207H801V200Z" fill="#303030"/>
<path d="M885 200H892V207H885V200Z" fill="#303030"/>
<path d="M59 200H66V207H59V200Z" fill="#303030"/>
<path d="M143 200H150V207H143V200Z" fill="#303030"/>
<path d="M227 200H234V207H227V200Z" fill="#303030"/>
<path d="M311 200H318V207H311V200Z" fill="#303030"/>
<path d="M395 200H402V207H395V200Z" fill="#303030"/>
<path d="M479 200H486V207H479V200Z" fill="#303030"/>
<path d="M563 200H570V207H563V200Z" fill="#303030"/>
<path d="M647 200H654V207H647V200Z" fill="#303030"/>
<path d="M731 200H738V207H731V200Z" fill="#303030"/>
<path d="M815 200H822V207H815V200Z" fill="#303030"/>
<path d="M899 200H906V207H899V200Z" fill="#303030"/>
<path d="M73 200H80V207H73V200Z" fill="#303030"/>
<path d="M157 200H164V207H157V200Z" fill="#303030"/>
<path d="M241 200H248V207H241V200Z" fill="#303030"/>
<path d="M325 200H332V207H325V200Z" fill="#303030"/>
<path d="M409 200H416V207H409V200Z" fill="#303030"/>
<path d="M493 200H500V207H493V200Z" fill="#303030"/>
<path d="M577 200H584V207H577V200Z" fill="#303030"/>
<path d="M661 200H668V207H661V200Z" fill="#303030"/>
<path d="M745 200H752V207H745V200Z" fill="#303030"/>
<path d="M829 200H836V207H829V200Z" fill="#303030"/>
<path d="M913 200H920V207H913V200Z" fill="#303030"/>
<path d="M31 211H38V218H31V211Z" fill="#303030"/>
<path d="M115 211H122V218H115V211Z" fill="#303030"/>
<path d="M199 211H206V218H199V211Z" fill="#303030"/>
<path d="M283 211H290V218H283V211Z" fill="#303030"/>
<path d="M367 211H374V218H367V211Z" fill="#303030"/>
<path d="M451 211H458V218H451V211Z" fill="#303030"/>
<path d="M535 211H542V218H535V211Z" fill="#303030"/>
<path d="M619 211H626V218H619V211Z" fill="#303030"/>
<path d="M703 211H710V218H703V211Z" fill="#303030"/>
<path d="M787 211H794V218H787V211Z" fill="#303030"/>
<path d="M871 211H878V218H871V211Z" fill="#303030"/>
<path d="M45 211H52V218H45V211Z" fill="#303030"/>
<path d="M129 211H136V218H129V211Z" fill="#303030"/>
<path d="M213 211H220V218H213V211Z" fill="#303030"/>
<path d="M297 211H304V218H297V211Z" fill="#303030"/>
<path d="M381 211H388V218H381V211Z" fill="#303030"/>
<path d="M465 211H472V218H465V211Z" fill="#303030"/>
<path d="M549 211H556V218H549V211Z" fill="#303030"/>
<path d="M633 211H640V218H633V211Z" fill="#303030"/>
<path d="M717 211H724V218H717V211Z" fill="#303030"/>
<path d="M801 211H808V218H801V211Z" fill="#303030"/>
<path d="M885 211H892V218H885V211Z" fill="#303030"/>
<path d="M59 211H66V218H59V211Z" fill="#303030"/>
<path d="M143 211H150V218H143V211Z" fill="#303030"/>
<path d="M227 211H234V218H227V211Z" fill="#303030"/>
<path d="M311 211H318V218H311V211Z" fill="#303030"/>
<path d="M395 211H402V218H395V211Z" fill="#303030"/>
<path d="M479 211H486V218H479V211Z" fill="#303030"/>
<path d="M563 211H570V218H563V211Z" fill="#303030"/>
<path d="M647 211H654V218H647V211Z" fill="#303030"/>
<path d="M731 211H738V218H731V211Z" fill="#303030"/>
<path d="M815 211H822V218H815V211Z" fill="#303030"/>
<path d="M899 211H906V218H899V211Z" fill="#303030"/>
<path d="M73 211H80V218H73V211Z" fill="#303030"/>
<path d="M157 211H164V218H157V211Z" fill="#303030"/>
<path d="M241 211H248V218H241V211Z" fill="#303030"/>
<path d="M325 211H332V218H325V211Z" fill="#303030"/>
<path d="M409 211H416V218H409V211Z" fill="#303030"/>
<path d="M493 211H500V218H493V211Z" fill="#303030"/>
<path d="M577 211H584V218H577V211Z" fill="#303030"/>
<path d="M661 211H668V218H661V211Z" fill="#303030"/>
<path d="M745 211H752V218H745V211Z" fill="#303030"/>
<path d="M829 211H836V218H829V211Z" fill="#303030"/>
<path d="M913 211H920V218H913V211Z" fill="#303030"/>
<path d="M11 197H919.5" stroke="#010BFF"/>
<path d="M11 221H919.5" stroke="#FF0101"/>
<defs>
<linearGradient id="paint0_linear_397_50" x1="1417.5" y1="244" x2="1417.5" y2="253.958" gradientUnits="userSpaceOnUse">
<stop stop-color="#A09A9A"/>
<stop offset="0.536458" stop-color="#A09A9A" stop-opacity="0.78125"/>
<stop offset="0.9999" stop-color="#A09A9A" stop-opacity="0"/>
<stop offset="1" stop-color="#A09A9A" stop-opacity="0.851064"/>
</linearGradient>
</defs>
</svg>
