<svg width="1091" height="700" viewBox="0 0 1091 700" fill="none" xmlns="http://www.w3.org/2000/svg">
<path d="M114.38 456.726L114.38 475.87L1032.59 252.467L1032.59 233.323L114.38 456.726Z" fill="#A09A9A"/>
<path d="M57.8799 224.5L57.8799 243.635L114.383 475.869L121.261 474.195L60.3628 223.896L57.8799 224.5Z" fill="#A09A9A"/>
<rect x="57.8794" y="224.5" width="945" height="239" transform="rotate(-13.6745 57.8794 224.5)" fill="#D9D9D9"/>
<path d="M86.9531 267.856L93.7547 266.201L95.4095 273.002L88.608 274.657L86.9531 267.856Z" fill="#303030"/>
<path d="M100.556 264.546L107.358 262.891L109.013 269.693L102.211 271.348L100.556 264.546Z" fill="#303030"/>
<path d="M114.159 261.236L120.961 259.581L122.616 266.383L115.814 268.038L114.159 261.236Z" fill="#303030"/>
<path d="M127.763 257.927L134.564 256.272L136.219 263.073L129.417 264.728L127.763 257.927Z" fill="#303030"/>
<path d="M141.366 254.617L148.167 252.962L149.822 259.764L143.021 261.419L141.366 254.617Z" fill="#303030"/>
<path d="M154.969 251.307L161.771 249.652L163.425 256.454L156.624 258.109L154.969 251.307Z" fill="#303030"/>
<path d="M168.572 247.998L175.374 246.343L177.029 253.144L170.227 254.799L168.572 247.998Z" fill="#303030"/>
<path d="M182.175 244.688L188.977 243.033L190.632 249.835L183.83 251.489L182.175 244.688Z" fill="#303030"/>
<path d="M195.778 241.378L202.58 239.723L204.235 246.525L197.433 248.18L195.778 241.378Z" fill="#303030"/>
<path d="M209.382 238.069L216.183 236.414L217.838 243.215L211.036 244.87L209.382 238.069Z" fill="#303030"/>
<path d="M222.985 234.759L229.786 233.104L231.441 239.906L224.64 241.56L222.985 234.759Z" fill="#303030"/>
<path d="M236.588 231.449L243.389 229.794L245.044 236.596L238.243 238.251L236.588 231.449Z" fill="#303030"/>
<path d="M250.191 228.139L256.993 226.485L258.647 233.286L251.846 234.941L250.191 228.139Z" fill="#303030"/>
<path d="M263.794 224.83L270.596 223.175L272.251 229.977L265.449 231.631L263.794 224.83Z" fill="#303030"/>
<path d="M277.397 221.52L284.199 219.865L285.854 226.667L279.052 228.322L277.397 221.52Z" fill="#303030"/>
<path d="M291.001 218.21L297.802 216.556L299.457 223.357L292.655 225.012L291.001 218.21Z" fill="#303030"/>
<path d="M304.604 214.901L311.405 213.246L313.06 220.047L306.259 221.702L304.604 214.901Z" fill="#303030"/>
<path d="M318.207 211.591L325.008 209.936L326.663 216.738L319.862 218.393L318.207 211.591Z" fill="#303030"/>
<path d="M331.81 208.281L338.612 206.627L340.266 213.428L333.465 215.083L331.81 208.281Z" fill="#303030"/>
<path d="M345.413 204.972L352.215 203.317L353.87 210.118L347.068 211.773L345.413 204.972Z" fill="#303030"/>
<path d="M359.016 201.662L365.818 200.007L367.473 206.809L360.671 208.464L359.016 201.662Z" fill="#303030"/>
<path d="M372.62 198.352L379.421 196.697L381.076 203.499L374.274 205.154L372.62 198.352Z" fill="#303030"/>
<path d="M386.223 195.043L393.024 193.388L394.679 200.189L387.878 201.844L386.223 195.043Z" fill="#303030"/>
<path d="M399.826 191.733L406.627 190.078L408.282 196.88L401.481 198.535L399.826 191.733Z" fill="#303030"/>
<path d="M413.429 188.423L420.231 186.768L421.885 193.57L415.084 195.225L413.429 188.423Z" fill="#303030"/>
<path d="M427.032 185.114L433.834 183.459L435.489 190.26L428.687 191.915L427.032 185.114Z" fill="#303030"/>
<path d="M440.635 181.804L447.437 180.149L449.092 186.951L442.29 188.605L440.635 181.804Z" fill="#303030"/>
<path d="M454.238 178.494L461.04 176.839L462.695 183.641L455.893 185.296L454.238 178.494Z" fill="#303030"/>
<path d="M467.842 175.185L474.643 173.53L476.298 180.331L469.496 181.986L467.842 175.185Z" fill="#303030"/>
<path d="M481.445 171.875L488.246 170.22L489.901 177.022L483.1 178.676L481.445 171.875Z" fill="#303030"/>
<path d="M495.048 168.565L501.85 166.91L503.504 173.712L496.703 175.367L495.048 168.565Z" fill="#303030"/>
<path d="M508.651 165.255L515.453 163.601L517.108 170.402L510.306 172.057L508.651 165.255Z" fill="#303030"/>
<path d="M522.254 161.946L529.056 160.291L530.711 167.093L523.909 168.747L522.254 161.946Z" fill="#303030"/>
<path d="M535.857 158.636L542.659 156.981L544.314 163.783L537.512 165.438L535.857 158.636Z" fill="#303030"/>
<path d="M549.461 155.326L556.262 153.672L557.917 160.473L551.115 162.128L549.461 155.326Z" fill="#303030"/>
<path d="M563.064 152.017L569.865 150.362L571.52 157.163L564.719 158.818L563.064 152.017Z" fill="#303030"/>
<path d="M576.667 148.707L583.469 147.052L585.123 153.854L578.322 155.509L576.667 148.707Z" fill="#303030"/>
<path d="M590.27 145.397L597.072 143.743L598.727 150.544L591.925 152.199L590.27 145.397Z" fill="#303030"/>
<path d="M603.873 142.088L610.675 140.433L612.33 147.234L605.528 148.889L603.873 142.088Z" fill="#303030"/>
<path d="M617.476 138.778L624.278 137.123L625.933 143.925L619.131 145.58L617.476 138.778Z" fill="#303030"/>
<path d="M631.08 135.468L637.881 133.813L639.536 140.615L632.734 142.27L631.08 135.468Z" fill="#303030"/>
<path d="M644.683 132.159L651.484 130.504L653.139 137.305L646.338 138.96L644.683 132.159Z" fill="#303030"/>
<path d="M658.286 128.849L665.087 127.194L666.742 133.996L659.941 135.651L658.286 128.849Z" fill="#303030"/>
<path d="M671.889 125.539L678.691 123.884L680.345 130.686L673.544 132.341L671.889 125.539Z" fill="#303030"/>
<path d="M685.492 122.23L692.294 120.575L693.949 127.376L687.147 129.031L685.492 122.23Z" fill="#303030"/>
<path d="M699.095 118.92L705.897 117.265L707.552 124.067L700.75 125.721L699.095 118.92Z" fill="#303030"/>
<path d="M712.699 115.61L719.5 113.955L721.155 120.757L714.353 122.412L712.699 115.61Z" fill="#303030"/>
<path d="M726.302 112.3L733.103 110.646L734.758 117.447L727.957 119.102L726.302 112.3Z" fill="#303030"/>
<path d="M739.905 108.991L746.706 107.336L748.361 114.138L741.56 115.792L739.905 108.991Z" fill="#303030"/>
<path d="M753.508 105.681L760.31 104.026L761.964 110.828L755.163 112.483L753.508 105.681Z" fill="#303030"/>
<path d="M767.111 102.371L773.913 100.717L775.568 107.518L768.766 109.173L767.111 102.371Z" fill="#303030"/>
<path d="M780.714 99.0618L787.516 97.4069L789.171 104.208L782.369 105.863L780.714 99.0618Z" fill="#303030"/>
<path d="M794.317 95.7521L801.119 94.0972L802.774 100.899L795.972 102.554L794.317 95.7521Z" fill="#303030"/>
<path d="M807.921 92.4424L814.722 90.7875L816.377 97.5891L809.575 99.244L807.921 92.4424Z" fill="#303030"/>
<path d="M821.524 89.1327L828.325 87.4779L829.98 94.2794L823.179 95.9343L821.524 89.1327Z" fill="#303030"/>
<path d="M835.127 85.823L841.929 84.1682L843.583 90.9698L836.782 92.6246L835.127 85.823Z" fill="#303030"/>
<path d="M848.73 82.5133L855.532 80.8585L857.187 87.6601L850.385 89.3149L848.73 82.5133Z" fill="#303030"/>
<path d="M862.333 79.2036L869.135 77.5488L870.79 84.3504L863.988 86.0052L862.333 79.2036Z" fill="#303030"/>
<path d="M875.936 75.894L882.738 74.2391L884.393 81.0407L877.591 82.6955L875.936 75.894Z" fill="#303030"/>
<path d="M889.54 72.5843L896.341 70.9294L897.996 77.731L891.194 79.3859L889.54 72.5843Z" fill="#303030"/>
<path d="M903.143 69.2746L909.944 67.6197L911.599 74.4213L904.798 76.0762L903.143 69.2746Z" fill="#303030"/>
<path d="M916.746 65.9649L923.548 64.3101L925.202 71.1116L918.401 72.7665L916.746 65.9649Z" fill="#303030"/>
<path d="M930.349 62.6552L937.151 61.0004L938.806 67.802L932.004 69.4568L930.349 62.6552Z" fill="#303030"/>
<path d="M943.952 59.3455L950.754 57.6907L952.409 64.4923L945.607 66.1471L943.952 59.3455Z" fill="#303030"/>
<path d="M957.555 56.0358L964.357 54.381L966.012 61.1826L959.21 62.8374L957.555 56.0358Z" fill="#303030"/>
<path d="M89.5536 278.544L96.3552 276.889L98.01 283.691L91.2084 285.345L89.5536 278.544Z" fill="#303030"/>
<path d="M103.157 275.234L109.958 273.579L111.613 280.381L104.812 282.036L103.157 275.234Z" fill="#303030"/>
<path d="M116.76 271.925L123.561 270.27L125.216 277.071L118.415 278.726L116.76 271.925Z" fill="#303030"/>
<path d="M130.363 268.615L137.165 266.96L138.819 273.762L132.018 275.416L130.363 268.615Z" fill="#303030"/>
<path d="M143.966 265.305L150.768 263.65L152.423 270.452L145.621 272.107L143.966 265.305Z" fill="#303030"/>
<path d="M157.569 261.995L164.371 260.341L166.026 267.142L159.224 268.797L157.569 261.995Z" fill="#303030"/>
<path d="M171.173 258.686L177.974 257.031L179.629 263.833L172.827 265.487L171.173 258.686Z" fill="#303030"/>
<path d="M184.776 255.376L191.577 253.721L193.232 260.523L186.431 262.178L184.776 255.376Z" fill="#303030"/>
<path d="M198.379 252.066L205.18 250.412L206.835 257.213L200.034 258.868L198.379 252.066Z" fill="#303030"/>
<path d="M211.982 248.757L218.784 247.102L220.438 253.903L213.637 255.558L211.982 248.757Z" fill="#303030"/>
<path d="M225.585 245.447L232.387 243.792L234.042 250.594L227.24 252.249L225.585 245.447Z" fill="#303030"/>
<path d="M239.188 242.137L245.99 240.483L247.645 247.284L240.843 248.939L239.188 242.137Z" fill="#303030"/>
<path d="M252.792 238.828L259.593 237.173L261.248 243.974L254.446 245.629L252.792 238.828Z" fill="#303030"/>
<path d="M266.395 235.518L273.196 233.863L274.851 240.665L268.05 242.32L266.395 235.518Z" fill="#303030"/>
<path d="M279.998 232.208L286.799 230.553L288.454 237.355L281.653 239.01L279.998 232.208Z" fill="#303030"/>
<path d="M293.601 228.899L300.403 227.244L302.057 234.045L295.256 235.7L293.601 228.899Z" fill="#303030"/>
<path d="M307.204 225.589L314.006 223.934L315.661 230.736L308.859 232.391L307.204 225.589Z" fill="#303030"/>
<path d="M320.807 222.279L327.609 220.624L329.264 227.426L322.462 229.081L320.807 222.279Z" fill="#303030"/>
<path d="M334.41 218.97L341.212 217.315L342.867 224.116L336.065 225.771L334.41 218.97Z" fill="#303030"/>
<path d="M348.014 215.66L354.815 214.005L356.47 220.807L349.668 222.461L348.014 215.66Z" fill="#303030"/>
<path d="M361.617 212.35L368.418 210.695L370.073 217.497L363.272 219.152L361.617 212.35Z" fill="#303030"/>
<path d="M375.22 209.041L382.022 207.386L383.676 214.187L376.875 215.842L375.22 209.041Z" fill="#303030"/>
<path d="M388.823 205.731L395.625 204.076L397.28 210.878L390.478 212.532L388.823 205.731Z" fill="#303030"/>
<path d="M402.426 202.421L409.228 200.766L410.883 207.568L404.081 209.223L402.426 202.421Z" fill="#303030"/>
<path d="M416.029 199.111L422.831 197.457L424.486 204.258L417.684 205.913L416.029 199.111Z" fill="#303030"/>
<path d="M429.633 195.802L436.434 194.147L438.089 200.949L431.287 202.603L429.633 195.802Z" fill="#303030"/>
<path d="M443.236 192.492L450.037 190.837L451.692 197.639L444.891 199.294L443.236 192.492Z" fill="#303030"/>
<path d="M456.839 189.182L463.641 187.528L465.295 194.329L458.494 195.984L456.839 189.182Z" fill="#303030"/>
<path d="M470.442 185.873L477.244 184.218L478.899 191.019L472.097 192.674L470.442 185.873Z" fill="#303030"/>
<path d="M484.045 182.563L490.847 180.908L492.502 187.71L485.7 189.365L484.045 182.563Z" fill="#303030"/>
<path d="M497.648 179.253L504.45 177.599L506.105 184.4L499.303 186.055L497.648 179.253Z" fill="#303030"/>
<path d="M511.252 175.944L518.053 174.289L519.708 181.09L512.906 182.745L511.252 175.944Z" fill="#303030"/>
<path d="M524.855 172.634L531.656 170.979L533.311 177.781L526.51 179.436L524.855 172.634Z" fill="#303030"/>
<path d="M538.458 169.324L545.259 167.669L546.914 174.471L540.113 176.126L538.458 169.324Z" fill="#303030"/>
<path d="M552.061 166.015L558.863 164.36L560.517 171.161L553.716 172.816L552.061 166.015Z" fill="#303030"/>
<path d="M565.664 162.705L572.466 161.05L574.121 167.852L567.319 169.507L565.664 162.705Z" fill="#303030"/>
<path d="M579.267 159.395L586.069 157.74L587.724 164.542L580.922 166.197L579.267 159.395Z" fill="#303030"/>
<path d="M592.871 156.086L599.672 154.431L601.327 161.232L594.525 162.887L592.871 156.086Z" fill="#303030"/>
<path d="M606.474 152.776L613.275 151.121L614.93 157.923L608.129 159.577L606.474 152.776Z" fill="#303030"/>
<path d="M620.077 149.466L626.878 147.811L628.533 154.613L621.732 156.268L620.077 149.466Z" fill="#303030"/>
<path d="M633.68 146.156L640.482 144.502L642.136 151.303L635.335 152.958L633.68 146.156Z" fill="#303030"/>
<path d="M647.283 142.847L654.085 141.192L655.74 147.994L648.938 149.648L647.283 142.847Z" fill="#303030"/>
<path d="M660.886 139.537L667.688 137.882L669.343 144.684L662.541 146.339L660.886 139.537Z" fill="#303030"/>
<path d="M674.49 136.227L681.291 134.573L682.946 141.374L676.144 143.029L674.49 136.227Z" fill="#303030"/>
<path d="M688.093 132.918L694.894 131.263L696.549 138.064L689.748 139.719L688.093 132.918Z" fill="#303030"/>
<path d="M701.696 129.608L708.497 127.953L710.152 134.755L703.351 136.41L701.696 129.608Z" fill="#303030"/>
<path d="M715.299 126.298L722.101 124.644L723.755 131.445L716.954 133.1L715.299 126.298Z" fill="#303030"/>
<path d="M728.902 122.989L735.704 121.334L737.359 128.135L730.557 129.79L728.902 122.989Z" fill="#303030"/>
<path d="M742.505 119.679L749.307 118.024L750.962 124.826L744.16 126.481L742.505 119.679Z" fill="#303030"/>
<path d="M756.108 116.369L762.91 114.714L764.565 121.516L757.763 123.171L756.108 116.369Z" fill="#303030"/>
<path d="M769.712 113.06L776.513 111.405L778.168 118.206L771.366 119.861L769.712 113.06Z" fill="#303030"/>
<path d="M783.315 109.75L790.116 108.095L791.771 114.897L784.97 116.552L783.315 109.75Z" fill="#303030"/>
<path d="M796.918 106.44L803.72 104.785L805.374 111.587L798.573 113.242L796.918 106.44Z" fill="#303030"/>
<path d="M810.521 103.131L817.323 101.476L818.978 108.277L812.176 109.932L810.521 103.131Z" fill="#303030"/>
<path d="M824.124 99.8209L830.926 98.1661L832.581 104.968L825.779 106.622L824.124 99.8209Z" fill="#303030"/>
<path d="M837.727 96.5112L844.529 94.8564L846.184 101.658L839.382 103.313L837.727 96.5112Z" fill="#303030"/>
<path d="M851.331 93.2015L858.132 91.5467L859.787 98.3483L852.985 100.003L851.331 93.2015Z" fill="#303030"/>
<path d="M864.934 89.8918L871.735 88.237L873.39 95.0386L866.589 96.6934L864.934 89.8918Z" fill="#303030"/>
<path d="M878.537 86.5822L885.339 84.9273L886.993 91.7289L880.192 93.3837L878.537 86.5822Z" fill="#303030"/>
<path d="M892.14 83.2725L898.942 81.6176L900.597 88.4192L893.795 90.0741L892.14 83.2725Z" fill="#303030"/>
<path d="M905.743 79.9628L912.545 78.3079L914.2 85.1095L907.398 86.7644L905.743 79.9628Z" fill="#303030"/>
<path d="M919.346 76.6531L926.148 74.9983L927.803 81.7998L921.001 83.4547L919.346 76.6531Z" fill="#303030"/>
<path d="M932.95 73.3434L939.751 71.6886L941.406 78.4902L934.604 80.145L932.95 73.3434Z" fill="#303030"/>
<path d="M946.553 70.0337L953.354 68.3789L955.009 75.1805L948.208 76.8353L946.553 70.0337Z" fill="#303030"/>
<path d="M960.156 66.724L966.957 65.0692L968.612 71.8708L961.811 73.5256L960.156 66.724Z" fill="#303030"/>
<path d="M92.1541 289.232L98.9556 287.577L100.61 294.379L93.8089 296.034L92.1541 289.232Z" fill="#303030"/>
<path d="M105.757 285.922L112.559 284.268L114.214 291.069L107.412 292.724L105.757 285.922Z" fill="#303030"/>
<path d="M119.36 282.613L126.162 280.958L127.817 287.759L121.015 289.414L119.36 282.613Z" fill="#303030"/>
<path d="M132.964 279.303L139.765 277.648L141.42 284.45L134.618 286.105L132.964 279.303Z" fill="#303030"/>
<path d="M146.567 275.993L153.368 274.339L155.023 281.14L148.222 282.795L146.567 275.993Z" fill="#303030"/>
<path d="M160.17 272.684L166.971 271.029L168.626 277.83L161.825 279.485L160.17 272.684Z" fill="#303030"/>
<path d="M173.773 269.374L180.575 267.719L182.229 274.521L175.428 276.176L173.773 269.374Z" fill="#303030"/>
<path d="M187.376 266.064L194.178 264.409L195.833 271.211L189.031 272.866L187.376 266.064Z" fill="#303030"/>
<path d="M200.979 262.755L207.781 261.1L209.436 267.901L202.634 269.556L200.979 262.755Z" fill="#303030"/>
<path d="M214.583 259.445L221.384 257.79L223.039 264.592L216.237 266.247L214.583 259.445Z" fill="#303030"/>
<path d="M228.186 256.135L234.987 254.48L236.642 261.282L229.841 262.937L228.186 256.135Z" fill="#303030"/>
<path d="M241.789 252.826L248.59 251.171L250.245 257.972L243.444 259.627L241.789 252.826Z" fill="#303030"/>
<path d="M255.392 249.516L262.194 247.861L263.848 254.663L257.047 256.317L255.392 249.516Z" fill="#303030"/>
<path d="M268.995 246.206L275.797 244.551L277.452 251.353L270.65 253.008L268.995 246.206Z" fill="#303030"/>
<path d="M282.598 242.897L289.4 241.242L291.055 248.043L284.253 249.698L282.598 242.897Z" fill="#303030"/>
<path d="M296.201 239.587L303.003 237.932L304.658 244.734L297.856 246.388L296.201 239.587Z" fill="#303030"/>
<path d="M309.805 236.277L316.606 234.622L318.261 241.424L311.459 243.079L309.805 236.277Z" fill="#303030"/>
<path d="M323.408 232.967L330.209 231.313L331.864 238.114L325.063 239.769L323.408 232.967Z" fill="#303030"/>
<path d="M337.011 229.658L343.813 228.003L345.467 234.805L338.666 236.459L337.011 229.658Z" fill="#303030"/>
<path d="M350.614 226.348L357.416 224.693L359.071 231.495L352.269 233.15L350.614 226.348Z" fill="#303030"/>
<path d="M364.217 223.038L371.019 221.384L372.674 228.185L365.872 229.84L364.217 223.038Z" fill="#303030"/>
<path d="M377.82 219.729L384.622 218.074L386.277 224.875L379.475 226.53L377.82 219.729Z" fill="#303030"/>
<path d="M391.424 216.419L398.225 214.764L399.88 221.566L393.078 223.221L391.424 216.419Z" fill="#303030"/>
<path d="M405.027 213.109L411.828 211.455L413.483 218.256L406.682 219.911L405.027 213.109Z" fill="#303030"/>
<path d="M418.63 209.8L425.432 208.145L427.086 214.946L420.285 216.601L418.63 209.8Z" fill="#303030"/>
<path d="M432.233 206.49L439.035 204.835L440.69 211.637L433.888 213.292L432.233 206.49Z" fill="#303030"/>
<path d="M445.836 203.18L452.638 201.525L454.293 208.327L447.491 209.982L445.836 203.18Z" fill="#303030"/>
<path d="M459.439 199.871L466.241 198.216L467.896 205.017L461.094 206.672L459.439 199.871Z" fill="#303030"/>
<path d="M473.043 196.561L479.844 194.906L481.499 201.708L474.697 203.362L473.043 196.561Z" fill="#303030"/>
<path d="M486.646 193.251L493.447 191.596L495.102 198.398L488.301 200.053L486.646 193.251Z" fill="#303030"/>
<path d="M500.249 189.942L507.05 188.287L508.705 195.088L501.904 196.743L500.249 189.942Z" fill="#303030"/>
<path d="M513.852 186.632L520.654 184.977L522.308 191.779L515.507 193.433L513.852 186.632Z" fill="#303030"/>
<path d="M527.455 183.322L534.257 181.667L535.912 188.469L529.11 190.124L527.455 183.322Z" fill="#303030"/>
<path d="M541.058 180.012L547.86 178.358L549.515 185.159L542.713 186.814L541.058 180.012Z" fill="#303030"/>
<path d="M554.662 176.703L561.463 175.048L563.118 181.85L556.316 183.504L554.662 176.703Z" fill="#303030"/>
<path d="M568.265 173.393L575.066 171.738L576.721 178.54L569.92 180.195L568.265 173.393Z" fill="#303030"/>
<path d="M581.868 170.083L588.669 168.429L590.324 175.23L583.523 176.885L581.868 170.083Z" fill="#303030"/>
<path d="M595.471 166.774L602.273 165.119L603.927 171.92L597.126 173.575L595.471 166.774Z" fill="#303030"/>
<path d="M609.074 163.464L615.876 161.809L617.531 168.611L610.729 170.266L609.074 163.464Z" fill="#303030"/>
<path d="M622.677 160.154L629.479 158.5L631.134 165.301L624.332 166.956L622.677 160.154Z" fill="#303030"/>
<path d="M636.28 156.845L643.082 155.19L644.737 161.991L637.935 163.646L636.28 156.845Z" fill="#303030"/>
<path d="M649.884 153.535L656.685 151.88L658.34 158.682L651.539 160.337L649.884 153.535Z" fill="#303030"/>
<path d="M663.487 150.225L670.288 148.57L671.943 155.372L665.142 157.027L663.487 150.225Z" fill="#303030"/>
<path d="M677.09 146.916L683.892 145.261L685.546 152.062L678.745 153.717L677.09 146.916Z" fill="#303030"/>
<path d="M690.693 143.606L697.495 141.951L699.15 148.753L692.348 150.408L690.693 143.606Z" fill="#303030"/>
<path d="M704.296 140.296L711.098 138.641L712.753 145.443L705.951 147.098L704.296 140.296Z" fill="#303030"/>
<path d="M717.899 136.987L724.701 135.332L726.356 142.133L719.554 143.788L717.899 136.987Z" fill="#303030"/>
<path d="M731.503 133.677L738.304 132.022L739.959 138.824L733.157 140.478L731.503 133.677Z" fill="#303030"/>
<path d="M745.106 130.367L751.907 128.712L753.562 135.514L746.761 137.169L745.106 130.367Z" fill="#303030"/>
<path d="M758.709 127.058L765.511 125.403L767.165 132.204L760.364 133.859L758.709 127.058Z" fill="#303030"/>
<path d="M772.312 123.748L779.114 122.093L780.769 128.895L773.967 130.549L772.312 123.748Z" fill="#303030"/>
<path d="M785.915 120.438L792.717 118.783L794.372 125.585L787.57 127.24L785.915 120.438Z" fill="#303030"/>
<path d="M799.518 117.128L806.32 115.474L807.975 122.275L801.173 123.93L799.518 117.128Z" fill="#303030"/>
<path d="M813.122 113.819L819.923 112.164L821.578 118.966L814.776 120.62L813.122 113.819Z" fill="#303030"/>
<path d="M826.725 110.509L833.526 108.854L835.181 115.656L828.38 117.311L826.725 110.509Z" fill="#303030"/>
<path d="M840.328 107.199L847.129 105.545L848.784 112.346L841.983 114.001L840.328 107.199Z" fill="#303030"/>
<path d="M853.931 103.89L860.733 102.235L862.387 109.036L855.586 110.691L853.931 103.89Z" fill="#303030"/>
<path d="M867.534 100.58L874.336 98.9252L875.991 105.727L869.189 107.382L867.534 100.58Z" fill="#303030"/>
<path d="M881.137 97.2704L887.939 95.6155L889.594 102.417L882.792 104.072L881.137 97.2704Z" fill="#303030"/>
<path d="M894.741 93.9607L901.542 92.3058L903.197 99.1074L896.395 100.762L894.741 93.9607Z" fill="#303030"/>
<path d="M908.344 90.651L915.145 88.9961L916.8 95.7977L909.999 97.4526L908.344 90.651Z" fill="#303030"/>
<path d="M921.947 87.3413L928.748 85.6865L930.403 92.488L923.602 94.1429L921.947 87.3413Z" fill="#303030"/>
<path d="M935.55 84.0316L942.352 82.3768L944.006 89.1783L937.205 90.8332L935.55 84.0316Z" fill="#303030"/>
<path d="M949.153 80.7219L955.955 79.0671L957.61 85.8687L950.808 87.5235L949.153 80.7219Z" fill="#303030"/>
<path d="M962.756 77.4122L969.558 75.7574L971.213 82.559L964.411 84.2138L962.756 77.4122Z" fill="#303030"/>
<path d="M94.7545 299.92L101.556 298.265L103.211 305.067L96.4094 306.722L94.7545 299.92Z" fill="#303030"/>
<path d="M108.358 296.611L115.159 294.956L116.814 301.757L110.013 303.412L108.358 296.611Z" fill="#303030"/>
<path d="M121.961 293.301L128.762 291.646L130.417 298.448L123.616 300.103L121.961 293.301Z" fill="#303030"/>
<path d="M135.564 289.991L142.366 288.336L144.02 295.138L137.219 296.793L135.564 289.991Z" fill="#303030"/>
<path d="M149.167 286.682L155.969 285.027L157.624 291.828L150.822 293.483L149.167 286.682Z" fill="#303030"/>
<path d="M162.77 283.372L169.572 281.717L171.227 288.519L164.425 290.173L162.77 283.372Z" fill="#303030"/>
<path d="M176.373 280.062L183.175 278.407L184.83 285.209L178.028 286.864L176.373 280.062Z" fill="#303030"/>
<path d="M189.977 276.753L196.778 275.098L198.433 281.899L191.631 283.554L189.977 276.753Z" fill="#303030"/>
<path d="M203.58 273.443L210.381 271.788L212.036 278.59L205.235 280.244L203.58 273.443Z" fill="#303030"/>
<path d="M217.183 270.133L223.985 268.478L225.639 275.28L218.838 276.935L217.183 270.133Z" fill="#303030"/>
<path d="M230.786 266.823L237.588 265.169L239.243 271.97L232.441 273.625L230.786 266.823Z" fill="#303030"/>
<path d="M244.389 263.514L251.191 261.859L252.846 268.661L246.044 270.315L244.389 263.514Z" fill="#303030"/>
<path d="M257.992 260.204L264.794 258.549L266.449 265.351L259.647 267.006L257.992 260.204Z" fill="#303030"/>
<path d="M271.596 256.894L278.397 255.24L280.052 262.041L273.25 263.696L271.596 256.894Z" fill="#303030"/>
<path d="M285.199 253.585L292 251.93L293.655 258.731L286.854 260.386L285.199 253.585Z" fill="#303030"/>
<path d="M298.802 250.275L305.604 248.62L307.258 255.422L300.457 257.077L298.802 250.275Z" fill="#303030"/>
<path d="M312.405 246.965L319.207 245.31L320.862 252.112L314.06 253.767L312.405 246.965Z" fill="#303030"/>
<path d="M326.008 243.656L332.81 242.001L334.465 248.802L327.663 250.457L326.008 243.656Z" fill="#303030"/>
<path d="M339.611 240.346L346.413 238.691L348.068 245.493L341.266 247.148L339.611 240.346Z" fill="#303030"/>
<path d="M353.215 237.036L360.016 235.381L361.671 242.183L354.869 243.838L353.215 237.036Z" fill="#303030"/>
<path d="M366.818 233.727L373.619 232.072L375.274 238.873L368.473 240.528L366.818 233.727Z" fill="#303030"/>
<path d="M380.421 230.417L387.222 228.762L388.877 235.564L382.076 237.218L380.421 230.417Z" fill="#303030"/>
<path d="M394.024 227.107L400.826 225.452L402.48 232.254L395.679 233.909L394.024 227.107Z" fill="#303030"/>
<path d="M407.627 223.798L414.429 222.143L416.084 228.944L409.282 230.599L407.627 223.798Z" fill="#303030"/>
<path d="M421.23 220.488L428.032 218.833L429.687 225.635L422.885 227.289L421.23 220.488Z" fill="#303030"/>
<path d="M434.834 217.178L441.635 215.523L443.29 222.325L436.488 223.98L434.834 217.178Z" fill="#303030"/>
<path d="M448.437 213.868L455.238 212.214L456.893 219.015L450.092 220.67L448.437 213.868Z" fill="#303030"/>
<path d="M462.04 210.559L468.841 208.904L470.496 215.706L463.695 217.36L462.04 210.559Z" fill="#303030"/>
<path d="M475.643 207.249L482.445 205.594L484.099 212.396L477.298 214.051L475.643 207.249Z" fill="#303030"/>
<path d="M489.246 203.939L496.048 202.285L497.703 209.086L490.901 210.741L489.246 203.939Z" fill="#303030"/>
<path d="M502.849 200.63L509.651 198.975L511.306 205.776L504.504 207.431L502.849 200.63Z" fill="#303030"/>
<path d="M516.453 197.32L523.254 195.665L524.909 202.467L518.107 204.122L516.453 197.32Z" fill="#303030"/>
<path d="M530.056 194.01L536.857 192.356L538.512 199.157L531.711 200.812L530.056 194.01Z" fill="#303030"/>
<path d="M543.659 190.701L550.46 189.046L552.115 195.847L545.314 197.502L543.659 190.701Z" fill="#303030"/>
<path d="M557.262 187.391L564.064 185.736L565.718 192.538L558.917 194.193L557.262 187.391Z" fill="#303030"/>
<path d="M570.865 184.081L577.667 182.426L579.322 189.228L572.52 190.883L570.865 184.081Z" fill="#303030"/>
<path d="M584.468 180.772L591.27 179.117L592.925 185.918L586.123 187.573L584.468 180.772Z" fill="#303030"/>
<path d="M598.071 177.462L604.873 175.807L606.528 182.609L599.726 184.264L598.071 177.462Z" fill="#303030"/>
<path d="M611.675 174.152L618.476 172.497L620.131 179.299L613.329 180.954L611.675 174.152Z" fill="#303030"/>
<path d="M625.278 170.843L632.079 169.188L633.734 175.989L626.933 177.644L625.278 170.843Z" fill="#303030"/>
<path d="M638.881 167.533L645.683 165.878L647.337 172.68L640.536 174.334L638.881 167.533Z" fill="#303030"/>
<path d="M652.484 164.223L659.286 162.568L660.941 169.37L654.139 171.025L652.484 164.223Z" fill="#303030"/>
<path d="M666.087 160.914L672.889 159.259L674.544 166.06L667.742 167.715L666.087 160.914Z" fill="#303030"/>
<path d="M679.69 157.604L686.492 155.949L688.147 162.751L681.345 164.405L679.69 157.604Z" fill="#303030"/>
<path d="M693.294 154.294L700.095 152.639L701.75 159.441L694.948 161.096L693.294 154.294Z" fill="#303030"/>
<path d="M706.897 150.984L713.698 149.33L715.353 156.131L708.552 157.786L706.897 150.984Z" fill="#303030"/>
<path d="M720.5 147.675L727.302 146.02L728.956 152.822L722.155 154.476L720.5 147.675Z" fill="#303030"/>
<path d="M734.103 144.365L740.905 142.71L742.56 149.512L735.758 151.167L734.103 144.365Z" fill="#303030"/>
<path d="M747.706 141.055L754.508 139.401L756.163 146.202L749.361 147.857L747.706 141.055Z" fill="#303030"/>
<path d="M761.309 137.746L768.111 136.091L769.766 142.892L762.964 144.547L761.309 137.746Z" fill="#303030"/>
<path d="M774.913 134.436L781.714 132.781L783.369 139.583L776.567 141.238L774.913 134.436Z" fill="#303030"/>
<path d="M788.516 131.126L795.317 129.472L796.972 136.273L790.171 137.928L788.516 131.126Z" fill="#303030"/>
<path d="M802.119 127.817L808.92 126.162L810.575 132.963L803.774 134.618L802.119 127.817Z" fill="#303030"/>
<path d="M815.722 124.507L822.524 122.852L824.178 129.654L817.377 131.309L815.722 124.507Z" fill="#303030"/>
<path d="M829.325 121.197L836.127 119.542L837.782 126.344L830.98 127.999L829.325 121.197Z" fill="#303030"/>
<path d="M842.928 117.888L849.73 116.233L851.385 123.034L844.583 124.689L842.928 117.888Z" fill="#303030"/>
<path d="M856.532 114.578L863.333 112.923L864.988 119.725L858.186 121.38L856.532 114.578Z" fill="#303030"/>
<path d="M870.135 111.268L876.936 109.613L878.591 116.415L871.79 118.07L870.135 111.268Z" fill="#303030"/>
<path d="M883.738 107.959L890.539 106.304L892.194 113.105L885.393 114.76L883.738 107.959Z" fill="#303030"/>
<path d="M897.341 104.649L904.143 102.994L905.797 109.796L898.996 111.45L897.341 104.649Z" fill="#303030"/>
<path d="M910.944 101.339L917.746 99.6843L919.401 106.486L912.599 108.141L910.944 101.339Z" fill="#303030"/>
<path d="M924.547 98.0295L931.349 96.3747L933.004 103.176L926.202 104.831L924.547 98.0295Z" fill="#303030"/>
<path d="M938.151 94.7198L944.952 93.065L946.607 99.8665L939.805 101.521L938.151 94.7198Z" fill="#303030"/>
<path d="M951.754 91.4101L958.555 89.7553L960.21 96.5569L953.409 98.2117L951.754 91.4101Z" fill="#303030"/>
<path d="M965.357 88.1004L972.158 86.4456L973.813 93.2472L967.012 94.902L965.357 88.1004Z" fill="#303030"/>
<path d="M97.355 310.609L104.157 308.954L105.811 315.755L99.0098 317.41L97.355 310.609Z" fill="#303030"/>
<path d="M110.958 307.299L117.76 305.644L119.415 312.446L112.613 314.1L110.958 307.299Z" fill="#303030"/>
<path d="M124.561 303.989L131.363 302.334L133.018 309.136L126.216 310.791L124.561 303.989Z" fill="#303030"/>
<path d="M138.164 300.679L144.966 299.025L146.621 305.826L139.819 307.481L138.164 300.679Z" fill="#303030"/>
<path d="M151.768 297.37L158.569 295.715L160.224 302.517L153.422 304.171L151.768 297.37Z" fill="#303030"/>
<path d="M165.371 294.06L172.172 292.405L173.827 299.207L167.026 300.862L165.371 294.06Z" fill="#303030"/>
<path d="M178.974 290.75L185.776 289.096L187.43 295.897L180.629 297.552L178.974 290.75Z" fill="#303030"/>
<path d="M192.577 287.441L199.379 285.786L201.034 292.587L194.232 294.242L192.577 287.441Z" fill="#303030"/>
<path d="M206.18 284.131L212.982 282.476L214.637 289.278L207.835 290.933L206.18 284.131Z" fill="#303030"/>
<path d="M219.783 280.821L226.585 279.166L228.24 285.968L221.438 287.623L219.783 280.821Z" fill="#303030"/>
<path d="M233.387 277.512L240.188 275.857L241.843 282.658L235.041 284.313L233.387 277.512Z" fill="#303030"/>
<path d="M246.99 274.202L253.791 272.547L255.446 279.349L248.645 281.004L246.99 274.202Z" fill="#303030"/>
<path d="M260.593 270.892L267.395 269.237L269.049 276.039L262.248 277.694L260.593 270.892Z" fill="#303030"/>
<path d="M274.196 267.583L280.998 265.928L282.653 272.729L275.851 274.384L274.196 267.583Z" fill="#303030"/>
<path d="M287.799 264.273L294.601 262.618L296.256 269.42L289.454 271.074L287.799 264.273Z" fill="#303030"/>
<path d="M301.402 260.963L308.204 259.308L309.859 266.11L303.057 267.765L301.402 260.963Z" fill="#303030"/>
<path d="M315.006 257.654L321.807 255.999L323.462 262.8L316.66 264.455L315.006 257.654Z" fill="#303030"/>
<path d="M328.609 254.344L335.41 252.689L337.065 259.491L330.264 261.145L328.609 254.344Z" fill="#303030"/>
<path d="M342.212 251.034L349.013 249.379L350.668 256.181L343.867 257.836L342.212 251.034Z" fill="#303030"/>
<path d="M355.815 247.724L362.617 246.07L364.271 252.871L357.47 254.526L355.815 247.724Z" fill="#303030"/>
<path d="M369.418 244.415L376.22 242.76L377.875 249.562L371.073 251.216L369.418 244.415Z" fill="#303030"/>
<path d="M383.021 241.105L389.823 239.45L391.478 246.252L384.676 247.907L383.021 241.105Z" fill="#303030"/>
<path d="M396.625 237.795L403.426 236.141L405.081 242.942L398.279 244.597L396.625 237.795Z" fill="#303030"/>
<path d="M410.228 234.486L417.029 232.831L418.684 239.632L411.883 241.287L410.228 234.486Z" fill="#303030"/>
<path d="M423.831 231.176L430.632 229.521L432.287 236.323L425.486 237.978L423.831 231.176Z" fill="#303030"/>
<path d="M437.434 227.866L444.236 226.212L445.89 233.013L439.089 234.668L437.434 227.866Z" fill="#303030"/>
<path d="M451.037 224.557L457.839 222.902L459.494 229.703L452.692 231.358L451.037 224.557Z" fill="#303030"/>
<path d="M464.64 221.247L471.442 219.592L473.097 226.394L466.295 228.049L464.64 221.247Z" fill="#303030"/>
<path d="M478.244 217.937L485.045 216.282L486.7 223.084L479.898 224.739L478.244 217.937Z" fill="#303030"/>
<path d="M491.847 214.628L498.648 212.973L500.303 219.774L493.502 221.429L491.847 214.628Z" fill="#303030"/>
<path d="M505.45 211.318L512.251 209.663L513.906 216.465L507.105 218.12L505.45 211.318Z" fill="#303030"/>
<path d="M519.053 208.008L525.855 206.353L527.509 213.155L520.708 214.81L519.053 208.008Z" fill="#303030"/>
<path d="M532.656 204.699L539.458 203.044L541.113 209.845L534.311 211.5L532.656 204.699Z" fill="#303030"/>
<path d="M546.259 201.389L553.061 199.734L554.716 206.536L547.914 208.19L546.259 201.389Z" fill="#303030"/>
<path d="M559.862 198.079L566.664 196.424L568.319 203.226L561.517 204.881L559.862 198.079Z" fill="#303030"/>
<path d="M573.466 194.77L580.267 193.115L581.922 199.916L575.12 201.571L573.466 194.77Z" fill="#303030"/>
<path d="M587.069 191.46L593.87 189.805L595.525 196.607L588.724 198.261L587.069 191.46Z" fill="#303030"/>
<path d="M600.672 188.15L607.474 186.495L609.128 193.297L602.327 194.952L600.672 188.15Z" fill="#303030"/>
<path d="M614.275 184.84L621.077 183.186L622.732 189.987L615.93 191.642L614.275 184.84Z" fill="#303030"/>
<path d="M627.878 181.531L634.68 179.876L636.335 186.678L629.533 188.332L627.878 181.531Z" fill="#303030"/>
<path d="M641.481 178.221L648.283 176.566L649.938 183.368L643.136 185.023L641.481 178.221Z" fill="#303030"/>
<path d="M655.085 174.911L661.886 173.257L663.541 180.058L656.739 181.713L655.085 174.911Z" fill="#303030"/>
<path d="M668.688 171.602L675.489 169.947L677.144 176.748L670.343 178.403L668.688 171.602Z" fill="#303030"/>
<path d="M682.291 168.292L689.092 166.637L690.747 173.439L683.946 175.094L682.291 168.292Z" fill="#303030"/>
<path d="M695.894 164.982L702.696 163.328L704.35 170.129L697.549 171.784L695.894 164.982Z" fill="#303030"/>
<path d="M709.497 161.673L716.299 160.018L717.954 166.819L711.152 168.474L709.497 161.673Z" fill="#303030"/>
<path d="M723.1 158.363L729.902 156.708L731.557 163.51L724.755 165.165L723.1 158.363Z" fill="#303030"/>
<path d="M736.704 155.053L743.505 153.398L745.16 160.2L738.358 161.855L736.704 155.053Z" fill="#303030"/>
<path d="M750.307 151.744L757.108 150.089L758.763 156.89L751.962 158.545L750.307 151.744Z" fill="#303030"/>
<path d="M763.91 148.434L770.711 146.779L772.366 153.581L765.565 155.235L763.91 148.434Z" fill="#303030"/>
<path d="M777.513 145.124L784.315 143.469L785.969 150.271L779.168 151.926L777.513 145.124Z" fill="#303030"/>
<path d="M791.116 141.815L797.918 140.16L799.573 146.961L792.771 148.616L791.116 141.815Z" fill="#303030"/>
<path d="M804.719 138.505L811.521 136.85L813.176 143.652L806.374 145.306L804.719 138.505Z" fill="#303030"/>
<path d="M818.323 135.195L825.124 133.54L826.779 140.342L819.977 141.997L818.323 135.195Z" fill="#303030"/>
<path d="M831.926 131.885L838.727 130.231L840.382 137.032L833.581 138.687L831.926 131.885Z" fill="#303030"/>
<path d="M845.529 128.576L852.33 126.921L853.985 133.723L847.184 135.377L845.529 128.576Z" fill="#303030"/>
<path d="M859.132 125.266L865.934 123.611L867.588 130.413L860.787 132.068L859.132 125.266Z" fill="#303030"/>
<path d="M872.735 121.956L879.537 120.302L881.192 127.103L874.39 128.758L872.735 121.956Z" fill="#303030"/>
<path d="M886.338 118.647L893.14 116.992L894.795 123.793L887.993 125.448L886.338 118.647Z" fill="#303030"/>
<path d="M899.941 115.337L906.743 113.682L908.398 120.484L901.596 122.139L899.941 115.337Z" fill="#303030"/>
<path d="M913.545 112.027L920.346 110.373L922.001 117.174L915.199 118.829L913.545 112.027Z" fill="#303030"/>
<path d="M927.148 108.718L933.949 107.063L935.604 113.864L928.803 115.519L927.148 108.718Z" fill="#303030"/>
<path d="M940.751 105.408L947.553 103.753L949.207 110.555L942.406 112.21L940.751 105.408Z" fill="#303030"/>
<path d="M954.354 102.098L961.156 100.443L962.811 107.245L956.009 108.9L954.354 102.098Z" fill="#303030"/>
<path d="M967.957 98.7886L974.759 97.1338L976.414 103.935L969.612 105.59L967.957 98.7886Z" fill="#303030"/>
<path d="M104.92 341.701L111.722 340.047L113.376 346.848L106.575 348.503L104.92 341.701Z" fill="#303030"/>
<path d="M118.523 338.392L125.325 336.737L126.98 343.538L120.178 345.193L118.523 338.392Z" fill="#303030"/>
<path d="M132.126 335.082L138.928 333.427L140.583 340.229L133.781 341.884L132.126 335.082Z" fill="#303030"/>
<path d="M145.729 331.772L152.531 330.118L154.186 336.919L147.384 338.574L145.729 331.772Z" fill="#303030"/>
<path d="M159.333 328.463L166.134 326.808L167.789 333.609L160.987 335.264L159.333 328.463Z" fill="#303030"/>
<path d="M172.936 325.153L179.737 323.498L181.392 330.3L174.591 331.955L172.936 325.153Z" fill="#303030"/>
<path d="M186.539 321.843L193.341 320.188L194.995 326.99L188.194 328.645L186.539 321.843Z" fill="#303030"/>
<path d="M200.142 318.534L206.944 316.879L208.599 323.68L201.797 325.335L200.142 318.534Z" fill="#303030"/>
<path d="M213.745 315.224L220.547 313.569L222.202 320.371L215.4 322.026L213.745 315.224Z" fill="#303030"/>
<path d="M227.348 311.914L234.15 310.259L235.805 317.061L229.003 318.716L227.348 311.914Z" fill="#303030"/>
<path d="M240.952 308.605L247.753 306.95L249.408 313.751L242.606 315.406L240.952 308.605Z" fill="#303030"/>
<path d="M254.555 305.295L261.356 303.64L263.011 310.442L256.21 312.096L254.555 305.295Z" fill="#303030"/>
<path d="M268.158 301.985L274.96 300.33L276.614 307.132L269.813 308.787L268.158 301.985Z" fill="#303030"/>
<path d="M281.761 298.676L288.563 297.021L290.218 303.822L283.416 305.477L281.761 298.676Z" fill="#303030"/>
<path d="M295.364 295.366L302.166 293.711L303.821 300.513L297.019 302.167L295.364 295.366Z" fill="#303030"/>
<path d="M308.967 292.056L315.769 290.401L317.424 297.203L310.622 298.858L308.967 292.056Z" fill="#303030"/>
<path d="M322.571 288.746L329.372 287.092L331.027 293.893L324.225 295.548L322.571 288.746Z" fill="#303030"/>
<path d="M336.174 285.437L342.975 283.782L344.63 290.584L337.829 292.238L336.174 285.437Z" fill="#303030"/>
<path d="M349.777 282.127L356.578 280.472L358.233 287.274L351.432 288.929L349.777 282.127Z" fill="#303030"/>
<path d="M363.38 278.817L370.182 277.163L371.836 283.964L365.035 285.619L363.38 278.817Z" fill="#303030"/>
<path d="M376.983 275.508L383.785 273.853L385.44 280.654L378.638 282.309L376.983 275.508Z" fill="#303030"/>
<path d="M390.586 272.198L397.388 270.543L399.043 277.345L392.241 279L390.586 272.198Z" fill="#303030"/>
<path d="M404.19 268.888L410.991 267.234L412.646 274.035L405.844 275.69L404.19 268.888Z" fill="#303030"/>
<path d="M417.793 265.579L424.594 263.924L426.249 270.725L419.448 272.38L417.793 265.579Z" fill="#303030"/>
<path d="M431.396 262.269L438.197 260.614L439.852 267.416L433.051 269.071L431.396 262.269Z" fill="#303030"/>
<path d="M444.999 258.959L451.801 257.304L453.455 264.106L446.654 265.761L444.999 258.959Z" fill="#303030"/>
<path d="M458.602 255.65L465.404 253.995L467.059 260.796L460.257 262.451L458.602 255.65Z" fill="#303030"/>
<path d="M472.205 252.34L479.007 250.685L480.662 257.487L473.86 259.142L472.205 252.34Z" fill="#303030"/>
<path d="M485.808 249.03L492.61 247.375L494.265 254.177L487.463 255.832L485.808 249.03Z" fill="#303030"/>
<path d="M499.412 245.721L506.213 244.066L507.868 250.867L501.066 252.522L499.412 245.721Z" fill="#303030"/>
<path d="M513.015 242.411L519.816 240.756L521.471 247.558L514.67 249.212L513.015 242.411Z" fill="#303030"/>
<path d="M526.618 239.101L533.42 237.446L535.074 244.248L528.273 245.903L526.618 239.101Z" fill="#303030"/>
<path d="M540.221 235.792L547.023 234.137L548.678 240.938L541.876 242.593L540.221 235.792Z" fill="#303030"/>
<path d="M553.824 232.482L560.626 230.827L562.281 237.629L555.479 239.283L553.824 232.482Z" fill="#303030"/>
<path d="M567.427 229.172L574.229 227.517L575.884 234.319L569.082 235.974L567.427 229.172Z" fill="#303030"/>
<path d="M581.031 225.862L587.832 224.208L589.487 231.009L582.685 232.664L581.031 225.862Z" fill="#303030"/>
<path d="M594.634 222.553L601.435 220.898L603.09 227.7L596.289 229.354L594.634 222.553Z" fill="#303030"/>
<path d="M608.237 219.243L615.039 217.588L616.693 224.39L609.892 226.045L608.237 219.243Z" fill="#303030"/>
<path d="M621.84 215.933L628.642 214.279L630.297 221.08L623.495 222.735L621.84 215.933Z" fill="#303030"/>
<path d="M635.443 212.624L642.245 210.969L643.9 217.77L637.098 219.425L635.443 212.624Z" fill="#303030"/>
<path d="M649.046 209.314L655.848 207.659L657.503 214.461L650.701 216.116L649.046 209.314Z" fill="#303030"/>
<path d="M662.65 206.004L669.451 204.349L671.106 211.151L664.304 212.806L662.65 206.004Z" fill="#303030"/>
<path d="M676.253 202.695L683.054 201.04L684.709 207.841L677.908 209.496L676.253 202.695Z" fill="#303030"/>
<path d="M689.856 199.385L696.657 197.73L698.312 204.532L691.511 206.187L689.856 199.385Z" fill="#303030"/>
<path d="M703.459 196.075L710.261 194.42L711.915 201.222L705.114 202.877L703.459 196.075Z" fill="#303030"/>
<path d="M717.062 192.766L723.864 191.111L725.519 197.912L718.717 199.567L717.062 192.766Z" fill="#303030"/>
<path d="M730.665 189.456L737.467 187.801L739.122 194.603L732.32 196.257L730.665 189.456Z" fill="#303030"/>
<path d="M744.269 186.146L751.07 184.491L752.725 191.293L745.923 192.948L744.269 186.146Z" fill="#303030"/>
<path d="M757.872 182.837L764.673 181.182L766.328 187.983L759.527 189.638L757.872 182.837Z" fill="#303030"/>
<path d="M771.475 179.527L778.276 177.872L779.931 184.674L773.13 186.328L771.475 179.527Z" fill="#303030"/>
<path d="M785.078 176.217L791.88 174.562L793.534 181.364L786.733 183.019L785.078 176.217Z" fill="#303030"/>
<path d="M798.681 172.907L805.483 171.253L807.138 178.054L800.336 179.709L798.681 172.907Z" fill="#303030"/>
<path d="M812.284 169.598L819.086 167.943L820.741 174.745L813.939 176.399L812.284 169.598Z" fill="#303030"/>
<path d="M825.888 166.288L832.689 164.633L834.344 171.435L827.542 173.09L825.888 166.288Z" fill="#303030"/>
<path d="M839.491 162.978L846.292 161.324L847.947 168.125L841.146 169.78L839.491 162.978Z" fill="#303030"/>
<path d="M853.094 159.669L859.895 158.014L861.55 164.815L854.749 166.47L853.094 159.669Z" fill="#303030"/>
<path d="M866.697 156.359L873.499 154.704L875.153 161.506L868.352 163.161L866.697 156.359Z" fill="#303030"/>
<path d="M880.3 153.049L887.102 151.395L888.757 158.196L881.955 159.851L880.3 153.049Z" fill="#303030"/>
<path d="M893.903 149.74L900.705 148.085L902.36 154.886L895.558 156.541L893.903 149.74Z" fill="#303030"/>
<path d="M907.506 146.43L914.308 144.775L915.963 151.577L909.161 153.232L907.506 146.43Z" fill="#303030"/>
<path d="M921.11 143.12L927.911 141.465L929.566 148.267L922.764 149.922L921.11 143.12Z" fill="#303030"/>
<path d="M934.713 139.811L941.514 138.156L943.169 144.957L936.368 146.612L934.713 139.811Z" fill="#303030"/>
<path d="M948.316 136.501L955.118 134.846L956.772 141.648L949.971 143.303L948.316 136.501Z" fill="#303030"/>
<path d="M961.919 133.191L968.721 131.536L970.376 138.338L963.574 139.993L961.919 133.191Z" fill="#303030"/>
<path d="M975.522 129.882L982.324 128.227L983.979 135.028L977.177 136.683L975.522 129.882Z" fill="#303030"/>
<path d="M107.52 352.39L114.322 350.735L115.977 357.536L109.175 359.191L107.52 352.39Z" fill="#303030"/>
<path d="M121.124 349.08L127.925 347.425L129.58 354.227L122.778 355.882L121.124 349.08Z" fill="#303030"/>
<path d="M134.727 345.77L141.528 344.115L143.183 350.917L136.382 352.572L134.727 345.77Z" fill="#303030"/>
<path d="M148.33 342.461L155.132 340.806L156.786 347.607L149.985 349.262L148.33 342.461Z" fill="#303030"/>
<path d="M161.933 339.151L168.735 337.496L170.39 344.298L163.588 345.952L161.933 339.151Z" fill="#303030"/>
<path d="M175.536 335.841L182.338 334.186L183.993 340.988L177.191 342.643L175.536 335.841Z" fill="#303030"/>
<path d="M189.139 332.532L195.941 330.877L197.596 337.678L190.794 339.333L189.139 332.532Z" fill="#303030"/>
<path d="M202.743 329.222L209.544 327.567L211.199 334.369L204.397 336.023L202.743 329.222Z" fill="#303030"/>
<path d="M216.346 325.912L223.147 324.257L224.802 331.059L218.001 332.714L216.346 325.912Z" fill="#303030"/>
<path d="M229.949 322.602L236.75 320.948L238.405 327.749L231.604 329.404L229.949 322.602Z" fill="#303030"/>
<path d="M243.552 319.293L250.354 317.638L252.008 324.44L245.207 326.094L243.552 319.293Z" fill="#303030"/>
<path d="M257.155 315.983L263.957 314.328L265.612 321.13L258.81 322.785L257.155 315.983Z" fill="#303030"/>
<path d="M270.758 312.673L277.56 311.019L279.215 317.82L272.413 319.475L270.758 312.673Z" fill="#303030"/>
<path d="M284.362 309.364L291.163 307.709L292.818 314.51L286.016 316.165L284.362 309.364Z" fill="#303030"/>
<path d="M297.965 306.054L304.766 304.399L306.421 311.201L299.62 312.856L297.965 306.054Z" fill="#303030"/>
<path d="M311.568 302.744L318.369 301.09L320.024 307.891L313.223 309.546L311.568 302.744Z" fill="#303030"/>
<path d="M325.171 299.435L331.973 297.78L333.627 304.581L326.826 306.236L325.171 299.435Z" fill="#303030"/>
<path d="M338.774 296.125L345.576 294.47L347.231 301.272L340.429 302.927L338.774 296.125Z" fill="#303030"/>
<path d="M352.377 292.815L359.179 291.16L360.834 297.962L354.032 299.617L352.377 292.815Z" fill="#303030"/>
<path d="M365.981 289.506L372.782 287.851L374.437 294.652L367.635 296.307L365.981 289.506Z" fill="#303030"/>
<path d="M379.584 286.196L386.385 284.541L388.04 291.343L381.239 292.998L379.584 286.196Z" fill="#303030"/>
<path d="M393.187 282.886L399.988 281.231L401.643 288.033L394.842 289.688L393.187 282.886Z" fill="#303030"/>
<path d="M406.79 279.577L413.592 277.922L415.246 284.723L408.445 286.378L406.79 279.577Z" fill="#303030"/>
<path d="M420.393 276.267L427.195 274.612L428.85 281.414L422.048 283.068L420.393 276.267Z" fill="#303030"/>
<path d="M433.996 272.957L440.798 271.302L442.453 278.104L435.651 279.759L433.996 272.957Z" fill="#303030"/>
<path d="M447.599 269.648L454.401 267.993L456.056 274.794L449.254 276.449L447.599 269.648Z" fill="#303030"/>
<path d="M461.203 266.338L468.004 264.683L469.659 271.485L462.857 273.139L461.203 266.338Z" fill="#303030"/>
<path d="M474.806 263.028L481.607 261.373L483.262 268.175L476.461 269.83L474.806 263.028Z" fill="#303030"/>
<path d="M488.409 259.718L495.211 258.064L496.865 264.865L490.064 266.52L488.409 259.718Z" fill="#303030"/>
<path d="M502.012 256.409L508.814 254.754L510.469 261.556L503.667 263.21L502.012 256.409Z" fill="#303030"/>
<path d="M515.615 253.099L522.417 251.444L524.072 258.246L517.27 259.901L515.615 253.099Z" fill="#303030"/>
<path d="M529.218 249.789L536.02 248.135L537.675 254.936L530.873 256.591L529.218 249.789Z" fill="#303030"/>
<path d="M542.822 246.48L549.623 244.825L551.278 251.626L544.476 253.281L542.822 246.48Z" fill="#303030"/>
<path d="M556.425 243.17L563.226 241.515L564.881 248.317L558.08 249.972L556.425 243.17Z" fill="#303030"/>
<path d="M570.028 239.86L576.83 238.205L578.484 245.007L571.683 246.662L570.028 239.86Z" fill="#303030"/>
<path d="M583.631 236.551L590.433 234.896L592.088 241.697L585.286 243.352L583.631 236.551Z" fill="#303030"/>
<path d="M597.234 233.241L604.036 231.586L605.691 238.388L598.889 240.043L597.234 233.241Z" fill="#303030"/>
<path d="M610.837 229.931L617.639 228.276L619.294 235.078L612.492 236.733L610.837 229.931Z" fill="#303030"/>
<path d="M624.441 226.622L631.242 224.967L632.897 231.768L626.095 233.423L624.441 226.622Z" fill="#303030"/>
<path d="M638.044 223.312L644.845 221.657L646.5 228.459L639.699 230.113L638.044 223.312Z" fill="#303030"/>
<path d="M651.647 220.002L658.448 218.347L660.103 225.149L653.302 226.804L651.647 220.002Z" fill="#303030"/>
<path d="M665.25 216.693L672.052 215.038L673.706 221.839L666.905 223.494L665.25 216.693Z" fill="#303030"/>
<path d="M678.853 213.383L685.655 211.728L687.31 218.53L680.508 220.184L678.853 213.383Z" fill="#303030"/>
<path d="M692.456 210.073L699.258 208.418L700.913 215.22L694.111 216.875L692.456 210.073Z" fill="#303030"/>
<path d="M706.06 206.763L712.861 205.109L714.516 211.91L707.714 213.565L706.06 206.763Z" fill="#303030"/>
<path d="M719.663 203.454L726.464 201.799L728.119 208.601L721.318 210.255L719.663 203.454Z" fill="#303030"/>
<path d="M733.266 200.144L740.067 198.489L741.722 205.291L734.921 206.946L733.266 200.144Z" fill="#303030"/>
<path d="M746.869 196.834L753.671 195.18L755.325 201.981L748.524 203.636L746.869 196.834Z" fill="#303030"/>
<path d="M760.472 193.525L767.274 191.87L768.929 198.671L762.127 200.326L760.472 193.525Z" fill="#303030"/>
<path d="M774.075 190.215L780.877 188.56L782.532 195.362L775.73 197.017L774.075 190.215Z" fill="#303030"/>
<path d="M787.679 186.905L794.48 185.251L796.135 192.052L789.333 193.707L787.679 186.905Z" fill="#303030"/>
<path d="M801.282 183.596L808.083 181.941L809.738 188.742L802.937 190.397L801.282 183.596Z" fill="#303030"/>
<path d="M814.885 180.286L821.686 178.631L823.341 185.433L816.54 187.088L814.885 180.286Z" fill="#303030"/>
<path d="M828.488 176.976L835.29 175.321L836.944 182.123L830.143 183.778L828.488 176.976Z" fill="#303030"/>
<path d="M842.091 173.667L848.893 172.012L850.548 178.813L843.746 180.468L842.091 173.667Z" fill="#303030"/>
<path d="M855.694 170.357L862.496 168.702L864.151 175.504L857.349 177.159L855.694 170.357Z" fill="#303030"/>
<path d="M869.297 167.047L876.099 165.392L877.754 172.194L870.952 173.849L869.297 167.047Z" fill="#303030"/>
<path d="M882.901 163.738L889.702 162.083L891.357 168.884L884.555 170.539L882.901 163.738Z" fill="#303030"/>
<path d="M896.504 160.428L903.305 158.773L904.96 165.575L898.159 167.229L896.504 160.428Z" fill="#303030"/>
<path d="M910.107 157.118L916.909 155.463L918.563 162.265L911.762 163.92L910.107 157.118Z" fill="#303030"/>
<path d="M923.71 153.809L930.512 152.154L932.167 158.955L925.365 160.61L923.71 153.809Z" fill="#303030"/>
<path d="M937.313 150.499L944.115 148.844L945.77 155.646L938.968 157.3L937.313 150.499Z" fill="#303030"/>
<path d="M950.916 147.189L957.718 145.534L959.373 152.336L952.571 153.991L950.916 147.189Z" fill="#303030"/>
<path d="M964.52 143.879L971.321 142.225L972.976 149.026L966.174 150.681L964.52 143.879Z" fill="#303030"/>
<path d="M978.123 140.57L984.924 138.915L986.579 145.717L979.778 147.371L978.123 140.57Z" fill="#303030"/>
<path d="M110.121 363.078L116.923 361.423L118.577 368.225L111.776 369.879L110.121 363.078Z" fill="#303030"/>
<path d="M123.724 359.768L130.526 358.113L132.181 364.915L125.379 366.57L123.724 359.768Z" fill="#303030"/>
<path d="M137.327 356.458L144.129 354.804L145.784 361.605L138.982 363.26L137.327 356.458Z" fill="#303030"/>
<path d="M150.93 353.149L157.732 351.494L159.387 358.296L152.585 359.95L150.93 353.149Z" fill="#303030"/>
<path d="M164.534 349.839L171.335 348.184L172.99 354.986L166.188 356.641L164.534 349.839Z" fill="#303030"/>
<path d="M178.137 346.529L184.938 344.875L186.593 351.676L179.792 353.331L178.137 346.529Z" fill="#303030"/>
<path d="M191.74 343.22L198.541 341.565L200.196 348.366L193.395 350.021L191.74 343.22Z" fill="#303030"/>
<path d="M205.343 339.91L212.145 338.255L213.799 345.057L206.998 346.712L205.343 339.91Z" fill="#303030"/>
<path d="M218.946 336.6L225.748 334.946L227.403 341.747L220.601 343.402L218.946 336.6Z" fill="#303030"/>
<path d="M232.549 333.291L239.351 331.636L241.006 338.437L234.204 340.092L232.549 333.291Z" fill="#303030"/>
<path d="M246.153 329.981L252.954 328.326L254.609 335.128L247.807 336.783L246.153 329.981Z" fill="#303030"/>
<path d="M259.756 326.671L266.557 325.016L268.212 331.818L261.411 333.473L259.756 326.671Z" fill="#303030"/>
<path d="M273.359 323.362L280.16 321.707L281.815 328.508L275.014 330.163L273.359 323.362Z" fill="#303030"/>
<path d="M286.962 320.052L293.764 318.397L295.418 325.199L288.617 326.854L286.962 320.052Z" fill="#303030"/>
<path d="M300.565 316.742L307.367 315.087L309.022 321.889L302.22 323.544L300.565 316.742Z" fill="#303030"/>
<path d="M314.168 313.433L320.97 311.778L322.625 318.579L315.823 320.234L314.168 313.433Z" fill="#303030"/>
<path d="M327.771 310.123L334.573 308.468L336.228 315.27L329.426 316.924L327.771 310.123Z" fill="#303030"/>
<path d="M341.375 306.813L348.176 305.158L349.831 311.96L343.03 313.615L341.375 306.813Z" fill="#303030"/>
<path d="M354.978 303.504L361.779 301.849L363.434 308.65L356.633 310.305L354.978 303.504Z" fill="#303030"/>
<path d="M368.581 300.194L375.383 298.539L377.037 305.341L370.236 306.995L368.581 300.194Z" fill="#303030"/>
<path d="M382.184 296.884L388.986 295.229L390.641 302.031L383.839 303.686L382.184 296.884Z" fill="#303030"/>
<path d="M395.787 293.574L402.589 291.92L404.244 298.721L397.442 300.376L395.787 293.574Z" fill="#303030"/>
<path d="M409.39 290.265L416.192 288.61L417.847 295.411L411.045 297.066L409.39 290.265Z" fill="#303030"/>
<path d="M422.994 286.955L429.795 285.3L431.45 292.102L424.648 293.757L422.994 286.955Z" fill="#303030"/>
<path d="M436.597 283.645L443.398 281.991L445.053 288.792L438.252 290.447L436.597 283.645Z" fill="#303030"/>
<path d="M450.2 280.336L457.002 278.681L458.656 285.482L451.855 287.137L450.2 280.336Z" fill="#303030"/>
<path d="M463.803 277.026L470.605 275.371L472.26 282.173L465.458 283.828L463.803 277.026Z" fill="#303030"/>
<path d="M477.406 273.716L484.208 272.061L485.863 278.863L479.061 280.518L477.406 273.716Z" fill="#303030"/>
<path d="M491.009 270.407L497.811 268.752L499.466 275.553L492.664 277.208L491.009 270.407Z" fill="#303030"/>
<path d="M504.613 267.097L511.414 265.442L513.069 272.244L506.267 273.899L504.613 267.097Z" fill="#303030"/>
<path d="M518.216 263.787L525.017 262.132L526.672 268.934L519.871 270.589L518.216 263.787Z" fill="#303030"/>
<path d="M531.819 260.478L538.62 258.823L540.275 265.624L533.474 267.279L531.819 260.478Z" fill="#303030"/>
<path d="M545.422 257.168L552.224 255.513L553.878 262.315L547.077 263.969L545.422 257.168Z" fill="#303030"/>
<path d="M559.025 253.858L565.827 252.203L567.482 259.005L560.68 260.66L559.025 253.858Z" fill="#303030"/>
<path d="M572.628 250.549L579.43 248.894L581.085 255.695L574.283 257.35L572.628 250.549Z" fill="#303030"/>
<path d="M586.232 247.239L593.033 245.584L594.688 252.386L587.886 254.04L586.232 247.239Z" fill="#303030"/>
<path d="M599.835 243.929L606.636 242.274L608.291 249.076L601.49 250.731L599.835 243.929Z" fill="#303030"/>
<path d="M613.438 240.619L620.239 238.965L621.894 245.766L615.093 247.421L613.438 240.619Z" fill="#303030"/>
<path d="M627.041 237.31L633.843 235.655L635.497 242.457L628.696 244.111L627.041 237.31Z" fill="#303030"/>
<path d="M640.644 234L647.446 232.345L649.101 239.147L642.299 240.802L640.644 234Z" fill="#303030"/>
<path d="M654.247 230.69L661.049 229.036L662.704 235.837L655.902 237.492L654.247 230.69Z" fill="#303030"/>
<path d="M667.851 227.381L674.652 225.726L676.307 232.527L669.505 234.182L667.851 227.381Z" fill="#303030"/>
<path d="M681.454 224.071L688.255 222.416L689.91 229.218L683.109 230.873L681.454 224.071Z" fill="#303030"/>
<path d="M695.057 220.761L701.858 219.107L703.513 225.908L696.712 227.563L695.057 220.761Z" fill="#303030"/>
<path d="M708.66 217.452L715.462 215.797L717.116 222.598L710.315 224.253L708.66 217.452Z" fill="#303030"/>
<path d="M722.263 214.142L729.065 212.487L730.72 219.289L723.918 220.944L722.263 214.142Z" fill="#303030"/>
<path d="M735.866 210.832L742.668 209.177L744.323 215.979L737.521 217.634L735.866 210.832Z" fill="#303030"/>
<path d="M749.469 207.523L756.271 205.868L757.926 212.669L751.124 214.324L749.469 207.523Z" fill="#303030"/>
<path d="M763.073 204.213L769.874 202.558L771.529 209.36L764.727 211.015L763.073 204.213Z" fill="#303030"/>
<path d="M776.676 200.903L783.477 199.248L785.132 206.05L778.331 207.705L776.676 200.903Z" fill="#303030"/>
<path d="M790.279 197.594L797.081 195.939L798.735 202.74L791.934 204.395L790.279 197.594Z" fill="#303030"/>
<path d="M803.882 194.284L810.684 192.629L812.339 199.431L805.537 201.085L803.882 194.284Z" fill="#303030"/>
<path d="M817.485 190.974L824.287 189.319L825.942 196.121L819.14 197.776L817.485 190.974Z" fill="#303030"/>
<path d="M831.088 187.665L837.89 186.01L839.545 192.811L832.743 194.466L831.088 187.665Z" fill="#303030"/>
<path d="M844.692 184.355L851.493 182.7L853.148 189.502L846.346 191.156L844.692 184.355Z" fill="#303030"/>
<path d="M858.295 181.045L865.096 179.39L866.751 186.192L859.95 187.847L858.295 181.045Z" fill="#303030"/>
<path d="M871.898 177.735L878.7 176.081L880.354 182.882L873.553 184.537L871.898 177.735Z" fill="#303030"/>
<path d="M885.501 174.426L892.303 172.771L893.958 179.573L887.156 181.227L885.501 174.426Z" fill="#303030"/>
<path d="M899.104 171.116L905.906 169.461L907.561 176.263L900.759 177.918L899.104 171.116Z" fill="#303030"/>
<path d="M912.707 167.806L919.509 166.152L921.164 172.953L914.362 174.608L912.707 167.806Z" fill="#303030"/>
<path d="M926.311 164.497L933.112 162.842L934.767 169.643L927.965 171.298L926.311 164.497Z" fill="#303030"/>
<path d="M939.914 161.187L946.715 159.532L948.37 166.334L941.569 167.989L939.914 161.187Z" fill="#303030"/>
<path d="M953.517 157.877L960.318 156.222L961.973 163.024L955.172 164.679L953.517 157.877Z" fill="#303030"/>
<path d="M967.12 154.568L973.922 152.913L975.576 159.714L968.775 161.369L967.12 154.568Z" fill="#303030"/>
<path d="M980.723 151.258L987.525 149.603L989.18 156.405L982.378 158.06L980.723 151.258Z" fill="#303030"/>
<path d="M112.721 373.766L119.523 372.111L121.178 378.913L114.376 380.568L112.721 373.766Z" fill="#303030"/>
<path d="M126.325 370.456L133.126 368.802L134.781 375.603L127.979 377.258L126.325 370.456Z" fill="#303030"/>
<path d="M139.928 367.147L146.729 365.492L148.384 372.293L141.583 373.948L139.928 367.147Z" fill="#303030"/>
<path d="M153.531 363.837L160.332 362.182L161.987 368.984L155.186 370.639L153.531 363.837Z" fill="#303030"/>
<path d="M167.134 360.527L173.936 358.872L175.59 365.674L168.789 367.329L167.134 360.527Z" fill="#303030"/>
<path d="M180.737 357.218L187.539 355.563L189.194 362.364L182.392 364.019L180.737 357.218Z" fill="#303030"/>
<path d="M194.34 353.908L201.142 352.253L202.797 359.055L195.995 360.71L194.34 353.908Z" fill="#303030"/>
<path d="M207.944 350.598L214.745 348.943L216.4 355.745L209.598 357.4L207.944 350.598Z" fill="#303030"/>
<path d="M221.547 347.289L228.348 345.634L230.003 352.435L223.202 354.09L221.547 347.289Z" fill="#303030"/>
<path d="M235.15 343.979L241.951 342.324L243.606 349.126L236.805 350.78L235.15 343.979Z" fill="#303030"/>
<path d="M248.753 340.669L255.555 339.014L257.209 345.816L250.408 347.471L248.753 340.669Z" fill="#303030"/>
<path d="M262.356 337.359L269.158 335.705L270.813 342.506L264.011 344.161L262.356 337.359Z" fill="#303030"/>
<path d="M275.959 334.05L282.761 332.395L284.416 339.197L277.614 340.851L275.959 334.05Z" fill="#303030"/>
<path d="M289.562 330.74L296.364 329.085L298.019 335.887L291.217 337.542L289.562 330.74Z" fill="#303030"/>
<path d="M303.166 327.43L309.967 325.776L311.622 332.577L304.82 334.232L303.166 327.43Z" fill="#303030"/>
<path d="M316.769 324.121L323.57 322.466L325.225 329.267L318.424 330.922L316.769 324.121Z" fill="#303030"/>
<path d="M330.372 320.811L337.174 319.156L338.828 325.958L332.027 327.613L330.372 320.811Z" fill="#303030"/>
<path d="M343.975 317.501L350.777 315.847L352.432 322.648L345.63 324.303L343.975 317.501Z" fill="#303030"/>
<path d="M357.578 314.192L364.38 312.537L366.035 319.338L359.233 320.993L357.578 314.192Z" fill="#303030"/>
<path d="M371.181 310.882L377.983 309.227L379.638 316.029L372.836 317.684L371.181 310.882Z" fill="#303030"/>
<path d="M384.785 307.572L391.586 305.917L393.241 312.719L386.439 314.374L384.785 307.572Z" fill="#303030"/>
<path d="M398.388 304.263L405.189 302.608L406.844 309.409L400.043 311.064L398.388 304.263Z" fill="#303030"/>
<path d="M411.991 300.953L418.793 299.298L420.447 306.1L413.646 307.755L411.991 300.953Z" fill="#303030"/>
<path d="M425.594 297.643L432.396 295.988L434.051 302.79L427.249 304.445L425.594 297.643Z" fill="#303030"/>
<path d="M439.197 294.334L445.999 292.679L447.654 299.48L440.852 301.135L439.197 294.334Z" fill="#303030"/>
<path d="M452.8 291.024L459.602 289.369L461.257 296.171L454.455 297.825L452.8 291.024Z" fill="#303030"/>
<path d="M466.404 287.714L473.205 286.059L474.86 292.861L468.058 294.516L466.404 287.714Z" fill="#303030"/>
<path d="M480.007 284.405L486.808 282.75L488.463 289.551L481.662 291.206L480.007 284.405Z" fill="#303030"/>
<path d="M493.61 281.095L500.411 279.44L502.066 286.242L495.265 287.896L493.61 281.095Z" fill="#303030"/>
<path d="M507.213 277.785L514.015 276.13L515.669 282.932L508.868 284.587L507.213 277.785Z" fill="#303030"/>
<path d="M520.816 274.475L527.618 272.821L529.273 279.622L522.471 281.277L520.816 274.475Z" fill="#303030"/>
<path d="M534.419 271.166L541.221 269.511L542.876 276.313L536.074 277.967L534.419 271.166Z" fill="#303030"/>
<path d="M548.023 267.856L554.824 266.201L556.479 273.003L549.677 274.658L548.023 267.856Z" fill="#303030"/>
<path d="M561.626 264.546L568.427 262.892L570.082 269.693L563.281 271.348L561.626 264.546Z" fill="#303030"/>
<path d="M575.229 261.237L582.03 259.582L583.685 266.383L576.884 268.038L575.229 261.237Z" fill="#303030"/>
<path d="M588.832 257.927L595.634 256.272L597.288 263.074L590.487 264.729L588.832 257.927Z" fill="#303030"/>
<path d="M602.435 254.617L609.237 252.963L610.892 259.764L604.09 261.419L602.435 254.617Z" fill="#303030"/>
<path d="M616.038 251.308L622.84 249.653L624.495 256.454L617.693 258.109L616.038 251.308Z" fill="#303030"/>
<path d="M629.642 247.998L636.443 246.343L638.098 253.145L631.296 254.8L629.642 247.998Z" fill="#303030"/>
<path d="M643.245 244.688L650.046 243.033L651.701 249.835L644.9 251.49L643.245 244.688Z" fill="#303030"/>
<path d="M656.848 241.379L663.649 239.724L665.304 246.525L658.503 248.18L656.848 241.379Z" fill="#303030"/>
<path d="M670.451 238.069L677.253 236.414L678.907 243.216L672.106 244.871L670.451 238.069Z" fill="#303030"/>
<path d="M684.054 234.759L690.856 233.104L692.511 239.906L685.709 241.561L684.054 234.759Z" fill="#303030"/>
<path d="M697.657 231.45L704.459 229.795L706.114 236.596L699.312 238.251L697.657 231.45Z" fill="#303030"/>
<path d="M711.26 228.14L718.062 226.485L719.717 233.287L712.915 234.941L711.26 228.14Z" fill="#303030"/>
<path d="M724.864 224.83L731.665 223.175L733.32 229.977L726.518 231.632L724.864 224.83Z" fill="#303030"/>
<path d="M738.467 221.521L745.268 219.866L746.923 226.667L740.122 228.322L738.467 221.521Z" fill="#303030"/>
<path d="M752.07 218.211L758.872 216.556L760.526 223.358L753.725 225.012L752.07 218.211Z" fill="#303030"/>
<path d="M765.673 214.901L772.475 213.246L774.13 220.048L767.328 221.703L765.673 214.901Z" fill="#303030"/>
<path d="M779.276 211.591L786.078 209.937L787.733 216.738L780.931 218.393L779.276 211.591Z" fill="#303030"/>
<path d="M792.879 208.282L799.681 206.627L801.336 213.429L794.534 215.083L792.879 208.282Z" fill="#303030"/>
<path d="M806.483 204.972L813.284 203.317L814.939 210.119L808.137 211.774L806.483 204.972Z" fill="#303030"/>
<path d="M820.086 201.662L826.887 200.008L828.542 206.809L821.741 208.464L820.086 201.662Z" fill="#303030"/>
<path d="M833.689 198.353L840.491 196.698L842.145 203.499L835.344 205.154L833.689 198.353Z" fill="#303030"/>
<path d="M847.292 195.043L854.094 193.388L855.749 200.19L848.947 201.845L847.292 195.043Z" fill="#303030"/>
<path d="M860.895 191.733L867.697 190.078L869.352 196.88L862.55 198.535L860.895 191.733Z" fill="#303030"/>
<path d="M874.498 188.424L881.3 186.769L882.955 193.57L876.153 195.225L874.498 188.424Z" fill="#303030"/>
<path d="M888.102 185.114L894.903 183.459L896.558 190.261L889.756 191.916L888.102 185.114Z" fill="#303030"/>
<path d="M901.705 181.804L908.506 180.149L910.161 186.951L903.36 188.606L901.705 181.804Z" fill="#303030"/>
<path d="M915.308 178.495L922.109 176.84L923.764 183.641L916.963 185.296L915.308 178.495Z" fill="#303030"/>
<path d="M928.911 175.185L935.713 173.53L937.367 180.332L930.566 181.986L928.911 175.185Z" fill="#303030"/>
<path d="M942.514 171.875L949.316 170.22L950.971 177.022L944.169 178.677L942.514 171.875Z" fill="#303030"/>
<path d="M956.117 168.566L962.919 166.911L964.574 173.712L957.772 175.367L956.117 168.566Z" fill="#303030"/>
<path d="M969.721 165.256L976.522 163.601L978.177 170.403L971.375 172.057L969.721 165.256Z" fill="#303030"/>
<path d="M983.324 161.946L990.125 160.291L991.78 167.093L984.979 168.748L983.324 161.946Z" fill="#303030"/>
<path d="M115.322 384.454L122.123 382.799L123.778 389.601L116.977 391.256L115.322 384.454Z" fill="#303030"/>
<path d="M128.925 381.145L135.727 379.49L137.381 386.291L130.58 387.946L128.925 381.145Z" fill="#303030"/>
<path d="M142.528 377.835L149.33 376.18L150.985 382.982L144.183 384.636L142.528 377.835Z" fill="#303030"/>
<path d="M156.131 374.525L162.933 372.87L164.588 379.672L157.786 381.327L156.131 374.525Z" fill="#303030"/>
<path d="M169.735 371.215L176.536 369.561L178.191 376.362L171.389 378.017L169.735 371.215Z" fill="#303030"/>
<path d="M183.338 367.906L190.139 366.251L191.794 373.053L184.993 374.707L183.338 367.906Z" fill="#303030"/>
<path d="M196.941 364.596L203.742 362.941L205.397 369.743L198.596 371.398L196.941 364.596Z" fill="#303030"/>
<path d="M210.544 361.286L217.346 359.632L219 366.433L212.199 368.088L210.544 361.286Z" fill="#303030"/>
<path d="M224.147 357.977L230.949 356.322L232.604 363.123L225.802 364.778L224.147 357.977Z" fill="#303030"/>
<path d="M237.75 354.667L244.552 353.012L246.207 359.814L239.405 361.469L237.75 354.667Z" fill="#303030"/>
<path d="M251.353 351.357L258.155 349.703L259.81 356.504L253.008 358.159L251.353 351.357Z" fill="#303030"/>
<path d="M264.957 348.048L271.758 346.393L273.413 353.194L266.611 354.849L264.957 348.048Z" fill="#303030"/>
<path d="M278.56 344.738L285.361 343.083L287.016 349.885L280.215 351.54L278.56 344.738Z" fill="#303030"/>
<path d="M292.163 341.428L298.965 339.773L300.619 346.575L293.818 348.23L292.163 341.428Z" fill="#303030"/>
<path d="M305.766 338.119L312.568 336.464L314.223 343.265L307.421 344.92L305.766 338.119Z" fill="#303030"/>
<path d="M319.369 334.809L326.171 333.154L327.826 339.956L321.024 341.611L319.369 334.809Z" fill="#303030"/>
<path d="M332.972 331.499L339.774 329.844L341.429 336.646L334.627 338.301L332.972 331.499Z" fill="#303030"/>
<path d="M346.576 328.19L353.377 326.535L355.032 333.336L348.23 334.991L346.576 328.19Z" fill="#303030"/>
<path d="M360.179 324.88L366.98 323.225L368.635 330.027L361.834 331.681L360.179 324.88Z" fill="#303030"/>
<path d="M373.782 321.57L380.583 319.915L382.238 326.717L375.437 328.372L373.782 321.57Z" fill="#303030"/>
<path d="M387.385 318.261L394.187 316.606L395.842 323.407L389.04 325.062L387.385 318.261Z" fill="#303030"/>
<path d="M400.988 314.951L407.79 313.296L409.445 320.098L402.643 321.752L400.988 314.951Z" fill="#303030"/>
<path d="M414.591 311.641L421.393 309.986L423.048 316.788L416.246 318.443L414.591 311.641Z" fill="#303030"/>
<path d="M428.195 308.331L434.996 306.677L436.651 313.478L429.849 315.133L428.195 308.331Z" fill="#303030"/>
<path d="M441.798 305.022L448.599 303.367L450.254 310.169L443.453 311.823L441.798 305.022Z" fill="#303030"/>
<path d="M455.401 301.712L462.202 300.057L463.857 306.859L457.056 308.514L455.401 301.712Z" fill="#303030"/>
<path d="M469.004 298.402L475.806 296.748L477.46 303.549L470.659 305.204L469.004 298.402Z" fill="#303030"/>
<path d="M482.607 295.093L489.409 293.438L491.064 300.239L484.262 301.894L482.607 295.093Z" fill="#303030"/>
<path d="M496.21 291.783L503.012 290.128L504.667 296.93L497.865 298.585L496.21 291.783Z" fill="#303030"/>
<path d="M509.814 288.473L516.615 286.819L518.27 293.62L511.468 295.275L509.814 288.473Z" fill="#303030"/>
<path d="M523.417 285.164L530.218 283.509L531.873 290.31L525.072 291.965L523.417 285.164Z" fill="#303030"/>
<path d="M537.02 281.854L543.821 280.199L545.476 287.001L538.675 288.656L537.02 281.854Z" fill="#303030"/>
<path d="M550.623 278.544L557.425 276.889L559.079 283.691L552.278 285.346L550.623 278.544Z" fill="#303030"/>
<path d="M564.226 275.235L571.028 273.58L572.683 280.381L565.881 282.036L564.226 275.235Z" fill="#303030"/>
<path d="M577.829 271.925L584.631 270.27L586.286 277.072L579.484 278.727L577.829 271.925Z" fill="#303030"/>
<path d="M591.432 268.615L598.234 266.96L599.889 273.762L593.087 275.417L591.432 268.615Z" fill="#303030"/>
<path d="M605.036 265.306L611.837 263.651L613.492 270.452L606.69 272.107L605.036 265.306Z" fill="#303030"/>
<path d="M618.639 261.996L625.44 260.341L627.095 267.143L620.294 268.797L618.639 261.996Z" fill="#303030"/>
<path d="M632.242 258.686L639.044 257.031L640.698 263.833L633.897 265.488L632.242 258.686Z" fill="#303030"/>
<path d="M645.845 255.377L652.647 253.722L654.302 260.523L647.5 262.178L645.845 255.377Z" fill="#303030"/>
<path d="M659.448 252.067L666.25 250.412L667.905 257.214L661.103 258.868L659.448 252.067Z" fill="#303030"/>
<path d="M673.051 248.757L679.853 247.102L681.508 253.904L674.706 255.559L673.051 248.757Z" fill="#303030"/>
<path d="M686.655 245.447L693.456 243.793L695.111 250.594L688.309 252.249L686.655 245.447Z" fill="#303030"/>
<path d="M700.258 242.138L707.059 240.483L708.714 247.284L701.913 248.939L700.258 242.138Z" fill="#303030"/>
<path d="M713.861 238.828L720.663 237.173L722.317 243.975L715.516 245.63L713.861 238.828Z" fill="#303030"/>
<path d="M727.464 235.518L734.266 233.864L735.921 240.665L729.119 242.32L727.464 235.518Z" fill="#303030"/>
<path d="M741.067 232.209L747.869 230.554L749.524 237.355L742.722 239.01L741.067 232.209Z" fill="#303030"/>
<path d="M754.67 228.899L761.472 227.244L763.127 234.046L756.325 235.701L754.67 228.899Z" fill="#303030"/>
<path d="M768.274 225.589L775.075 223.934L776.73 230.736L769.928 232.391L768.274 225.589Z" fill="#303030"/>
<path d="M781.877 222.28L788.678 220.625L790.333 227.426L783.532 229.081L781.877 222.28Z" fill="#303030"/>
<path d="M795.48 218.97L802.281 217.315L803.936 224.117L797.135 225.772L795.48 218.97Z" fill="#303030"/>
<path d="M809.083 215.66L815.885 214.005L817.539 220.807L810.738 222.462L809.083 215.66Z" fill="#303030"/>
<path d="M822.686 212.351L829.488 210.696L831.143 217.497L824.341 219.152L822.686 212.351Z" fill="#303030"/>
<path d="M836.289 209.041L843.091 207.386L844.746 214.188L837.944 215.842L836.289 209.041Z" fill="#303030"/>
<path d="M849.893 205.731L856.694 204.076L858.349 210.878L851.547 212.533L849.893 205.731Z" fill="#303030"/>
<path d="M863.496 202.422L870.297 200.767L871.952 207.568L865.151 209.223L863.496 202.422Z" fill="#303030"/>
<path d="M877.099 199.112L883.9 197.457L885.555 204.259L878.754 205.913L877.099 199.112Z" fill="#303030"/>
<path d="M890.702 195.802L897.504 194.147L899.158 200.949L892.357 202.604L890.702 195.802Z" fill="#303030"/>
<path d="M904.305 192.492L911.107 190.838L912.762 197.639L905.96 199.294L904.305 192.492Z" fill="#303030"/>
<path d="M917.908 189.183L924.71 187.528L926.365 194.33L919.563 195.984L917.908 189.183Z" fill="#303030"/>
<path d="M931.512 185.873L938.313 184.218L939.968 191.02L933.166 192.675L931.512 185.873Z" fill="#303030"/>
<path d="M945.115 182.563L951.916 180.909L953.571 187.71L946.77 189.365L945.115 182.563Z" fill="#303030"/>
<path d="M958.718 179.254L965.519 177.599L967.174 184.4L960.373 186.055L958.718 179.254Z" fill="#303030"/>
<path d="M972.321 175.944L979.123 174.289L980.777 181.091L973.976 182.746L972.321 175.944Z" fill="#303030"/>
<path d="M985.924 172.634L992.726 170.98L994.381 177.781L987.579 179.436L985.924 172.634Z" fill="#303030"/>
<path d="M79.1519 235.791L85.9534 234.136L87.6083 240.938L80.8067 242.593L79.1519 235.791Z" fill="#303030"/>
<path d="M160.771 215.933L167.572 214.278L169.227 221.08L162.426 222.734L160.771 215.933Z" fill="#303030"/>
<path d="M242.39 196.075L249.191 194.42L250.846 201.222L244.045 202.876L242.39 196.075Z" fill="#303030"/>
<path d="M324.009 176.217L330.81 174.562L332.465 181.363L325.664 183.018L324.009 176.217Z" fill="#303030"/>
<path d="M405.628 156.359L412.429 154.704L414.084 161.505L407.283 163.16L405.628 156.359Z" fill="#303030"/>
<path d="M487.247 136.5L494.048 134.846L495.703 141.647L488.902 143.302L487.247 136.5Z" fill="#303030"/>
<path d="M568.866 116.642L575.667 114.987L577.322 121.789L570.52 123.444L568.866 116.642Z" fill="#303030"/>
<path d="M650.485 96.7842L657.286 95.1294L658.941 101.931L652.139 103.586L650.485 96.7842Z" fill="#303030"/>
<path d="M732.104 76.9261L738.905 75.2713L740.56 82.0729L733.758 83.7277L732.104 76.9261Z" fill="#303030"/>
<path d="M813.723 57.068L820.524 55.4132L822.179 62.2147L815.377 63.8696L813.723 57.068Z" fill="#303030"/>
<path d="M895.342 37.2099L902.143 35.555L903.798 42.3566L896.996 44.0115L895.342 37.2099Z" fill="#303030"/>
<path d="M81.7523 246.479L88.5539 244.824L90.2087 251.626L83.4072 253.281L81.7523 246.479Z" fill="#303030"/>
<path d="M163.371 226.621L170.173 224.966L171.828 231.768L165.026 233.423L163.371 226.621Z" fill="#303030"/>
<path d="M244.99 206.763L251.792 205.108L253.447 211.91L246.645 213.565L244.99 206.763Z" fill="#303030"/>
<path d="M326.609 186.905L333.411 185.25L335.066 192.052L328.264 193.706L326.609 186.905Z" fill="#303030"/>
<path d="M408.228 167.047L415.03 165.392L416.685 172.194L409.883 173.848L408.228 167.047Z" fill="#303030"/>
<path d="M489.847 147.189L496.649 145.534L498.304 152.335L491.502 153.99L489.847 147.189Z" fill="#303030"/>
<path d="M571.466 127.331L578.268 125.676L579.923 132.477L573.121 134.132L571.466 127.331Z" fill="#303030"/>
<path d="M653.085 107.472L659.887 105.818L661.542 112.619L654.74 114.274L653.085 107.472Z" fill="#303030"/>
<path d="M734.704 87.6143L741.506 85.9595L743.16 92.7611L736.359 94.4159L734.704 87.6143Z" fill="#303030"/>
<path d="M816.323 67.7562L823.125 66.1014L824.779 72.9029L817.978 74.5578L816.323 67.7562Z" fill="#303030"/>
<path d="M897.942 47.8981L904.744 46.2432L906.398 53.0448L899.597 54.6997L897.942 47.8981Z" fill="#303030"/>
<path d="M92.755 232.481L99.5566 230.826L101.211 237.628L94.4099 239.283L92.755 232.481Z" fill="#303030"/>
<path d="M174.374 212.623L181.176 210.968L182.83 217.77L176.029 219.425L174.374 212.623Z" fill="#303030"/>
<path d="M255.993 192.765L262.795 191.11L264.449 197.912L257.648 199.567L255.993 192.765Z" fill="#303030"/>
<path d="M337.612 172.907L344.413 171.252L346.068 178.054L339.267 179.709L337.612 172.907Z" fill="#303030"/>
<path d="M419.231 153.049L426.032 151.394L427.687 158.196L420.886 159.85L419.231 153.049Z" fill="#303030"/>
<path d="M500.85 133.191L507.651 131.536L509.306 138.338L502.505 139.992L500.85 133.191Z" fill="#303030"/>
<path d="M582.469 113.333L589.27 111.678L590.925 118.479L584.124 120.134L582.469 113.333Z" fill="#303030"/>
<path d="M664.088 93.4745L670.889 91.8197L672.544 98.6213L665.743 100.276L664.088 93.4745Z" fill="#303030"/>
<path d="M745.707 73.6164L752.508 71.9616L754.163 78.7632L747.362 80.418L745.707 73.6164Z" fill="#303030"/>
<path d="M827.326 53.7583L834.127 52.1035L835.782 58.9051L828.981 60.5599L827.326 53.7583Z" fill="#303030"/>
<path d="M908.945 33.9002L915.746 32.2454L917.401 39.0469L910.6 40.7018L908.945 33.9002Z" fill="#303030"/>
<path d="M106.358 229.172L113.16 227.517L114.815 234.318L108.013 235.973L106.358 229.172Z" fill="#303030"/>
<path d="M187.977 209.314L194.779 207.659L196.434 214.46L189.632 216.115L187.977 209.314Z" fill="#303030"/>
<path d="M269.596 189.455L276.398 187.801L278.053 194.602L271.251 196.257L269.596 189.455Z" fill="#303030"/>
<path d="M351.215 169.597L358.017 167.942L359.671 174.744L352.87 176.399L351.215 169.597Z" fill="#303030"/>
<path d="M432.834 149.739L439.636 148.084L441.29 154.886L434.489 156.541L432.834 149.739Z" fill="#303030"/>
<path d="M514.453 129.881L521.255 128.226L522.909 135.028L516.108 136.683L514.453 129.881Z" fill="#303030"/>
<path d="M596.072 110.023L602.874 108.368L604.528 115.17L597.727 116.825L596.072 110.023Z" fill="#303030"/>
<path d="M677.691 90.1649L684.493 88.51L686.147 95.3116L679.346 96.9664L677.691 90.1649Z" fill="#303030"/>
<path d="M759.31 70.3067L766.111 68.6519L767.766 75.4535L760.965 77.1083L759.31 70.3067Z" fill="#303030"/>
<path d="M840.929 50.4486L847.73 48.7938L849.385 55.5954L842.584 57.2502L840.929 50.4486Z" fill="#303030"/>
<path d="M922.548 30.5905L929.349 28.9357L931.004 35.7373L924.203 37.3921L922.548 30.5905Z" fill="#303030"/>
<path d="M106.358 229.172L113.16 227.517L114.815 234.318L108.013 235.973L106.358 229.172Z" fill="#303030"/>
<path d="M187.977 209.314L194.779 207.659L196.434 214.46L189.632 216.115L187.977 209.314Z" fill="#303030"/>
<path d="M269.596 189.455L276.398 187.801L278.053 194.602L271.251 196.257L269.596 189.455Z" fill="#303030"/>
<path d="M351.215 169.597L358.017 167.942L359.671 174.744L352.87 176.399L351.215 169.597Z" fill="#303030"/>
<path d="M432.834 149.739L439.636 148.084L441.29 154.886L434.489 156.541L432.834 149.739Z" fill="#303030"/>
<path d="M514.453 129.881L521.255 128.226L522.909 135.028L516.108 136.683L514.453 129.881Z" fill="#303030"/>
<path d="M596.072 110.023L602.874 108.368L604.528 115.17L597.727 116.825L596.072 110.023Z" fill="#303030"/>
<path d="M677.691 90.1649L684.493 88.51L686.147 95.3116L679.346 96.9664L677.691 90.1649Z" fill="#303030"/>
<path d="M759.31 70.3067L766.111 68.6519L767.766 75.4535L760.965 77.1083L759.31 70.3067Z" fill="#303030"/>
<path d="M840.929 50.4486L847.73 48.7938L849.385 55.5954L842.584 57.2502L840.929 50.4486Z" fill="#303030"/>
<path d="M922.548 30.5905L929.349 28.9357L931.004 35.7373L924.203 37.3921L922.548 30.5905Z" fill="#303030"/>
<path d="M119.961 225.862L126.763 224.207L128.418 231.009L121.616 232.664L119.961 225.862Z" fill="#303030"/>
<path d="M201.58 206.004L208.382 204.349L210.037 211.151L203.235 212.805L201.58 206.004Z" fill="#303030"/>
<path d="M283.199 186.146L290.001 184.491L291.656 191.292L284.854 192.947L283.199 186.146Z" fill="#303030"/>
<path d="M364.818 166.288L371.62 164.633L373.275 171.434L366.473 173.089L364.818 166.288Z" fill="#303030"/>
<path d="M446.437 146.43L453.239 144.775L454.894 151.576L448.092 153.231L446.437 146.43Z" fill="#303030"/>
<path d="M528.056 126.571L534.858 124.917L536.513 131.718L529.711 133.373L528.056 126.571Z" fill="#303030"/>
<path d="M609.675 106.713L616.477 105.058L618.132 111.86L611.33 113.515L609.675 106.713Z" fill="#303030"/>
<path d="M691.294 86.8552L698.096 85.2003L699.751 92.0019L692.949 93.6568L691.294 86.8552Z" fill="#303030"/>
<path d="M772.913 66.9971L779.715 65.3422L781.369 72.1438L774.568 73.7986L772.913 66.9971Z" fill="#303030"/>
<path d="M854.532 47.1389L861.334 45.4841L862.988 52.2857L856.187 53.9405L854.532 47.1389Z" fill="#303030"/>
<path d="M936.151 27.2808L942.953 25.626L944.607 32.4276L937.806 34.0824L936.151 27.2808Z" fill="#303030"/>
<path d="M133.564 222.552L140.366 220.897L142.021 227.699L135.219 229.354L133.564 222.552Z" fill="#303030"/>
<path d="M215.183 202.694L221.985 201.039L223.64 207.841L216.838 209.496L215.183 202.694Z" fill="#303030"/>
<path d="M296.802 182.836L303.604 181.181L305.259 187.983L298.457 189.638L296.802 182.836Z" fill="#303030"/>
<path d="M378.421 162.978L385.223 161.323L386.878 168.125L380.076 169.78L378.421 162.978Z" fill="#303030"/>
<path d="M460.04 143.12L466.842 141.465L468.497 148.267L461.695 149.921L460.04 143.12Z" fill="#303030"/>
<path d="M541.659 123.262L548.461 121.607L550.116 128.408L543.314 130.063L541.659 123.262Z" fill="#303030"/>
<path d="M623.278 103.404L630.08 101.749L631.735 108.55L624.933 110.205L623.278 103.404Z" fill="#303030"/>
<path d="M704.897 83.5455L711.699 81.8906L713.354 88.6922L706.552 90.3471L704.897 83.5455Z" fill="#303030"/>
<path d="M786.516 63.6874L793.318 62.0325L794.973 68.8341L788.171 70.489L786.516 63.6874Z" fill="#303030"/>
<path d="M868.135 43.8293L874.937 42.1744L876.592 48.976L869.79 50.6308L868.135 43.8293Z" fill="#303030"/>
<path d="M949.754 23.9711L956.556 22.3163L958.211 29.1179L951.409 30.7727L949.754 23.9711Z" fill="#303030"/>
<path d="M95.3555 243.17L102.157 241.515L103.812 248.316L97.0103 249.971L95.3555 243.17Z" fill="#303030"/>
<path d="M176.974 223.311L183.776 221.657L185.431 228.458L178.629 230.113L176.974 223.311Z" fill="#303030"/>
<path d="M258.593 203.453L265.395 201.798L267.05 208.6L260.248 210.255L258.593 203.453Z" fill="#303030"/>
<path d="M340.212 183.595L347.014 181.94L348.669 188.742L341.867 190.397L340.212 183.595Z" fill="#303030"/>
<path d="M421.831 163.737L428.633 162.082L430.288 168.884L423.486 170.539L421.831 163.737Z" fill="#303030"/>
<path d="M503.45 143.879L510.252 142.224L511.907 149.026L505.105 150.681L503.45 143.879Z" fill="#303030"/>
<path d="M585.069 124.021L591.871 122.366L593.526 129.168L586.724 130.822L585.069 124.021Z" fill="#303030"/>
<path d="M666.688 104.163L673.49 102.508L675.145 109.309L668.343 110.964L666.688 104.163Z" fill="#303030"/>
<path d="M748.307 84.3046L755.109 82.6498L756.764 89.4514L749.962 91.1062L748.307 84.3046Z" fill="#303030"/>
<path d="M829.926 64.4465L836.728 62.7917L838.383 69.5933L831.581 71.2481L829.926 64.4465Z" fill="#303030"/>
<path d="M911.545 44.5884L918.347 42.9336L920.002 49.7351L913.2 51.39L911.545 44.5884Z" fill="#303030"/>
<path d="M108.959 239.86L115.76 238.205L117.415 245.007L110.613 246.661L108.959 239.86Z" fill="#303030"/>
<path d="M190.578 220.002L197.379 218.347L199.034 225.148L192.232 226.803L190.578 220.002Z" fill="#303030"/>
<path d="M272.197 200.144L278.998 198.489L280.653 205.29L273.851 206.945L272.197 200.144Z" fill="#303030"/>
<path d="M353.816 180.286L360.617 178.631L362.272 185.432L355.47 187.087L353.816 180.286Z" fill="#303030"/>
<path d="M435.435 160.427L442.236 158.773L443.891 165.574L437.089 167.229L435.435 160.427Z" fill="#303030"/>
<path d="M517.053 140.569L523.855 138.914L525.51 145.716L518.708 147.371L517.053 140.569Z" fill="#303030"/>
<path d="M598.672 120.711L605.474 119.056L607.129 125.858L600.327 127.513L598.672 120.711Z" fill="#303030"/>
<path d="M680.291 100.853L687.093 99.1982L688.748 106L681.946 107.655L680.291 100.853Z" fill="#303030"/>
<path d="M761.91 80.9949L768.712 79.3401L770.367 86.1417L763.565 87.7965L761.91 80.9949Z" fill="#303030"/>
<path d="M843.529 61.1368L850.331 59.482L851.986 66.2836L845.184 67.9384L843.529 61.1368Z" fill="#303030"/>
<path d="M925.148 41.2787L931.95 39.6239L933.605 46.4255L926.803 48.0803L925.148 41.2787Z" fill="#303030"/>
<path d="M122.562 236.55L129.363 234.895L131.018 241.697L124.217 243.352L122.562 236.55Z" fill="#303030"/>
<path d="M204.181 216.692L210.982 215.037L212.637 221.839L205.836 223.494L204.181 216.692Z" fill="#303030"/>
<path d="M285.8 196.834L292.601 195.179L294.256 201.981L287.455 203.636L285.8 196.834Z" fill="#303030"/>
<path d="M367.419 176.976L374.22 175.321L375.875 182.123L369.074 183.777L367.419 176.976Z" fill="#303030"/>
<path d="M449.038 157.118L455.839 155.463L457.494 162.264L450.693 163.919L449.038 157.118Z" fill="#303030"/>
<path d="M530.657 137.26L537.458 135.605L539.113 142.406L532.311 144.061L530.657 137.26Z" fill="#303030"/>
<path d="M612.276 117.401L619.077 115.747L620.732 122.548L613.93 124.203L612.276 117.401Z" fill="#303030"/>
<path d="M693.895 97.5434L700.696 95.8885L702.351 102.69L695.549 104.345L693.895 97.5434Z" fill="#303030"/>
<path d="M775.514 77.6853L782.315 76.0304L783.97 82.832L777.168 84.4868L775.514 77.6853Z" fill="#303030"/>
<path d="M857.132 57.8271L863.934 56.1723L865.589 62.9739L858.787 64.6287L857.132 57.8271Z" fill="#303030"/>
<path d="M938.751 37.969L945.553 36.3142L947.208 43.1158L940.406 44.7706L938.751 37.969Z" fill="#303030"/>
<path d="M136.165 233.24L142.967 231.586L144.621 238.387L137.82 240.042L136.165 233.24Z" fill="#303030"/>
<path d="M217.784 213.382L224.586 211.728L226.24 218.529L219.439 220.184L217.784 213.382Z" fill="#303030"/>
<path d="M299.403 193.524L306.204 191.869L307.859 198.671L301.058 200.326L299.403 193.524Z" fill="#303030"/>
<path d="M381.022 173.666L387.823 172.011L389.478 178.813L382.677 180.468L381.022 173.666Z" fill="#303030"/>
<path d="M462.641 153.808L469.442 152.153L471.097 158.955L464.296 160.61L462.641 153.808Z" fill="#303030"/>
<path d="M544.26 133.95L551.061 132.295L552.716 139.097L545.915 140.751L544.26 133.95Z" fill="#303030"/>
<path d="M625.879 114.092L632.68 112.437L634.335 119.239L627.534 120.893L625.879 114.092Z" fill="#303030"/>
<path d="M707.498 94.2337L714.299 92.5788L715.954 99.3804L709.153 101.035L707.498 94.2337Z" fill="#303030"/>
<path d="M789.117 74.3756L795.918 72.7207L797.573 79.5223L790.772 81.1772L789.117 74.3756Z" fill="#303030"/>
<path d="M870.736 54.5175L877.537 52.8626L879.192 59.6642L872.391 61.319L870.736 54.5175Z" fill="#303030"/>
<path d="M952.355 34.6593L959.156 33.0045L960.811 39.8061L954.009 41.4609L952.355 34.6593Z" fill="#303030"/>
<path d="M72.6123 234.295L955.36 19.5197" stroke="#010BFF"/>
<path d="M78.2861 257.614L961.034 42.8393" stroke="#FF0101"/>
<path d="M121.679 414.812L128.48 413.157L130.135 419.959L123.334 421.614L121.679 414.812Z" fill="#303030"/>
<path d="M203.298 394.954L210.099 393.299L211.754 400.101L204.953 401.755L203.298 394.954Z" fill="#303030"/>
<path d="M284.917 375.096L291.718 373.441L293.373 380.243L286.571 381.897L284.917 375.096Z" fill="#303030"/>
<path d="M366.536 355.238L373.337 353.583L374.992 360.384L368.19 362.039L366.536 355.238Z" fill="#303030"/>
<path d="M448.155 335.38L454.956 333.725L456.611 340.526L449.809 342.181L448.155 335.38Z" fill="#303030"/>
<path d="M529.774 315.521L536.575 313.867L538.23 320.668L531.428 322.323L529.774 315.521Z" fill="#303030"/>
<path d="M611.393 295.663L618.194 294.008L619.849 300.81L613.047 302.465L611.393 295.663Z" fill="#303030"/>
<path d="M693.011 275.805L699.813 274.15L701.468 280.952L694.666 282.607L693.011 275.805Z" fill="#303030"/>
<path d="M774.63 255.947L781.432 254.292L783.087 261.094L776.285 262.749L774.63 255.947Z" fill="#303030"/>
<path d="M856.249 236.089L863.051 234.434L864.706 241.236L857.904 242.891L856.249 236.089Z" fill="#303030"/>
<path d="M937.868 216.231L944.67 214.576L946.325 221.378L939.523 223.032L937.868 216.231Z" fill="#303030"/>
<path d="M124.279 425.5L131.081 423.845L132.736 430.647L125.934 432.302L124.279 425.5Z" fill="#303030"/>
<path d="M205.898 405.642L212.7 403.987L214.355 410.789L207.553 412.444L205.898 405.642Z" fill="#303030"/>
<path d="M287.517 385.784L294.319 384.129L295.974 390.931L289.172 392.586L287.517 385.784Z" fill="#303030"/>
<path d="M369.136 365.926L375.938 364.271L377.592 371.073L370.791 372.727L369.136 365.926Z" fill="#303030"/>
<path d="M450.755 346.068L457.557 344.413L459.211 351.214L452.41 352.869L450.755 346.068Z" fill="#303030"/>
<path d="M532.374 326.21L539.176 324.555L540.83 331.356L534.029 333.011L532.374 326.21Z" fill="#303030"/>
<path d="M613.993 306.352L620.795 304.697L622.449 311.498L615.648 313.153L613.993 306.352Z" fill="#303030"/>
<path d="M695.612 286.493L702.414 284.839L704.068 291.64L697.267 293.295L695.612 286.493Z" fill="#303030"/>
<path d="M777.231 266.635L784.032 264.98L785.687 271.782L778.886 273.437L777.231 266.635Z" fill="#303030"/>
<path d="M858.85 246.777L865.651 245.122L867.306 251.924L860.505 253.579L858.85 246.777Z" fill="#303030"/>
<path d="M940.469 226.919L947.27 225.264L948.925 232.066L942.124 233.721L940.469 226.919Z" fill="#303030"/>
<path d="M135.282 411.502L142.083 409.847L143.738 416.649L136.937 418.304L135.282 411.502Z" fill="#303030"/>
<path d="M216.901 391.644L223.702 389.989L225.357 396.791L218.556 398.446L216.901 391.644Z" fill="#303030"/>
<path d="M298.52 371.786L305.321 370.131L306.976 376.933L300.175 378.588L298.52 371.786Z" fill="#303030"/>
<path d="M380.139 351.928L386.94 350.273L388.595 357.075L381.794 358.73L380.139 351.928Z" fill="#303030"/>
<path d="M461.758 332.07L468.559 330.415L470.214 337.217L463.413 338.871L461.758 332.07Z" fill="#303030"/>
<path d="M543.377 312.212L550.178 310.557L551.833 317.359L545.032 319.013L543.377 312.212Z" fill="#303030"/>
<path d="M624.996 292.354L631.797 290.699L633.452 297.5L626.651 299.155L624.996 292.354Z" fill="#303030"/>
<path d="M706.615 272.496L713.416 270.841L715.071 277.642L708.269 279.297L706.615 272.496Z" fill="#303030"/>
<path d="M788.234 252.637L795.035 250.983L796.69 257.784L789.888 259.439L788.234 252.637Z" fill="#303030"/>
<path d="M869.853 232.779L876.654 231.124L878.309 237.926L871.507 239.581L869.853 232.779Z" fill="#303030"/>
<path d="M951.472 212.921L958.273 211.266L959.928 218.068L953.126 219.723L951.472 212.921Z" fill="#303030"/>
<path d="M148.885 408.193L155.687 406.538L157.341 413.339L150.54 414.994L148.885 408.193Z" fill="#303030"/>
<path d="M230.504 388.335L237.306 386.68L238.96 393.481L232.159 395.136L230.504 388.335Z" fill="#303030"/>
<path d="M312.123 368.476L318.925 366.822L320.579 373.623L313.778 375.278L312.123 368.476Z" fill="#303030"/>
<path d="M393.742 348.618L400.544 346.963L402.198 353.765L395.397 355.42L393.742 348.618Z" fill="#303030"/>
<path d="M475.361 328.76L482.162 327.105L483.817 333.907L477.016 335.562L475.361 328.76Z" fill="#303030"/>
<path d="M556.98 308.902L563.781 307.247L565.436 314.049L558.635 315.704L556.98 308.902Z" fill="#303030"/>
<path d="M638.599 289.044L645.4 287.389L647.055 294.191L640.254 295.846L638.599 289.044Z" fill="#303030"/>
<path d="M720.218 269.186L727.019 267.531L728.674 274.333L721.873 275.987L720.218 269.186Z" fill="#303030"/>
<path d="M801.837 249.328L808.638 247.673L810.293 254.474L803.492 256.129L801.837 249.328Z" fill="#303030"/>
<path d="M883.456 229.47L890.257 227.815L891.912 234.616L885.111 236.271L883.456 229.47Z" fill="#303030"/>
<path d="M965.075 209.612L971.876 207.957L973.531 214.758L966.73 216.413L965.075 209.612Z" fill="#303030"/>
<path d="M148.885 408.193L155.687 406.538L157.341 413.339L150.54 414.994L148.885 408.193Z" fill="#303030"/>
<path d="M230.504 388.335L237.306 386.68L238.96 393.481L232.159 395.136L230.504 388.335Z" fill="#303030"/>
<path d="M312.123 368.476L318.925 366.822L320.579 373.623L313.778 375.278L312.123 368.476Z" fill="#303030"/>
<path d="M393.742 348.618L400.544 346.963L402.198 353.765L395.397 355.42L393.742 348.618Z" fill="#303030"/>
<path d="M475.361 328.76L482.162 327.105L483.817 333.907L477.016 335.562L475.361 328.76Z" fill="#303030"/>
<path d="M556.98 308.902L563.781 307.247L565.436 314.049L558.635 315.704L556.98 308.902Z" fill="#303030"/>
<path d="M638.599 289.044L645.4 287.389L647.055 294.191L640.254 295.846L638.599 289.044Z" fill="#303030"/>
<path d="M720.218 269.186L727.019 267.531L728.674 274.333L721.873 275.987L720.218 269.186Z" fill="#303030"/>
<path d="M801.837 249.328L808.638 247.673L810.293 254.474L803.492 256.129L801.837 249.328Z" fill="#303030"/>
<path d="M883.456 229.47L890.257 227.815L891.912 234.616L885.111 236.271L883.456 229.47Z" fill="#303030"/>
<path d="M965.075 209.612L971.876 207.957L973.531 214.758L966.73 216.413L965.075 209.612Z" fill="#303030"/>
<path d="M162.488 404.883L169.29 403.228L170.945 410.03L164.143 411.685L162.488 404.883Z" fill="#303030"/>
<path d="M244.107 385.025L250.909 383.37L252.564 390.172L245.762 391.826L244.107 385.025Z" fill="#303030"/>
<path d="M325.726 365.167L332.528 363.512L334.183 370.313L327.381 371.968L325.726 365.167Z" fill="#303030"/>
<path d="M407.345 345.309L414.147 343.654L415.802 350.455L409 352.11L407.345 345.309Z" fill="#303030"/>
<path d="M488.964 325.451L495.766 323.796L497.42 330.597L490.619 332.252L488.964 325.451Z" fill="#303030"/>
<path d="M570.583 305.592L577.385 303.938L579.039 310.739L572.238 312.394L570.583 305.592Z" fill="#303030"/>
<path d="M652.202 285.734L659.004 284.079L660.658 290.881L653.857 292.536L652.202 285.734Z" fill="#303030"/>
<path d="M733.821 265.876L740.623 264.221L742.277 271.023L735.476 272.678L733.821 265.876Z" fill="#303030"/>
<path d="M815.44 246.018L822.242 244.363L823.896 251.165L817.095 252.82L815.44 246.018Z" fill="#303030"/>
<path d="M897.059 226.16L903.86 224.505L905.515 231.307L898.714 232.962L897.059 226.16Z" fill="#303030"/>
<path d="M978.678 206.302L985.479 204.647L987.134 211.449L980.333 213.103L978.678 206.302Z" fill="#303030"/>
<path d="M176.091 401.573L182.893 399.918L184.548 406.72L177.746 408.375L176.091 401.573Z" fill="#303030"/>
<path d="M257.71 381.715L264.512 380.06L266.167 386.862L259.365 388.517L257.71 381.715Z" fill="#303030"/>
<path d="M339.329 361.857L346.131 360.202L347.786 367.004L340.984 368.659L339.329 361.857Z" fill="#303030"/>
<path d="M420.948 341.999L427.75 340.344L429.405 347.146L422.603 348.801L420.948 341.999Z" fill="#303030"/>
<path d="M502.567 322.141L509.369 320.486L511.024 327.288L504.222 328.942L502.567 322.141Z" fill="#303030"/>
<path d="M584.186 302.283L590.988 300.628L592.643 307.429L585.841 309.084L584.186 302.283Z" fill="#303030"/>
<path d="M665.805 282.425L672.607 280.77L674.262 287.571L667.46 289.226L665.805 282.425Z" fill="#303030"/>
<path d="M747.424 262.566L754.226 260.912L755.881 267.713L749.079 269.368L747.424 262.566Z" fill="#303030"/>
<path d="M829.043 242.708L835.845 241.054L837.5 247.855L830.698 249.51L829.043 242.708Z" fill="#303030"/>
<path d="M910.662 222.85L917.464 221.195L919.118 227.997L912.317 229.652L910.662 222.85Z" fill="#303030"/>
<path d="M992.281 202.992L999.083 201.337L1000.74 208.139L993.936 209.794L992.281 202.992Z" fill="#303030"/>
<path d="M137.882 422.191L144.684 420.536L146.339 427.337L139.537 428.992L137.882 422.191Z" fill="#303030"/>
<path d="M219.501 402.332L226.303 400.678L227.958 407.479L221.156 409.134L219.501 402.332Z" fill="#303030"/>
<path d="M301.12 382.474L307.922 380.819L309.577 387.621L302.775 389.276L301.12 382.474Z" fill="#303030"/>
<path d="M382.739 362.616L389.541 360.961L391.196 367.763L384.394 369.418L382.739 362.616Z" fill="#303030"/>
<path d="M464.358 342.758L471.16 341.103L472.815 347.905L466.013 349.56L464.358 342.758Z" fill="#303030"/>
<path d="M545.977 322.9L552.779 321.245L554.434 328.047L547.632 329.702L545.977 322.9Z" fill="#303030"/>
<path d="M627.596 303.042L634.398 301.387L636.053 308.189L629.251 309.843L627.596 303.042Z" fill="#303030"/>
<path d="M709.215 283.184L716.017 281.529L717.672 288.33L710.87 289.985L709.215 283.184Z" fill="#303030"/>
<path d="M790.834 263.326L797.636 261.671L799.29 268.472L792.489 270.127L790.834 263.326Z" fill="#303030"/>
<path d="M872.453 243.468L879.255 241.813L880.909 248.614L874.108 250.269L872.453 243.468Z" fill="#303030"/>
<path d="M954.072 223.609L960.874 221.955L962.528 228.756L955.727 230.411L954.072 223.609Z" fill="#303030"/>
<path d="M151.486 418.881L158.287 417.226L159.942 424.028L153.14 425.682L151.486 418.881Z" fill="#303030"/>
<path d="M233.104 399.023L239.906 397.368L241.561 404.169L234.759 405.824L233.104 399.023Z" fill="#303030"/>
<path d="M314.723 379.165L321.525 377.51L323.18 384.311L316.378 385.966L314.723 379.165Z" fill="#303030"/>
<path d="M396.342 359.307L403.144 357.652L404.799 364.453L397.997 366.108L396.342 359.307Z" fill="#303030"/>
<path d="M477.961 339.448L484.763 337.794L486.418 344.595L479.616 346.25L477.961 339.448Z" fill="#303030"/>
<path d="M559.58 319.59L566.382 317.935L568.037 324.737L561.235 326.392L559.58 319.59Z" fill="#303030"/>
<path d="M641.199 299.732L648.001 298.077L649.656 304.879L642.854 306.534L641.199 299.732Z" fill="#303030"/>
<path d="M722.818 279.874L729.62 278.219L731.275 285.021L724.473 286.676L722.818 279.874Z" fill="#303030"/>
<path d="M804.437 260.016L811.239 258.361L812.894 265.163L806.092 266.818L804.437 260.016Z" fill="#303030"/>
<path d="M886.056 240.158L892.858 238.503L894.513 245.305L887.711 246.959L886.056 240.158Z" fill="#303030"/>
<path d="M967.675 220.3L974.477 218.645L976.132 225.446L969.33 227.101L967.675 220.3Z" fill="#303030"/>
<path d="M165.089 415.571L171.89 413.916L173.545 420.718L166.744 422.373L165.089 415.571Z" fill="#303030"/>
<path d="M246.708 395.713L253.509 394.058L255.164 400.86L248.362 402.515L246.708 395.713Z" fill="#303030"/>
<path d="M328.327 375.855L335.128 374.2L336.783 381.002L329.981 382.657L328.327 375.855Z" fill="#303030"/>
<path d="M409.946 355.997L416.747 354.342L418.402 361.144L411.6 362.798L409.946 355.997Z" fill="#303030"/>
<path d="M491.565 336.139L498.366 334.484L500.021 341.285L493.219 342.94L491.565 336.139Z" fill="#303030"/>
<path d="M573.183 316.281L579.985 314.626L581.64 321.427L574.838 323.082L573.183 316.281Z" fill="#303030"/>
<path d="M654.802 296.422L661.604 294.768L663.259 301.569L656.457 303.224L654.802 296.422Z" fill="#303030"/>
<path d="M736.421 276.564L743.223 274.91L744.878 281.711L738.076 283.366L736.421 276.564Z" fill="#303030"/>
<path d="M818.04 256.706L824.842 255.051L826.497 261.853L819.695 263.508L818.04 256.706Z" fill="#303030"/>
<path d="M899.659 236.848L906.461 235.193L908.116 241.995L901.314 243.65L899.659 236.848Z" fill="#303030"/>
<path d="M981.278 216.99L988.08 215.335L989.735 222.137L982.933 223.792L981.278 216.99Z" fill="#303030"/>
<path d="M178.692 412.261L185.493 410.607L187.148 417.408L180.347 419.063L178.692 412.261Z" fill="#303030"/>
<path d="M260.311 392.403L267.112 390.749L268.767 397.55L261.966 399.205L260.311 392.403Z" fill="#303030"/>
<path d="M341.93 372.545L348.731 370.89L350.386 377.692L343.585 379.347L341.93 372.545Z" fill="#303030"/>
<path d="M423.549 352.687L430.35 351.032L432.005 357.834L425.204 359.489L423.549 352.687Z" fill="#303030"/>
<path d="M505.168 332.829L511.969 331.174L513.624 337.976L506.823 339.631L505.168 332.829Z" fill="#303030"/>
<path d="M586.787 312.971L593.588 311.316L595.243 318.118L588.441 319.772L586.787 312.971Z" fill="#303030"/>
<path d="M668.406 293.113L675.207 291.458L676.862 298.26L670.06 299.914L668.406 293.113Z" fill="#303030"/>
<path d="M750.025 273.255L756.826 271.6L758.481 278.401L751.679 280.056L750.025 273.255Z" fill="#303030"/>
<path d="M831.644 253.397L838.445 251.742L840.1 258.543L833.298 260.198L831.644 253.397Z" fill="#303030"/>
<path d="M913.263 233.538L920.064 231.884L921.719 238.685L914.917 240.34L913.263 233.538Z" fill="#303030"/>
<path d="M994.881 213.68L1001.68 212.025L1003.34 218.827L996.536 220.482L994.881 213.68Z" fill="#303030"/>
<path d="M115.14 413.315L997.888 198.54" stroke="#010BFF"/>
<path d="M120.813 436.635L1003.56 221.86" stroke="#FF0101"/>
</svg>
