<?xml version="1.0" encoding="utf-8"?>
<!-- Generator: Adobe Illustrator 28.0.0, SVG Export Plug-In . SVG Version: 6.00 Build 0)  -->
<svg version="1.1" id="圖層_1" xmlns="http://www.w3.org/2000/svg" xmlns:xlink="http://www.w3.org/1999/xlink" x="0px" y="0px"
	 viewBox="0 0 1091 700" style="enable-background:new 0 0 1091 700;" xml:space="preserve">
<style type="text/css">
	.st0{fill:#A09A9A;}
	.st1{fill:#D9D9D9;}
	.st2{fill:#303030;}
	.st3{fill:none;stroke:#010BFF;}
	.st4{fill:none;stroke:#FF0101;}
</style>
<g>
	<path class="st0" d="M114.6,568.2v19.1L1032.9,364v-19.1L114.6,568.2z"/>
	<path class="st0" d="M58.1,336v19.1l56.5,232.2l6.9-1.7L60.6,335.4L58.1,336z"/>
	
		<rect x="73" y="220.9" transform="matrix(0.9717 -0.2364 0.2364 0.9717 -65.0165 138.6089)" class="st1" width="945" height="239"/>
	<path class="st2" d="M87.2,379.4l6.8-1.7l1.7,6.8l-6.8,1.7L87.2,379.4z"/>
	<path class="st2" d="M100.8,376.1l6.8-1.7l1.7,6.8l-6.8,1.7L100.8,376.1z"/>
	<path class="st2" d="M114.4,372.8l6.8-1.7l1.7,6.8l-6.8,1.7L114.4,372.8z"/>
	<path class="st2" d="M128,369.4l6.8-1.7l1.7,6.8l-6.8,1.7L128,369.4z"/>
	<path class="st2" d="M141.6,366.1l6.8-1.7l1.7,6.8l-6.8,1.7L141.6,366.1z"/>
	<path class="st2" d="M155.2,362.8l6.8-1.7l1.7,6.8l-6.8,1.7L155.2,362.8z"/>
	<path class="st2" d="M168.8,359.5l6.8-1.7l1.7,6.8l-6.8,1.7L168.8,359.5z"/>
	<path class="st2" d="M182.4,356.2l6.8-1.7l1.7,6.8l-6.8,1.7L182.4,356.2z"/>
	<path class="st2" d="M196,352.9l6.8-1.7l1.7,6.8l-6.8,1.7L196,352.9z"/>
	<path class="st2" d="M209.6,349.6l6.8-1.7l1.7,6.8l-6.8,1.7L209.6,349.6z"/>
	<path class="st2" d="M223.2,346.3l6.8-1.7l1.7,6.8l-6.8,1.7L223.2,346.3z"/>
	<path class="st2" d="M236.9,343l6.8-1.7l1.7,6.8l-6.8,1.7L236.9,343z"/>
	<path class="st2" d="M250.5,339.7l6.8-1.7l1.7,6.8l-6.8,1.7L250.5,339.7z"/>
	<path class="st2" d="M264.1,336.3l6.8-1.7l1.7,6.8l-6.8,1.7L264.1,336.3z"/>
	<path class="st2" d="M277.7,333l6.8-1.7l1.7,6.8l-6.8,1.7L277.7,333z"/>
	<path class="st2" d="M291.3,329.7l6.8-1.7l1.7,6.8l-6.8,1.7L291.3,329.7z"/>
	<path class="st2" d="M304.9,326.4l6.8-1.7l1.7,6.8l-6.8,1.7L304.9,326.4z"/>
	<path class="st2" d="M318.5,323.1l6.8-1.7l1.7,6.8l-6.8,1.7L318.5,323.1z"/>
	<path class="st2" d="M332.1,319.8l6.8-1.7l1.7,6.8l-6.8,1.7L332.1,319.8z"/>
	<path class="st2" d="M345.7,316.5l6.8-1.7l1.7,6.8l-6.8,1.7L345.7,316.5z"/>
	<path class="st2" d="M359.3,313.2l6.8-1.7l1.7,6.8l-6.8,1.7L359.3,313.2z"/>
	<path class="st2" d="M372.9,309.9l6.8-1.7l1.7,6.8l-6.8,1.7L372.9,309.9z"/>
	<path class="st2" d="M386.5,306.6l6.8-1.7l1.7,6.8l-6.8,1.7L386.5,306.6z"/>
	<path class="st2" d="M400.1,303.2l6.8-1.7l1.7,6.8l-6.8,1.7L400.1,303.2z"/>
	<path class="st2" d="M413.7,299.9l6.8-1.7l1.7,6.8l-6.8,1.7L413.7,299.9z"/>
	<path class="st2" d="M427.3,296.6l6.8-1.7l1.7,6.8l-6.8,1.7L427.3,296.6z"/>
	<path class="st2" d="M440.9,293.3l6.8-1.7l1.7,6.8l-6.8,1.7L440.9,293.3z"/>
	<path class="st2" d="M454.5,290l6.8-1.7l1.7,6.8l-6.8,1.7L454.5,290z"/>
	<path class="st2" d="M468.1,286.7l6.8-1.7l1.7,6.8l-6.8,1.7L468.1,286.7z"/>
	<path class="st2" d="M481.7,283.4l6.8-1.7l1.7,6.8l-6.8,1.7L481.7,283.4z"/>
	<path class="st2" d="M495.3,280.1l6.8-1.7l1.7,6.8l-6.8,1.7L495.3,280.1z"/>
	<path class="st2" d="M508.9,276.8l6.8-1.7l1.7,6.8l-6.8,1.7L508.9,276.8z"/>
	<path class="st2" d="M522.5,273.5l6.8-1.7l1.7,6.8l-6.8,1.7L522.5,273.5z"/>
	<path class="st2" d="M536.1,270.2l6.8-1.7l1.7,6.8l-6.8,1.7L536.1,270.2z"/>
	<path class="st2" d="M549.7,266.8l6.8-1.7l1.7,6.8l-6.8,1.7L549.7,266.8z"/>
	<path class="st2" d="M563.3,263.5l6.8-1.7l1.7,6.8l-6.8,1.7L563.3,263.5z"/>
	<path class="st2" d="M576.9,260.2l6.8-1.7l1.7,6.8l-6.8,1.7L576.9,260.2z"/>
	<path class="st2" d="M590.5,256.9l6.8-1.7l1.7,6.8l-6.8,1.7L590.5,256.9z"/>
	<path class="st2" d="M604.1,253.6l6.8-1.7l1.7,6.8l-6.8,1.7L604.1,253.6z"/>
	<path class="st2" d="M617.7,250.3l6.8-1.7l1.7,6.8l-6.8,1.7L617.7,250.3z"/>
	<path class="st2" d="M631.3,247l6.8-1.7l1.7,6.8l-6.8,1.7L631.3,247z"/>
	<path class="st2" d="M644.9,243.7l6.8-1.7l1.7,6.8l-6.8,1.7L644.9,243.7z"/>
	<path class="st2" d="M658.5,240.4l6.8-1.7l1.7,6.8l-6.8,1.7L658.5,240.4z"/>
	<path class="st2" d="M672.2,237.1l6.8-1.7l1.7,6.8l-6.8,1.7L672.2,237.1z"/>
	<path class="st2" d="M685.8,233.7l6.8-1.7l1.7,6.8l-6.8,1.7L685.8,233.7z"/>
	<path class="st2" d="M699.4,230.4l6.8-1.7l1.7,6.8l-6.8,1.7L699.4,230.4z"/>
	<path class="st2" d="M713,227.1l6.8-1.7l1.7,6.8l-6.8,1.7L713,227.1z"/>
	<path class="st2" d="M726.6,223.8l6.8-1.7l1.7,6.8l-6.8,1.7L726.6,223.8z"/>
	<path class="st2" d="M740.2,220.5l6.8-1.7l1.7,6.8l-6.8,1.7L740.2,220.5z"/>
	<path class="st2" d="M753.8,217.2l6.8-1.7l1.7,6.8l-6.8,1.7L753.8,217.2z"/>
	<path class="st2" d="M767.4,213.9l6.8-1.7l1.7,6.8l-6.8,1.7L767.4,213.9z"/>
	<path class="st2" d="M781,210.6l6.8-1.7l1.7,6.8l-6.8,1.7L781,210.6z"/>
	<path class="st2" d="M794.6,207.3l6.8-1.7l1.7,6.8l-6.8,1.7L794.6,207.3z"/>
	<path class="st2" d="M808.2,204l6.8-1.7l1.7,6.8l-6.8,1.7L808.2,204z"/>
	<path class="st2" d="M821.8,200.6l6.8-1.7l1.7,6.8l-6.8,1.7L821.8,200.6z"/>
	<path class="st2" d="M835.4,197.3l6.8-1.7l1.7,6.8l-6.8,1.7L835.4,197.3z"/>
	<path class="st2" d="M849,194l6.8-1.7l1.7,6.8l-6.8,1.7L849,194z"/>
	<path class="st2" d="M862.6,190.7l6.8-1.7l1.7,6.8l-6.8,1.7L862.6,190.7z"/>
	<path class="st2" d="M876.2,187.4l6.8-1.7l1.7,6.8l-6.8,1.7L876.2,187.4z"/>
	<path class="st2" d="M889.8,184.1l6.8-1.7l1.7,6.8l-6.8,1.7L889.8,184.1z"/>
	<path class="st2" d="M903.4,180.8l6.8-1.7l1.7,6.8l-6.8,1.7L903.4,180.8z"/>
	<path class="st2" d="M917,177.5l6.8-1.7l1.7,6.8l-6.8,1.7L917,177.5z"/>
	<path class="st2" d="M930.6,174.2l6.8-1.7l1.7,6.8l-6.8,1.7L930.6,174.2z"/>
	<path class="st2" d="M944.2,170.9l6.8-1.7l1.7,6.8l-6.8,1.7L944.2,170.9z"/>
	<path class="st2" d="M957.8,167.6l6.8-1.7l1.7,6.8l-6.8,1.7L957.8,167.6z"/>
	<path class="st2" d="M89.8,390.1l6.8-1.7l1.7,6.8l-6.8,1.7L89.8,390.1z"/>
	<path class="st2" d="M103.4,386.8l6.8-1.7l1.7,6.8l-6.8,1.7L103.4,386.8z"/>
	<path class="st2" d="M117,383.4l6.8-1.7l1.7,6.8l-6.8,1.7L117,383.4z"/>
	<path class="st2" d="M130.6,380.1l6.8-1.7l1.7,6.8l-6.8,1.7L130.6,380.1z"/>
	<path class="st2" d="M144.2,376.8l6.8-1.7l1.7,6.8l-6.8,1.7L144.2,376.8z"/>
	<path class="st2" d="M157.8,373.5l6.8-1.7l1.7,6.8l-6.8,1.7L157.8,373.5z"/>
	<path class="st2" d="M171.4,370.2l6.8-1.7l1.7,6.8l-6.8,1.7L171.4,370.2z"/>
	<path class="st2" d="M185,366.9l6.8-1.7l1.7,6.8l-6.8,1.7L185,366.9z"/>
	<path class="st2" d="M198.6,363.6l6.8-1.7l1.7,6.8l-6.8,1.7L198.6,363.6z"/>
	<path class="st2" d="M212.2,360.3l6.8-1.7l1.7,6.8l-6.8,1.7L212.2,360.3z"/>
	<path class="st2" d="M225.8,357l6.8-1.7l1.7,6.8l-6.8,1.7L225.8,357z"/>
	<path class="st2" d="M239.5,353.7l6.8-1.7l1.7,6.8l-6.8,1.7L239.5,353.7z"/>
	<path class="st2" d="M253.1,350.3l6.8-1.7l1.7,6.8l-6.8,1.7L253.1,350.3z"/>
	<path class="st2" d="M266.7,347l6.8-1.7l1.7,6.8l-6.8,1.7L266.7,347z"/>
	<path class="st2" d="M280.3,343.7l6.8-1.7l1.7,6.8l-6.8,1.7L280.3,343.7z"/>
	<path class="st2" d="M293.9,340.4l6.8-1.7l1.7,6.8l-6.8,1.7L293.9,340.4z"/>
	<path class="st2" d="M307.5,337.1l6.8-1.7l1.7,6.8l-6.8,1.7L307.5,337.1z"/>
	<path class="st2" d="M321.1,333.8l6.8-1.7l1.7,6.8l-6.8,1.7L321.1,333.8z"/>
	<path class="st2" d="M334.7,330.5l6.8-1.7l1.7,6.8l-6.8,1.7L334.7,330.5z"/>
	<path class="st2" d="M348.3,327.2l6.8-1.7l1.7,6.8l-6.8,1.7L348.3,327.2z"/>
	<path class="st2" d="M361.9,323.9l6.8-1.7l1.7,6.8l-6.8,1.7L361.9,323.9z"/>
	<path class="st2" d="M375.5,320.6l6.8-1.7l1.7,6.8l-6.8,1.7L375.5,320.6z"/>
	<path class="st2" d="M389.1,317.2l6.8-1.7l1.7,6.8l-6.8,1.7L389.1,317.2z"/>
	<path class="st2" d="M402.7,313.9l6.8-1.7l1.7,6.8l-6.8,1.7L402.7,313.9z"/>
	<path class="st2" d="M416.3,310.6l6.8-1.7l1.7,6.8l-6.8,1.7L416.3,310.6z"/>
	<path class="st2" d="M429.9,307.3l6.8-1.7l1.7,6.8l-6.8,1.7L429.9,307.3z"/>
	<path class="st2" d="M443.5,304l6.8-1.7l1.7,6.8l-6.8,1.7L443.5,304z"/>
	<path class="st2" d="M457.1,300.7l6.8-1.7l1.7,6.8l-6.8,1.7L457.1,300.7z"/>
	<path class="st2" d="M470.7,297.4l6.8-1.7l1.7,6.8l-6.8,1.7L470.7,297.4z"/>
	<path class="st2" d="M484.3,294.1l6.8-1.7l1.7,6.8l-6.8,1.7L484.3,294.1z"/>
	<path class="st2" d="M497.9,290.8l6.8-1.7l1.7,6.8l-6.8,1.7L497.9,290.8z"/>
	<path class="st2" d="M511.5,287.5l6.8-1.7l1.7,6.8l-6.8,1.7L511.5,287.5z"/>
	<path class="st2" d="M525.1,284.2l6.8-1.7l1.7,6.8l-6.8,1.7L525.1,284.2z"/>
	<path class="st2" d="M538.7,280.8l6.8-1.7l1.7,6.8l-6.8,1.7L538.7,280.8z"/>
	<path class="st2" d="M552.3,277.5l6.8-1.7l1.7,6.8l-6.8,1.7L552.3,277.5z"/>
	<path class="st2" d="M565.9,274.2l6.8-1.7l1.7,6.8l-6.8,1.7L565.9,274.2z"/>
	<path class="st2" d="M579.5,270.9l6.8-1.7l1.7,6.8l-6.8,1.7L579.5,270.9z"/>
	<path class="st2" d="M593.1,267.6l6.8-1.7l1.7,6.8l-6.8,1.7L593.1,267.6z"/>
	<path class="st2" d="M606.7,264.3l6.8-1.7l1.7,6.8l-6.8,1.7L606.7,264.3z"/>
	<path class="st2" d="M620.3,261l6.8-1.7l1.7,6.8l-6.8,1.7L620.3,261z"/>
	<path class="st2" d="M633.9,257.7l6.8-1.7l1.7,6.8l-6.8,1.7L633.9,257.7z"/>
	<path class="st2" d="M647.5,254.4l6.8-1.7l1.7,6.8l-6.8,1.7L647.5,254.4z"/>
	<path class="st2" d="M661.1,251.1l6.8-1.7l1.7,6.8l-6.8,1.7L661.1,251.1z"/>
	<path class="st2" d="M674.8,247.7l6.8-1.7l1.7,6.8l-6.8,1.7L674.8,247.7z"/>
	<path class="st2" d="M688.4,244.4l6.8-1.7l1.7,6.8l-6.8,1.7L688.4,244.4z"/>
	<path class="st2" d="M702,241.1l6.8-1.7l1.7,6.8l-6.8,1.7L702,241.1z"/>
	<path class="st2" d="M715.6,237.8l6.8-1.7l1.7,6.8l-6.8,1.7L715.6,237.8z"/>
	<path class="st2" d="M729.2,234.5l6.8-1.7l1.7,6.8l-6.8,1.7L729.2,234.5z"/>
	<path class="st2" d="M742.8,231.2l6.8-1.7l1.7,6.8l-6.8,1.7L742.8,231.2z"/>
	<path class="st2" d="M756.4,227.9l6.8-1.7l1.7,6.8l-6.8,1.7L756.4,227.9z"/>
	<path class="st2" d="M770,224.6l6.8-1.7l1.7,6.8l-6.8,1.7L770,224.6z"/>
	<path class="st2" d="M783.6,221.3l6.8-1.7l1.7,6.8l-6.8,1.7L783.6,221.3z"/>
	<path class="st2" d="M797.2,218l6.8-1.7l1.7,6.8l-6.8,1.7L797.2,218z"/>
	<path class="st2" d="M810.8,214.6l6.8-1.7l1.7,6.8l-6.8,1.7L810.8,214.6z"/>
	<path class="st2" d="M824.4,211.3l6.8-1.7l1.7,6.8l-6.8,1.7L824.4,211.3z"/>
	<path class="st2" d="M838,208l6.8-1.7l1.7,6.8l-6.8,1.7L838,208z"/>
	<path class="st2" d="M851.6,204.7l6.8-1.7l1.7,6.8l-6.8,1.7L851.6,204.7z"/>
	<path class="st2" d="M865.2,201.4l6.8-1.7l1.7,6.8l-6.8,1.7L865.2,201.4z"/>
	<path class="st2" d="M878.8,198.1l6.8-1.7l1.7,6.8l-6.8,1.7L878.8,198.1z"/>
	<path class="st2" d="M892.4,194.8l6.8-1.7l1.7,6.8l-6.8,1.7L892.4,194.8z"/>
	<path class="st2" d="M906,191.5l6.8-1.7l1.7,6.8l-6.8,1.7L906,191.5z"/>
	<path class="st2" d="M919.6,188.2l6.8-1.7l1.7,6.8l-6.8,1.7L919.6,188.2z"/>
	<path class="st2" d="M933.2,184.9l6.8-1.7l1.7,6.8l-6.8,1.7L933.2,184.9z"/>
	<path class="st2" d="M946.8,181.6l6.8-1.7l1.7,6.8l-6.8,1.7L946.8,181.6z"/>
	<path class="st2" d="M960.4,178.2l6.8-1.7l1.7,6.8l-6.8,1.7L960.4,178.2z"/>
	<path class="st2" d="M92.4,400.7l6.8-1.7l1.7,6.8l-6.8,1.7L92.4,400.7z"/>
	<path class="st2" d="M106,397.4l6.8-1.7l1.7,6.8l-6.8,1.7L106,397.4z"/>
	<path class="st2" d="M119.6,394.1l6.8-1.7l1.7,6.8l-6.8,1.7L119.6,394.1z"/>
	<path class="st2" d="M133.2,390.8l6.8-1.7l1.7,6.8l-6.8,1.7L133.2,390.8z"/>
	<path class="st2" d="M146.8,387.5l6.8-1.7l1.7,6.8l-6.8,1.7L146.8,387.5z"/>
	<path class="st2" d="M160.4,384.2l6.8-1.7l1.7,6.8l-6.8,1.7L160.4,384.2z"/>
	<path class="st2" d="M174,380.9l6.8-1.7l1.7,6.8l-6.8,1.7L174,380.9z"/>
	<path class="st2" d="M187.6,377.6l6.8-1.7l1.7,6.8l-6.8,1.7L187.6,377.6z"/>
	<path class="st2" d="M201.2,374.3l6.8-1.7l1.7,6.8l-6.8,1.7L201.2,374.3z"/>
	<path class="st2" d="M214.8,371l6.8-1.7l1.7,6.8l-6.8,1.7L214.8,371z"/>
	<path class="st2" d="M228.4,367.7l6.8-1.7l1.7,6.8l-6.8,1.7L228.4,367.7z"/>
	<path class="st2" d="M242.1,364.3l6.8-1.7l1.7,6.8l-6.8,1.7L242.1,364.3z"/>
	<path class="st2" d="M255.7,361l6.8-1.7l1.7,6.8l-6.8,1.7L255.7,361z"/>
	<path class="st2" d="M269.3,357.7l6.8-1.7l1.7,6.8l-6.8,1.7L269.3,357.7z"/>
	<path class="st2" d="M282.9,354.4l6.8-1.7l1.7,6.8l-6.8,1.7L282.9,354.4z"/>
	<path class="st2" d="M296.5,351.1l6.8-1.7l1.7,6.8l-6.8,1.7L296.5,351.1z"/>
	<path class="st2" d="M310.1,347.8l6.8-1.7l1.7,6.8l-6.8,1.7L310.1,347.8z"/>
	<path class="st2" d="M323.7,344.5l6.8-1.7l1.7,6.8l-6.8,1.7L323.7,344.5z"/>
	<path class="st2" d="M337.3,341.2l6.8-1.7l1.7,6.8l-6.8,1.7L337.3,341.2z"/>
	<path class="st2" d="M350.9,337.9l6.8-1.7l1.7,6.8l-6.8,1.7L350.9,337.9z"/>
	<path class="st2" d="M364.5,334.6l6.8-1.7l1.7,6.8l-6.8,1.7L364.5,334.6z"/>
	<path class="st2" d="M378.1,331.2l6.8-1.7l1.7,6.8l-6.8,1.7L378.1,331.2z"/>
	<path class="st2" d="M391.7,327.9l6.8-1.7l1.7,6.8l-6.8,1.7L391.7,327.9z"/>
	<path class="st2" d="M405.3,324.6l6.8-1.7l1.7,6.8l-6.8,1.7L405.3,324.6z"/>
	<path class="st2" d="M418.9,321.3l6.8-1.7l1.7,6.8l-6.8,1.7L418.9,321.3z"/>
	<path class="st2" d="M432.5,318l6.8-1.7l1.7,6.8l-6.8,1.7L432.5,318z"/>
	<path class="st2" d="M446.1,314.7l6.8-1.7l1.7,6.8l-6.8,1.7L446.1,314.7z"/>
	<path class="st2" d="M459.7,311.4l6.8-1.7l1.7,6.8l-6.8,1.7L459.7,311.4z"/>
	<path class="st2" d="M473.3,308.1l6.8-1.7l1.7,6.8l-6.8,1.7L473.3,308.1z"/>
	<path class="st2" d="M486.9,304.8l6.8-1.7l1.7,6.8l-6.8,1.7L486.9,304.8z"/>
	<path class="st2" d="M500.5,301.5l6.8-1.7l1.7,6.8l-6.8,1.7L500.5,301.5z"/>
	<path class="st2" d="M514.1,298.1l6.8-1.7l1.7,6.8l-6.8,1.7L514.1,298.1z"/>
	<path class="st2" d="M527.7,294.8l6.8-1.7l1.7,6.8l-6.8,1.7L527.7,294.8z"/>
	<path class="st2" d="M541.3,291.5l6.8-1.7l1.7,6.8l-6.8,1.7L541.3,291.5z"/>
	<path class="st2" d="M554.9,288.2l6.8-1.7l1.7,6.8l-6.8,1.7L554.9,288.2z"/>
	<path class="st2" d="M568.5,284.9l6.8-1.7l1.7,6.8l-6.8,1.7L568.5,284.9z"/>
	<path class="st2" d="M582.1,281.6l6.8-1.7l1.7,6.8l-6.8,1.7L582.1,281.6z"/>
	<path class="st2" d="M595.7,278.3l6.8-1.7l1.7,6.8l-6.8,1.7L595.7,278.3z"/>
	<path class="st2" d="M609.3,275l6.8-1.7l1.7,6.8l-6.8,1.7L609.3,275z"/>
	<path class="st2" d="M622.9,271.7l6.8-1.7l1.7,6.8l-6.8,1.7L622.9,271.7z"/>
	<path class="st2" d="M636.5,268.4l6.8-1.7l1.7,6.8l-6.8,1.7L636.5,268.4z"/>
	<path class="st2" d="M650.1,265.1l6.8-1.7l1.7,6.8l-6.8,1.7L650.1,265.1z"/>
	<path class="st2" d="M663.8,261.7l6.8-1.7l1.7,6.8l-6.8,1.7L663.8,261.7z"/>
	<path class="st2" d="M677.4,258.4l6.8-1.7l1.7,6.8l-6.8,1.7L677.4,258.4z"/>
	<path class="st2" d="M691,255.1l6.8-1.7l1.7,6.8l-6.8,1.7L691,255.1z"/>
	<path class="st2" d="M704.6,251.8l6.8-1.7l1.7,6.8l-6.8,1.7L704.6,251.8z"/>
	<path class="st2" d="M718.2,248.5l6.8-1.7l1.7,6.8l-6.8,1.7L718.2,248.5z"/>
	<path class="st2" d="M731.8,245.2l6.8-1.7l1.7,6.8l-6.8,1.7L731.8,245.2z"/>
	<path class="st2" d="M745.4,241.9l6.8-1.7l1.7,6.8l-6.8,1.7L745.4,241.9z"/>
	<path class="st2" d="M759,238.6l6.8-1.7l1.7,6.8l-6.8,1.7L759,238.6z"/>
	<path class="st2" d="M772.6,235.3l6.8-1.7l1.7,6.8l-6.8,1.7L772.6,235.3z"/>
	<path class="st2" d="M786.2,232l6.8-1.7l1.7,6.8l-6.8,1.7L786.2,232z"/>
	<path class="st2" d="M799.8,228.6l6.8-1.7l1.7,6.8l-6.8,1.7L799.8,228.6z"/>
	<path class="st2" d="M813.4,225.3l6.8-1.7l1.7,6.8l-6.8,1.7L813.4,225.3z"/>
	<path class="st2" d="M827,222l6.8-1.7l1.7,6.8l-6.8,1.7L827,222z"/>
	<path class="st2" d="M840.6,218.7l6.8-1.7l1.7,6.8l-6.8,1.7L840.6,218.7z"/>
	<path class="st2" d="M854.2,215.4l6.8-1.7l1.7,6.8l-6.8,1.7L854.2,215.4z"/>
	<path class="st2" d="M867.8,212.1l6.8-1.7l1.7,6.8l-6.8,1.7L867.8,212.1z"/>
	<path class="st2" d="M881.4,208.8l6.8-1.7l1.7,6.8l-6.8,1.7L881.4,208.8z"/>
	<path class="st2" d="M895,205.5l6.8-1.7l1.7,6.8l-6.8,1.7L895,205.5z"/>
	<path class="st2" d="M908.6,202.2l6.8-1.7l1.7,6.8l-6.8,1.7L908.6,202.2z"/>
	<path class="st2" d="M922.2,198.9l6.8-1.7l1.7,6.8l-6.8,1.7L922.2,198.9z"/>
	<path class="st2" d="M935.8,195.5l6.8-1.7l1.7,6.8l-6.8,1.7L935.8,195.5z"/>
	<path class="st2" d="M949.4,192.2l6.8-1.7l1.7,6.8l-6.8,1.7L949.4,192.2z"/>
	<path class="st2" d="M963,188.9l6.8-1.7l1.7,6.8l-6.8,1.7L963,188.9z"/>
	<path class="st2" d="M95,411.4l6.8-1.7l1.7,6.8l-6.8,1.7L95,411.4z"/>
	<path class="st2" d="M108.6,408.1l6.8-1.7l1.7,6.8l-6.8,1.7L108.6,408.1z"/>
	<path class="st2" d="M122.2,404.8l6.8-1.7l1.7,6.8l-6.8,1.7L122.2,404.8z"/>
	<path class="st2" d="M135.8,401.5l6.8-1.7l1.7,6.8l-6.8,1.7L135.8,401.5z"/>
	<path class="st2" d="M149.4,398.2l6.8-1.7l1.7,6.8l-6.8,1.7L149.4,398.2z"/>
	<path class="st2" d="M163,394.9l6.8-1.7l1.7,6.8l-6.8,1.7L163,394.9z"/>
	<path class="st2" d="M176.6,391.6l6.8-1.7l1.7,6.8l-6.8,1.7L176.6,391.6z"/>
	<path class="st2" d="M190.2,388.3l6.8-1.7l1.7,6.8l-6.8,1.7L190.2,388.3z"/>
	<path class="st2" d="M203.8,385l6.8-1.7l1.7,6.8l-6.8,1.7L203.8,385z"/>
	<path class="st2" d="M217.4,381.6l6.8-1.7l1.7,6.8l-6.8,1.7L217.4,381.6z"/>
	<path class="st2" d="M231,378.3l6.8-1.7l1.7,6.8l-6.8,1.7L231,378.3z"/>
	<path class="st2" d="M244.7,375l6.8-1.7l1.7,6.8l-6.8,1.7L244.7,375z"/>
	<path class="st2" d="M258.3,371.7l6.8-1.7l1.7,6.8l-6.8,1.7L258.3,371.7z"/>
	<path class="st2" d="M271.9,368.4l6.8-1.7l1.7,6.8l-6.8,1.7L271.9,368.4z"/>
	<path class="st2" d="M285.5,365.1l6.8-1.7l1.7,6.8l-6.8,1.7L285.5,365.1z"/>
	<path class="st2" d="M299.1,361.8l6.8-1.7l1.7,6.8l-6.8,1.7L299.1,361.8z"/>
	<path class="st2" d="M312.7,358.5l6.8-1.7l1.7,6.8l-6.8,1.7L312.7,358.5z"/>
	<path class="st2" d="M326.3,355.2l6.8-1.7l1.7,6.8l-6.8,1.7L326.3,355.2z"/>
	<path class="st2" d="M339.9,351.9l6.8-1.7l1.7,6.8l-6.8,1.7L339.9,351.9z"/>
	<path class="st2" d="M353.5,348.6l6.8-1.7l1.7,6.8l-6.8,1.7L353.5,348.6z"/>
	<path class="st2" d="M367.1,345.2l6.8-1.7l1.7,6.8l-6.8,1.7L367.1,345.2z"/>
	<path class="st2" d="M380.7,341.9l6.8-1.7l1.7,6.8l-6.8,1.7L380.7,341.9z"/>
	<path class="st2" d="M394.3,338.6l6.8-1.7l1.7,6.8l-6.8,1.7L394.3,338.6z"/>
	<path class="st2" d="M407.9,335.3l6.8-1.7l1.7,6.8l-6.8,1.7L407.9,335.3z"/>
	<path class="st2" d="M421.5,332l6.8-1.7l1.7,6.8l-6.8,1.7L421.5,332z"/>
	<path class="st2" d="M435.1,328.7l6.8-1.7l1.7,6.8l-6.8,1.7L435.1,328.7z"/>
	<path class="st2" d="M448.7,325.4l6.8-1.7l1.7,6.8l-6.8,1.7L448.7,325.4z"/>
	<path class="st2" d="M462.3,322.1l6.8-1.7l1.7,6.8l-6.8,1.7L462.3,322.1z"/>
	<path class="st2" d="M475.9,318.8l6.8-1.7l1.7,6.8l-6.8,1.7L475.9,318.8z"/>
	<path class="st2" d="M489.5,315.5l6.8-1.7l1.7,6.8l-6.8,1.7L489.5,315.5z"/>
	<path class="st2" d="M503.1,312.1l6.8-1.7l1.7,6.8l-6.8,1.7L503.1,312.1z"/>
	<path class="st2" d="M516.7,308.8l6.8-1.7l1.7,6.8l-6.8,1.7L516.7,308.8z"/>
	<path class="st2" d="M530.3,305.5l6.8-1.7l1.7,6.8l-6.8,1.7L530.3,305.5z"/>
	<path class="st2" d="M543.9,302.2l6.8-1.7l1.7,6.8l-6.8,1.7L543.9,302.2z"/>
	<path class="st2" d="M557.5,298.9l6.8-1.7l1.7,6.8l-6.8,1.7L557.5,298.9z"/>
	<path class="st2" d="M571.1,295.6l6.8-1.7l1.7,6.8l-6.8,1.7L571.1,295.6z"/>
	<path class="st2" d="M584.7,292.3l6.8-1.7l1.7,6.8l-6.8,1.7L584.7,292.3z"/>
	<path class="st2" d="M598.3,289l6.8-1.7l1.7,6.8l-6.8,1.7L598.3,289z"/>
	<path class="st2" d="M611.9,285.7l6.8-1.7l1.7,6.8l-6.8,1.7L611.9,285.7z"/>
	<path class="st2" d="M625.5,282.4l6.8-1.7l1.7,6.8l-6.8,1.7L625.5,282.4z"/>
	<path class="st2" d="M639.1,279l6.8-1.7l1.7,6.8l-6.8,1.7L639.1,279z"/>
	<path class="st2" d="M652.7,275.7l6.8-1.7l1.7,6.8l-6.8,1.7L652.7,275.7z"/>
	<path class="st2" d="M666.4,272.4l6.8-1.7l1.7,6.8l-6.8,1.7L666.4,272.4z"/>
	<path class="st2" d="M680,269.1l6.8-1.7l1.7,6.8l-6.8,1.7L680,269.1z"/>
	<path class="st2" d="M693.6,265.8l6.8-1.7l1.7,6.8l-6.8,1.7L693.6,265.8z"/>
	<path class="st2" d="M707.2,262.5l6.8-1.7l1.7,6.8l-6.8,1.7L707.2,262.5z"/>
	<path class="st2" d="M720.8,259.2l6.8-1.7l1.7,6.8l-6.8,1.7L720.8,259.2z"/>
	<path class="st2" d="M734.4,255.9l6.8-1.7l1.7,6.8l-6.8,1.7L734.4,255.9z"/>
	<path class="st2" d="M748,252.6l6.8-1.7l1.7,6.8l-6.8,1.7L748,252.6z"/>
	<path class="st2" d="M761.6,249.3l6.8-1.7l1.7,6.8l-6.8,1.7L761.6,249.3z"/>
	<path class="st2" d="M775.2,246l6.8-1.7l1.7,6.8l-6.8,1.7L775.2,246z"/>
	<path class="st2" d="M788.8,242.6l6.8-1.7l1.7,6.8l-6.8,1.7L788.8,242.6z"/>
	<path class="st2" d="M802.4,239.3l6.8-1.7l1.7,6.8l-6.8,1.7L802.4,239.3z"/>
	<path class="st2" d="M816,236l6.8-1.7l1.7,6.8l-6.8,1.7L816,236z"/>
	<path class="st2" d="M829.6,232.7l6.8-1.7l1.7,6.8l-6.8,1.7L829.6,232.7z"/>
	<path class="st2" d="M843.2,229.4l6.8-1.7l1.7,6.8l-6.8,1.7L843.2,229.4z"/>
	<path class="st2" d="M856.8,226.1l6.8-1.7l1.7,6.8l-6.8,1.7L856.8,226.1z"/>
	<path class="st2" d="M870.4,222.8l6.8-1.7l1.7,6.8l-6.8,1.7L870.4,222.8z"/>
	<path class="st2" d="M884,219.5l6.8-1.7l1.7,6.8l-6.8,1.7L884,219.5z"/>
	<path class="st2" d="M897.6,216.2l6.8-1.7l1.7,6.8l-6.8,1.7L897.6,216.2z"/>
	<path class="st2" d="M911.2,212.9l6.8-1.7l1.7,6.8l-6.8,1.7L911.2,212.9z"/>
	<path class="st2" d="M924.8,209.5l6.8-1.7l1.7,6.8l-6.8,1.7L924.8,209.5z"/>
	<path class="st2" d="M938.4,206.2l6.8-1.7l1.7,6.8l-6.8,1.7L938.4,206.2z"/>
	<path class="st2" d="M952,202.9l6.8-1.7l1.7,6.8l-6.8,1.7L952,202.9z"/>
	<path class="st2" d="M965.6,199.6l6.8-1.7l1.7,6.8l-6.8,1.7L965.6,199.6z"/>
	<path class="st2" d="M97.6,422.1l6.8-1.7l1.7,6.8l-6.8,1.7L97.6,422.1z"/>
	<path class="st2" d="M111.2,418.8l6.8-1.7l1.7,6.8l-6.8,1.7L111.2,418.8z"/>
	<path class="st2" d="M124.8,415.5l6.8-1.7l1.7,6.8l-6.8,1.7L124.8,415.5z"/>
	<path class="st2" d="M138.4,412.2l6.8-1.7l1.7,6.8l-6.8,1.7L138.4,412.2z"/>
	<path class="st2" d="M152,408.9l6.8-1.7l1.7,6.8l-6.8,1.7L152,408.9z"/>
	<path class="st2" d="M165.6,405.6l6.8-1.7l1.7,6.8l-6.8,1.7L165.6,405.6z"/>
	<path class="st2" d="M179.2,402.3l6.8-1.7l1.7,6.8l-6.8,1.7L179.2,402.3z"/>
	<path class="st2" d="M192.8,399l6.8-1.7l1.7,6.8l-6.8,1.7L192.8,399z"/>
	<path class="st2" d="M206.4,395.6l6.8-1.7l1.7,6.8l-6.8,1.7L206.4,395.6z"/>
	<path class="st2" d="M220,392.3l6.8-1.7l1.7,6.8l-6.8,1.7L220,392.3z"/>
	<path class="st2" d="M233.7,389l6.8-1.7l1.7,6.8l-6.8,1.7L233.7,389z"/>
	<path class="st2" d="M247.3,385.7l6.8-1.7l1.7,6.8l-6.8,1.7L247.3,385.7z"/>
	<path class="st2" d="M260.9,382.4l6.8-1.7l1.7,6.8l-6.8,1.7L260.9,382.4z"/>
	<path class="st2" d="M274.5,379.1l6.8-1.7l1.7,6.8l-6.8,1.7L274.5,379.1z"/>
	<path class="st2" d="M288.1,375.8l6.8-1.7l1.7,6.8l-6.8,1.7L288.1,375.8z"/>
	<path class="st2" d="M301.7,372.5l6.8-1.7l1.7,6.8l-6.8,1.7L301.7,372.5z"/>
	<path class="st2" d="M315.3,369.2l6.8-1.7l1.7,6.8l-6.8,1.7L315.3,369.2z"/>
	<path class="st2" d="M328.9,365.9l6.8-1.7l1.7,6.8l-6.8,1.7L328.9,365.9z"/>
	<path class="st2" d="M342.5,362.6l6.8-1.7l1.7,6.8l-6.8,1.7L342.5,362.6z"/>
	<path class="st2" d="M356.1,359.2l6.8-1.7l1.7,6.8l-6.8,1.7L356.1,359.2z"/>
	<path class="st2" d="M369.7,355.9l6.8-1.7l1.7,6.8l-6.8,1.7L369.7,355.9z"/>
	<path class="st2" d="M383.3,352.6l6.8-1.7l1.7,6.8l-6.8,1.7L383.3,352.6z"/>
	<path class="st2" d="M396.9,349.3l6.8-1.7l1.7,6.8l-6.8,1.7L396.9,349.3z"/>
	<path class="st2" d="M410.5,346l6.8-1.7l1.7,6.8l-6.8,1.7L410.5,346z"/>
	<path class="st2" d="M424.1,342.7l6.8-1.7l1.7,6.8l-6.8,1.7L424.1,342.7z"/>
	<path class="st2" d="M437.7,339.4l6.8-1.7l1.7,6.8l-6.8,1.7L437.7,339.4z"/>
	<path class="st2" d="M451.3,336.1l6.8-1.7l1.7,6.8l-6.8,1.7L451.3,336.1z"/>
	<path class="st2" d="M464.9,332.8l6.8-1.7l1.7,6.8l-6.8,1.7L464.9,332.8z"/>
	<path class="st2" d="M478.5,329.5l6.8-1.7l1.7,6.8l-6.8,1.7L478.5,329.5z"/>
	<path class="st2" d="M492.1,326.1l6.8-1.7l1.7,6.8l-6.8,1.7L492.1,326.1z"/>
	<path class="st2" d="M505.7,322.8l6.8-1.7l1.7,6.8l-6.8,1.7L505.7,322.8z"/>
	<path class="st2" d="M519.3,319.5l6.8-1.7l1.7,6.8l-6.8,1.7L519.3,319.5z"/>
	<path class="st2" d="M532.9,316.2l6.8-1.7l1.7,6.8l-6.8,1.7L532.9,316.2z"/>
	<path class="st2" d="M546.5,312.9l6.8-1.7l1.7,6.8l-6.8,1.7L546.5,312.9z"/>
	<path class="st2" d="M560.1,309.6l6.8-1.7l1.7,6.8l-6.8,1.7L560.1,309.6z"/>
	<path class="st2" d="M573.7,306.3l6.8-1.7l1.7,6.8l-6.8,1.7L573.7,306.3z"/>
	<path class="st2" d="M587.3,303l6.8-1.7l1.7,6.8l-6.8,1.7L587.3,303z"/>
	<path class="st2" d="M600.9,299.7l6.8-1.7l1.7,6.8l-6.8,1.7L600.9,299.7z"/>
	<path class="st2" d="M614.5,296.4l6.8-1.7l1.7,6.8l-6.8,1.7L614.5,296.4z"/>
	<path class="st2" d="M628.1,293l6.8-1.7l1.7,6.8l-6.8,1.7L628.1,293z"/>
	<path class="st2" d="M641.7,289.7l6.8-1.7l1.7,6.8l-6.8,1.7L641.7,289.7z"/>
	<path class="st2" d="M655.3,286.4l6.8-1.7l1.7,6.8l-6.8,1.7L655.3,286.4z"/>
	<path class="st2" d="M669,283.1l6.8-1.7l1.7,6.8l-6.8,1.7L669,283.1z"/>
	<path class="st2" d="M682.6,279.8l6.8-1.7l1.7,6.8l-6.8,1.7L682.6,279.8z"/>
	<path class="st2" d="M696.2,276.5l6.8-1.7l1.7,6.8l-6.8,1.7L696.2,276.5z"/>
	<path class="st2" d="M709.8,273.2l6.8-1.7l1.7,6.8l-6.8,1.7L709.8,273.2z"/>
	<path class="st2" d="M723.4,269.9l6.8-1.7l1.7,6.8l-6.8,1.7L723.4,269.9z"/>
	<path class="st2" d="M737,266.6l6.8-1.7l1.7,6.8l-6.8,1.7L737,266.6z"/>
	<path class="st2" d="M750.6,263.3l6.8-1.7l1.7,6.8l-6.8,1.7L750.6,263.3z"/>
	<path class="st2" d="M764.2,260l6.8-1.7l1.7,6.8l-6.8,1.7L764.2,260z"/>
	<path class="st2" d="M777.8,256.6l6.8-1.7l1.7,6.8l-6.8,1.7L777.8,256.6z"/>
	<path class="st2" d="M791.4,253.3l6.8-1.7l1.7,6.8l-6.8,1.7L791.4,253.3z"/>
	<path class="st2" d="M805,250l6.8-1.7l1.7,6.8l-6.8,1.7L805,250z"/>
	<path class="st2" d="M818.6,246.7l6.8-1.7l1.7,6.8l-6.8,1.7L818.6,246.7z"/>
	<path class="st2" d="M832.2,243.4l6.8-1.7l1.7,6.8l-6.8,1.7L832.2,243.4z"/>
	<path class="st2" d="M845.8,240.1l6.8-1.7l1.7,6.8l-6.8,1.7L845.8,240.1z"/>
	<path class="st2" d="M859.4,236.8l6.8-1.7l1.7,6.8l-6.8,1.7L859.4,236.8z"/>
	<path class="st2" d="M873,233.5l6.8-1.7l1.7,6.8l-6.8,1.7L873,233.5z"/>
	<path class="st2" d="M886.6,230.2l6.8-1.7l1.7,6.8l-6.8,1.7L886.6,230.2z"/>
	<path class="st2" d="M900.2,226.9l6.8-1.7l1.7,6.8l-6.8,1.7L900.2,226.9z"/>
	<path class="st2" d="M913.8,223.5l6.8-1.7l1.7,6.8l-6.8,1.7L913.8,223.5z"/>
	<path class="st2" d="M927.4,220.2l6.8-1.7l1.7,6.8l-6.8,1.7L927.4,220.2z"/>
	<path class="st2" d="M941,216.9l6.8-1.7l1.7,6.8l-6.8,1.7L941,216.9z"/>
	<path class="st2" d="M954.6,213.6l6.8-1.7l1.7,6.8l-6.8,1.7L954.6,213.6z"/>
	<path class="st2" d="M968.2,210.3l6.8-1.7l1.7,6.8l-6.8,1.7L968.2,210.3z"/>
	<path class="st2" d="M105.2,453.2l6.8-1.7l1.7,6.8l-6.8,1.7L105.2,453.2z"/>
	<path class="st2" d="M118.8,449.9l6.8-1.7l1.7,6.8l-6.8,1.7L118.8,449.9z"/>
	<path class="st2" d="M132.4,446.6l6.8-1.7l1.7,6.8l-6.8,1.7L132.4,446.6z"/>
	<path class="st2" d="M146,443.3l6.8-1.7l1.7,6.8l-6.8,1.7L146,443.3z"/>
	<path class="st2" d="M159.6,440l6.8-1.7l1.7,6.8l-6.8,1.7L159.6,440z"/>
	<path class="st2" d="M173.2,436.7l6.8-1.7l1.7,6.8l-6.8,1.7L173.2,436.7z"/>
	<path class="st2" d="M186.8,433.4l6.8-1.7l1.7,6.8l-6.8,1.7L186.8,433.4z"/>
	<path class="st2" d="M200.4,430.1l6.8-1.7l1.7,6.8l-6.8,1.7L200.4,430.1z"/>
	<path class="st2" d="M214,426.7l6.8-1.7l1.7,6.8l-6.8,1.7L214,426.7z"/>
	<path class="st2" d="M227.6,423.4l6.8-1.7l1.7,6.8l-6.8,1.7L227.6,423.4z"/>
	<path class="st2" d="M241.2,420.1l6.8-1.7l1.7,6.8l-6.8,1.7L241.2,420.1z"/>
	<path class="st2" d="M254.8,416.8l6.8-1.7l1.7,6.8l-6.8,1.7L254.8,416.8z"/>
	<path class="st2" d="M268.4,413.5l6.8-1.7l1.7,6.8l-6.8,1.7L268.4,413.5z"/>
	<path class="st2" d="M282,410.2l6.8-1.7l1.7,6.8l-6.8,1.7L282,410.2z"/>
	<path class="st2" d="M295.6,406.9l6.8-1.7l1.7,6.8l-6.8,1.7L295.6,406.9z"/>
	<path class="st2" d="M309.2,403.6l6.8-1.7l1.7,6.8l-6.8,1.7L309.2,403.6z"/>
	<path class="st2" d="M322.8,400.3l6.8-1.7l1.7,6.8l-6.8,1.7L322.8,400.3z"/>
	<path class="st2" d="M336.4,397l6.8-1.7l1.7,6.8l-6.8,1.7L336.4,397z"/>
	<path class="st2" d="M350,393.6l6.8-1.7l1.7,6.8l-6.8,1.7L350,393.6z"/>
	<path class="st2" d="M363.6,390.3l6.8-1.7l1.7,6.8l-6.8,1.7L363.6,390.3z"/>
	<path class="st2" d="M377.2,387l6.8-1.7l1.7,6.8l-6.8,1.7L377.2,387z"/>
	<path class="st2" d="M390.8,383.7l6.8-1.7l1.7,6.8l-6.8,1.7L390.8,383.7z"/>
	<path class="st2" d="M404.5,380.4l6.8-1.7l1.7,6.8l-6.8,1.7L404.5,380.4z"/>
	<path class="st2" d="M418.1,377.1l6.8-1.7l1.7,6.8l-6.8,1.7L418.1,377.1z"/>
	<path class="st2" d="M431.7,373.8l6.8-1.7l1.7,6.8l-6.8,1.7L431.7,373.8z"/>
	<path class="st2" d="M445.3,370.5l6.8-1.7l1.7,6.8l-6.8,1.7L445.3,370.5z"/>
	<path class="st2" d="M458.9,367.2l6.8-1.7l1.7,6.8l-6.8,1.7L458.9,367.2z"/>
	<path class="st2" d="M472.5,363.9l6.8-1.7l1.7,6.8l-6.8,1.7L472.5,363.9z"/>
	<path class="st2" d="M486.1,360.5l6.8-1.7l1.7,6.8l-6.8,1.7L486.1,360.5z"/>
	<path class="st2" d="M499.7,357.2l6.8-1.7l1.7,6.8l-6.8,1.7L499.7,357.2z"/>
	<path class="st2" d="M513.3,353.9l6.8-1.7l1.7,6.8l-6.8,1.7L513.3,353.9z"/>
	<path class="st2" d="M526.9,350.6l6.8-1.7l1.7,6.8l-6.8,1.7L526.9,350.6z"/>
	<path class="st2" d="M540.5,347.3l6.8-1.7l1.7,6.8l-6.8,1.7L540.5,347.3z"/>
	<path class="st2" d="M554.1,344l6.8-1.7l1.7,6.8l-6.8,1.7L554.1,344z"/>
	<path class="st2" d="M567.7,340.7l6.8-1.7l1.7,6.8l-6.8,1.7L567.7,340.7z"/>
	<path class="st2" d="M581.3,337.4l6.8-1.7l1.7,6.8l-6.8,1.7L581.3,337.4z"/>
	<path class="st2" d="M594.9,334.1l6.8-1.7l1.7,6.8l-6.8,1.7L594.9,334.1z"/>
	<path class="st2" d="M608.5,330.8l6.8-1.7l1.7,6.8l-6.8,1.7L608.5,330.8z"/>
	<path class="st2" d="M622.1,327.4l6.8-1.7l1.7,6.8l-6.8,1.7L622.1,327.4z"/>
	<path class="st2" d="M635.7,324.1l6.8-1.7l1.7,6.8l-6.8,1.7L635.7,324.1z"/>
	<path class="st2" d="M649.3,320.8l6.8-1.7l1.7,6.8l-6.8,1.7L649.3,320.8z"/>
	<path class="st2" d="M662.9,317.5l6.8-1.7l1.7,6.8l-6.8,1.7L662.9,317.5z"/>
	<path class="st2" d="M676.5,314.2l6.8-1.7l1.7,6.8l-6.8,1.7L676.5,314.2z"/>
	<path class="st2" d="M690.1,310.9l6.8-1.7l1.7,6.8l-6.8,1.7L690.1,310.9z"/>
	<path class="st2" d="M703.7,307.6l6.8-1.7l1.7,6.8l-6.8,1.7L703.7,307.6z"/>
	<path class="st2" d="M717.3,304.3l6.8-1.7l1.7,6.8l-6.8,1.7L717.3,304.3z"/>
	<path class="st2" d="M730.9,301l6.8-1.7l1.7,6.8l-6.8,1.7L730.9,301z"/>
	<path class="st2" d="M744.5,297.7l6.8-1.7l1.7,6.8l-6.8,1.7L744.5,297.7z"/>
	<path class="st2" d="M758.1,294.4l6.8-1.7l1.7,6.8l-6.8,1.7L758.1,294.4z"/>
	<path class="st2" d="M771.7,291l6.8-1.7l1.7,6.8l-6.8,1.7L771.7,291z"/>
	<path class="st2" d="M785.3,287.7l6.8-1.7l1.7,6.8l-6.8,1.7L785.3,287.7z"/>
	<path class="st2" d="M798.9,284.4l6.8-1.7l1.7,6.8l-6.8,1.7L798.9,284.4z"/>
	<path class="st2" d="M812.5,281.1l6.8-1.7l1.7,6.8l-6.8,1.7L812.5,281.1z"/>
	<path class="st2" d="M826.2,277.8l6.8-1.7l1.7,6.8l-6.8,1.7L826.2,277.8z"/>
	<path class="st2" d="M839.8,274.5l6.8-1.7l1.7,6.8l-6.8,1.7L839.8,274.5z"/>
	<path class="st2" d="M853.4,271.2l6.8-1.7l1.7,6.8L855,278L853.4,271.2z"/>
	<path class="st2" d="M867,267.9l6.8-1.7l1.7,6.8l-6.8,1.7L867,267.9z"/>
	<path class="st2" d="M880.6,264.6l6.8-1.7l1.7,6.8l-6.8,1.7L880.6,264.6z"/>
	<path class="st2" d="M894.2,261.3l6.8-1.7l1.7,6.8l-6.8,1.7L894.2,261.3z"/>
	<path class="st2" d="M907.8,257.9l6.8-1.7l1.7,6.8l-6.8,1.7L907.8,257.9z"/>
	<path class="st2" d="M921.4,254.6l6.8-1.7l1.7,6.8l-6.8,1.7L921.4,254.6z"/>
	<path class="st2" d="M935,251.3l6.8-1.7l1.7,6.8l-6.8,1.7L935,251.3z"/>
	<path class="st2" d="M948.6,248l6.8-1.7l1.7,6.8l-6.8,1.7L948.6,248z"/>
	<path class="st2" d="M962.2,244.7l6.8-1.7l1.7,6.8l-6.8,1.7L962.2,244.7z"/>
	<path class="st2" d="M975.8,241.4l6.8-1.7l1.7,6.8l-6.8,1.7L975.8,241.4z"/>
	<path class="st2" d="M107.8,463.9l6.8-1.7l1.7,6.8l-6.8,1.7L107.8,463.9z"/>
	<path class="st2" d="M121.4,460.6l6.8-1.7l1.7,6.8l-6.8,1.7L121.4,460.6z"/>
	<path class="st2" d="M135,457.3l6.8-1.7l1.7,6.8l-6.8,1.7L135,457.3z"/>
	<path class="st2" d="M148.6,454l6.8-1.7l1.7,6.8l-6.8,1.7L148.6,454z"/>
	<path class="st2" d="M162.2,450.7l6.8-1.7l1.7,6.8l-6.8,1.7L162.2,450.7z"/>
	<path class="st2" d="M175.8,447.4l6.8-1.7l1.7,6.8l-6.8,1.7L175.8,447.4z"/>
	<path class="st2" d="M189.4,444l6.8-1.7l1.7,6.8l-6.8,1.7L189.4,444z"/>
	<path class="st2" d="M203,440.7l6.8-1.7l1.7,6.8l-6.8,1.7L203,440.7z"/>
	<path class="st2" d="M216.6,437.4l6.8-1.7l1.7,6.8l-6.8,1.7L216.6,437.4z"/>
	<path class="st2" d="M230.2,434.1l6.8-1.7l1.7,6.8l-6.8,1.7L230.2,434.1z"/>
	<path class="st2" d="M243.8,430.8l6.8-1.7l1.7,6.8l-6.8,1.7L243.8,430.8z"/>
	<path class="st2" d="M257.4,427.5l6.8-1.7l1.7,6.8l-6.8,1.7L257.4,427.5z"/>
	<path class="st2" d="M271,424.2l6.8-1.7l1.7,6.8l-6.8,1.7L271,424.2z"/>
	<path class="st2" d="M284.6,420.9l6.8-1.7l1.7,6.8l-6.8,1.7L284.6,420.9z"/>
	<path class="st2" d="M298.2,417.6l6.8-1.7l1.7,6.8l-6.8,1.7L298.2,417.6z"/>
	<path class="st2" d="M311.8,414.3l6.8-1.7l1.7,6.8l-6.8,1.7L311.8,414.3z"/>
	<path class="st2" d="M325.4,411l6.8-1.7l1.7,6.8l-6.8,1.7L325.4,411z"/>
	<path class="st2" d="M339,407.6l6.8-1.7l1.7,6.8l-6.8,1.7L339,407.6z"/>
	<path class="st2" d="M352.6,404.3l6.8-1.7l1.7,6.8l-6.8,1.7L352.6,404.3z"/>
	<path class="st2" d="M366.2,401l6.8-1.7l1.7,6.8l-6.8,1.7L366.2,401z"/>
	<path class="st2" d="M379.8,397.7l6.8-1.7l1.7,6.8l-6.8,1.7L379.8,397.7z"/>
	<path class="st2" d="M393.5,394.4l6.8-1.7l1.7,6.8l-6.8,1.7L393.5,394.4z"/>
	<path class="st2" d="M407.1,391.1l6.8-1.7l1.7,6.8l-6.8,1.7L407.1,391.1z"/>
	<path class="st2" d="M420.7,387.8l6.8-1.7l1.7,6.8l-6.8,1.7L420.7,387.8z"/>
	<path class="st2" d="M434.3,384.5l6.8-1.7l1.7,6.8l-6.8,1.7L434.3,384.5z"/>
	<path class="st2" d="M447.9,381.2l6.8-1.7l1.7,6.8l-6.8,1.7L447.9,381.2z"/>
	<path class="st2" d="M461.5,377.9l6.8-1.7l1.7,6.8l-6.8,1.7L461.5,377.9z"/>
	<path class="st2" d="M475.1,374.5l6.8-1.7l1.7,6.8l-6.8,1.7L475.1,374.5z"/>
	<path class="st2" d="M488.7,371.2l6.8-1.7l1.7,6.8l-6.8,1.7L488.7,371.2z"/>
	<path class="st2" d="M502.3,367.9l6.8-1.7l1.7,6.8l-6.8,1.7L502.3,367.9z"/>
	<path class="st2" d="M515.9,364.6l6.8-1.7l1.7,6.8l-6.8,1.7L515.9,364.6z"/>
	<path class="st2" d="M529.5,361.3l6.8-1.7l1.7,6.8l-6.8,1.7L529.5,361.3z"/>
	<path class="st2" d="M543.1,358l6.8-1.7l1.7,6.8l-6.8,1.7L543.1,358z"/>
	<path class="st2" d="M556.7,354.7l6.8-1.7l1.7,6.8l-6.8,1.7L556.7,354.7z"/>
	<path class="st2" d="M570.3,351.4l6.8-1.7l1.7,6.8l-6.8,1.7L570.3,351.4z"/>
	<path class="st2" d="M583.9,348.1l6.8-1.7l1.7,6.8l-6.8,1.7L583.9,348.1z"/>
	<path class="st2" d="M597.5,344.8l6.8-1.7l1.7,6.8l-6.8,1.7L597.5,344.8z"/>
	<path class="st2" d="M611.1,341.4l6.8-1.7l1.7,6.8l-6.8,1.7L611.1,341.4z"/>
	<path class="st2" d="M624.7,338.1l6.8-1.7l1.7,6.8l-6.8,1.7L624.7,338.1z"/>
	<path class="st2" d="M638.3,334.8l6.8-1.7l1.7,6.8l-6.8,1.7L638.3,334.8z"/>
	<path class="st2" d="M651.9,331.5l6.8-1.7l1.7,6.8l-6.8,1.7L651.9,331.5z"/>
	<path class="st2" d="M665.5,328.2l6.8-1.7l1.7,6.8l-6.8,1.7L665.5,328.2z"/>
	<path class="st2" d="M679.1,324.9l6.8-1.7l1.7,6.8l-6.8,1.7L679.1,324.9z"/>
	<path class="st2" d="M692.7,321.6l6.8-1.7l1.7,6.8l-6.8,1.7L692.7,321.6z"/>
	<path class="st2" d="M706.3,318.3l6.8-1.7l1.7,6.8l-6.8,1.7L706.3,318.3z"/>
	<path class="st2" d="M719.9,315l6.8-1.7l1.7,6.8l-6.8,1.7L719.9,315z"/>
	<path class="st2" d="M733.5,311.7l6.8-1.7l1.7,6.8l-6.8,1.7L733.5,311.7z"/>
	<path class="st2" d="M747.1,308.4l6.8-1.7l1.7,6.8l-6.8,1.7L747.1,308.4z"/>
	<path class="st2" d="M760.7,305l6.8-1.7l1.7,6.8l-6.8,1.7L760.7,305z"/>
	<path class="st2" d="M774.3,301.7l6.8-1.7l1.7,6.8l-6.8,1.7L774.3,301.7z"/>
	<path class="st2" d="M787.9,298.4l6.8-1.7l1.7,6.8l-6.8,1.7L787.9,298.4z"/>
	<path class="st2" d="M801.5,295.1l6.8-1.7l1.7,6.8l-6.8,1.7L801.5,295.1z"/>
	<path class="st2" d="M815.1,291.8l6.8-1.7l1.7,6.8l-6.8,1.7L815.1,291.8z"/>
	<path class="st2" d="M828.8,288.5l6.8-1.7l1.7,6.8l-6.8,1.7L828.8,288.5z"/>
	<path class="st2" d="M842.4,285.2l6.8-1.7l1.7,6.8L844,292L842.4,285.2z"/>
	<path class="st2" d="M856,281.9l6.8-1.7l1.7,6.8l-6.8,1.7L856,281.9z"/>
	<path class="st2" d="M869.6,278.6l6.8-1.7l1.7,6.8l-6.8,1.7L869.6,278.6z"/>
	<path class="st2" d="M883.2,275.3l6.8-1.7l1.7,6.8l-6.8,1.7L883.2,275.3z"/>
	<path class="st2" d="M896.8,271.9l6.8-1.7l1.7,6.8l-6.8,1.7L896.8,271.9z"/>
	<path class="st2" d="M910.4,268.6l6.8-1.7l1.7,6.8l-6.8,1.7L910.4,268.6z"/>
	<path class="st2" d="M924,265.3l6.8-1.7l1.7,6.8l-6.8,1.7L924,265.3z"/>
	<path class="st2" d="M937.6,262l6.8-1.7l1.7,6.8l-6.8,1.7L937.6,262z"/>
	<path class="st2" d="M951.2,258.7l6.8-1.7l1.7,6.8l-6.8,1.7L951.2,258.7z"/>
	<path class="st2" d="M964.8,255.4l6.8-1.7l1.7,6.8l-6.8,1.7L964.8,255.4z"/>
	<path class="st2" d="M978.4,252.1l6.8-1.7l1.7,6.8l-6.8,1.7L978.4,252.1z"/>
	<path class="st2" d="M110.4,474.6l6.8-1.7l1.7,6.8l-6.8,1.7L110.4,474.6z"/>
	<path class="st2" d="M124,471.3l6.8-1.7l1.7,6.8l-6.8,1.7L124,471.3z"/>
	<path class="st2" d="M137.6,468l6.8-1.7l1.7,6.8l-6.8,1.7L137.6,468z"/>
	<path class="st2" d="M151.2,464.7l6.8-1.7l1.7,6.8l-6.8,1.7L151.2,464.7z"/>
	<path class="st2" d="M164.8,461.4l6.8-1.7l1.7,6.8l-6.8,1.7L164.8,461.4z"/>
	<path class="st2" d="M178.4,458l6.8-1.7l1.7,6.8l-6.8,1.7L178.4,458z"/>
	<path class="st2" d="M192,454.7l6.8-1.7l1.7,6.8l-6.8,1.7L192,454.7z"/>
	<path class="st2" d="M205.6,451.4l6.8-1.7l1.7,6.8l-6.8,1.7L205.6,451.4z"/>
	<path class="st2" d="M219.2,448.1l6.8-1.7l1.7,6.8l-6.8,1.7L219.2,448.1z"/>
	<path class="st2" d="M232.8,444.8l6.8-1.7l1.7,6.8l-6.8,1.7L232.8,444.8z"/>
	<path class="st2" d="M246.4,441.5l6.8-1.7l1.7,6.8l-6.8,1.7L246.4,441.5z"/>
	<path class="st2" d="M260,438.2l6.8-1.7l1.7,6.8l-6.8,1.7L260,438.2z"/>
	<path class="st2" d="M273.6,434.9l6.8-1.7l1.7,6.8l-6.8,1.7L273.6,434.9z"/>
	<path class="st2" d="M287.2,431.6l6.8-1.7l1.7,6.8l-6.8,1.7L287.2,431.6z"/>
	<path class="st2" d="M300.8,428.3l6.8-1.7l1.7,6.8l-6.8,1.7L300.8,428.3z"/>
	<path class="st2" d="M314.4,424.9l6.8-1.7l1.7,6.8l-6.8,1.7L314.4,424.9z"/>
	<path class="st2" d="M328,421.6l6.8-1.7l1.7,6.8l-6.8,1.7L328,421.6z"/>
	<path class="st2" d="M341.6,418.3l6.8-1.7l1.7,6.8l-6.8,1.7L341.6,418.3z"/>
	<path class="st2" d="M355.2,415l6.8-1.7l1.7,6.8l-6.8,1.7L355.2,415z"/>
	<path class="st2" d="M368.8,411.7l6.8-1.7l1.7,6.8l-6.8,1.7L368.8,411.7z"/>
	<path class="st2" d="M382.4,408.4l6.8-1.7l1.7,6.8l-6.8,1.7L382.4,408.4z"/>
	<path class="st2" d="M396.1,405.1l6.8-1.7l1.7,6.8l-6.8,1.7L396.1,405.1z"/>
	<path class="st2" d="M409.7,401.8l6.8-1.7l1.7,6.8l-6.8,1.7L409.7,401.8z"/>
	<path class="st2" d="M423.3,398.5l6.8-1.7l1.7,6.8l-6.8,1.7L423.3,398.5z"/>
	<path class="st2" d="M436.9,395.2l6.8-1.7l1.7,6.8l-6.8,1.7L436.9,395.2z"/>
	<path class="st2" d="M450.5,391.9l6.8-1.7l1.7,6.8l-6.8,1.7L450.5,391.9z"/>
	<path class="st2" d="M464.1,388.5l6.8-1.7l1.7,6.8l-6.8,1.7L464.1,388.5z"/>
	<path class="st2" d="M477.7,385.2l6.8-1.7l1.7,6.8l-6.8,1.7L477.7,385.2z"/>
	<path class="st2" d="M491.3,381.9l6.8-1.7l1.7,6.8l-6.8,1.7L491.3,381.9z"/>
	<path class="st2" d="M504.9,378.6l6.8-1.7l1.7,6.8l-6.8,1.7L504.9,378.6z"/>
	<path class="st2" d="M518.5,375.3l6.8-1.7l1.7,6.8l-6.8,1.7L518.5,375.3z"/>
	<path class="st2" d="M532.1,372l6.8-1.7l1.7,6.8l-6.8,1.7L532.1,372z"/>
	<path class="st2" d="M545.7,368.7l6.8-1.7l1.7,6.8l-6.8,1.7L545.7,368.7z"/>
	<path class="st2" d="M559.3,365.4l6.8-1.7l1.7,6.8l-6.8,1.7L559.3,365.4z"/>
	<path class="st2" d="M572.9,362.1l6.8-1.7l1.7,6.8l-6.8,1.7L572.9,362.1z"/>
	<path class="st2" d="M586.5,358.8l6.8-1.7l1.7,6.8l-6.8,1.7L586.5,358.8z"/>
	<path class="st2" d="M600.1,355.4l6.8-1.7l1.7,6.8l-6.8,1.7L600.1,355.4z"/>
	<path class="st2" d="M613.7,352.1l6.8-1.7l1.7,6.8l-6.8,1.7L613.7,352.1z"/>
	<path class="st2" d="M627.3,348.8l6.8-1.7l1.7,6.8l-6.8,1.7L627.3,348.8z"/>
	<path class="st2" d="M640.9,345.5l6.8-1.7l1.7,6.8l-6.8,1.7L640.9,345.5z"/>
	<path class="st2" d="M654.5,342.2l6.8-1.7l1.7,6.8l-6.8,1.7L654.5,342.2z"/>
	<path class="st2" d="M668.1,338.9l6.8-1.7l1.7,6.8l-6.8,1.7L668.1,338.9z"/>
	<path class="st2" d="M681.7,335.6l6.8-1.7l1.7,6.8l-6.8,1.7L681.7,335.6z"/>
	<path class="st2" d="M695.3,332.3l6.8-1.7l1.7,6.8l-6.8,1.7L695.3,332.3z"/>
	<path class="st2" d="M708.9,329l6.8-1.7l1.7,6.8l-6.8,1.7L708.9,329z"/>
	<path class="st2" d="M722.5,325.7l6.8-1.7l1.7,6.8l-6.8,1.7L722.5,325.7z"/>
	<path class="st2" d="M736.1,322.3l6.8-1.7l1.7,6.8l-6.8,1.7L736.1,322.3z"/>
	<path class="st2" d="M749.7,319l6.8-1.7l1.7,6.8l-6.8,1.7L749.7,319z"/>
	<path class="st2" d="M763.3,315.7l6.8-1.7l1.7,6.8l-6.8,1.7L763.3,315.7z"/>
	<path class="st2" d="M776.9,312.4l6.8-1.7l1.7,6.8l-6.8,1.7L776.9,312.4z"/>
	<path class="st2" d="M790.5,309.1l6.8-1.7l1.7,6.8l-6.8,1.7L790.5,309.1z"/>
	<path class="st2" d="M804.1,305.8l6.8-1.7l1.7,6.8l-6.8,1.7L804.1,305.8z"/>
	<path class="st2" d="M817.7,302.5l6.8-1.7l1.7,6.8l-6.8,1.7L817.7,302.5z"/>
	<path class="st2" d="M831.4,299.2l6.8-1.7l1.7,6.8L833,306L831.4,299.2z"/>
	<path class="st2" d="M845,295.9l6.8-1.7l1.7,6.8l-6.8,1.7L845,295.9z"/>
	<path class="st2" d="M858.6,292.6l6.8-1.7l1.7,6.8l-6.8,1.7L858.6,292.6z"/>
	<path class="st2" d="M872.2,289.3l6.8-1.7l1.7,6.8l-6.8,1.7L872.2,289.3z"/>
	<path class="st2" d="M885.8,285.9l6.8-1.7l1.7,6.8l-6.8,1.7L885.8,285.9z"/>
	<path class="st2" d="M899.4,282.6l6.8-1.7l1.7,6.8l-6.8,1.7L899.4,282.6z"/>
	<path class="st2" d="M913,279.3l6.8-1.7l1.7,6.8l-6.8,1.7L913,279.3z"/>
	<path class="st2" d="M926.6,276l6.8-1.7l1.7,6.8l-6.8,1.7L926.6,276z"/>
	<path class="st2" d="M940.2,272.7l6.8-1.7l1.7,6.8l-6.8,1.7L940.2,272.7z"/>
	<path class="st2" d="M953.8,269.4l6.8-1.7l1.7,6.8l-6.8,1.7L953.8,269.4z"/>
	<path class="st2" d="M967.4,266.1l6.8-1.7l1.7,6.8l-6.8,1.7L967.4,266.1z"/>
	<path class="st2" d="M981,262.8l6.8-1.7l1.7,6.8l-6.8,1.7L981,262.8z"/>
	<path class="st2" d="M113,485.3l6.8-1.7l1.7,6.8l-6.8,1.7L113,485.3z"/>
	<path class="st2" d="M126.6,482l6.8-1.7l1.7,6.8l-6.8,1.7L126.6,482z"/>
	<path class="st2" d="M140.2,478.7l6.8-1.7l1.7,6.8l-6.8,1.7L140.2,478.7z"/>
	<path class="st2" d="M153.8,475.4l6.8-1.7l1.7,6.8l-6.8,1.7L153.8,475.4z"/>
	<path class="st2" d="M167.4,472l6.8-1.7l1.7,6.8l-6.8,1.7L167.4,472z"/>
	<path class="st2" d="M181,468.7l6.8-1.7l1.7,6.8l-6.8,1.7L181,468.7z"/>
	<path class="st2" d="M194.6,465.4l6.8-1.7l1.7,6.8l-6.8,1.7L194.6,465.4z"/>
	<path class="st2" d="M208.2,462.1l6.8-1.7l1.7,6.8l-6.8,1.7L208.2,462.1z"/>
	<path class="st2" d="M221.8,458.8l6.8-1.7l1.7,6.8l-6.8,1.7L221.8,458.8z"/>
	<path class="st2" d="M235.4,455.5l6.8-1.7l1.7,6.8l-6.8,1.7L235.4,455.5z"/>
	<path class="st2" d="M249,452.2l6.8-1.7l1.7,6.8l-6.8,1.7L249,452.2z"/>
	<path class="st2" d="M262.6,448.9l6.8-1.7l1.7,6.8l-6.8,1.7L262.6,448.9z"/>
	<path class="st2" d="M276.2,445.6l6.8-1.7l1.7,6.8l-6.8,1.7L276.2,445.6z"/>
	<path class="st2" d="M289.8,442.3l6.8-1.7l1.7,6.8l-6.8,1.7L289.8,442.3z"/>
	<path class="st2" d="M303.4,438.9l6.8-1.7l1.7,6.8l-6.8,1.7L303.4,438.9z"/>
	<path class="st2" d="M317,435.6l6.8-1.7l1.7,6.8l-6.8,1.7L317,435.6z"/>
	<path class="st2" d="M330.6,432.3l6.8-1.7l1.7,6.8l-6.8,1.7L330.6,432.3z"/>
	<path class="st2" d="M344.2,429l6.8-1.7l1.7,6.8l-6.8,1.7L344.2,429z"/>
	<path class="st2" d="M357.8,425.7l6.8-1.7l1.7,6.8l-6.8,1.7L357.8,425.7z"/>
	<path class="st2" d="M371.4,422.4l6.8-1.7l1.7,6.8l-6.8,1.7L371.4,422.4z"/>
	<path class="st2" d="M385,419.1l6.8-1.7l1.7,6.8l-6.8,1.7L385,419.1z"/>
	<path class="st2" d="M398.7,415.8l6.8-1.7l1.7,6.8l-6.8,1.7L398.7,415.8z"/>
	<path class="st2" d="M412.3,412.5l6.8-1.7l1.7,6.8l-6.8,1.7L412.3,412.5z"/>
	<path class="st2" d="M425.9,409.2l6.8-1.7l1.7,6.8l-6.8,1.7L425.9,409.2z"/>
	<path class="st2" d="M439.5,405.9l6.8-1.7l1.7,6.8l-6.8,1.7L439.5,405.9z"/>
	<path class="st2" d="M453.1,402.5l6.8-1.7l1.7,6.8l-6.8,1.7L453.1,402.5z"/>
	<path class="st2" d="M466.7,399.2l6.8-1.7l1.7,6.8l-6.8,1.7L466.7,399.2z"/>
	<path class="st2" d="M480.3,395.9l6.8-1.7l1.7,6.8l-6.8,1.7L480.3,395.9z"/>
	<path class="st2" d="M493.9,392.6l6.8-1.7l1.7,6.8l-6.8,1.7L493.9,392.6z"/>
	<path class="st2" d="M507.5,389.3l6.8-1.7l1.7,6.8l-6.8,1.7L507.5,389.3z"/>
	<path class="st2" d="M521.1,386l6.8-1.7l1.7,6.8l-6.8,1.7L521.1,386z"/>
	<path class="st2" d="M534.7,382.7l6.8-1.7l1.7,6.8l-6.8,1.7L534.7,382.7z"/>
	<path class="st2" d="M548.3,379.4l6.8-1.7l1.7,6.8l-6.8,1.7L548.3,379.4z"/>
	<path class="st2" d="M561.9,376.1l6.8-1.7l1.7,6.8l-6.8,1.7L561.9,376.1z"/>
	<path class="st2" d="M575.5,372.8l6.8-1.7l1.7,6.8l-6.8,1.7L575.5,372.8z"/>
	<path class="st2" d="M589.1,369.4l6.8-1.7l1.7,6.8l-6.8,1.7L589.1,369.4z"/>
	<path class="st2" d="M602.7,366.1l6.8-1.7l1.7,6.8l-6.8,1.7L602.7,366.1z"/>
	<path class="st2" d="M616.3,362.8l6.8-1.7l1.7,6.8l-6.8,1.7L616.3,362.8z"/>
	<path class="st2" d="M629.9,359.5l6.8-1.7l1.7,6.8l-6.8,1.7L629.9,359.5z"/>
	<path class="st2" d="M643.5,356.2l6.8-1.7l1.7,6.8l-6.8,1.7L643.5,356.2z"/>
	<path class="st2" d="M657.1,352.9l6.8-1.7l1.7,6.8l-6.8,1.7L657.1,352.9z"/>
	<path class="st2" d="M670.7,349.6l6.8-1.7l1.7,6.8l-6.8,1.7L670.7,349.6z"/>
	<path class="st2" d="M684.3,346.3l6.8-1.7l1.7,6.8l-6.8,1.7L684.3,346.3z"/>
	<path class="st2" d="M697.9,343l6.8-1.7l1.7,6.8l-6.8,1.7L697.9,343z"/>
	<path class="st2" d="M711.5,339.7l6.8-1.7l1.7,6.8l-6.8,1.7L711.5,339.7z"/>
	<path class="st2" d="M725.1,336.3l6.8-1.7l1.7,6.8l-6.8,1.7L725.1,336.3z"/>
	<path class="st2" d="M738.7,333l6.8-1.7l1.7,6.8l-6.8,1.7L738.7,333z"/>
	<path class="st2" d="M752.3,329.7l6.8-1.7l1.7,6.8l-6.8,1.7L752.3,329.7z"/>
	<path class="st2" d="M765.9,326.4l6.8-1.7l1.7,6.8l-6.8,1.7L765.9,326.4z"/>
	<path class="st2" d="M779.5,323.1l6.8-1.7l1.7,6.8l-6.8,1.7L779.5,323.1z"/>
	<path class="st2" d="M793.1,319.8l6.8-1.7l1.7,6.8l-6.8,1.7L793.1,319.8z"/>
	<path class="st2" d="M806.7,316.5l6.8-1.7l1.7,6.8l-6.8,1.7L806.7,316.5z"/>
	<path class="st2" d="M820.3,313.2l6.8-1.7l1.7,6.8L822,320L820.3,313.2z"/>
	<path class="st2" d="M834,309.9l6.8-1.7l1.7,6.8l-6.8,1.7L834,309.9z"/>
	<path class="st2" d="M847.6,306.6l6.8-1.7l1.7,6.8l-6.8,1.7L847.6,306.6z"/>
	<path class="st2" d="M861.2,303.2l6.8-1.7l1.7,6.8l-6.8,1.7L861.2,303.2z"/>
	<path class="st2" d="M874.8,299.9l6.8-1.7l1.7,6.8l-6.8,1.7L874.8,299.9z"/>
	<path class="st2" d="M888.4,296.6l6.8-1.7l1.7,6.8l-6.8,1.7L888.4,296.6z"/>
	<path class="st2" d="M902,293.3l6.8-1.7l1.7,6.8l-6.8,1.7L902,293.3z"/>
	<path class="st2" d="M915.6,290l6.8-1.7l1.7,6.8l-6.8,1.7L915.6,290z"/>
	<path class="st2" d="M929.2,286.7l6.8-1.7l1.7,6.8l-6.8,1.7L929.2,286.7z"/>
	<path class="st2" d="M942.8,283.4l6.8-1.7l1.7,6.8l-6.8,1.7L942.8,283.4z"/>
	<path class="st2" d="M956.4,280.1l6.8-1.7l1.7,6.8l-6.8,1.7L956.4,280.1z"/>
	<path class="st2" d="M970,276.8l6.8-1.7l1.7,6.8l-6.8,1.7L970,276.8z"/>
	<path class="st2" d="M983.6,273.5l6.8-1.7l1.7,6.8l-6.8,1.7L983.6,273.5z"/>
	<path class="st2" d="M115.6,496l6.8-1.7l1.7,6.8l-6.8,1.7L115.6,496z"/>
	<path class="st2" d="M129.2,492.7l6.8-1.7l1.7,6.8l-6.8,1.7L129.2,492.7z"/>
	<path class="st2" d="M142.8,489.4l6.8-1.7l1.7,6.8l-6.8,1.7L142.8,489.4z"/>
	<path class="st2" d="M156.4,486l6.8-1.7l1.7,6.8l-6.8,1.7L156.4,486z"/>
	<path class="st2" d="M170,482.7l6.8-1.7l1.7,6.8l-6.8,1.7L170,482.7z"/>
	<path class="st2" d="M183.6,479.4l6.8-1.7l1.7,6.8l-6.8,1.7L183.6,479.4z"/>
	<path class="st2" d="M197.2,476.1l6.8-1.7l1.7,6.8l-6.8,1.7L197.2,476.1z"/>
	<path class="st2" d="M210.8,472.8l6.8-1.7l1.7,6.8l-6.8,1.7L210.8,472.8z"/>
	<path class="st2" d="M224.4,469.5l6.8-1.7l1.7,6.8l-6.8,1.7L224.4,469.5z"/>
	<path class="st2" d="M238,466.2l6.8-1.7l1.7,6.8l-6.8,1.7L238,466.2z"/>
	<path class="st2" d="M251.6,462.9l6.8-1.7l1.7,6.8l-6.8,1.7L251.6,462.9z"/>
	<path class="st2" d="M265.2,459.6l6.8-1.7l1.7,6.8l-6.8,1.7L265.2,459.6z"/>
	<path class="st2" d="M278.8,456.3l6.8-1.7l1.7,6.8l-6.8,1.7L278.8,456.3z"/>
	<path class="st2" d="M292.4,452.9l6.8-1.7l1.7,6.8l-6.8,1.7L292.4,452.9z"/>
	<path class="st2" d="M306,449.6l6.8-1.7l1.7,6.8l-6.8,1.7L306,449.6z"/>
	<path class="st2" d="M319.6,446.3l6.8-1.7l1.7,6.8l-6.8,1.7L319.6,446.3z"/>
	<path class="st2" d="M333.2,443l6.8-1.7l1.7,6.8l-6.8,1.7L333.2,443z"/>
	<path class="st2" d="M346.8,439.7l6.8-1.7l1.7,6.8l-6.8,1.7L346.8,439.7z"/>
	<path class="st2" d="M360.4,436.4l6.8-1.7l1.7,6.8l-6.8,1.7L360.4,436.4z"/>
	<path class="st2" d="M374,433.1l6.8-1.7l1.7,6.8l-6.8,1.7L374,433.1z"/>
	<path class="st2" d="M387.6,429.8l6.8-1.7l1.7,6.8l-6.8,1.7L387.6,429.8z"/>
	<path class="st2" d="M401.3,426.5l6.8-1.7l1.7,6.8l-6.8,1.7L401.3,426.5z"/>
	<path class="st2" d="M414.9,423.2l6.8-1.7l1.7,6.8l-6.8,1.7L414.9,423.2z"/>
	<path class="st2" d="M428.5,419.8l6.8-1.7l1.7,6.8l-6.8,1.7L428.5,419.8z"/>
	<path class="st2" d="M442.1,416.5l6.8-1.7l1.7,6.8l-6.8,1.7L442.1,416.5z"/>
	<path class="st2" d="M455.7,413.2l6.8-1.7l1.7,6.8l-6.8,1.7L455.7,413.2z"/>
	<path class="st2" d="M469.3,409.9l6.8-1.7l1.7,6.8l-6.8,1.7L469.3,409.9z"/>
	<path class="st2" d="M482.9,406.6l6.8-1.7l1.7,6.8l-6.8,1.7L482.9,406.6z"/>
	<path class="st2" d="M496.5,403.3l6.8-1.7l1.7,6.8l-6.8,1.7L496.5,403.3z"/>
	<path class="st2" d="M510.1,400l6.8-1.7l1.7,6.8l-6.8,1.7L510.1,400z"/>
	<path class="st2" d="M523.7,396.7l6.8-1.7l1.7,6.8l-6.8,1.7L523.7,396.7z"/>
	<path class="st2" d="M537.3,393.4l6.8-1.7l1.7,6.8l-6.8,1.7L537.3,393.4z"/>
	<path class="st2" d="M550.9,390.1l6.8-1.7l1.7,6.8l-6.8,1.7L550.9,390.1z"/>
	<path class="st2" d="M564.5,386.8l6.8-1.7l1.7,6.8l-6.8,1.7L564.5,386.8z"/>
	<path class="st2" d="M578.1,383.4l6.8-1.7l1.7,6.8l-6.8,1.7L578.1,383.4z"/>
	<path class="st2" d="M591.7,380.1l6.8-1.7l1.7,6.8l-6.8,1.7L591.7,380.1z"/>
	<path class="st2" d="M605.3,376.8l6.8-1.7l1.7,6.8l-6.8,1.7L605.3,376.8z"/>
	<path class="st2" d="M618.9,373.5l6.8-1.7l1.7,6.8l-6.8,1.7L618.9,373.5z"/>
	<path class="st2" d="M632.5,370.2l6.8-1.7l1.7,6.8l-6.8,1.7L632.5,370.2z"/>
	<path class="st2" d="M646.1,366.9l6.8-1.7l1.7,6.8l-6.8,1.7L646.1,366.9z"/>
	<path class="st2" d="M659.7,363.6l6.8-1.7l1.7,6.8l-6.8,1.7L659.7,363.6z"/>
	<path class="st2" d="M673.3,360.3l6.8-1.7l1.7,6.8l-6.8,1.7L673.3,360.3z"/>
	<path class="st2" d="M686.9,357l6.8-1.7l1.7,6.8l-6.8,1.7L686.9,357z"/>
	<path class="st2" d="M700.5,353.7l6.8-1.7l1.7,6.8l-6.8,1.7L700.5,353.7z"/>
	<path class="st2" d="M714.1,350.3l6.8-1.7l1.7,6.8l-6.8,1.7L714.1,350.3z"/>
	<path class="st2" d="M727.7,347l6.8-1.7l1.7,6.8l-6.8,1.7L727.7,347z"/>
	<path class="st2" d="M741.3,343.7l6.8-1.7l1.7,6.8l-6.8,1.7L741.3,343.7z"/>
	<path class="st2" d="M754.9,340.4l6.8-1.7l1.7,6.8l-6.8,1.7L754.9,340.4z"/>
	<path class="st2" d="M768.5,337.1l6.8-1.7l1.7,6.8l-6.8,1.7L768.5,337.1z"/>
	<path class="st2" d="M782.1,333.8l6.8-1.7l1.7,6.8l-6.8,1.7L782.1,333.8z"/>
	<path class="st2" d="M795.7,330.5l6.8-1.7l1.7,6.8l-6.8,1.7L795.7,330.5z"/>
	<path class="st2" d="M809.3,327.2l6.8-1.7l1.7,6.8L811,334L809.3,327.2z"/>
	<path class="st2" d="M822.9,323.9l6.8-1.7l1.7,6.8l-6.8,1.7L822.9,323.9z"/>
	<path class="st2" d="M836.6,320.6l6.8-1.7l1.7,6.8l-6.8,1.7L836.6,320.6z"/>
	<path class="st2" d="M850.2,317.2l6.8-1.7l1.7,6.8l-6.8,1.7L850.2,317.2z"/>
	<path class="st2" d="M863.8,313.9l6.8-1.7l1.7,6.8l-6.8,1.7L863.8,313.9z"/>
	<path class="st2" d="M877.4,310.6l6.8-1.7l1.7,6.8l-6.8,1.7L877.4,310.6z"/>
	<path class="st2" d="M891,307.3l6.8-1.7l1.7,6.8l-6.8,1.7L891,307.3z"/>
	<path class="st2" d="M904.6,304l6.8-1.7l1.7,6.8l-6.8,1.7L904.6,304z"/>
	<path class="st2" d="M918.2,300.7l6.8-1.7l1.7,6.8l-6.8,1.7L918.2,300.7z"/>
	<path class="st2" d="M931.8,297.4l6.8-1.7l1.7,6.8l-6.8,1.7L931.8,297.4z"/>
	<path class="st2" d="M945.4,294.1l6.8-1.7l1.7,6.8l-6.8,1.7L945.4,294.1z"/>
	<path class="st2" d="M959,290.8l6.8-1.7l1.7,6.8l-6.8,1.7L959,290.8z"/>
	<path class="st2" d="M972.6,287.5l6.8-1.7l1.7,6.8l-6.8,1.7L972.6,287.5z"/>
	<path class="st2" d="M986.2,284.2l6.8-1.7l1.7,6.8l-6.8,1.7L986.2,284.2z"/>
	<path class="st2" d="M79.4,347.3l6.8-1.7l1.7,6.8l-6.8,1.7L79.4,347.3z"/>
	<path class="st2" d="M161,327.4l6.8-1.7l1.7,6.8l-6.8,1.7L161,327.4z"/>
	<path class="st2" d="M242.7,307.6l6.8-1.7l1.7,6.8l-6.8,1.7L242.7,307.6z"/>
	<path class="st2" d="M324.3,287.7l6.8-1.7l1.7,6.8l-6.8,1.7L324.3,287.7z"/>
	<path class="st2" d="M405.9,267.9l6.8-1.7l1.7,6.8l-6.8,1.7L405.9,267.9z"/>
	<path class="st2" d="M487.5,248l6.8-1.7l1.7,6.8l-6.8,1.7L487.5,248z"/>
	<path class="st2" d="M569.1,228.2l6.8-1.7l1.7,6.8l-6.8,1.7L569.1,228.2z"/>
	<path class="st2" d="M650.7,208.3l6.8-1.7l1.7,6.8l-6.8,1.7L650.7,208.3z"/>
	<path class="st2" d="M732.4,188.4l6.8-1.7l1.7,6.8l-6.8,1.7L732.4,188.4z"/>
	<path class="st2" d="M814,168.6l6.8-1.7l1.7,6.8l-6.8,1.7L814,168.6z"/>
	<path class="st2" d="M895.6,148.7l6.8-1.7l1.7,6.8l-6.8,1.7L895.6,148.7z"/>
	<path class="st2" d="M82,358l6.8-1.7l1.7,6.8l-6.8,1.7L82,358z"/>
	<path class="st2" d="M163.6,338.1l6.8-1.7l1.7,6.8l-6.8,1.7L163.6,338.1z"/>
	<path class="st2" d="M245.3,318.3l6.8-1.7l1.7,6.8l-6.8,1.7L245.3,318.3z"/>
	<path class="st2" d="M326.9,298.4l6.8-1.7l1.7,6.8l-6.8,1.7L326.9,298.4z"/>
	<path class="st2" d="M408.5,278.6l6.8-1.7l1.7,6.8l-6.8,1.7L408.5,278.6z"/>
	<path class="st2" d="M490.1,258.7l6.8-1.7l1.7,6.8l-6.8,1.7L490.1,258.7z"/>
	<path class="st2" d="M571.7,238.8l6.8-1.7l1.7,6.8l-6.8,1.7L571.7,238.8z"/>
	<path class="st2" d="M653.3,219l6.8-1.7l1.7,6.8l-6.8,1.7L653.3,219z"/>
	<path class="st2" d="M735,199.1l6.8-1.7l1.7,6.8l-6.8,1.7L735,199.1z"/>
	<path class="st2" d="M816.6,179.3l6.8-1.7l1.7,6.8l-6.8,1.7L816.6,179.3z"/>
	<path class="st2" d="M898.2,159.4l6.8-1.7l1.7,6.8l-6.8,1.7L898.2,159.4z"/>
	<path class="st2" d="M93,344l6.8-1.7l1.7,6.8l-6.8,1.7L93,344z"/>
	<path class="st2" d="M174.6,324.1l6.8-1.7l1.7,6.8l-6.8,1.7L174.6,324.1z"/>
	<path class="st2" d="M256.3,304.3l6.8-1.7l1.7,6.8l-6.8,1.7L256.3,304.3z"/>
	<path class="st2" d="M337.9,284.4l6.8-1.7l1.7,6.8l-6.8,1.7L337.9,284.4z"/>
	<path class="st2" d="M419.5,264.6l6.8-1.7l1.7,6.8l-6.8,1.7L419.5,264.6z"/>
	<path class="st2" d="M501.1,244.7l6.8-1.7l1.7,6.8l-6.8,1.7L501.1,244.7z"/>
	<path class="st2" d="M582.7,224.8l6.8-1.7l1.7,6.8l-6.8,1.7L582.7,224.8z"/>
	<path class="st2" d="M664.4,205l6.8-1.7l1.7,6.8l-6.8,1.7L664.4,205z"/>
	<path class="st2" d="M746,185.1l6.8-1.7l1.7,6.8l-6.8,1.7L746,185.1z"/>
	<path class="st2" d="M827.6,165.3l6.8-1.7l1.7,6.8l-6.8,1.7L827.6,165.3z"/>
	<path class="st2" d="M909.2,145.4l6.8-1.7l1.7,6.8l-6.8,1.7L909.2,145.4z"/>
	<path class="st2" d="M106.6,340.7l6.8-1.7l1.7,6.8l-6.8,1.7L106.6,340.7z"/>
	<path class="st2" d="M188.2,320.8l6.8-1.7l1.7,6.8l-6.8,1.7L188.2,320.8z"/>
	<path class="st2" d="M269.9,301l6.8-1.7l1.7,6.8l-6.8,1.7L269.9,301z"/>
	<path class="st2" d="M351.5,281.1l6.8-1.7l1.7,6.8l-6.8,1.7L351.5,281.1z"/>
	<path class="st2" d="M433.1,261.3l6.8-1.7l1.7,6.8l-6.8,1.7L433.1,261.3z"/>
	<path class="st2" d="M514.7,241.4l6.8-1.7l1.7,6.8l-6.8,1.7L514.7,241.4z"/>
	<path class="st2" d="M596.3,221.5l6.8-1.7l1.7,6.8l-6.8,1.7L596.3,221.5z"/>
	<path class="st2" d="M678,201.7l6.8-1.7l1.7,6.8l-6.8,1.7L678,201.7z"/>
	<path class="st2" d="M759.6,181.8l6.8-1.7l1.7,6.8l-6.8,1.7L759.6,181.8z"/>
	<path class="st2" d="M841.2,162l6.8-1.7l1.7,6.8l-6.8,1.7L841.2,162z"/>
	<path class="st2" d="M922.8,142.1l6.8-1.7l1.7,6.8l-6.8,1.7L922.8,142.1z"/>
	<path class="st2" d="M106.6,340.7l6.8-1.7l1.7,6.8l-6.8,1.7L106.6,340.7z"/>
	<path class="st2" d="M188.2,320.8l6.8-1.7l1.7,6.8l-6.8,1.7L188.2,320.8z"/>
	<path class="st2" d="M269.9,301l6.8-1.7l1.7,6.8l-6.8,1.7L269.9,301z"/>
	<path class="st2" d="M351.5,281.1l6.8-1.7l1.7,6.8l-6.8,1.7L351.5,281.1z"/>
	<path class="st2" d="M433.1,261.3l6.8-1.7l1.7,6.8l-6.8,1.7L433.1,261.3z"/>
	<path class="st2" d="M514.7,241.4l6.8-1.7l1.7,6.8l-6.8,1.7L514.7,241.4z"/>
	<path class="st2" d="M596.3,221.5l6.8-1.7l1.7,6.8l-6.8,1.7L596.3,221.5z"/>
	<path class="st2" d="M678,201.7l6.8-1.7l1.7,6.8l-6.8,1.7L678,201.7z"/>
	<path class="st2" d="M759.6,181.8l6.8-1.7l1.7,6.8l-6.8,1.7L759.6,181.8z"/>
	<path class="st2" d="M841.2,162l6.8-1.7l1.7,6.8l-6.8,1.7L841.2,162z"/>
	<path class="st2" d="M922.8,142.1l6.8-1.7l1.7,6.8l-6.8,1.7L922.8,142.1z"/>
	<path class="st2" d="M120.2,337.4l6.8-1.7l1.7,6.8l-6.8,1.7L120.2,337.4z"/>
	<path class="st2" d="M201.8,317.5l6.8-1.7l1.7,6.8l-6.8,1.7L201.8,317.5z"/>
	<path class="st2" d="M283.5,297.7l6.8-1.7l1.7,6.8l-6.8,1.7L283.5,297.7z"/>
	<path class="st2" d="M365.1,277.8l6.8-1.7l1.7,6.8l-6.8,1.7L365.1,277.8z"/>
	<path class="st2" d="M446.7,257.9l6.8-1.7l1.7,6.8l-6.8,1.7L446.7,257.9z"/>
	<path class="st2" d="M528.3,238.1l6.8-1.7l1.7,6.8l-6.8,1.7L528.3,238.1z"/>
	<path class="st2" d="M609.9,218.2l6.8-1.7l1.7,6.8l-6.8,1.7L609.9,218.2z"/>
	<path class="st2" d="M691.6,198.4l6.8-1.7l1.7,6.8l-6.8,1.7L691.6,198.4z"/>
	<path class="st2" d="M773.2,178.5l6.8-1.7l1.7,6.8l-6.8,1.7L773.2,178.5z"/>
	<path class="st2" d="M854.8,158.7l6.8-1.7l1.7,6.8l-6.8,1.7L854.8,158.7z"/>
	<path class="st2" d="M936.4,138.8l6.8-1.7l1.7,6.8l-6.8,1.7L936.4,138.8z"/>
	<path class="st2" d="M133.8,334.1l6.8-1.7l1.7,6.8l-6.8,1.7L133.8,334.1z"/>
	<path class="st2" d="M215.4,314.2l6.8-1.7l1.7,6.8l-6.8,1.7L215.4,314.2z"/>
	<path class="st2" d="M297.1,294.4l6.8-1.7l1.7,6.8l-6.8,1.7L297.1,294.4z"/>
	<path class="st2" d="M378.7,274.5l6.8-1.7l1.7,6.8l-6.8,1.7L378.7,274.5z"/>
	<path class="st2" d="M460.3,254.6l6.8-1.7l1.7,6.8l-6.8,1.7L460.3,254.6z"/>
	<path class="st2" d="M541.9,234.8l6.8-1.7l1.7,6.8l-6.8,1.7L541.9,234.8z"/>
	<path class="st2" d="M623.5,214.9l6.8-1.7l1.7,6.8l-6.8,1.7L623.5,214.9z"/>
	<path class="st2" d="M705.2,195.1l6.8-1.7l1.7,6.8l-6.8,1.7L705.2,195.1z"/>
	<path class="st2" d="M786.8,175.2l6.8-1.7l1.7,6.8l-6.8,1.7L786.8,175.2z"/>
	<path class="st2" d="M868.4,155.3l6.8-1.7l1.7,6.8l-6.8,1.7L868.4,155.3z"/>
	<path class="st2" d="M950,135.5l6.8-1.7l1.7,6.8l-6.8,1.7L950,135.5z"/>
	<path class="st2" d="M95.6,354.7l6.8-1.7l1.7,6.8l-6.8,1.7L95.6,354.7z"/>
	<path class="st2" d="M177.2,334.8l6.8-1.7l1.7,6.8l-6.8,1.7L177.2,334.8z"/>
	<path class="st2" d="M258.9,315l6.8-1.7l1.7,6.8l-6.8,1.7L258.9,315z"/>
	<path class="st2" d="M340.5,295.1l6.8-1.7l1.7,6.8l-6.8,1.7L340.5,295.1z"/>
	<path class="st2" d="M422.1,275.3l6.8-1.7l1.7,6.8l-6.8,1.7L422.1,275.3z"/>
	<path class="st2" d="M503.7,255.4l6.8-1.7l1.7,6.8l-6.8,1.7L503.7,255.4z"/>
	<path class="st2" d="M585.3,235.5l6.8-1.7l1.7,6.8l-6.8,1.7L585.3,235.5z"/>
	<path class="st2" d="M667,215.7l6.8-1.7l1.7,6.8l-6.8,1.7L667,215.7z"/>
	<path class="st2" d="M748.6,195.8l6.8-1.7l1.7,6.8l-6.8,1.7L748.6,195.8z"/>
	<path class="st2" d="M830.2,176l6.8-1.7l1.7,6.8l-6.8,1.7L830.2,176z"/>
	<path class="st2" d="M911.8,156.1l6.8-1.7l1.7,6.8l-6.8,1.7L911.8,156.1z"/>
	<path class="st2" d="M109.2,351.4l6.8-1.7l1.7,6.8l-6.8,1.7L109.2,351.4z"/>
	<path class="st2" d="M190.8,331.5l6.8-1.7l1.7,6.8l-6.8,1.7L190.8,331.5z"/>
	<path class="st2" d="M272.5,311.7l6.8-1.7l1.7,6.8l-6.8,1.7L272.5,311.7z"/>
	<path class="st2" d="M354.1,291.8l6.8-1.7l1.7,6.8l-6.8,1.7L354.1,291.8z"/>
	<path class="st2" d="M435.7,271.9l6.8-1.7l1.7,6.8l-6.8,1.7L435.7,271.9z"/>
	<path class="st2" d="M517.3,252.1l6.8-1.7l1.7,6.8l-6.8,1.7L517.3,252.1z"/>
	<path class="st2" d="M598.9,232.2l6.8-1.7l1.7,6.8l-6.8,1.7L598.9,232.2z"/>
	<path class="st2" d="M680.6,212.4l6.8-1.7l1.7,6.8l-6.8,1.7L680.6,212.4z"/>
	<path class="st2" d="M762.2,192.5l6.8-1.7l1.7,6.8l-6.8,1.7L762.2,192.5z"/>
	<path class="st2" d="M843.8,172.7l6.8-1.7l1.7,6.8l-6.8,1.7L843.8,172.7z"/>
	<path class="st2" d="M925.4,152.8l6.8-1.7l1.7,6.8l-6.8,1.7L925.4,152.8z"/>
	<path class="st2" d="M122.8,348.1l6.8-1.7l1.7,6.8l-6.8,1.7L122.8,348.1z"/>
	<path class="st2" d="M204.4,328.2l6.8-1.7l1.7,6.8l-6.8,1.7L204.4,328.2z"/>
	<path class="st2" d="M286.1,308.4l6.8-1.7l1.7,6.8l-6.8,1.7L286.1,308.4z"/>
	<path class="st2" d="M367.7,288.5l6.8-1.7l1.7,6.8l-6.8,1.7L367.7,288.5z"/>
	<path class="st2" d="M449.3,268.6l6.8-1.7l1.7,6.8l-6.8,1.7L449.3,268.6z"/>
	<path class="st2" d="M530.9,248.8l6.8-1.7l1.7,6.8l-6.8,1.7L530.9,248.8z"/>
	<path class="st2" d="M612.5,228.9l6.8-1.7l1.7,6.8l-6.8,1.7L612.5,228.9z"/>
	<path class="st2" d="M694.2,209.1l6.8-1.7l1.7,6.8l-6.8,1.7L694.2,209.1z"/>
	<path class="st2" d="M775.8,189.2l6.8-1.7l1.7,6.8l-6.8,1.7L775.8,189.2z"/>
	<path class="st2" d="M857.4,169.3l6.8-1.7l1.7,6.8l-6.8,1.7L857.4,169.3z"/>
	<path class="st2" d="M939,149.5l6.8-1.7l1.7,6.8l-6.8,1.7L939,149.5z"/>
	<path class="st2" d="M136.4,344.8l6.8-1.7l1.7,6.8l-6.8,1.7L136.4,344.8z"/>
	<path class="st2" d="M218,324.9l6.8-1.7l1.7,6.8l-6.8,1.7L218,324.9z"/>
	<path class="st2" d="M299.7,305l6.8-1.7l1.7,6.8l-6.8,1.7L299.7,305z"/>
	<path class="st2" d="M381.3,285.2l6.8-1.7l1.7,6.8l-6.8,1.7L381.3,285.2z"/>
	<path class="st2" d="M462.9,265.3l6.8-1.7l1.7,6.8l-6.8,1.7L462.9,265.3z"/>
	<path class="st2" d="M544.5,245.5l6.8-1.7l1.7,6.8l-6.8,1.7L544.5,245.5z"/>
	<path class="st2" d="M626.1,225.6l6.8-1.7l1.7,6.8l-6.8,1.7L626.1,225.6z"/>
	<path class="st2" d="M707.8,205.8l6.8-1.7l1.7,6.8l-6.8,1.7L707.8,205.8z"/>
	<path class="st2" d="M789.4,185.9l6.8-1.7l1.7,6.8l-6.8,1.7L789.4,185.9z"/>
	<path class="st2" d="M871,166l6.8-1.7l1.7,6.8l-6.8,1.7L871,166z"/>
	<path class="st2" d="M952.6,146.2l6.8-1.7l1.7,6.8l-6.8,1.7L952.6,146.2z"/>
	<path class="st3" d="M72.9,345.8L955.6,131"/>
	<path class="st4" d="M78.5,369.1l882.7-214.8"/>
	<path class="st2" d="M121.9,526.3l6.8-1.7l1.7,6.8l-6.8,1.7L121.9,526.3z"/>
	<path class="st2" d="M203.6,506.5l6.8-1.7l1.7,6.8l-6.8,1.7L203.6,506.5z"/>
	<path class="st2" d="M285.2,486.6l6.8-1.7l1.7,6.8l-6.8,1.7L285.2,486.6z"/>
	<path class="st2" d="M366.8,466.8l6.8-1.7l1.7,6.8l-6.8,1.7L366.8,466.8z"/>
	<path class="st2" d="M448.4,446.9l6.8-1.7l1.7,6.8l-6.8,1.7L448.4,446.9z"/>
	<path class="st2" d="M530,427l6.8-1.7l1.7,6.8l-6.8,1.7L530,427z"/>
	<path class="st2" d="M611.7,407.2l6.8-1.7l1.7,6.8l-6.8,1.7L611.7,407.2z"/>
	<path class="st2" d="M693.3,387.3l6.8-1.7l1.7,6.8l-6.8,1.7L693.3,387.3z"/>
	<path class="st2" d="M774.9,367.5l6.8-1.7l1.7,6.8l-6.8,1.7L774.9,367.5z"/>
	<path class="st2" d="M856.5,347.6l6.8-1.7l1.7,6.8l-6.8,1.7L856.5,347.6z"/>
	<path class="st2" d="M938.1,327.7l6.8-1.7l1.7,6.8l-6.8,1.7L938.1,327.7z"/>
	<path class="st2" d="M124.5,537l6.8-1.7l1.7,6.8l-6.8,1.7L124.5,537z"/>
	<path class="st2" d="M206.2,517.2l6.8-1.7l1.7,6.8l-6.8,1.7L206.2,517.2z"/>
	<path class="st2" d="M287.8,497.3l6.8-1.7l1.7,6.8l-6.8,1.7L287.8,497.3z"/>
	<path class="st2" d="M369.4,477.4l6.8-1.7l1.7,6.8l-6.8,1.7L369.4,477.4z"/>
	<path class="st2" d="M451,457.6l6.8-1.7l1.7,6.8l-6.8,1.7L451,457.6z"/>
	<path class="st2" d="M532.6,437.7l6.8-1.7l1.7,6.8l-6.8,1.7L532.6,437.7z"/>
	<path class="st2" d="M614.3,417.9l6.8-1.7l1.7,6.8l-6.8,1.7L614.3,417.9z"/>
	<path class="st2" d="M695.9,398l6.8-1.7l1.7,6.8l-6.8,1.7L695.9,398z"/>
	<path class="st2" d="M777.5,378.2l6.8-1.7l1.7,6.8l-6.8,1.7L777.5,378.2z"/>
	<path class="st2" d="M859.1,358.3l6.8-1.7l1.7,6.8l-6.8,1.7L859.1,358.3z"/>
	<path class="st2" d="M940.7,338.4l6.8-1.7l1.7,6.8l-6.8,1.7L940.7,338.4z"/>
	<path class="st2" d="M135.5,523l6.8-1.7l1.7,6.8l-6.8,1.7L135.5,523z"/>
	<path class="st2" d="M217.2,503.2l6.8-1.7l1.7,6.8l-6.8,1.7L217.2,503.2z"/>
	<path class="st2" d="M298.8,483.3l6.8-1.7l1.7,6.8l-6.8,1.7L298.8,483.3z"/>
	<path class="st2" d="M380.4,463.4l6.8-1.7l1.7,6.8l-6.8,1.7L380.4,463.4z"/>
	<path class="st2" d="M462,443.6l6.8-1.7l1.7,6.8l-6.8,1.7L462,443.6z"/>
	<path class="st2" d="M543.6,423.7l6.8-1.7l1.7,6.8l-6.8,1.7L543.6,423.7z"/>
	<path class="st2" d="M625.3,403.9l6.8-1.7l1.7,6.8l-6.8,1.7L625.3,403.9z"/>
	<path class="st2" d="M706.9,384l6.8-1.7l1.7,6.8l-6.8,1.7L706.9,384z"/>
	<path class="st2" d="M788.5,364.2l6.8-1.7l1.7,6.8l-6.8,1.7L788.5,364.2z"/>
	<path class="st2" d="M870.1,344.3l6.8-1.7l1.7,6.8l-6.8,1.7L870.1,344.3z"/>
	<path class="st2" d="M951.7,324.4l6.8-1.7l1.7,6.8l-6.8,1.7L951.7,324.4z"/>
	<path class="st2" d="M149.1,519.7l6.8-1.7l1.7,6.8l-6.8,1.7L149.1,519.7z"/>
	<path class="st2" d="M230.8,499.9l6.8-1.7l1.7,6.8l-6.8,1.7L230.8,499.9z"/>
	<path class="st2" d="M312.4,480l6.8-1.7l1.7,6.8l-6.8,1.7L312.4,480z"/>
	<path class="st2" d="M394,460.1l6.8-1.7l1.7,6.8l-6.8,1.7L394,460.1z"/>
	<path class="st2" d="M475.6,440.3l6.8-1.7l1.7,6.8l-6.8,1.7L475.6,440.3z"/>
	<path class="st2" d="M557.2,420.4l6.8-1.7l1.7,6.8l-6.8,1.7L557.2,420.4z"/>
	<path class="st2" d="M638.9,400.6l6.8-1.7l1.7,6.8l-6.8,1.7L638.9,400.6z"/>
	<path class="st2" d="M720.5,380.7l6.8-1.7l1.7,6.8l-6.8,1.7L720.5,380.7z"/>
	<path class="st2" d="M802.1,360.8l6.8-1.7l1.7,6.8l-6.8,1.7L802.1,360.8z"/>
	<path class="st2" d="M883.7,341l6.8-1.7l1.7,6.8l-6.8,1.7L883.7,341z"/>
	<path class="st2" d="M965.3,321.1l6.8-1.7l1.7,6.8l-6.8,1.7L965.3,321.1z"/>
	<path class="st2" d="M149.1,519.7l6.8-1.7l1.7,6.8l-6.8,1.7L149.1,519.7z"/>
	<path class="st2" d="M230.8,499.9l6.8-1.7l1.7,6.8l-6.8,1.7L230.8,499.9z"/>
	<path class="st2" d="M312.4,480l6.8-1.7l1.7,6.8l-6.8,1.7L312.4,480z"/>
	<path class="st2" d="M394,460.1l6.8-1.7l1.7,6.8l-6.8,1.7L394,460.1z"/>
	<path class="st2" d="M475.6,440.3l6.8-1.7l1.7,6.8l-6.8,1.7L475.6,440.3z"/>
	<path class="st2" d="M557.2,420.4l6.8-1.7l1.7,6.8l-6.8,1.7L557.2,420.4z"/>
	<path class="st2" d="M638.9,400.6l6.8-1.7l1.7,6.8l-6.8,1.7L638.9,400.6z"/>
	<path class="st2" d="M720.5,380.7l6.8-1.7l1.7,6.8l-6.8,1.7L720.5,380.7z"/>
	<path class="st2" d="M802.1,360.8l6.8-1.7l1.7,6.8l-6.8,1.7L802.1,360.8z"/>
	<path class="st2" d="M883.7,341l6.8-1.7l1.7,6.8l-6.8,1.7L883.7,341z"/>
	<path class="st2" d="M965.3,321.1l6.8-1.7l1.7,6.8l-6.8,1.7L965.3,321.1z"/>
	<path class="st2" d="M162.8,516.4l6.8-1.7l1.7,6.8l-6.8,1.7L162.8,516.4z"/>
	<path class="st2" d="M244.4,496.5l6.8-1.7l1.7,6.8l-6.8,1.7L244.4,496.5z"/>
	<path class="st2" d="M326,476.7l6.8-1.7l1.7,6.8l-6.8,1.7L326,476.7z"/>
	<path class="st2" d="M407.6,456.8l6.8-1.7l1.7,6.8l-6.8,1.7L407.6,456.8z"/>
	<path class="st2" d="M489.2,437l6.8-1.7l1.7,6.8l-6.8,1.7L489.2,437z"/>
	<path class="st2" d="M570.8,417.1l6.8-1.7l1.7,6.8l-6.8,1.7L570.8,417.1z"/>
	<path class="st2" d="M652.5,397.3l6.8-1.7l1.7,6.8l-6.8,1.7L652.5,397.3z"/>
	<path class="st2" d="M734.1,377.4l6.8-1.7l1.7,6.8l-6.8,1.7L734.1,377.4z"/>
	<path class="st2" d="M815.7,357.5l6.8-1.7l1.7,6.8l-6.8,1.7L815.7,357.5z"/>
	<path class="st2" d="M897.3,337.7l6.8-1.7l1.7,6.8l-6.8,1.7L897.3,337.7z"/>
	<path class="st2" d="M978.9,317.8l6.8-1.7l1.7,6.8l-6.8,1.7L978.9,317.8z"/>
	<path class="st2" d="M176.4,513.1l6.8-1.7l1.7,6.8l-6.8,1.7L176.4,513.1z"/>
	<path class="st2" d="M258,493.2l6.8-1.7l1.7,6.8l-6.8,1.7L258,493.2z"/>
	<path class="st2" d="M339.6,473.4l6.8-1.7l1.7,6.8l-6.8,1.7L339.6,473.4z"/>
	<path class="st2" d="M421.2,453.5l6.8-1.7l1.7,6.8l-6.8,1.7L421.2,453.5z"/>
	<path class="st2" d="M502.8,433.7l6.8-1.7l1.7,6.8l-6.8,1.7L502.8,433.7z"/>
	<path class="st2" d="M584.4,413.8l6.8-1.7l1.7,6.8l-6.8,1.7L584.4,413.8z"/>
	<path class="st2" d="M666.1,393.9l6.8-1.7l1.7,6.8l-6.8,1.7L666.1,393.9z"/>
	<path class="st2" d="M747.7,374.1l6.8-1.7l1.7,6.8l-6.8,1.7L747.7,374.1z"/>
	<path class="st2" d="M829.3,354.2l6.8-1.7l1.7,6.8L831,361L829.3,354.2z"/>
	<path class="st2" d="M910.9,334.4l6.8-1.7l1.7,6.8l-6.8,1.7L910.9,334.4z"/>
	<path class="st2" d="M992.5,314.5l6.8-1.7l1.7,6.8l-6.8,1.7L992.5,314.5z"/>
	<path class="st2" d="M138.1,533.7l6.8-1.7l1.7,6.8l-6.8,1.7L138.1,533.7z"/>
	<path class="st2" d="M219.8,513.8l6.8-1.7l1.7,6.8l-6.8,1.7L219.8,513.8z"/>
	<path class="st2" d="M301.4,494l6.8-1.7l1.7,6.8l-6.8,1.7L301.4,494z"/>
	<path class="st2" d="M383,474.1l6.8-1.7l1.7,6.8l-6.8,1.7L383,474.1z"/>
	<path class="st2" d="M464.6,454.3l6.8-1.7l1.7,6.8l-6.8,1.7L464.6,454.3z"/>
	<path class="st2" d="M546.2,434.4l6.8-1.7l1.7,6.8l-6.8,1.7L546.2,434.4z"/>
	<path class="st2" d="M627.9,414.6l6.8-1.7l1.7,6.8l-6.8,1.7L627.9,414.6z"/>
	<path class="st2" d="M709.5,394.7l6.8-1.7l1.7,6.8l-6.8,1.7L709.5,394.7z"/>
	<path class="st2" d="M791.1,374.8l6.8-1.7l1.7,6.8l-6.8,1.7L791.1,374.8z"/>
	<path class="st2" d="M872.7,355l6.8-1.7l1.7,6.8l-6.8,1.7L872.7,355z"/>
	<path class="st2" d="M954.3,335.1l6.8-1.7l1.7,6.8l-6.8,1.7L954.3,335.1z"/>
	<path class="st2" d="M151.7,530.4l6.8-1.7l1.7,6.8l-6.8,1.7L151.7,530.4z"/>
	<path class="st2" d="M233.4,510.5l6.8-1.7l1.7,6.8l-6.8,1.7L233.4,510.5z"/>
	<path class="st2" d="M315,490.7l6.8-1.7l1.7,6.8l-6.8,1.7L315,490.7z"/>
	<path class="st2" d="M396.6,470.8l6.8-1.7l1.7,6.8l-6.8,1.7L396.6,470.8z"/>
	<path class="st2" d="M478.2,451l6.8-1.7l1.7,6.8l-6.8,1.7L478.2,451z"/>
	<path class="st2" d="M559.8,431.1l6.8-1.7l1.7,6.8l-6.8,1.7L559.8,431.1z"/>
	<path class="st2" d="M641.5,411.2l6.8-1.7l1.7,6.8l-6.8,1.7L641.5,411.2z"/>
	<path class="st2" d="M723.1,391.4l6.8-1.7l1.7,6.8l-6.8,1.7L723.1,391.4z"/>
	<path class="st2" d="M804.7,371.5l6.8-1.7l1.7,6.8l-6.8,1.7L804.7,371.5z"/>
	<path class="st2" d="M886.3,351.7l6.8-1.7l1.7,6.8l-6.8,1.7L886.3,351.7z"/>
	<path class="st2" d="M967.9,331.8l6.8-1.7l1.7,6.8l-6.8,1.7L967.9,331.8z"/>
	<path class="st2" d="M165.4,527.1l6.8-1.7l1.7,6.8l-6.8,1.7L165.4,527.1z"/>
	<path class="st2" d="M247,507.2l6.8-1.7l1.7,6.8l-6.8,1.7L247,507.2z"/>
	<path class="st2" d="M328.6,487.4l6.8-1.7l1.7,6.8l-6.8,1.7L328.6,487.4z"/>
	<path class="st2" d="M410.2,467.5l6.8-1.7l1.7,6.8l-6.8,1.7L410.2,467.5z"/>
	<path class="st2" d="M491.8,447.7l6.8-1.7l1.7,6.8l-6.8,1.7L491.8,447.7z"/>
	<path class="st2" d="M573.4,427.8l6.8-1.7l1.7,6.8l-6.8,1.7L573.4,427.8z"/>
	<path class="st2" d="M655.1,407.9l6.8-1.7l1.7,6.8l-6.8,1.7L655.1,407.9z"/>
	<path class="st2" d="M736.7,388.1l6.8-1.7l1.7,6.8l-6.8,1.7L736.7,388.1z"/>
	<path class="st2" d="M818.3,368.2l6.8-1.7l1.7,6.8L820,375L818.3,368.2z"/>
	<path class="st2" d="M899.9,348.4l6.8-1.7l1.7,6.8l-6.8,1.7L899.9,348.4z"/>
	<path class="st2" d="M981.5,328.5l6.8-1.7l1.7,6.8l-6.8,1.7L981.5,328.5z"/>
	<path class="st2" d="M179,523.8l6.8-1.7l1.7,6.8l-6.8,1.7L179,523.8z"/>
	<path class="st2" d="M260.6,503.9l6.8-1.7l1.7,6.8l-6.8,1.7L260.6,503.9z"/>
	<path class="st2" d="M342.2,484.1l6.8-1.7l1.7,6.8l-6.8,1.7L342.2,484.1z"/>
	<path class="st2" d="M423.8,464.2l6.8-1.7l1.7,6.8l-6.8,1.7L423.8,464.2z"/>
	<path class="st2" d="M505.4,444.3l6.8-1.7l1.7,6.8l-6.8,1.7L505.4,444.3z"/>
	<path class="st2" d="M587.1,424.5l6.8-1.7l1.7,6.8l-6.8,1.7L587.1,424.5z"/>
	<path class="st2" d="M668.7,404.6l6.8-1.7l1.7,6.8l-6.8,1.7L668.7,404.6z"/>
	<path class="st2" d="M750.3,384.8l6.8-1.7l1.7,6.8l-6.8,1.7L750.3,384.8z"/>
	<path class="st2" d="M831.9,364.9l6.8-1.7l1.7,6.8l-6.8,1.7L831.9,364.9z"/>
	<path class="st2" d="M913.5,345.1l6.8-1.7l1.7,6.8l-6.8,1.7L913.5,345.1z"/>
	<path class="st2" d="M995.1,325.2l6.8-1.7l1.7,6.8l-6.8,1.7L995.1,325.2z"/>
	<path class="st3" d="M115.4,524.8l882.7-214.8"/>
	<path class="st4" d="M121.1,548.2l882.7-214.8"/>
</g>
</svg>
