<svg width="150" height="449" viewBox="0 0 150 449" fill="none" xmlns="http://www.w3.org/2000/svg">
<rect x="45" y="266" width="12" height="183" rx="6" fill="#D69C06"/>
<rect x="94" y="266" width="12" height="183" rx="6" fill="#D69C06"/>
<path d="M0 17C0 7.61108 6.16866 0 13.7778 0H110.222C117.831 0 124 7.61108 124 17V159V188.066C124 196.435 122.57 200.56 121.261 204.336C120.156 207.525 119.137 210.465 119.137 215.5C119.137 221.93 120.433 226.118 121.687 230.171C122.862 233.968 124 237.645 124 242.934V254.5C124 268.583 114.747 280 103.333 280H91.5817H32.4183H20.6667C9.25259 280 0 268.583 0 254.5V242.934C0 237.645 1.13773 233.968 2.31265 230.171C3.56673 226.118 4.86275 221.93 4.86275 215.5C4.86275 210.465 3.84394 207.525 2.73918 204.337L2.73886 204.336C1.42978 200.56 0 196.435 0 188.066V159V17Z" fill="#7A848E"/>
<path d="M46 0C38.8204 0 33 7.61108 33 17V280H130.5C141.27 280 150 268.583 150 254.5V242.934C150 237.645 148.927 233.968 147.818 230.171C146.635 226.118 145.412 221.93 145.412 215.5C145.412 210.465 146.373 207.525 147.416 204.336C148.651 200.56 150 196.435 150 188.066V17C150 7.61108 144.18 0 137 0H46Z" fill="#2B2B2B"/>
</svg>
