<svg xmlns="http://www.w3.org/2000/svg" width="208" height="365" viewBox="0 0 208 365" fill="none">
  <path d="M170 45H200V0H170V45Z" fill="#CDCDCD"/>
  <path d="M170 45H174V0H170V45Z" fill="#BDBDBD"/>
  <path d="M196 45H200V0H196V45Z" fill="#BDBDBD"/>
  <path d="M161 45H208V106L196 128V144C196 146.209 194.209 148 192 148H178C175.791 148 174 146.209 174 144V128L161 106V45Z" fill="#1454B4"/>
  <path d="M190 148H180V175C180 274.411 99.4113 355 0 355V365C104.934 365 190 279.934 190 175V148Z" fill="#09439B"/>
</svg>