<svg width="41" height="55" viewBox="0 0 41 55" fill="none" xmlns="http://www.w3.org/2000/svg">
<g id="&#230;&#153;&#182;&#231;&#137;&#135;">
<rect id="Rectangle 9" x="4" width="33" height="55" fill="#4E4E4E"/>
<rect id="Rectangle 10" x="37" y="4" width="4" height="2" fill="#D9D9D9"/>
<rect id="Rectangle 11" x="37" y="14" width="4" height="2" fill="#D9D9D9"/>
<rect id="Rectangle 12" x="37" y="9" width="4" height="2" fill="#D9D9D9"/>
<rect id="Rectangle 13" x="37" y="24" width="4" height="2" fill="#D9D9D9"/>
<rect id="Rectangle 14" x="37" y="19" width="4" height="2" fill="#D9D9D9"/>
<rect id="Rectangle 15" x="37" y="29" width="4" height="2" fill="#D9D9D9"/>
<rect id="Rectangle 16" x="37" y="39" width="4" height="2" fill="#D9D9D9"/>
<rect id="Rectangle 17" x="37" y="34" width="4" height="2" fill="#D9D9D9"/>
<rect id="Rectangle 18" x="37" y="49" width="4" height="2" fill="#D9D9D9"/>
<rect id="Rectangle 19" x="37" y="44" width="4" height="2" fill="#D9D9D9"/>
<rect id="Rectangle 20" y="4" width="4" height="2" fill="#D9D9D9"/>
<rect id="Rectangle 21" y="14" width="4" height="2" fill="#D9D9D9"/>
<rect id="Rectangle 22" y="9" width="4" height="2" fill="#D9D9D9"/>
<rect id="Rectangle 23" y="24" width="4" height="2" fill="#D9D9D9"/>
<rect id="Rectangle 24" y="19" width="4" height="2" fill="#D9D9D9"/>
<rect id="Rectangle 25" y="29" width="4" height="2" fill="#D9D9D9"/>
<rect id="Rectangle 26" y="39" width="4" height="2" fill="#D9D9D9"/>
<rect id="Rectangle 27" y="34" width="4" height="2" fill="#D9D9D9"/>
<rect id="Rectangle 28" y="49" width="4" height="2" fill="#D9D9D9"/>
<rect id="Rectangle 29" y="44" width="4" height="2" fill="#D9D9D9"/>
</g>
</svg>
