<svg width="812" height="408" viewBox="0 0 812 408" fill="none" xmlns="http://www.w3.org/2000/svg">
<path fill-rule="evenodd" clip-rule="evenodd" d="M19 0C8.50659 0 0 8.50659 0 19V389C0 399.493 8.50659 408 19 408H792.765C803.258 408 811.765 399.493 811.765 389V174L791.471 154V82L811.765 62.0001V19C811.765 8.50659 803.258 0 792.765 0H19Z" fill="#124786"/>
<circle cx="772" cy="273" r="4.5" stroke="#FFCC6A" stroke-width="3"/>
<circle cx="787" cy="273" r="4.5" stroke="#FFCC6A" stroke-width="3"/>
<circle cx="787" cy="288" r="4.5" transform="rotate(90 787 288)" stroke="#FFCC6A" stroke-width="3"/>
<circle cx="772" cy="288" r="4.5" transform="rotate(90 772 288)" stroke="#FFCC6A" stroke-width="3"/>
<circle cx="772" cy="303" r="4.5" stroke="#FFCC6A" stroke-width="3"/>
<circle cx="787" cy="303" r="4.5" stroke="#FFCC6A" stroke-width="3"/>
<circle cx="787" cy="318" r="4.5" transform="rotate(90 787 318)" stroke="#FFCC6A" stroke-width="3"/>
<circle cx="772" cy="318" r="4.5" transform="rotate(90 772 318)" stroke="#FFCC6A" stroke-width="3"/>
<circle cx="787" cy="333" r="4.5" transform="rotate(90 787 333)" stroke="#FFCC6A" stroke-width="3"/>
<circle cx="772" cy="333" r="4.5" transform="rotate(90 772 333)" stroke="#FFCC6A" stroke-width="3"/>
<circle cx="772" cy="273" r="4.5" stroke="#FFCC6A" stroke-width="3"/>
<circle cx="787" cy="273" r="4.5" stroke="#FFCC6A" stroke-width="3"/>
<circle cx="787" cy="288" r="4.5" transform="rotate(90 787 288)" stroke="#FFCC6A" stroke-width="3"/>
<circle cx="772" cy="288" r="4.5" transform="rotate(90 772 288)" stroke="#FFCC6A" stroke-width="3"/>
<circle cx="772" cy="198" r="4.5" stroke="#FFCC6A" stroke-width="3"/>
<circle cx="787" cy="198" r="4.5" stroke="#FFCC6A" stroke-width="3"/>
<circle cx="787" cy="213" r="4.5" transform="rotate(90 787 213)" stroke="#FFCC6A" stroke-width="3"/>
<circle cx="772" cy="213" r="4.5" transform="rotate(90 772 213)" stroke="#FFCC6A" stroke-width="3"/>
<circle cx="772" cy="228" r="4.5" stroke="#FFCC6A" stroke-width="3"/>
<circle cx="787" cy="228" r="4.5" stroke="#FFCC6A" stroke-width="3"/>
<circle cx="787" cy="243" r="4.5" transform="rotate(90 787 243)" stroke="#FFCC6A" stroke-width="3"/>
<circle cx="772" cy="243" r="4.5" transform="rotate(90 772 243)" stroke="#FFCC6A" stroke-width="3"/>
<circle cx="787" cy="258" r="4.5" transform="rotate(90 787 258)" stroke="#FFCC6A" stroke-width="3"/>
<circle cx="772" cy="258" r="4.5" transform="rotate(90 772 258)" stroke="#FFCC6A" stroke-width="3"/>
<circle cx="772" cy="198" r="4.5" stroke="#FFCC6A" stroke-width="3"/>
<circle cx="787" cy="198" r="4.5" stroke="#FFCC6A" stroke-width="3"/>
<circle cx="787" cy="213" r="4.5" transform="rotate(90 787 213)" stroke="#FFCC6A" stroke-width="3"/>
<circle cx="772" cy="213" r="4.5" transform="rotate(90 772 213)" stroke="#FFCC6A" stroke-width="3"/>
<circle cx="779.5" cy="33.5" r="12.5" fill="#1E1E1E" stroke="#E3D2A7" stroke-width="8"/>
<circle cx="779.5" cy="374.5" r="12.5" fill="#1E1E1E" stroke="#E3D2A7" stroke-width="8"/>
<path d="M37 55.452V55.3074L74.3074 18L81.3785 25.0711L47 59.4496V375.452H37V55.452Z" fill="#063A78"/>
<circle cx="33.5" cy="33.5" r="12.5" fill="#1E1E1E" stroke="#E3D2A7" stroke-width="8"/>
<circle cx="33.5" cy="374.5" r="12.5" fill="#1E1E1E" stroke="#E3D2A7" stroke-width="8"/>
<rect x="80" y="14" width="652" height="380" fill="#00AEB9" stroke="black" stroke-width="28"/>
</svg>
