<svg width="129" height="129" viewBox="0 0 129 129" fill="none" xmlns="http://www.w3.org/2000/svg">
<rect x="9.5" y="9.5" width="110" height="110" rx="14.5" fill="black" stroke="#D9D9D9" stroke-width="3"/>
<path d="M2.66666 26H8V31.3333H2.66666V26Z" fill="#FFCC6A"/>
<path d="M0 27.7778H2.66667V29.5556H0V27.7778Z" fill="#FFDD2D"/>
<path d="M2.66666 34H8V39.3333H2.66666V34Z" fill="#FFCC6A"/>
<path d="M0 35.7778H2.66667V37.5556H0V35.7778Z" fill="#FFDD2D"/>
<path d="M2.66666 42H8V47.3333H2.66666V42Z" fill="#FFCC6A"/>
<path d="M0 43.7778H2.66667V45.5556H0V43.7778Z" fill="#FFDD2D"/>
<path d="M2.66666 50H8V55.3333H2.66666V50Z" fill="#FFCC6A"/>
<path d="M0 51.7778H2.66667V53.5556H0V51.7778Z" fill="#FFDD2D"/>
<path d="M2.66666 58H8V63.3333H2.66666V58Z" fill="#FFCC6A"/>
<path d="M0 59.7778H2.66667V61.5556H0V59.7778Z" fill="#FFDD2D"/>
<path d="M2.66666 66H8V71.3333H2.66666V66Z" fill="#FFCC6A"/>
<path d="M0 67.7778H2.66667V69.5556H0V67.7778Z" fill="#FFDD2D"/>
<path d="M2.66666 74H8V79.3333H2.66666V74Z" fill="#FFCC6A"/>
<path d="M0 75.7778H2.66667V77.5556H0V75.7778Z" fill="#FFDD2D"/>
<path d="M2.66666 82H8V87.3333H2.66666V82Z" fill="#FFCC6A"/>
<path d="M0 83.7778H2.66667V85.5556H0V83.7778Z" fill="#FFDD2D"/>
<path d="M2.66666 90H8V95.3333H2.66666V90Z" fill="#FFCC6A"/>
<path d="M0 91.7778H2.66667V93.5556H0V91.7778Z" fill="#FFDD2D"/>
<path d="M2.66666 98H8V103.333H2.66666V98Z" fill="#FFCC6A"/>
<path d="M0 99.7778H2.66667V101.556H0V99.7778Z" fill="#FFDD2D"/>
<path d="M126.333 30H121V35.3333H126.333V30Z" fill="#FFCC6A"/>
<path d="M129 31.7778H126.333V33.5556H129V31.7778Z" fill="#FFDD2D"/>
<path d="M126.333 38H121V43.3333H126.333V38Z" fill="#FFCC6A"/>
<path d="M129 39.7778H126.333V41.5556H129V39.7778Z" fill="#FFDD2D"/>
<path d="M126.333 46H121V51.3333H126.333V46Z" fill="#FFCC6A"/>
<path d="M129 47.7778H126.333V49.5556H129V47.7778Z" fill="#FFDD2D"/>
<path d="M126.333 54H121V59.3333H126.333V54Z" fill="#FFCC6A"/>
<path d="M129 55.7778H126.333V57.5556H129V55.7778Z" fill="#FFDD2D"/>
<path d="M126.333 62H121V67.3333H126.333V62Z" fill="#FFCC6A"/>
<path d="M129 63.7778H126.333V65.5556H129V63.7778Z" fill="#FFDD2D"/>
<path d="M126.333 70H121V75.3333H126.333V70Z" fill="#FFCC6A"/>
<path d="M129 71.7778H126.333V73.5556H129V71.7778Z" fill="#FFDD2D"/>
<path d="M126.333 78H121V83.3333H126.333V78Z" fill="#FFCC6A"/>
<path d="M129 79.7778H126.333V81.5556H129V79.7778Z" fill="#FFDD2D"/>
<path d="M126.333 86H121V91.3333H126.333V86Z" fill="#FFCC6A"/>
<path d="M129 87.7778H126.333V89.5556H129V87.7778Z" fill="#FFDD2D"/>
<path d="M126.333 94H121V99.3333H126.333V94Z" fill="#FFCC6A"/>
<path d="M129 95.7778H126.333V97.5556H129V95.7778Z" fill="#FFDD2D"/>
<path d="M126.333 102H121V107.333H126.333V102Z" fill="#FFCC6A"/>
<path d="M129 103.778H126.333V105.556H129V103.778Z" fill="#FFDD2D"/>
<path d="M102.333 2.66667V8H97V2.66667L102.333 2.66667Z" fill="#FFCC6A"/>
<path d="M100.556 3.22493e-06V2.66667L98.7778 2.66667V3.14722e-06L100.556 3.22493e-06Z" fill="#FFDD2D"/>
<path d="M94.3333 2.66667V8L89 8V2.66667L94.3333 2.66667Z" fill="#FFCC6A"/>
<path d="M92.5555 2.87524e-06V2.66667H90.7778V2.79753e-06L92.5555 2.87524e-06Z" fill="#FFDD2D"/>
<path d="M86.3333 2.66667V8H81V2.66667L86.3333 2.66667Z" fill="#FFCC6A"/>
<path d="M84.5555 2.52555e-06V2.66667L82.7778 2.66667V2.44784e-06L84.5555 2.52555e-06Z" fill="#FFDD2D"/>
<path d="M78.3333 2.66667V8L73 8V2.66667L78.3333 2.66667Z" fill="#FFCC6A"/>
<path d="M76.5555 2.17586e-06V2.66667H74.7778V2.09815e-06L76.5555 2.17586e-06Z" fill="#FFDD2D"/>
<path d="M70.3333 2.66667V8H65V2.66667L70.3333 2.66667Z" fill="#FFCC6A"/>
<path d="M68.5555 1.82616e-06V2.66667L66.7778 2.66667V1.74846e-06L68.5555 1.82616e-06Z" fill="#FFDD2D"/>
<path d="M62.3333 2.66667V8H57V2.66667L62.3333 2.66667Z" fill="#FFCC6A"/>
<path d="M60.5555 1.47647e-06V2.66667H58.7778V1.39876e-06L60.5555 1.47647e-06Z" fill="#FFDD2D"/>
<path d="M54.3333 2.66667V8L49 8V2.66667L54.3333 2.66667Z" fill="#FFCC6A"/>
<path d="M52.5555 1.12678e-06V2.66667L50.7778 2.66667V1.04907e-06L52.5555 1.12678e-06Z" fill="#FFDD2D"/>
<path d="M46.3333 2.66667V8L41 8V2.66666L46.3333 2.66667Z" fill="#FFCC6A"/>
<path d="M44.5555 7.77091e-07V2.66667H42.7778V6.99382e-07L44.5555 7.77091e-07Z" fill="#FFDD2D"/>
<path d="M38.3333 2.66666V8H33V2.66666L38.3333 2.66666Z" fill="#FFCC6A"/>
<path d="M36.5555 4.274e-07V2.66667L34.7778 2.66667V3.49691e-07L36.5555 4.274e-07Z" fill="#FFDD2D"/>
<path d="M30.3333 2.66666V8H25V2.66666L30.3333 2.66666Z" fill="#FFCC6A"/>
<path d="M28.5555 7.77091e-08V2.66667H26.7778V0L28.5555 7.77091e-08Z" fill="#FFDD2D"/>
<path d="M102.333 126.333V121H97V126.333H102.333Z" fill="#FFCC6A"/>
<path d="M100.556 129V126.333H98.7778V129H100.556Z" fill="#FFDD2D"/>
<path d="M94.3333 126.333V121H89V126.333H94.3333Z" fill="#FFCC6A"/>
<path d="M92.5555 129V126.333H90.7778V129H92.5555Z" fill="#FFDD2D"/>
<path d="M86.3333 126.333V121H81V126.333H86.3333Z" fill="#FFCC6A"/>
<path d="M84.5555 129V126.333H82.7778V129H84.5555Z" fill="#FFDD2D"/>
<path d="M78.3333 126.333V121H73V126.333H78.3333Z" fill="#FFCC6A"/>
<path d="M76.5555 129V126.333H74.7778V129H76.5555Z" fill="#FFDD2D"/>
<path d="M70.3333 126.333V121H65V126.333H70.3333Z" fill="#FFCC6A"/>
<path d="M68.5555 129V126.333H66.7778V129H68.5555Z" fill="#FFDD2D"/>
<path d="M62.3333 126.333V121H57V126.333H62.3333Z" fill="#FFCC6A"/>
<path d="M60.5555 129V126.333H58.7778V129H60.5555Z" fill="#FFDD2D"/>
<path d="M54.3333 126.333V121H49V126.333H54.3333Z" fill="#FFCC6A"/>
<path d="M52.5555 129V126.333H50.7778V129H52.5555Z" fill="#FFDD2D"/>
<path d="M46.3333 126.333V121H41V126.333H46.3333Z" fill="#FFCC6A"/>
<path d="M44.5555 129V126.333H42.7778V129H44.5555Z" fill="#FFDD2D"/>
<path d="M38.3333 126.333V121H33V126.333H38.3333Z" fill="#FFCC6A"/>
<path d="M36.5555 129V126.333H34.7778V129H36.5555Z" fill="#FFDD2D"/>
<path d="M30.3333 126.333V121H25V126.333H30.3333Z" fill="#FFCC6A"/>
<path d="M28.5555 129V126.333H26.7778V129H28.5555Z" fill="#FFDD2D"/>
</svg>
