<svg width="286" height="108" viewBox="0 0 286 108" fill="none" xmlns="http://www.w3.org/2000/svg">
<path d="M281.542 1.83099L286 6.2895V35.5549C284.882 36.4718 284.169 37.8639 284.169 39.4225V67.8732C284.169 69.4319 284.882 70.8239 286 71.7409V101.006L281.542 105.465H4.4585L0 101.006V71.7409C1.11782 70.8239 1.83099 69.4319 1.83099 67.8732V39.4225C1.83099 37.8639 1.11782 36.4718 0 35.5549V6.28951L4.45851 1.83099H281.542Z" fill="#2C2D2C"/>
<rect x="131.465" width="22.7042" height="1.83099" fill="#D9D9D9"/>
<rect x="131.465" width="22.7042" height="1.83099" fill="#D9D9D9"/>
<rect x="24.169" width="22.7042" height="1.83099" fill="#D9D9D9"/>
<rect x="24.169" width="22.7042" height="1.83099" fill="#D9D9D9"/>
<rect x="238.761" width="22.7042" height="1.83099" fill="#D9D9D9"/>
<rect x="238.761" width="22.7042" height="1.83099" fill="#D9D9D9"/>
<rect width="22.7042" height="1.83099" transform="matrix(1 0 0 -1 131.465 107.296)" fill="#D9D9D9"/>
<rect width="22.7042" height="1.83099" transform="matrix(1 0 0 -1 131.465 107.296)" fill="#D9D9D9"/>
<rect width="22.7042" height="1.83099" transform="matrix(1 0 0 -1 24.169 107.296)" fill="#D9D9D9"/>
<rect width="22.7042" height="1.83099" transform="matrix(1 0 0 -1 24.169 107.296)" fill="#D9D9D9"/>
<rect width="22.7042" height="1.83099" transform="matrix(1 0 0 -1 238.761 107.296)" fill="#D9D9D9"/>
<rect width="22.7042" height="1.83099" transform="matrix(1 0 0 -1 238.761 107.296)" fill="#D9D9D9"/>
<rect x="9.88733" y="7.32394" width="266.225" height="4.39437" rx="2.19718" fill="#414141"/>
<rect width="266.225" height="4.39437" rx="2.19718" transform="matrix(1 0 0 -1 9.88733 99.9718)" fill="#414141"/>
<rect x="12.4507" y="20.1408" width="261.099" height="66.6479" rx="16" fill="#36621C"/>
</svg>
