<svg width="66" height="167" viewBox="0 0 66 167" fill="none" xmlns="http://www.w3.org/2000/svg">
<path d="M0.0615234 3.30769C0.0615234 1.65083 1.40467 0.307678 3.06152 0.307678H62.0461C63.703 0.307678 65.0461 1.65082 65.0461 3.30768V163.831C65.0461 165.488 63.703 166.831 62.0461 166.831H3.06152C1.40467 166.831 0.0615234 165.488 0.0615234 163.831V3.30769Z" fill="#416FE8"/>
<path d="M20.3692 133.323H44.7384V166.831H20.3692V133.323Z" fill="#3362DB"/>
<path d="M0.0615234 27.6769C0.0615234 26.0201 1.40467 24.6769 3.06152 24.6769H62.0461C63.703 24.6769 65.0461 26.0201 65.0461 27.6769V139.462C65.0461 141.118 63.703 142.462 62.0461 142.462H3.06152C1.40467 142.462 0.0615234 141.118 0.0615234 139.462V27.6769Z" fill="#5D86F0"/>
<path d="M59.9692 57.1692C59.9692 72.3103 47.6949 84.5846 32.5538 84.5846C17.4127 84.5846 5.13845 72.3103 5.13845 57.1692C5.13845 42.0281 17.4127 29.7538 32.5538 29.7538C47.6949 29.7538 59.9692 42.0281 59.9692 57.1692Z" fill="#A3C2FF"/>
</svg>
