<?xml version="1.0" standalone="no"?>
<!DOCTYPE svg PUBLIC "-//W3C//DTD SVG 20010904//EN"
 "http://www.w3.org/TR/2001/REC-SVG-20010904/DTD/svg10.dtd">
<svg version="1.0" xmlns="http://www.w3.org/2000/svg"
 width="1484.000000pt" height="1484.000000pt" viewBox="0 0 1484.000000 1484.000000"
 preserveAspectRatio="xMidYMid meet">
<metadata>
Created by potrace 1.14, written by Peter Selinger 2001-2017
</metadata>
<g transform="translate(0.000000,1484.000000) scale(0.100000,-0.100000)"
fill="#000000" stroke="none">
<path d="M3888 11465 c-1 -2 -43 -6 -93 -10 -123 -10 -156 -13 -185 -19 -14
-2 -44 -7 -67 -10 -22 -3 -52 -7 -65 -10 -12 -3 -40 -8 -62 -11 -21 -3 -41 -7
-45 -9 -3 -2 -22 -7 -41 -10 -44 -7 -166 -34 -205 -46 -16 -5 -64 -19 -105
-31 -81 -23 -236 -74 -285 -94 -16 -7 -61 -25 -100 -40 -38 -15 -86 -35 -105
-44 -19 -9 -37 -16 -40 -16 -3 -1 -36 -16 -75 -35 -38 -19 -72 -34 -75 -35 -3
0 -9 -3 -15 -7 -5 -3 -44 -24 -85 -46 -41 -21 -92 -49 -112 -61 -21 -11 -55
-30 -75 -42 -21 -12 -45 -27 -54 -35 -8 -8 -19 -14 -23 -14 -4 0 -22 -11 -40
-25 -18 -14 -36 -25 -39 -25 -4 0 -45 -27 -91 -60 -47 -33 -87 -60 -90 -60 -3
0 -14 -8 -24 -17 -11 -10 -32 -27 -47 -38 -41 -29 -196 -153 -246 -196 -141
-122 -360 -337 -454 -445 -22 -26 -45 -51 -50 -58 -6 -6 -28 -33 -50 -61 -22
-27 -44 -55 -50 -61 -5 -7 -19 -24 -30 -40 -11 -15 -26 -33 -33 -40 -6 -7 -12
-17 -12 -22 0 -6 -3 -12 -7 -14 -24 -10 -263 -389 -263 -416 0 -6 -4 -12 -8
-14 -22 -8 -227 -470 -214 -482 3 -3 1 -6 -5 -6 -5 0 -10 -6 -10 -12 0 -7 -14
-53 -31 -103 -34 -99 -101 -360 -108 -415 -2 -19 -9 -60 -15 -90 -5 -30 -12
-68 -14 -85 -2 -16 -6 -48 -9 -70 -28 -211 -29 -622 -2 -850 5 -37 16 -115 20
-135 1 -8 6 -37 10 -65 12 -81 14 -89 20 -115 8 -35 17 -80 22 -115 2 -16 7
-39 11 -50 4 -11 8 -26 9 -34 2 -7 8 -36 15 -65 7 -28 14 -53 14 -56 1 -3 6
-23 13 -45 6 -22 13 -51 16 -65 3 -14 10 -41 17 -60 17 -49 22 -63 25 -75 1
-5 16 -48 34 -95 17 -47 32 -91 32 -97 1 -7 6 -13 11 -13 6 0 8 -3 5 -6 -5 -5
8 -40 52 -139 45 -104 165 -339 212 -418 32 -55 58 -100 58 -102 0 -3 105
-160 218 -327 14 -21 29 -38 34 -38 4 0 8 -5 8 -10 0 -9 123 -165 205 -260 74
-86 437 -440 451 -440 2 0 47 -35 101 -78 181 -144 354 -253 563 -354 164 -80
206 -98 290 -127 36 -13 74 -27 85 -31 32 -13 237 -72 260 -75 8 -1 70 -14 95
-20 7 -2 69 -14 105 -20 35 -7 86 -14 210 -31 116 -15 665 -28 689 -15 6 2 28
6 50 7 156 9 214 14 236 18 14 3 52 8 85 11 103 11 119 13 150 19 17 3 57 9
90 12 33 4 96 17 140 30 44 14 87 26 95 29 8 2 51 18 95 35 44 18 86 32 93 33
6 0 12 4 12 9 0 4 6 8 14 8 30 0 402 176 467 221 14 10 28 16 31 13 3 -2 11 2
18 11 7 8 17 15 22 15 5 0 34 16 64 35 30 19 57 35 60 35 2 0 10 5 17 10 7 6
64 44 127 86 63 42 138 94 165 115 28 21 55 42 60 46 28 21 114 91 140 114 17
15 53 47 82 72 28 25 49 48 46 51 -4 3 -2 6 4 6 16 0 193 182 272 279 18 23
72 81 120 130 47 49 124 131 171 181 131 143 248 255 257 246 1 -1 5 -45 7
-97 3 -51 7 -114 10 -139 3 -25 8 -82 11 -127 3 -46 8 -91 9 -100 2 -10 7 -47
11 -83 4 -36 9 -78 12 -95 2 -16 5 -43 7 -60 2 -16 6 -43 9 -60 4 -16 9 -46
11 -65 2 -19 7 -46 10 -60 3 -14 8 -36 10 -50 11 -63 27 -137 37 -174 6 -23
13 -50 15 -61 10 -55 29 -121 36 -129 4 -6 8 -19 8 -29 0 -17 17 -73 48 -157
3 -8 6 -19 8 -25 12 -48 147 -353 174 -395 6 -8 15 -26 20 -39 23 -53 49 -78
87 -84 21 -3 49 -8 63 -11 170 -35 453 -27 540 16 78 38 81 45 66 138 -6 34
-13 97 -21 171 -7 71 -17 165 -22 199 -2 19 -6 58 -8 85 -2 28 -7 82 -10 120
-20 226 -29 425 -29 635 0 180 9 373 18 389 2 3 6 29 10 56 3 28 13 75 21 105
9 30 18 63 20 72 2 10 22 55 45 100 44 88 97 147 152 167 18 7 42 17 53 21 36
15 119 38 175 49 86 17 101 20 145 26 22 3 51 8 65 11 14 2 45 6 70 9 94 10
167 17 215 20 74 6 2872 7 2930 1 28 -2 70 -7 95 -10 25 -3 65 -8 90 -10 266
-28 480 -89 560 -160 25 -22 87 -133 82 -148 -1 -4 2 -8 7 -8 10 0 45 -93 46
-120 0 -8 3 -19 6 -25 4 -5 10 -28 14 -50 4 -22 9 -51 11 -64 30 -159 34 -598
8 -916 -3 -33 -6 -86 -8 -118 -2 -31 -7 -82 -10 -112 -7 -65 -15 -141 -21
-208 -3 -26 -7 -68 -10 -95 -2 -26 -7 -72 -11 -102 -3 -30 -8 -68 -9 -85 -2
-16 -6 -42 -8 -56 -3 -14 -2 -30 1 -35 17 -22 133 -71 172 -72 8 0 26 -3 40
-6 30 -7 176 -8 248 -2 61 6 101 11 195 28 l69 13 84 171 c47 94 87 177 88
185 1 8 10 32 20 54 10 22 25 63 33 90 8 28 19 55 23 60 5 6 9 13 9 18 1 4 1
8 2 10 0 1 3 11 5 22 6 25 9 36 17 55 14 35 72 272 92 380 3 14 7 36 10 50 3
14 8 42 11 64 3 21 8 48 10 60 2 11 7 40 10 62 2 23 7 53 10 65 4 24 15 117
19 174 1 17 3 30 4 30 1 0 4 20 6 45 2 25 6 81 10 125 24 278 30 461 29 990 0
484 -7 814 -19 905 -2 19 -7 71 -10 115 -3 44 -8 107 -10 140 -3 33 -7 92 -10
130 -2 39 -7 93 -10 120 -3 28 -7 70 -10 95 -10 93 -17 141 -24 168 -7 23 -4
33 22 57 38 38 107 131 107 145 0 5 4 10 8 10 11 0 112 200 112 221 0 8 5 20
12 27 7 7 9 12 5 12 -4 0 -3 9 3 21 6 11 13 28 15 37 22 94 33 117 51 115 37
-5 65 8 75 34 11 30 5 46 -41 118 -15 23 -25 50 -23 65 6 42 9 344 4 354 -7
15 -9 86 -2 86 3 0 17 -9 31 -20 14 -11 28 -20 32 -20 4 0 56 -33 115 -72 59
-40 116 -74 127 -76 23 -4 56 30 56 58 0 30 -26 52 -179 152 -14 9 -31 20 -37
25 -12 9 -38 25 -103 60 -67 37 -69 40 -78 91 -4 26 -8 49 -8 52 -14 62 -28
128 -29 137 -1 7 -5 16 -9 19 -4 4 -7 16 -7 26 0 16 6 18 29 15 48 -8 154 -48
191 -73 19 -13 44 -24 56 -24 26 0 54 30 54 59 0 38 -43 68 -175 122 -26 11
-92 29 -129 35 -59 11 -72 21 -85 66 -14 48 -20 62 -81 201 -43 97 -43 102
-27 182 2 11 7 36 11 55 3 19 8 46 11 60 3 14 8 39 10 55 10 75 16 111 20 125
2 8 7 35 10 60 3 25 7 56 10 70 5 29 15 110 20 160 2 19 6 53 9 75 9 69 18
206 18 295 2 154 -18 260 -54 286 -70 53 -210 54 -388 4 -63 -17 -143 -46
-205 -74 -122 -55 -191 -90 -196 -98 -3 -5 -10 -10 -15 -10 -9 0 -72 -32 -106
-53 -9 -5 -37 -21 -62 -34 -25 -14 -46 -29 -46 -33 0 -5 -4 -7 -9 -3 -5 3 -12
1 -16 -5 -3 -6 -20 -17 -37 -26 -29 -15 -32 -14 -81 18 -78 50 -246 128 -277
128 -9 0 -20 3 -24 8 -4 4 -11 7 -14 8 -4 0 -16 4 -27 8 -44 17 -86 29 -140
41 -5 2 -34 10 -62 18 -29 9 -53 13 -53 10 0 -3 -6 -1 -12 4 -7 5 -29 10 -48
12 -19 2 -37 7 -38 12 -2 5 -8 7 -12 4 -5 -3 -30 0 -57 6 -26 5 -59 12 -73 14
-14 2 -52 8 -85 14 -69 11 -109 17 -180 26 -27 3 -63 8 -80 10 -82 11 -229 25
-325 30 -36 2 -65 5 -65 5 0 2 -121 8 -310 16 -360 13 -1108 8 -1380 -10 -159
-11 -241 -18 -247 -22 -5 -3 -8 0 -8 7 0 8 -4 8 -12 1 -7 -5 -49 -13 -93 -17
-44 -3 -93 -8 -110 -10 -16 -2 -52 -6 -80 -9 -27 -3 -59 -8 -70 -10 -11 -2
-56 -9 -100 -15 -44 -7 -87 -15 -95 -18 -8 -3 -31 -6 -50 -8 -19 -1 -57 -8
-85 -15 -27 -6 -62 -14 -78 -17 -15 -2 -89 -21 -165 -42 -75 -21 -144 -40
-152 -42 -8 -2 -17 -6 -20 -9 -7 -8 -93 -34 -102 -32 -5 1 -8 -3 -8 -8 0 -6
-7 -10 -15 -10 -20 0 -123 -52 -193 -97 l-54 -34 -49 31 c-27 16 -53 30 -58
30 -5 0 -11 4 -13 8 -7 17 -372 208 -413 216 -5 2 -26 9 -45 18 -19 8 -53 20
-75 27 -22 7 -47 15 -55 19 -8 3 -19 7 -25 8 -5 1 -12 3 -15 4 -6 2 -21 5 -95
19 -84 16 -187 7 -236 -20 -63 -35 -80 -91 -81 -264 -1 -71 2 -159 5 -195 3
-36 9 -96 12 -135 4 -38 9 -81 11 -95 3 -14 7 -44 9 -67 2 -24 6 -51 9 -60 3
-10 8 -42 11 -72 4 -30 9 -63 11 -75 3 -12 6 -32 8 -46 4 -25 24 -138 31 -175
2 -11 10 -52 18 -92 8 -39 11 -75 7 -80 -6 -7 -35 -71 -85 -188 -6 -16 -21
-57 -32 -90 -22 -65 -36 -75 -127 -89 -21 -4 -43 -9 -50 -13 -6 -4 -19 -9 -28
-10 -42 -7 -150 -66 -160 -89 -26 -57 36 -104 90 -68 15 10 29 19 32 19 3 0
10 3 15 7 13 8 144 48 157 48 10 0 9 -10 -5 -65 -17 -65 -29 -124 -33 -155 -3
-19 -6 -44 -9 -55 -2 -11 -4 -26 -4 -33 -1 -7 -11 -17 -23 -23 -13 -5 -32 -15
-43 -22 -60 -36 -101 -62 -111 -72 -7 -5 -35 -30 -63 -55 -56 -49 -66 -83 -31
-115 24 -21 64 -14 95 18 26 28 131 107 142 107 4 0 7 -94 7 -210 l-2 -210
-30 -37 c-41 -52 -102 -165 -102 -190 0 -11 8 -27 18 -36 39 -35 77 -14 117
65 20 39 31 36 37 -13 2 -13 6 -28 10 -34 3 -5 9 -26 13 -45 3 -19 18 -65 32
-102 13 -37 23 -69 21 -70 -1 -2 7 -18 20 -35 13 -18 20 -33 16 -33 -4 0 -1
-8 7 -17 8 -10 21 -31 29 -48 15 -33 111 -166 140 -195 16 -16 18 -33 14 -152
-2 -73 -5 -143 -8 -154 -4 -21 -14 -155 -21 -294 -9 -171 -18 -369 -18 -408 0
-43 -1 -43 -71 -85 -39 -23 -99 -61 -134 -84 -35 -24 -67 -43 -73 -43 -5 0 -9
-4 -9 -8 0 -4 -15 -16 -32 -27 -18 -10 -37 -24 -41 -32 -4 -7 -14 -13 -22 -13
-7 0 -15 -3 -17 -7 -1 -5 -39 -35 -82 -68 -43 -33 -84 -64 -90 -70 -6 -5 -32
-27 -57 -47 -74 -60 -224 -215 -291 -303 -12 -16 -28 -34 -34 -40 -7 -5 -31
-32 -54 -60 -131 -156 -219 -253 -350 -384 -168 -169 -325 -303 -495 -423 -44
-31 -85 -62 -92 -67 -7 -6 -15 -11 -18 -11 -4 0 -21 -11 -39 -25 -18 -14 -38
-25 -44 -25 -7 0 -12 -4 -12 -10 0 -5 -11 -12 -25 -16 -14 -3 -25 -10 -25 -14
0 -4 -8 -10 -17 -13 -10 -4 -36 -17 -58 -30 -102 -60 -326 -167 -350 -167 -8
0 -15 -5 -15 -10 0 -6 -3 -9 -7 -9 -5 1 -10 0 -13 -1 -3 -1 -12 -3 -20 -6 -8
-2 -53 -17 -100 -33 -85 -30 -256 -77 -314 -86 -17 -3 -56 -10 -86 -15 -30 -5
-74 -12 -97 -14 -22 -2 -46 -7 -52 -10 -6 -4 -11 -3 -11 3 0 7 -8 7 -22 2 -23
-8 -321 -6 -388 2 -108 15 -127 17 -150 22 -14 3 -38 8 -55 11 -68 12 -183 44
-260 71 -22 8 -42 15 -45 15 -11 1 -169 62 -197 77 -10 5 -54 26 -98 48 -125
62 -337 189 -355 212 -3 4 -21 18 -40 31 -19 13 -37 27 -40 30 -3 3 -15 13
-27 21 -61 42 -395 359 -378 359 2 0 -6 11 -18 24 -30 32 -64 73 -95 115 -15
20 -30 38 -33 41 -3 3 -26 34 -50 70 -24 36 -47 67 -51 68 -5 2 -8 8 -8 13 0
5 -16 32 -35 59 -19 27 -35 52 -35 55 0 2 -17 33 -38 67 -66 109 -205 402
-227 481 -2 4 -4 9 -5 12 -1 3 -3 8 -5 13 -1 4 -7 21 -14 37 -11 24 -41 115
-46 135 0 3 -9 32 -19 64 -18 62 -51 190 -61 241 -3 17 -8 39 -10 50 -15 76
-25 138 -40 260 -21 174 -21 514 1 616 2 13 6 42 8 64 4 38 19 130 30 185 3
14 15 61 26 105 12 44 23 87 25 95 8 40 69 208 100 279 19 44 35 84 35 89 0 6
3 12 8 14 4 2 26 42 50 89 79 160 216 362 356 524 66 77 287 299 352 355 23
19 63 53 89 75 26 22 55 47 64 55 9 8 35 28 56 45 22 16 45 34 51 40 6 5 22
17 34 25 13 8 35 24 49 36 32 25 159 115 182 129 9 6 45 28 80 49 86 53 233
129 311 161 35 15 77 33 93 40 83 37 338 110 445 129 19 3 46 8 60 11 14 3 41
7 60 10 19 3 46 7 60 10 126 25 736 26 857 1 12 -3 48 -7 80 -11 32 -3 67 -8
78 -10 11 -3 37 -7 58 -10 20 -3 54 -8 75 -11 37 -6 355 -69 402 -80 14 -3 30
-7 35 -8 6 -1 16 -5 23 -9 6 -5 12 -6 12 -4 0 3 76 -14 169 -38 230 -58 286
-55 401 19 155 98 219 361 124 508 -13 21 -24 40 -24 42 0 23 -186 188 -230
204 -8 3 -17 8 -20 12 -10 14 -229 109 -272 119 -4 1 -13 3 -20 6 -17 6 -120
34 -144 40 -11 3 -46 12 -79 20 -33 9 -71 18 -85 21 -14 3 -34 8 -45 11 -11 4
-24 8 -30 9 -16 3 -58 13 -85 18 -14 3 -50 10 -80 16 -30 6 -66 12 -80 15 -13
3 -40 7 -60 10 -19 3 -53 7 -75 11 -44 6 -115 13 -186 18 -26 2 -50 5 -55 8
-10 6 -510 9 -516 3z m8852 -1033 c38 -25 45 -33 62 -77 36 -93 -32 -197 -130
-198 -26 0 -54 2 -62 4 -20 5 -74 59 -85 84 -54 131 96 262 215 187z m-4045 8
c3 -6 13 -10 21 -10 36 0 86 -90 80 -142 -12 -87 -59 -132 -143 -137 -69 -4
-124 35 -148 105 -23 68 22 161 87 181 45 13 96 14 103 3z m3465 -483 c19 -3
35 -6 35 -7 0 -1 9 -3 20 -5 98 -14 278 -75 405 -138 61 -30 219 -124 230
-137 3 -3 23 -19 45 -35 96 -71 295 -290 295 -325 0 -5 4 -10 9 -10 5 0 30
-42 55 -92 39 -80 49 -102 61 -138 1 -3 5 -12 8 -20 4 -8 8 -24 10 -35 1 -11
5 -24 8 -30 13 -25 18 -241 7 -300 -11 -56 -32 -120 -43 -127 -5 -4 -6 -8 -2
-8 13 0 -58 -125 -107 -188 -49 -63 -129 -146 -173 -180 -85 -66 -125 -93
-191 -130 -41 -23 -76 -42 -78 -42 -2 0 -32 -13 -66 -29 -62 -28 -209 -78
-256 -87 -13 -3 -49 -11 -79 -19 -31 -8 -60 -12 -64 -9 -5 3 -15 2 -21 -3 -7
-4 -29 -9 -48 -11 -27 -2 -708 -8 -1475 -13 -5 0 -19 0 -30 1 -11 1 -45 1 -75
1 -30 0 -62 0 -70 0 -8 0 -58 0 -110 0 -52 0 -102 0 -110 0 -8 0 -91 0 -185 0
-93 0 -177 0 -185 0 -8 0 -253 -1 -545 -1 -457 -2 -541 1 -608 15 -103 21
-236 60 -317 92 -73 29 -235 110 -253 127 -7 6 -34 27 -62 46 -59 41 -151 130
-191 185 -16 22 -32 42 -35 45 -8 6 -82 154 -97 195 -52 137 -62 384 -21 493
5 13 7 27 4 32 -3 5 -1 11 4 14 5 3 12 18 16 33 3 15 17 52 31 81 13 29 24 55
24 58 0 12 95 152 139 204 25 31 72 78 104 105 33 28 64 55 71 60 6 6 34 25
61 42 28 18 55 36 60 40 19 16 200 102 228 108 15 4 27 11 27 16 0 5 3 8 8 7
10 -2 73 13 92 22 17 9 92 30 130 36 14 3 33 7 42 10 9 3 27 7 40 10 13 2 34
6 48 9 14 3 43 8 65 10 22 3 51 8 65 10 14 2 63 7 110 10 47 4 86 7 87 8 4 5
2823 -2 2853 -6z"/>
<path d="M10912 9793 c-33 -6 -73 -62 -94 -134 -40 -131 -100 -326 -117 -379
-10 -30 -33 -104 -51 -165 -17 -60 -34 -117 -37 -125 -4 -8 -7 -19 -9 -25 -1
-5 -21 -71 -44 -145 -23 -74 -43 -139 -45 -145 -1 -5 -5 -17 -8 -25 -7 -20
-28 -88 -31 -103 -2 -7 -6 -19 -9 -27 -9 -23 -27 -84 -27 -90 1 -3 -9 -32 -20
-65 -12 -33 -23 -69 -26 -80 -2 -11 -8 -31 -13 -45 -9 -22 -58 -180 -68 -220
-3 -8 -4 -33 -4 -55 0 -34 6 -45 37 -72 21 -18 44 -33 53 -34 9 0 26 -2 39 -3
12 -2 22 1 22 6 0 4 6 8 13 8 24 1 55 37 70 81 8 24 25 78 37 119 13 41 34
111 48 155 14 44 27 85 28 90 2 6 5 19 8 30 2 11 12 40 21 65 9 25 18 52 20
61 2 9 15 54 30 100 15 46 28 89 29 94 3 15 56 187 66 215 5 14 25 79 45 145
20 66 57 185 83 265 25 80 47 151 48 158 1 6 15 51 30 100 38 119 38 173 -1
212 -30 29 -74 41 -123 33z"/>
<path d="M9665 9635 c-16 -8 -41 -28 -55 -46 -14 -17 -35 -42 -47 -55 -13 -13
-23 -26 -23 -29 0 -5 -34 -46 -70 -85 -8 -8 -28 -34 -45 -55 -16 -22 -39 -51
-51 -65 -13 -14 -48 -56 -79 -95 -31 -38 -71 -87 -88 -109 -131 -158 -139
-171 -139 -216 1 -40 30 -85 166 -256 23 -28 52 -66 66 -84 14 -18 31 -39 38
-46 6 -7 12 -17 12 -23 0 -6 3 -11 8 -11 4 0 32 -33 62 -72 30 -40 59 -78 65
-84 5 -6 21 -26 35 -44 121 -162 133 -172 194 -175 66 -4 125 52 120 113 -1
12 -2 30 -3 40 0 10 -9 27 -19 38 -10 10 -29 35 -42 54 -13 19 -32 44 -42 54
-10 11 -51 63 -90 115 -40 53 -78 102 -85 109 -7 7 -39 48 -70 90 -32 42 -65
84 -75 93 -10 9 -18 21 -18 26 0 6 -9 18 -20 28 -28 25 -25 44 13 87 17 20 61
73 97 118 36 45 72 90 82 101 9 11 31 38 50 61 18 23 38 46 43 52 55 58 175
221 176 239 5 67 -15 115 -52 124 -10 3 -19 8 -19 12 0 13 -65 10 -95 -4z"/>
<path d="M11525 9615 c-58 -58 -50 -121 26 -205 17 -19 43 -51 58 -70 14 -19
28 -37 31 -40 5 -4 175 -211 250 -303 8 -10 25 -31 38 -45 57 -65 57 -67 21
-114 -18 -24 -38 -47 -44 -53 -6 -5 -25 -31 -43 -57 -18 -25 -38 -52 -44 -60
-7 -7 -42 -51 -78 -98 -35 -47 -91 -119 -125 -161 -33 -42 -67 -86 -75 -99 -8
-12 -23 -31 -33 -43 -12 -14 -17 -35 -16 -66 2 -38 9 -53 38 -82 31 -32 41
-36 77 -34 23 2 51 8 62 14 12 6 58 59 103 119 46 59 89 114 96 122 8 8 46 58
85 110 40 52 77 100 83 106 5 6 19 23 30 39 11 15 38 51 61 79 130 163 133
169 125 253 -1 6 -35 53 -77 105 -42 51 -90 110 -108 132 -17 21 -36 43 -41
50 -10 11 -89 107 -115 139 -8 11 -20 24 -25 31 -6 6 -44 52 -84 101 -40 50
-78 92 -82 93 -5 2 -9 9 -9 15 0 23 -65 57 -108 57 -34 0 -48 -6 -77 -35z"/>
</g>
</svg>
