<svg width="89" height="185" viewBox="0 0 89 185" fill="none" xmlns="http://www.w3.org/2000/svg">
<path d="M3 3V94.5L55 146.5V167" stroke="#BD5EC7" stroke-width="2"/>
<path d="M20 31.5V86.5L72 138.5V159" stroke="#BD5EC7" stroke-width="2"/>
<circle cx="3" cy="3" r="2.5" fill="#84FF7A" stroke="#BD5EC7"/>
<circle cx="20" cy="32" r="2.5" fill="#84FF7A" stroke="#BD5EC7"/>
<rect x="39" y="156" width="50" height="29" rx="4" fill="#D9D9D9"/>
<path d="M50.4485 177.17C49.6325 177.17 48.9072 177.057 48.2725 176.83C47.6378 176.603 47.0315 176.229 46.4535 175.708C46.3288 175.617 46.2325 175.51 46.1645 175.385C46.1078 175.249 46.0795 175.113 46.0795 174.977C46.0795 174.762 46.1588 174.569 46.3175 174.399C46.4762 174.229 46.6745 174.144 46.9125 174.144C47.0938 174.144 47.2638 174.206 47.4225 174.331C47.8532 174.728 48.3008 175.028 48.7655 175.232C49.2415 175.436 49.7968 175.538 50.4315 175.538C50.8848 175.538 51.2985 175.464 51.6725 175.317C52.0578 175.17 52.3638 174.971 52.5905 174.722C52.8172 174.473 52.9305 174.184 52.9305 173.855C52.9305 173.447 52.8115 173.113 52.5735 172.852C52.3468 172.58 52.0125 172.359 51.5705 172.189C51.1398 172.008 50.6185 171.855 50.0065 171.73C49.4398 171.628 48.9298 171.486 48.4765 171.305C48.0345 171.124 47.6548 170.897 47.3375 170.625C47.0202 170.342 46.7765 170.007 46.6065 169.622C46.4365 169.237 46.3515 168.789 46.3515 168.279C46.3515 167.588 46.5328 166.993 46.8955 166.494C47.2582 165.995 47.7512 165.61 48.3745 165.338C48.9978 165.066 49.7005 164.93 50.4825 164.93C51.1965 164.93 51.8652 165.043 52.4885 165.27C53.1118 165.485 53.6162 165.78 54.0015 166.154C54.2735 166.392 54.4095 166.647 54.4095 166.919C54.4095 167.123 54.3245 167.316 54.1545 167.497C53.9958 167.667 53.8088 167.752 53.5935 167.752C53.4348 167.752 53.2988 167.707 53.1855 167.616C53.0042 167.423 52.7605 167.253 52.4545 167.106C52.1485 166.947 51.8198 166.817 51.4685 166.715C51.1285 166.613 50.7998 166.562 50.4825 166.562C49.9725 166.562 49.5362 166.636 49.1735 166.783C48.8108 166.919 48.5332 167.112 48.3405 167.361C48.1478 167.599 48.0515 167.882 48.0515 168.211C48.0515 168.596 48.1592 168.914 48.3745 169.163C48.6012 169.412 48.9128 169.616 49.3095 169.775C49.7062 169.922 50.1595 170.058 50.6695 170.183C51.2928 170.319 51.8482 170.472 52.3355 170.642C52.8342 170.812 53.2535 171.033 53.5935 171.305C53.9335 171.566 54.1942 171.894 54.3755 172.291C54.5568 172.688 54.6475 173.181 54.6475 173.77C54.6475 174.45 54.4548 175.045 54.0695 175.555C53.6842 176.065 53.1742 176.462 52.5395 176.745C51.9162 177.028 51.2192 177.17 50.4485 177.17ZM65.1868 165.78C65.4362 165.905 65.5778 166.097 65.6118 166.358C65.6572 166.619 65.5948 166.857 65.4248 167.072C65.3002 167.242 65.1358 167.338 64.9318 167.361C64.7392 167.384 64.5465 167.344 64.3538 167.242C64.0252 167.072 63.6795 166.936 63.3168 166.834C62.9542 166.732 62.5688 166.681 62.1608 166.681C61.5148 166.681 60.9312 166.789 60.4098 167.004C59.8998 167.208 59.4578 167.508 59.0838 167.905C58.7098 168.29 58.4208 168.749 58.2168 169.282C58.0242 169.815 57.9278 170.404 57.9278 171.05C57.9278 171.764 58.0355 172.399 58.2508 172.954C58.4662 173.498 58.7608 173.963 59.1348 174.348C59.5202 174.722 59.9678 175.005 60.4778 175.198C60.9992 175.379 61.5602 175.47 62.1608 175.47C62.5462 175.47 62.9202 175.425 63.2828 175.334C63.6568 175.243 64.0082 175.107 64.3368 174.926C64.5408 174.824 64.7392 174.79 64.9318 174.824C65.1358 174.847 65.3002 174.943 65.4248 175.113C65.6175 175.351 65.6855 175.595 65.6288 175.844C65.5835 176.082 65.4418 176.263 65.2038 176.388C64.9205 176.547 64.6088 176.683 64.2688 176.796C63.9288 176.909 63.5832 177 63.2318 177.068C62.8805 177.136 62.5235 177.17 62.1608 177.17C61.3448 177.17 60.5742 177.034 59.8488 176.762C59.1235 176.49 58.4775 176.093 57.9108 175.572C57.3442 175.051 56.8965 174.41 56.5678 173.651C56.2505 172.892 56.0918 172.025 56.0918 171.05C56.0918 170.177 56.2392 169.373 56.5338 168.636C56.8398 167.888 57.2648 167.248 57.8088 166.715C58.3642 166.171 59.0102 165.752 59.7468 165.457C60.4835 165.151 61.2882 164.998 62.1608 164.998C62.7048 164.998 63.2318 165.066 63.7418 165.202C64.2632 165.338 64.7448 165.531 65.1868 165.78ZM71.7955 167.31L67.9705 176.49C67.9025 176.671 67.8005 176.813 67.6645 176.915C67.5285 177.017 67.3755 177.068 67.2055 177.068C66.9561 177.068 66.7691 177 66.6445 176.864C66.5198 176.717 66.4518 176.535 66.4405 176.32C66.4405 176.241 66.4575 176.15 66.4915 176.048L70.8095 165.61C70.8888 165.417 71.0021 165.27 71.1495 165.168C71.3081 165.066 71.4781 165.021 71.6595 165.032C71.8295 165.032 71.9881 165.083 72.1355 165.185C72.2828 165.287 72.3905 165.429 72.4585 165.61L76.7255 175.895C76.7708 176.008 76.7935 176.122 76.7935 176.235C76.7935 176.484 76.7085 176.688 76.5385 176.847C76.3798 176.994 76.1985 177.068 75.9945 177.068C75.8245 177.068 75.6658 177.017 75.5185 176.915C75.3825 176.802 75.2805 176.66 75.2125 176.49L71.3535 167.361L71.7955 167.31ZM68.6505 174.076L69.4155 172.444H74.2265L74.5155 174.076H68.6505ZM81.0537 177C80.793 177 80.5777 176.921 80.4077 176.762C80.2377 176.592 80.1527 176.382 80.1527 176.133V167.021L80.3737 167.327L78.7927 168.432C78.6567 168.545 78.4924 168.602 78.2997 168.602C78.073 168.602 77.869 168.517 77.6877 168.347C77.5177 168.166 77.4327 167.956 77.4327 167.718C77.4327 167.423 77.58 167.18 77.8747 166.987L80.4587 165.27C80.5607 165.202 80.6684 165.157 80.7817 165.134C80.9064 165.111 81.0197 165.1 81.1217 165.1C81.3824 165.1 81.592 165.185 81.7507 165.355C81.9094 165.514 81.9887 165.718 81.9887 165.967V176.133C81.9887 176.382 81.898 176.592 81.7167 176.762C81.5467 176.921 81.3257 177 81.0537 177Z" fill="black"/>
</svg>
