<svg width="240" height="150" viewBox="0 0 240 150" fill="none" xmlns="http://www.w3.org/2000/svg">
<g id="sd reader buttom">
<rect id="Rectangle 576" x="239.399" y="149.447" width="239.114" height="149.447" transform="rotate(-180 239.399 149.447)" fill="#035E79"/>
<g id="Group 37">
<rect id="Rectangle 586" x="232.757" y="119.004" width="22.1402" height="11.0701" rx="5.53506" transform="rotate(-180 232.757 119.004)" fill="#42474B"/>
<circle id="Ellipse 79" cx="227.222" cy="113.469" r="2.21402" transform="rotate(-180 227.222 113.469)" fill="#D9D9D9"/>
<circle id="Ellipse 80" cx="216.151" cy="113.469" r="2.21402" transform="rotate(-180 216.151 113.469)" fill="#D9D9D9"/>
</g>
<g id="Group 38">
<rect id="Rectangle 586_2" x="232.757" y="104.059" width="22.1402" height="11.0701" rx="5.53506" transform="rotate(-180 232.757 104.059)" fill="#42474B"/>
<circle id="Ellipse 79_2" cx="227.222" cy="98.524" r="2.21402" transform="rotate(-180 227.222 98.524)" fill="#D9D9D9"/>
<circle id="Ellipse 80_2" cx="216.151" cy="98.524" r="2.21402" transform="rotate(-180 216.151 98.524)" fill="#D9D9D9"/>
</g>
<g id="Group 39">
<rect id="Rectangle 586_3" x="232.757" y="89.1144" width="22.1402" height="11.0701" rx="5.53506" transform="rotate(-180 232.757 89.1144)" fill="#42474B"/>
<circle id="Ellipse 79_3" cx="227.222" cy="83.5794" r="2.21402" transform="rotate(-180 227.222 83.5794)" fill="#D9D9D9"/>
<circle id="Ellipse 80_3" cx="216.151" cy="83.5794" r="2.21402" transform="rotate(-180 216.151 83.5794)" fill="#D9D9D9"/>
</g>
<g id="Group 40">
<rect id="Rectangle 586_4" x="232.757" y="74.1697" width="22.1402" height="11.0701" rx="5.53506" transform="rotate(-180 232.757 74.1697)" fill="#42474B"/>
<circle id="Ellipse 79_4" cx="227.222" cy="68.6347" r="2.21402" transform="rotate(-180 227.222 68.6347)" fill="#D9D9D9"/>
<circle id="Ellipse 80_4" cx="216.151" cy="68.6347" r="2.21402" transform="rotate(-180 216.151 68.6347)" fill="#D9D9D9"/>
</g>
<g id="Group 41">
<rect id="Rectangle 586_5" x="232.757" y="59.2251" width="22.1402" height="11.0701" rx="5.53506" transform="rotate(-180 232.757 59.2251)" fill="#42474B"/>
<circle id="Ellipse 79_5" cx="227.222" cy="53.69" r="2.21402" transform="rotate(-180 227.222 53.69)" fill="#D9D9D9"/>
<circle id="Ellipse 80_5" cx="216.151" cy="53.69" r="2.21402" transform="rotate(-180 216.151 53.69)" fill="#D9D9D9"/>
</g>
<g id="Group 42">
<rect id="Rectangle 586_6" x="232.757" y="44.2805" width="22.1402" height="11.0701" rx="5.53506" transform="rotate(-180 232.757 44.2805)" fill="#42474B"/>
<circle id="Ellipse 79_6" cx="227.222" cy="38.7454" r="2.21402" transform="rotate(-180 227.222 38.7454)" fill="#D9D9D9"/>
<circle id="Ellipse 80_6" cx="216.151" cy="38.7454" r="2.21402" transform="rotate(-180 216.151 38.7454)" fill="#D9D9D9"/>
</g>
<g id="Group 43">
<rect id="Rectangle 586_7" x="232.757" y="29.3358" width="22.1402" height="11.0701" rx="5.53506" transform="rotate(-180 232.757 29.3358)" fill="#42474B"/>
<circle id="Ellipse 79_7" cx="227.222" cy="23.8007" r="2.21402" transform="rotate(-180 227.222 23.8007)" fill="#D9D9D9"/>
<circle id="Ellipse 80_7" cx="216.151" cy="23.8007" r="2.21402" transform="rotate(-180 216.151 23.8007)" fill="#D9D9D9"/>
</g>
<g id="Group 44">
<rect id="Rectangle 586_8" x="232.757" y="133.948" width="22.1402" height="11.0701" rx="5.53506" transform="rotate(-180 232.757 133.948)" fill="#42474B"/>
<circle id="Ellipse 79_8" cx="227.222" cy="128.413" r="2.21402" transform="rotate(-180 227.222 128.413)" fill="#D9D9D9"/>
<circle id="Ellipse 80_8" cx="216.151" cy="128.413" r="2.21402" transform="rotate(-180 216.151 128.413)" fill="#D9D9D9"/>
</g>
<rect id="Rectangle 587" x="187.923" y="110.148" width="32.6568" height="17.7122" rx="2" transform="rotate(-180 187.923 110.148)" fill="#464A4D"/>
<rect id="Rectangle 588" x="185.708" y="120.664" width="4.42805" height="10.5166" rx="1" transform="rotate(-180 185.708 120.664)" fill="#D9D9D9"/>
<rect id="Rectangle 589" x="161.908" y="120.664" width="4.42805" height="10.5166" rx="1" transform="rotate(-180 161.908 120.664)" fill="#D9D9D9"/>
<rect id="Rectangle 590" x="173.531" y="120.664" width="4.42805" height="10.5166" rx="1" transform="rotate(-180 173.531 120.664)" fill="#D9D9D9"/>
<path id="Rectangle 591" d="M180.174 91.4355C180.174 91.9878 179.726 92.4355 179.174 92.4355L163.461 92.4355C162.909 92.4355 162.461 91.9878 162.461 91.4355L162.461 88.5609L180.174 88.5609L180.174 91.4355Z" fill="#D9D9D9"/>
<path id="Rectangle 592" d="M180.174 88.5609L162.461 88.5609L162.461 81.8118C162.461 81.2595 162.909 80.8118 163.461 80.8118L179.174 80.8118C179.726 80.8118 180.174 81.2595 180.174 81.8118L180.174 88.5609Z" fill="#C5C5C5"/>
<g id="Group 45">
<rect id="Rectangle 593" x="184.048" y="142.805" width="10.5166" height="6.08856" rx="1" transform="rotate(-180 184.048 142.805)" fill="#D9D9D9"/>
<rect id="Rectangle 594" x="181.281" y="142.805" width="4.98155" height="6.08856" transform="rotate(-180 181.281 142.805)" fill="#E2D8B4"/>
</g>
<g id="Group 46">
<rect id="Rectangle 593_2" x="184.048" y="133.948" width="10.5166" height="6.08856" rx="1" transform="rotate(-180 184.048 133.948)" fill="#D9D9D9"/>
<rect id="Rectangle 594_2" x="181.281" y="133.948" width="4.98155" height="6.08856" transform="rotate(-180 181.281 133.948)" fill="#E2D8B4"/>
</g>
<g id="Group 47">
<rect id="Rectangle 593_3" x="185.708" y="69.1882" width="10.5166" height="6.08856" rx="1" transform="rotate(-180 185.708 69.1882)" fill="#D9D9D9"/>
<rect id="Rectangle 594_3" x="182.941" y="69.1882" width="4.98155" height="6.08856" transform="rotate(-180 182.941 69.1882)" fill="#E2D8B4"/>
</g>
<g id="Group 48">
<rect id="Rectangle 593_4" x="185.708" y="58.1181" width="10.5166" height="6.08856" rx="1" transform="rotate(-180 185.708 58.1181)" fill="#D9D9D9"/>
<rect id="Rectangle 594_4" x="182.941" y="58.1181" width="4.98155" height="6.08856" transform="rotate(-180 182.941 58.1181)" fill="#E2D8B4"/>
</g>
<g id="Group 49">
<rect id="Rectangle 595" x="185.155" y="47.048" width="9.4096" height="6.08856" transform="rotate(-180 185.155 47.048)" fill="#D9D9D9"/>
<rect id="Rectangle 596" x="183.495" y="45.941" width="6.08856" height="3.87454" transform="rotate(-180 183.495 45.941)" fill="#5E5E5E"/>
</g>
<g id="Group 50">
<rect id="Rectangle 597" x="185.155" y="35.9778" width="9.4096" height="6.08856" transform="rotate(-180 185.155 35.9778)" fill="#D9D9D9"/>
<rect id="Rectangle 598" x="183.495" y="34.8708" width="6.08856" height="3.87454" transform="rotate(-180 183.495 34.8708)" fill="#5E5E5E"/>
</g>
<g id="Group 51">
<rect id="Rectangle 597_2" x="185.155" y="24.9078" width="9.4096" height="6.08856" transform="rotate(-180 185.155 24.9078)" fill="#D9D9D9"/>
<rect id="Rectangle 598_2" x="183.495" y="23.8007" width="6.08856" height="3.87454" transform="rotate(-180 183.495 23.8007)" fill="#5E5E5E"/>
</g>
<g id="Group 50_2">
<rect id="Rectangle 597_3" x="185.155" y="13.8376" width="9.4096" height="6.08856" transform="rotate(-180 185.155 13.8376)" fill="#D9D9D9"/>
<rect id="Rectangle 598_3" x="183.495" y="12.7307" width="6.08856" height="3.87454" transform="rotate(-180 183.495 12.7307)" fill="#5E5E5E"/>
</g>
</g>
</svg>
