<svg width="152" height="150" viewBox="0 0 152 150" fill="none" xmlns="http://www.w3.org/2000/svg">
<g id="SD reader top">
<path id="Subtract" d="M9.15527e-05 149.447L151.661 149.447L151.661 6.10352e-05L0.000104618 4.77766e-05L0.000102912 19.5063C28.7616 21.4951 51.4761 45.4566 51.4761 74.7233C51.4761 103.99 28.7616 127.952 9.3258e-05 129.94L9.15527e-05 149.447Z" fill="#E4DDCB"/>
<path id="Union" fill-rule="evenodd" clip-rule="evenodd" d="M16.0518 149.447L4.42814 149.447L4.42814 146.363C4.42808 146.357 4.42805 146.352 4.42805 146.347C4.42805 146.342 4.42808 146.336 4.42814 146.331L4.42814 145.904L4.50362 145.904C4.68598 145.388 5.17805 145.018 5.75646 145.018L6.42067 145.018C6.99908 145.018 7.49115 145.388 7.6735 145.904L12.8062 145.904C12.9886 145.388 13.4806 145.018 14.059 145.018L14.7233 145.018C15.3017 145.018 15.7937 145.388 15.9761 145.904L16.0518 145.904L16.0518 149.447Z" fill="#4D4D4D"/>
<path id="Union_2" fill-rule="evenodd" clip-rule="evenodd" d="M16.0518 0L4.42814 -1.01617e-06L4.42814 3.08375C4.42808 3.08905 4.42805 3.09435 4.42805 3.09967C4.42805 3.10498 4.42808 3.11029 4.42814 3.11559L4.42814 3.54244L4.50362 3.54244C4.68597 4.05841 5.17804 4.42808 5.75646 4.42808L6.42067 4.42808C6.99908 4.42808 7.49115 4.05841 7.6735 3.54244L12.8062 3.54244C12.9886 4.05841 13.4806 4.42808 14.059 4.42808L14.7233 4.42808C15.3017 4.42808 15.7937 4.05841 15.9761 3.54244L16.0518 3.54244L16.0518 0Z" fill="#4D4D4D"/>
<rect id="Rectangle 582" x="104.059" y="18.2657" width="38.1919" height="5.53506" rx="2" transform="rotate(-180 104.059 18.2657)" fill="#404040"/>
<path id="Rectangle 583" d="M107.934 0.214112C107.934 1.31868 107.038 2.21411 105.934 2.21411L67.3137 2.21411C66.2091 2.21411 65.3137 1.31868 65.3137 0.214108L65.3137 8.49658e-05L107.934 8.86917e-05L107.934 0.214112Z" fill="#404040"/>
<path id="Union_3" fill-rule="evenodd" clip-rule="evenodd" d="M38.7454 150L75.8303 150L75.8303 148.34L48.155 144.465L45.1108 148.34L39.2989 148.34L39.2989 137.823L74.8303 137.823C75.3826 137.823 75.8303 137.375 75.8303 136.823L75.8303 135.502C75.8303 134.95 75.3826 134.502 74.8303 134.502L35.8709 134.502C35.3186 134.502 34.8709 134.95 34.8709 135.502L34.8709 136.823L34.8709 149C34.8709 149.552 35.3186 150 35.8709 150L38.2989 150C38.4594 150 38.611 149.962 38.7454 149.895L38.7454 150Z" fill="#2C2C2C"/>
<circle id="Ellipse 78" cx="87.1773" cy="10.7934" r="3.7048" transform="rotate(-180 87.1773 10.7934)" stroke="#E4DDCB" stroke-width="2"/>
</g>
</svg>
