<svg width="253" height="150" viewBox="0 0 253 150" fill="none" xmlns="http://www.w3.org/2000/svg">
<rect x="252.399" y="149.447" width="239.114" height="149.447" transform="rotate(-180 252.399 149.447)" fill="#035E79"/>
<path d="M9.15527e-05 149.447L151.661 149.447L151.661 6.10352e-05L0.000104618 4.77766e-05L0.000102912 19.5063C28.7616 21.4951 51.4761 45.4566 51.4761 74.7233C51.4761 103.99 28.7616 127.952 9.3258e-05 129.94L9.15527e-05 149.447Z" fill="#E4DDCB"/>
<path fill-rule="evenodd" clip-rule="evenodd" d="M16.0518 149.447L4.42814 149.447L4.42814 146.363C4.42808 146.358 4.42805 146.352 4.42805 146.347C4.42805 146.342 4.42808 146.336 4.42814 146.331L4.42814 145.904L4.50362 145.904C4.68598 145.388 5.17805 145.019 5.75646 145.019L6.42067 145.019C6.99908 145.019 7.49115 145.388 7.6735 145.904L12.8062 145.904C12.9886 145.388 13.4806 145.019 14.059 145.019L14.7233 145.019C15.3017 145.019 15.7937 145.388 15.9761 145.904L16.0518 145.904L16.0518 149.447Z" fill="#4D4D4D"/>
<path fill-rule="evenodd" clip-rule="evenodd" d="M16.0518 0L4.42814 -1.01617e-06L4.42814 3.08375C4.42808 3.08905 4.42805 3.09435 4.42805 3.09967C4.42805 3.10498 4.42808 3.11029 4.42814 3.11559L4.42814 3.54244L4.50362 3.54244C4.68597 4.05841 5.17804 4.42808 5.75646 4.42808L6.42067 4.42808C6.99908 4.42808 7.49115 4.05841 7.6735 3.54244L12.8062 3.54244C12.9886 4.05841 13.4806 4.42808 14.059 4.42808L14.7233 4.42808C15.3017 4.42808 15.7937 4.05841 15.9761 3.54244L16.0518 3.54244L16.0518 0Z" fill="#4D4D4D"/>
<rect x="104.059" y="18.2657" width="38.1919" height="5.53506" rx="2" transform="rotate(-180 104.059 18.2657)" fill="#404040"/>
<path d="M107.934 0.214112C107.934 1.31868 107.038 2.21411 105.934 2.21411L67.3137 2.21411C66.2091 2.21411 65.3137 1.31868 65.3137 0.214108L65.3137 8.49658e-05L107.934 8.86917e-05L107.934 0.214112Z" fill="#404040"/>
<path fill-rule="evenodd" clip-rule="evenodd" d="M38.7454 150L75.8303 150L75.8303 148.34L48.155 144.465L45.1108 148.34L39.2989 148.34L39.2989 137.823L74.8303 137.823C75.3826 137.823 75.8303 137.375 75.8303 136.823L75.8303 135.502C75.8303 134.95 75.3826 134.502 74.8303 134.502L35.8709 134.502C35.3186 134.502 34.8709 134.95 34.8709 135.502L34.8709 136.823L34.8709 149C34.8709 149.552 35.3186 150 35.8709 150L38.2989 150C38.4594 150 38.611 149.962 38.7454 149.895L38.7454 150Z" fill="#2C2C2C"/>
<circle cx="87.1773" cy="10.7934" r="3.7048" transform="rotate(-180 87.1773 10.7934)" stroke="#E4DDCB" stroke-width="2"/>
<rect x="245.757" y="119.004" width="22.1402" height="11.0701" rx="5.53506" transform="rotate(-180 245.757 119.004)" fill="#42474B"/>
<circle cx="240.222" cy="113.469" r="2.21402" transform="rotate(-180 240.222 113.469)" fill="#D9D9D9"/>
<circle cx="229.151" cy="113.469" r="2.21402" transform="rotate(-180 229.151 113.469)" fill="#D9D9D9"/>
<rect x="245.757" y="104.059" width="22.1402" height="11.0701" rx="5.53506" transform="rotate(-180 245.757 104.059)" fill="#42474B"/>
<circle cx="240.222" cy="98.5241" r="2.21402" transform="rotate(-180 240.222 98.5241)" fill="#D9D9D9"/>
<circle cx="229.151" cy="98.5241" r="2.21402" transform="rotate(-180 229.151 98.5241)" fill="#D9D9D9"/>
<rect x="245.757" y="89.1145" width="22.1402" height="11.0701" rx="5.53506" transform="rotate(-180 245.757 89.1145)" fill="#42474B"/>
<circle cx="240.222" cy="83.5794" r="2.21402" transform="rotate(-180 240.222 83.5794)" fill="#D9D9D9"/>
<circle cx="229.151" cy="83.5794" r="2.21402" transform="rotate(-180 229.151 83.5794)" fill="#D9D9D9"/>
<rect x="245.757" y="74.1698" width="22.1402" height="11.0701" rx="5.53506" transform="rotate(-180 245.757 74.1698)" fill="#42474B"/>
<circle cx="240.222" cy="68.6348" r="2.21402" transform="rotate(-180 240.222 68.6348)" fill="#D9D9D9"/>
<circle cx="229.151" cy="68.6348" r="2.21402" transform="rotate(-180 229.151 68.6348)" fill="#D9D9D9"/>
<rect x="245.757" y="59.2252" width="22.1402" height="11.0701" rx="5.53506" transform="rotate(-180 245.757 59.2252)" fill="#42474B"/>
<circle cx="240.222" cy="53.6901" r="2.21402" transform="rotate(-180 240.222 53.6901)" fill="#D9D9D9"/>
<circle cx="229.151" cy="53.6901" r="2.21402" transform="rotate(-180 229.151 53.6901)" fill="#D9D9D9"/>
<rect x="245.757" y="44.2805" width="22.1402" height="11.0701" rx="5.53506" transform="rotate(-180 245.757 44.2805)" fill="#42474B"/>
<circle cx="240.222" cy="38.7454" r="2.21402" transform="rotate(-180 240.222 38.7454)" fill="#D9D9D9"/>
<circle cx="229.151" cy="38.7454" r="2.21402" transform="rotate(-180 229.151 38.7454)" fill="#D9D9D9"/>
<rect x="245.757" y="29.3359" width="22.1402" height="11.0701" rx="5.53506" transform="rotate(-180 245.757 29.3359)" fill="#42474B"/>
<circle cx="240.222" cy="23.8008" r="2.21402" transform="rotate(-180 240.222 23.8008)" fill="#D9D9D9"/>
<circle cx="229.151" cy="23.8008" r="2.21402" transform="rotate(-180 229.151 23.8008)" fill="#D9D9D9"/>
<rect x="245.757" y="133.948" width="22.1402" height="11.0701" rx="5.53506" transform="rotate(-180 245.757 133.948)" fill="#42474B"/>
<circle cx="240.222" cy="128.413" r="2.21402" transform="rotate(-180 240.222 128.413)" fill="#D9D9D9"/>
<circle cx="229.151" cy="128.413" r="2.21402" transform="rotate(-180 229.151 128.413)" fill="#D9D9D9"/>
<rect x="200.923" y="110.148" width="32.6568" height="17.7122" rx="2" transform="rotate(-180 200.923 110.148)" fill="#464A4D"/>
<rect x="198.709" y="120.664" width="4.42805" height="10.5166" rx="1" transform="rotate(-180 198.709 120.664)" fill="#D9D9D9"/>
<rect x="174.908" y="120.664" width="4.42805" height="10.5166" rx="1" transform="rotate(-180 174.908 120.664)" fill="#D9D9D9"/>
<rect x="186.531" y="120.664" width="4.42805" height="10.5166" rx="1" transform="rotate(-180 186.531 120.664)" fill="#D9D9D9"/>
<path d="M193.174 91.4355C193.174 91.9878 192.726 92.4355 192.174 92.4355L176.461 92.4355C175.909 92.4355 175.461 91.9878 175.461 91.4355L175.461 88.5609L193.174 88.5609L193.174 91.4355Z" fill="#D9D9D9"/>
<path d="M193.174 88.561L175.461 88.561L175.461 81.8119C175.461 81.2596 175.909 80.8119 176.461 80.8119L192.174 80.8119C192.726 80.8119 193.174 81.2596 193.174 81.8119L193.174 88.561Z" fill="#C5C5C5"/>
<rect x="197.048" y="142.805" width="10.5166" height="6.08856" rx="1" transform="rotate(-180 197.048 142.805)" fill="#D9D9D9"/>
<rect x="194.281" y="142.805" width="4.98155" height="6.08856" transform="rotate(-180 194.281 142.805)" fill="#E2D8B4"/>
<rect x="197.048" y="133.948" width="10.5166" height="6.08856" rx="1" transform="rotate(-180 197.048 133.948)" fill="#D9D9D9"/>
<rect x="194.281" y="133.948" width="4.98155" height="6.08856" transform="rotate(-180 194.281 133.948)" fill="#E2D8B4"/>
<rect x="198.709" y="69.1883" width="10.5166" height="6.08856" rx="1" transform="rotate(-180 198.709 69.1883)" fill="#D9D9D9"/>
<rect x="195.941" y="69.1883" width="4.98155" height="6.08856" transform="rotate(-180 195.941 69.1883)" fill="#E2D8B4"/>
<rect x="198.709" y="58.1182" width="10.5166" height="6.08856" rx="1" transform="rotate(-180 198.709 58.1182)" fill="#D9D9D9"/>
<rect x="195.941" y="58.1182" width="4.98155" height="6.08856" transform="rotate(-180 195.941 58.1182)" fill="#E2D8B4"/>
<rect x="198.155" y="47.048" width="9.4096" height="6.08856" transform="rotate(-180 198.155 47.048)" fill="#D9D9D9"/>
<rect x="196.495" y="45.941" width="6.08856" height="3.87454" transform="rotate(-180 196.495 45.941)" fill="#5E5E5E"/>
<rect x="198.155" y="35.9779" width="9.4096" height="6.08856" transform="rotate(-180 198.155 35.9779)" fill="#D9D9D9"/>
<rect x="196.495" y="34.8709" width="6.08856" height="3.87454" transform="rotate(-180 196.495 34.8709)" fill="#5E5E5E"/>
<rect x="198.155" y="24.9078" width="9.4096" height="6.08856" transform="rotate(-180 198.155 24.9078)" fill="#D9D9D9"/>
<rect x="196.495" y="23.8008" width="6.08856" height="3.87454" transform="rotate(-180 196.495 23.8008)" fill="#5E5E5E"/>
<rect x="198.155" y="13.8377" width="9.4096" height="6.08856" transform="rotate(-180 198.155 13.8377)" fill="#D9D9D9"/>
<rect x="196.495" y="12.7307" width="6.08856" height="3.87454" transform="rotate(-180 196.495 12.7307)" fill="#5E5E5E"/>
</svg>
