<svg width="144" height="191" viewBox="0 0 144 191" fill="none" xmlns="http://www.w3.org/2000/svg">
<g id="SD">
<rect id="Rectangle 573" y="46.887" width="6.2516" height="17.9734" rx="3" fill="#C0C3CA"/>
<path id="Subtract" d="M119.265 2.08529e-05L4.60401 8.04991e-07C2.06129 3.60407e-07 -3.60407e-07 2.06129 -8.04991e-07 4.60401L-8.06135e-06 46.1056L4.29797 46.1056L4.29796 87.5224L-1.53029e-05 87.5224L-3.25335e-05 186.07C-3.29781e-05 188.613 2.06126 190.674 4.60398 190.674L52.8901 190.674L54.3108 189.253L54.3108 189.111L89.8667 189.111L89.8667 189.253L91.2874 190.674L139.183 190.674C141.726 190.674 143.787 188.613 143.787 186.07L143.787 69.1584L139.88 69.1584L139.88 59.3902L143.787 59.3902L143.787 24.5221L119.265 2.08529e-05Z" fill="#5D5C61"/>
<rect id="Rectangle 574" x="12.7495" y="25.7877" width="118.288" height="147.303" rx="10" fill="#251F21"/>
<rect id="Rectangle 572" x="26.1785" y="181.687" width="91.8204" height="5.07943" rx="2.53971" fill="#46454C"/>
<rect id="Rectangle 575" x="21.2493" y="62.6853" width="101.288" height="101.997" rx="10" fill="#D9D9D9"/>
</g>
</svg>
