<svg width="191" height="144" viewBox="0 0 191 144" fill="none" xmlns="http://www.w3.org/2000/svg">
<rect x="143.787" width="6.2516" height="17.9734" rx="3" transform="rotate(90 143.787 0)" fill="#C0C3CA"/>
<path d="M190.674 119.265L190.674 4.60401C190.674 2.06129 188.613 -9.01018e-08 186.07 -2.01248e-07L144.568 -2.01534e-06L144.568 4.29797L103.151 4.29797L103.151 -3.82573e-06L4.60401 -8.13337e-06C2.06129 -8.24452e-06 7.041e-07 2.06128 5.92954e-07 4.60401L-1.5177e-06 52.8901L1.42068 54.3108L1.56289 54.3108L1.56289 89.8668L1.42068 89.8668L-3.1961e-06 91.2874L-5.28967e-06 139.183C-5.40082e-06 141.726 2.06129 143.787 4.60401 143.787L121.515 143.787L121.515 139.88L131.284 139.88L131.284 143.787L166.152 143.787L190.674 119.265Z" fill="#5D5C61"/>
<rect x="164.886" y="12.7495" width="118.288" height="147.303" rx="10" transform="rotate(90 164.886 12.7495)" fill="#251F21"/>
<rect x="8.98682" y="26.1786" width="91.8204" height="5.07943" rx="2.53971" transform="rotate(90 8.98682 26.1786)" fill="#46454C"/>
<rect x="127.989" y="21.2493" width="101.288" height="101.997" rx="10" transform="rotate(90 127.989 21.2493)" fill="#D9D9D9"/>
</svg>
