<svg width="74" height="155" viewBox="0 0 74 155" fill="none" xmlns="http://www.w3.org/2000/svg">
<path id="spinner" fill-rule="evenodd" clip-rule="evenodd" d="M27.9505 9.12582C28.2197 4.00998 32.4463 0 37.5692 0C42.6921 0 46.9188 4.00998 47.188 9.12582L50.2348 67.0154H62.9538C68.5616 67.0154 73.1077 71.5614 73.1077 77.1692C73.1077 82.777 68.5616 87.3231 62.9538 87.3231H50.2348L47.188 145.213C46.9188 150.328 42.6921 154.338 37.5692 154.338C32.4463 154.338 28.2197 150.328 27.9505 145.213L24.9037 87.3231H10.1538C4.54605 87.3231 0 82.777 0 77.1692C0 71.5614 4.54605 67.0154 10.1538 67.0154H24.9037L27.9505 9.12582ZM37.5692 7.10769C36.4477 7.10769 35.5385 8.01689 35.5385 9.13846C35.5385 10.26 36.4477 11.1692 37.5692 11.1692C38.6908 11.1692 39.6 10.26 39.6 9.13846C39.6 8.01689 38.6908 7.10769 37.5692 7.10769ZM35.5385 17.2615C35.5385 16.14 36.4477 15.2308 37.5692 15.2308C38.6908 15.2308 39.6 16.14 39.6 17.2615C39.6 18.3831 38.6908 19.2923 37.5692 19.2923C36.4477 19.2923 35.5385 18.3831 35.5385 17.2615ZM37.5692 23.3538C36.4477 23.3538 35.5385 24.263 35.5385 25.3846C35.5385 26.5062 36.4477 27.4154 37.5692 27.4154C38.6908 27.4154 39.6 26.5062 39.6 25.3846C39.6 24.263 38.6908 23.3538 37.5692 23.3538ZM35.5385 49.7538C35.5385 48.6323 36.4477 47.7231 37.5692 47.7231C38.6908 47.7231 39.6 48.6323 39.6 49.7538C39.6 50.8754 38.6908 51.7846 37.5692 51.7846C36.4477 51.7846 35.5385 50.8754 35.5385 49.7538ZM37.5692 55.8462C36.4477 55.8462 35.5385 56.7554 35.5385 57.8769C35.5385 58.9985 36.4477 59.9077 37.5692 59.9077C38.6908 59.9077 39.6 58.9985 39.6 57.8769C39.6 56.7554 38.6908 55.8462 37.5692 55.8462ZM40.6154 76.1538V78.1846H38.5846V80.2154H36.5538V78.1846H34.5231V76.1538H36.5538V74.1231H38.5846V76.1538H40.6154ZM58.8923 77.1692C58.8923 78.2908 57.9831 79.2 56.8615 79.2C55.74 79.2 54.8308 78.2908 54.8308 77.1692C54.8308 76.0477 55.74 75.1385 56.8615 75.1385C57.9831 75.1385 58.8923 76.0477 58.8923 77.1692ZM67.0154 77.1692C67.0154 78.2908 66.1062 79.2 64.9846 79.2C63.8631 79.2 62.9538 78.2908 62.9538 77.1692C62.9538 76.0477 63.8631 75.1385 64.9846 75.1385C66.1062 75.1385 67.0154 76.0477 67.0154 77.1692ZM16.2462 77.1692C16.2462 78.2908 17.1554 79.2 18.2769 79.2C19.3985 79.2 20.3077 78.2908 20.3077 77.1692C20.3077 76.0477 19.3985 75.1385 18.2769 75.1385C17.1554 75.1385 16.2462 76.0477 16.2462 77.1692ZM10.1539 79.2C9.03229 79.2 8.12308 78.2908 8.12308 77.1692C8.12308 76.0477 9.03229 75.1385 10.1539 75.1385C11.2754 75.1385 12.1846 76.0477 12.1846 77.1692C12.1846 78.2908 11.2754 79.2 10.1539 79.2ZM35.5385 41.6308C35.5385 40.5092 36.4477 39.6 37.5692 39.6C38.6908 39.6 39.6 40.5092 39.6 41.6308C39.6 42.7523 38.6908 43.6615 37.5692 43.6615C36.4477 43.6615 35.5385 42.7523 35.5385 41.6308ZM37.5692 31.4769C36.4477 31.4769 35.5385 32.3861 35.5385 33.5077C35.5385 34.6293 36.4477 35.5385 37.5692 35.5385C38.6908 35.5385 39.6 34.6293 39.6 33.5077C39.6 32.3861 38.6908 31.4769 37.5692 31.4769ZM39.6 96.4615C39.6 97.5831 38.6908 98.4923 37.5692 98.4923C36.4477 98.4923 35.5385 97.5831 35.5385 96.4615C35.5385 95.34 36.4477 94.4308 37.5692 94.4308C38.6908 94.4308 39.6 95.34 39.6 96.4615ZM37.5692 106.615C38.6908 106.615 39.6 105.706 39.6 104.585C39.6 103.463 38.6908 102.554 37.5692 102.554C36.4477 102.554 35.5385 103.463 35.5385 104.585C35.5385 105.706 36.4477 106.615 37.5692 106.615ZM39.6 128.954C39.6 130.075 38.6908 130.985 37.5692 130.985C36.4477 130.985 35.5385 130.075 35.5385 128.954C35.5385 127.832 36.4477 126.923 37.5692 126.923C38.6908 126.923 39.6 127.832 39.6 128.954ZM37.5692 139.108C38.6908 139.108 39.6 138.198 39.6 137.077C39.6 135.955 38.6908 135.046 37.5692 135.046C36.4477 135.046 35.5385 135.955 35.5385 137.077C35.5385 138.198 36.4477 139.108 37.5692 139.108ZM39.6 145.2C39.6 146.322 38.6908 147.231 37.5692 147.231C36.4477 147.231 35.5385 146.322 35.5385 145.2C35.5385 144.078 36.4477 143.169 37.5692 143.169C38.6908 143.169 39.6 144.078 39.6 145.2ZM37.5692 114.738C38.6908 114.738 39.6 113.829 39.6 112.708C39.6 111.586 38.6908 110.677 37.5692 110.677C36.4477 110.677 35.5385 111.586 35.5385 112.708C35.5385 113.829 36.4477 114.738 37.5692 114.738ZM39.6 120.831C39.6 121.952 38.6908 122.862 37.5692 122.862C36.4477 122.862 35.5385 121.952 35.5385 120.831C35.5385 119.709 36.4477 118.8 37.5692 118.8C38.6908 118.8 39.6 119.709 39.6 120.831Z" fill="#F1F9FF"/>
</svg>
