<svg width="418" height="347" viewBox="0 0 418 347" fill="none" xmlns="http://www.w3.org/2000/svg">
<path d="M149.024 221.059L157.264 212.824H175.392L183.632 221.059M74.8638 207.059L82.6918 199.235H116.476L127.6 210.353V226M68.2718 187.294L53.4398 172.471H26.2478L11.4158 187.294M4.5 139.853V127.5L24.276 107.735H35.4M68.2718 72.4118L82.6918 58H116.476L130.896 72.4118M23.7758 68.7059V44.4118L34.8998 33.2941H53.4398M74.8638 32.8824L92.9918 14.7647H130.896M149.848 14.7647L162.62 2H208.352L221.124 14.7647M277 7.35294H311.352L330.304 26.2941V44.4118H308.468H359.556L374.388 59.2353V74.8824M338.544 111.529L351.316 98.7647H397.46L410.232 111.529M369.444 132.118L380.98 143.647V174.529L369.444 186.059M300.228 207.059L310.94 196.353H348.02L361.616 209.941M397.46 156L416 174.529V213.5H391" stroke="#FFBEED" stroke-width="3"/>
<path d="M143.461 328.275L163.817 307.879H186.843L201.192 293.501V227.296C204.417 224.733 210.669 219.405 209.868 218.602C209.067 217.8 209.534 203.556 209.868 196.534L193.183 179.816H180.169L167.822 192.187H122.438L102.416 172.125H76.3877M151.804 328.275L163.817 316.238H186.843L198.856 328.275V334.963M209.868 347V316.238L224.217 303.198V179.816L237.899 166.107L171.826 99.9017H116.432L89.402 72.8178M201.192 312.56L216.876 296.845V234.652V230.305V179.816L189.512 152.398H122.438L102.416 132.335H27M209.868 234.652V291.16M209.868 184.831L193.183 168.113H155.808M180.169 96.558L203.861 120.298V72.8178L237.899 38.7122H283.949L298.632 24M193.183 96.558V72.8178L176.831 56.4337V34.0311M122.438 28.0124L138.456 44.0621H160.814M298.632 345.328L278.61 325.266H255.919L231.558 303.198V275.111L237.899 268.758V236.993L231.558 230.64V184.831H295.963L314.65 166.107M237.899 303.198V275.111L244.239 268.758V236.993L237.565 230.305V212.584H260.924L272.604 200.881M231.558 150.057V127.32H252.581L283.949 95.8892H330M260.924 152.398H272.604L283.949 141.029H272.604H298.632M290 152.398L293.003 149.388H304.683L313.033 141.029H328.5" stroke="#A7B0BB" stroke-width="3"/>
<path d="M131 228.5C131 230.433 129.433 232 127.5 232C125.567 232 124 230.433 124 228.5C124 226.567 125.567 225 127.5 225C129.433 225 131 226.567 131 228.5ZM76 209.5C76 211.433 74.433 213 72.5 213C70.567 213 69 211.433 69 209.5C69 207.567 70.567 206 72.5 206C74.433 206 76 207.567 76 209.5ZM74 189.5C74 191.433 72.433 193 70.5 193C68.567 193 67 191.433 67 189.5C67 187.567 68.567 186 70.5 186C72.433 186 74 187.567 74 189.5ZM150 223.5C150 225.433 148.433 227 146.5 227C144.567 227 143 225.433 143 223.5C143 221.567 144.567 220 146.5 220C148.433 220 150 221.567 150 223.5ZM189 223.5C189 225.433 187.433 227 185.5 227C183.567 227 182 225.433 182 223.5C182 221.567 183.567 220 185.5 220C187.433 220 189 221.567 189 223.5ZM42 107.5C42 109.433 40.433 111 38.5 111C36.567 111 35 109.433 35 107.5C35 105.567 36.567 104 38.5 104C40.433 104 42 105.567 42 107.5ZM69 75.5C69 77.433 67.433 79 65.5 79C63.567 79 62 77.433 62 75.5C62 73.567 63.567 72 65.5 72C67.433 72 69 73.567 69 75.5ZM61 33.5C61 35.433 59.433 37 57.5 37C55.567 37 54 35.433 54 33.5C54 31.567 55.567 30 57.5 30C59.433 30 61 31.567 61 33.5ZM76 35.5C76 37.433 74.433 39 72.5 39C70.567 39 69 37.433 69 35.5C69 33.567 70.567 32 72.5 32C74.433 32 76 33.567 76 35.5ZM138 14.5C138 16.433 136.433 18 134.5 18C132.567 18 131 16.433 131 14.5C131 12.567 132.567 11 134.5 11C136.433 11 138 12.567 138 14.5ZM151 17.5C151 19.433 149.433 21 147.5 21C145.567 21 144 19.433 144 17.5C144 15.567 145.567 14 147.5 14C149.433 14 151 15.567 151 17.5ZM227 17.5C227 19.433 225.433 21 223.5 21C221.567 21 220 19.433 220 17.5C220 15.567 221.567 14 223.5 14C225.433 14 227 15.567 227 17.5ZM309 44.5C309 46.433 307.433 48 305.5 48C303.567 48 302 46.433 302 44.5C302 42.567 303.567 41 305.5 41C307.433 41 309 42.567 309 44.5ZM378 77.5C378 79.433 376.433 81 374.5 81C372.567 81 371 79.433 371 77.5C371 75.567 372.567 74 374.5 74C376.433 74 378 75.567 378 77.5ZM371 129.5C371 131.433 369.433 133 367.5 133C365.567 133 364 131.433 364 129.5C364 127.567 365.567 126 367.5 126C369.433 126 371 127.567 371 129.5ZM399 153.5C399 155.433 397.433 157 395.5 157C393.567 157 392 155.433 392 153.5C392 151.567 393.567 150 395.5 150C397.433 150 399 151.567 399 153.5ZM371 187.5C371 189.433 369.433 191 367.5 191C365.567 191 364 189.433 364 187.5C364 185.567 365.567 184 367.5 184C369.433 184 371 185.567 371 187.5ZM367 212.5C367 214.433 365.433 216 363.5 216C361.567 216 360 214.433 360 212.5C360 210.567 361.567 209 363.5 209C365.433 209 367 210.567 367 212.5ZM302 209.5C302 211.433 300.433 213 298.5 213C296.567 213 295 211.433 295 209.5C295 207.567 296.567 206 298.5 206C300.433 206 302 207.567 302 209.5ZM392 213.5C392 215.433 390.433 217 388.5 217C386.567 217 385 215.433 385 213.5C385 211.567 386.567 210 388.5 210C390.433 210 392 211.567 392 213.5ZM339 114.5C339 116.433 337.433 118 335.5 118C333.567 118 332 116.433 332 114.5C332 112.567 333.567 111 335.5 111C337.433 111 339 112.567 339 114.5ZM137 75.5C137 77.433 135.433 79 133.5 79C131.567 79 130 77.433 130 75.5C130 73.567 131.567 72 133.5 72C135.433 72 137 73.567 137 75.5ZM8 143.5C8 145.433 6.433 147 4.5 147C2.567 147 1 145.433 1 143.5C1 141.567 2.567 140 4.5 140C6.433 140 8 141.567 8 143.5Z" stroke="#676767" stroke-width="2"/>
</svg>
