<svg width="14" height="14" viewBox="0 0 14 14" fill="none" xmlns="http://www.w3.org/2000/svg">
<path id="Union" fill-rule="evenodd" clip-rule="evenodd" d="M8.03892 1.0066C8.0425 0.454331 7.5977 0.00372317 7.04542 0.000143525C6.49315 -0.00343612 6.04254 0.441368 6.03896 0.993641L6.00651 6H1C0.447715 6 0 6.44772 0 7C0 7.55229 0.447715 8 1 8H5.99355L5.96118 12.9934C5.9576 13.5457 6.40241 13.9963 6.95468 13.9998C7.50695 14.0034 7.95756 13.5586 7.96114 13.0064L7.99359 8H13C13.5523 8 14 7.55229 14 7C14 6.44772 13.5523 6 13 6H8.00655L8.03892 1.0066Z" fill="#7A7A7A"/>
</svg>
